<svg
    width="924"
    height="924"
    viewBox="0 0 924 924"
    fill="none"
    xmlns="http://www.w3.org/2000/svg"
    xmlns:xlink="http://www.w3.org/1999/xlink">
    <style>
        @import url('https://fonts.googleapis.com/css2?family=Inter:wght@900');
        text {
          fill: #F0EEE2;
          font-family: 'Inter', sans-serif;
          font-weight: 900;
        }
        .branding {
          font-size: 20px;
          letter-spacing: 0em;
        }
        .artist-name {
          font-size: 28px;
        }
        .big-text {
          font-size: 32px;
          line-height: 38px;
          letter-spacing: 0.7em;
        }
        .drawing {
          fill: #F0EEE2;
        }
        .backgrond {
         fill: #4C6C52;
        }
    </style>
  <g id="g138">
    <g id="g114">
      <path class="background" fill="#4C6C52" id="rect100" d="M0 0h924v924H0z"/>
      <text class="branding" x="750" y="897" id="text102">LISTENBRAINZ</text>
      <text class="branding" x="26" y="43" id="text104">{{user_name}}</text>
      <text text-anchor="middle" x="461" y="143" id="text106" class="big-text" style="white-space:pre;inline-size:557.579;display:inline" xml:space="preserve"><tspan x="461" y="143" id="tspan1472">MY YEAR
</tspan><tspan x="461" y="181" id="tspan1474">IN MUSIC</tspan></text>
      <text text-anchor="middle" x="461" y="143" id="text106-5" class="big-text" style="font-weight:900;font-size:32px;line-height:38px;font-family:Inter, sans-serif;letter-spacing:0.5em;white-space:pre;inline-size:589.014;display:inline;fill:#f0eee2" xml:space="preserve" transform="translate(0 619)"><tspan x="461" y="143" id="tspan1476">TOP ARTISTS</tspan></text>
      <text class="branding" text-anchor="middle" x="50%" y="897" id="text108">{{total_artists_count}} ARTISTS</text>
      <text class="branding" font-style="italic" x="26" y="897" id="text110">#YEARINMUSIC</text>
      <text class="branding" x="844" y="43" id="text112">2023</text>
      <text xml:space="preserve" style="fill:#000000" x="843.5" y="901.1" id="text1107"><tspan id="tspan1105" x="843.5" y="901.1">    </tspan></text>
    </g>
    <g id="g136" transform="translate(126 104)">
      <text class="artist-name" y="155" x="-20" id="text116">1</text>
      <text class="artist-name" y="155" x="0" id="text514">{{ artists[0].artist_name|upper|e }}</text>
      <text class="artist-name" y="200" x="-20" id="text118">2</text>
      <text class="artist-name" y="200" x="0" id="text517">{{ artists[1].artist_name|upper|e }}</text>
      <text class="artist-name" y="245" x="-20" id="text120">3</text>
      <text class="artist-name" y="245" x="0" id="text520">{{ artists[2].artist_name|upper|e }}</text>
      <text class="artist-name" y="290" x="-20" id="text122">4</text>
      <text class="artist-name" y="290" x="0" id="text523">{{ artists[3].artist_name|upper|e }}</text>
      <text class="artist-name" y="335" x="-20" id="text124">5</text>
      <text class="artist-name" y="335" x="0" id="text526">{{ artists[4].artist_name|upper|e }}</text>
      <text class="artist-name" y="380" x="-20" id="text126">6</text>
      <text class="artist-name" y="380" x="0" id="text529">{{ artists[5].artist_name|upper|e }}</text>
      <text class="artist-name" y="425" x="-20" id="text128">7</text>
      <text class="artist-name" y="425" x="0" id="text532">{{ artists[6].artist_name|upper|e }}</text>
      <text class="artist-name" y="470" x="-20" id="text130">8</text>
      <text class="artist-name" y="470" x="0" id="text535">{{ artists[7].artist_name|upper|e }}</text>
      <text class="artist-name" y="515" x="-20" id="text132">9</text>
      <text class="artist-name" y="515" x="0" id="text538">{{ artists[8].artist_name|upper|e }}</text>
      <text class="artist-name" y="560" x="-20" id="text134">X</text>
      <text class="artist-name" y="560" x="0" id="text541">{{ artists[9].artist_name|upper|e }}</text>
    </g>
    <g id="dog" transform="scale(.33333) rotate(-19 5532 -5676)" fill="#F0EEE2" class="drawing">
      <path d="M660 853c-3 3-6 5-8 9-2 3-5 0-8 0-3-1-3-8-7-8l-1 1c2 7-13-7-15-6-32-27-51-65-66-102-9-22-16-46-16-70 0-7 5-14-5-16-2-2-3-3-5-3-9-5-14-14-21-20-1-3-5-2-1-5-3 0-10-14-9-16-2-1-2-4-3-5-3-5-6-8-7-13-2-7-7-13-6-21 0-8-26-12-21-20-4-2-6 0-7-5 0-2-1-1-2-1l-1-2c0-2-4-4-3-7l-1-1c-6-8-8-17-12-27-1-1-2-2 0-3-4-9-2-19-6-27v-2c2-2 0-4 0-5 0-3 1-6-1-9l-1-35c0-3 1-7-1-11-1-1 1-2 1-3-1-4 0-7 1-10-2-7 0-14 1-22 0-5-7 1-10-1-2 0-4 2-7 1-4 0-9 2-14 1-8 1 0 18-1 23l1 5c1 2-2 3 0 5-1 6 5 15 1 21l1-1c2 1 2 2 2 4 0 19 3 37 3 56v2c4 3 3 9 3 13 2 16 2 32 5 48-1 6 3 13 0 19 2 1 2 2 2 4 3 8 1 18 2 26a679 679 0 0 1 8 65c3 2 2 5 2 7 0 4 2 7 1 11 1 2 4 3 1 6v1c2 5 1 9 1 14-1 2 2 3 2 6 0 5 3 11 2 17 3 4 3 7 1 11 0 3 2 4 1 6 4 6 0 13 4 18v3l1 5v4l2 5v7c3 2 2 4 2 7 1 12 3 24 7 34-1 2 1 4 1 6-4 6 4 11 2 17-1 2 0 3 1 4 1 2-2 3 0 4 2 2 2 5 3 8 2 1-1 3 0 4a344 344 0 0 0 15 45c-2 9 12 23 9 31-5 5-1 7-10 7-3 0-4-1-5-2-2-1-1-3 0-5-2-1-2 2-4 2l1-3c1-4-2 1-4-4-2-13-8-26-10-38 0-5-4-8-4-13v-2c-3-2-2-6-3-8 0-2 0-3 2-3s1-4-1-2c-3 1-5-9-5-11 1-2-2-4 0-6 1-1-5-3-4-8l-2-17-1-3c-2-3-2-7 2-8-7-3-2-11-5-16-3-4 4-4 2-8-2 0-5 2-5-2 1-3-1-5-1-8 1-2-3-2-2-4 0-7 0-15-2-22-2-1-2-4-2-6 1-5-1-10-2-14 0-2 2-4 0-5-2-2 0-4-1-6-1-5-4-11-4-16v-5l-2-17v-9c-3-2-2-5-2-8v-4c0-3-3-2-2-6-1-8 0-17-4-25 1-3-1-7 2-10l-1-2c-3-4-1-10-3-15l-3-27-3-25v-4l-1-15c0-2 1-4-1-5-2-7-2-14-2-21-3-28-5-57-9-85-2-13-3-57-11-63l-11-7c-3 0-1-3-4-3l-4-2c-7-9-21-25-16-36-6-2-3-11-6-17-1-15-3-33 5-47 2-4 4-12 7-15 2-2 2-5 5-6l1-1c0-3 3-4 3-6 1-3 5-4 6-7 4-5 7-12 13-15l1-1c0-2 5-5 7-6l4-7c-2-1-1-3-2-5-2-2-2-4-2-6s-2-4 0-6c-2-5-6-6-5-12s-2-11-4-16c1-2-2-2-2-4-2-2-1-6-5-7l-4-6 2-2c1-2-1-1-2 1-3 0-1-4-4-3-16-17-44-20-65-14-4 0-7 2-10 4-15 6-26 18-35 32-8 14-14 30-18 46 0 3 2 7-1 9l-1 3c0 2 1 4-1 6l-2 9c-7 10-9-4-16 13-7 40 11 14 14 32 1 7-6 22-15 17-6 0-8-8-11-11-3-2-2-6-3-8-7-14-4-28 2-42l3-6c4-5 6-13 13-16l4-19c1-4 3-8 3-13-3-11-27 1-31 6-19 18-31 43-34 68-3 27-1 58 33 60 3 2 4-4 6 0h2c0-1-1-3 1-3 6-5 8 1 11-3 1-1 3-7 5-5 2 1-1 5-3 6 7 7 13 3 12 16 0 2-2 4-4 5-4 3-3 8-6 12-16 27-28 58-46 85-16 34-35 67-48 102-1 5-11 15-8 18-3 10-11 19-15 28 2 2-6 14-8 17-1 1-1 5-3 6l-1 1c-3 12-6 25-12 36-1 2 0 8-3 9 0 3-1 6-3 8-5 17-18 41 9 16 4-4 7-1 12-7 0-4 3-5 5-7 7-6 10-13 16-19 20-22 39-45 57-69 0-4 6-2 6-7-1-1 0-3 1-3 3-2 3-6 6-8l32-45c3-4 4-9 7-12 7-6 8-16 16-21 3-1 2-6 3-8 6-5 7-14 13-17 0-4 4-5 4-8l5-8c6-10 12-21 20-29h1c-3-5 7-10 8-16l7-11c0-4 3-7 6-10l1-3 8-11c8-5 14-33 25-17 0 2 0 3 2 4s3 2 1 4c-2 1 1 1 0 3l-13 21c-9 15-2 33-4 50l1 5c-2 4 1 9 0 13-2 14 2 28 1 42l-1 23 2 19c1 5-1 10 1 15-1 8 2 14 1 22l1 6c1 3-2 6-1 9v3c4 3 1 8 3 11 1 4-2 5 1 9 2 11 4 25 2 36 0 9 8 20 2 28 2 3 4 2 3 7 1 5 3 11 2 16l1 5c2 0 1 2 1 3 0 5 2 10 1 14 3 14 2 28 4 41-1 3 2 5 2 8-2 2-1 3 1 5v1l-1 4c-1 3 3 6 2 10-1 11 3 22 4 33 0 6 4 10 3 16-2 5 5 10 1 15-2 2 2 3 1 6 0 3 4 5 3 8-1 9 3 18 3 28v3l1 3 1 2c-1 14 5 27 6 40-1 15 5 28 7 42 0 8 3 16 5 23-2 5-6 10-11 10-4 0-7-5-10-7-1-1-2-2 0-4l-1-1c-1-3 2-4 2-7h-2l-1 2c-1-9-6-19-3-28 0-2 0-3-2-3l-1-2c0-5-4-10-1-15v-2c-3-1-1-5-3-7l-1-8-5-33c-3-10-2-21-4-31-4-15-3-31-6-47-3-12-4-25-4-37 0-1 1-3-1-3l-1-2c2-3-1-6 0-10l-2-3c3-17-2-31-2-47 0-3-2-5 0-8-3-7-4-16-5-24v-7c-2-8-1-16-3-25-4-25-5-51-8-75l-1-3c3-9-2-18-1-28 0-19 0-37-2-56 4-6 0-6 1-11 2-4-1-8 0-11-2-2 1-5-1-8v-7c0-2 2-4-1-5v-2c4-11-2-22 1-33v-3c-8 5-9 16-16 23l-22 32-11 18-2 3c-2 3-3 6-6 8l-2 5-1 1c-4 2-3 8-7 9l-2 2c0 3-2 5-3 7-2 2-8 9-8 12-4 3-6 9-10 13l-1 3c-3 2-3 7-7 8-2 1 0 3-2 4l-3 3c-6 11-15 22-23 31-6 13-17 23-25 35l-5 7c-7 4-7 12-14 17-4 3-6 6-8 10-2 1-3 2-3 4s-2 3-4 4c-4 4-8 7-10 12-1 3-5 5-7 8-7 5-11 12-18 18-1 2-5 0-5 3 0 8 7 10 2 17 1 5-3 7-4 10l-1 1c-2 0-3 1-3 3l-9 8c-2 4-9 5-11 9-3 1-4 4-7 4l-15 3c-2 1-4-1-6-1s-4 0-5-2l-3-2c0-2-6-1-3-4 2-1 0-1 0-1-1-1-2 1-2-2-4-4-5-7-5-13 0-2 3-3 2-5-1-7 5-13 7-20 0-1 3 0 3-2 4-8 16-9 16-18 0-4 3-8 2-12l1-4c2-2 1-6 3-8 3-4 2-8 4-12-1-2 2-4 2-6 2-7 6-13 7-20 3 0 2-4 3-6 1-7 5-12 7-19 4-6 4-16 10-22-1-5 4-9 6-13 3-7 6-14 10-19 5-17 16-31 20-48 4-6 4-13 9-18l6-13 48-90c1-4 4 0 3-5 5-8 9-19 15-27 2-1 1-3-1-3-3 1-6-2-9-2-6-2-13 0-17-6l-5-2c-4-1-5-6-10-8l1-2h-1c-3 2-5-6-7-8-3-2-1-6-4-8 1-2 3-1 3-3 0-1-3 0-3-2-3-2 4-4-1-6-3-3-1-9-3-13v-2c2-4-1-8 0-12v-10c5-32 18-68 47-88l5-2c5-5 17-1 19-8l-1-7v-18l7-28c3-8 5-19 13-24 3-1 2-6 4-8 2-1 0-4 2-5s2-2 1-4c0-3 3-6 5-8 10-13 22-27 36-32l5-5c2 1 3-2 4-2 2 0 3-2 4-3l14-7c3 0 5-1 8-3 11 0 24-5 33 1 2 1 3-2 5 0l4 1c5-1 9 4 14 4 4 1 7 5 11 4 8 3 14 8 22 9 3 1 5 5 8 7 7 8 18 8 25 15 3 2 9 2 11 5 6 3 11 9 17 13 4 3-2 4 1 6 8 2 16 17 19 25l2 4c-3 2 0 4 1 6 8 24 10 49 12 74l2 12c-1 2-2 4-1 6 1 1-2 1-3 1v2c3 0 3 2 4 4 5 16-5 16-17 19 4 3 5 7 7 10 8 8 7 21 12 30 4 16 3 32 1 48-4 7-5 16-9 23-1 1-2 2-1 3 0 3-3 5-3 8l-10 12-5 5c-3 3-5 7-9 8l-1 2c-2 4-9 3-9 8 1 3-2 5-1 7l-1 3c-5 7-3 18-4 27 1 9 4 3 2 14-1 4 3 13-1 15v15c2 5 0 11 4 16v2c0 10 3 20 5 30 0 3 0 6 2 9 1 5 5 10 7 16l6 9 2 2c1 4 6 6 9 9 2 1 2 4 5 3 1-5 1-10 5-14 2-3 1-8 5-10 10-10 19-12 32-4 9 5 19 19 11 29-2 2-2 6-6 8-4 4-7 7-13 9-4 4-19 0-15 10 5 14 9 28 19 39 2 2 1 5 3 6 1 1 3 2 3 4l1 2c9 1 13 13 23 12 2 0 5 1 5-2 1-2 3-3 3-5 4-1 7-5 11-4h2l2-1c7 2 20 6 12 16-2 2 0 5-5 5-2 5-4-1-6 0-1 2 2 3 0 4l-12 9c-3 11-3 23-3 34-1 5 5 8 4 12-1 3 2 4 2 6 5 16 12 30 18 45 1 6 6 9 7 15 0 2 1 1 2 3l2 7c2 2 4 3 5 6 1 2 4 3 4 6 3 5 9 9 11 15 2 1 4 0 4 3l3 4 10 7c5 4 10 9 16 10s14 6 15 11zM168 560c2 0 0-1 0 0-1 0 0 2 0 0zm257-360c-4-1 0-3-1-5v-2c-2-3-1-7 0-9-2-2-1-4-1-6s-2-4 0-6l-1-6c-2-11-5-23-4-34 3-4-2-2-2-4-1-11-5-21-6-32-3-4-5-10-5-15s-5-10-5-15c-1-3-4-5-4-8l-2-2-9-2c-2 2-3 0-5 0-6-2-13-2-20-2-24-5-51 2-74 11l-24 17c-2 4-6 6-9 9-4 2-4 7-8 9l-2 2c-2 5-7 9-8 15l-4 8c-3 1-3 4-4 6l-1 5c-4 4-1 8-3 12s-8 9-5 13c1 1 2 3 4 2s5-1 4-4l7-13c21-29 54-43 90-38 20 2 39 15 53 30 2 2 4 3 4 6l5 8c2 3 3 6 3 10 2 0 2 2 2 3-1 3 2 4 2 6 1 5 4 10 2 15 3 4-2 3-2 6 1 1 5-1 5 2 4 12-5 15 14 13 5-2 14 3 14-5 3 0 1-2 0 0zm48 84c-2-19-3-44-22-55-3-3-6 0-10-2-5-3-10 2-16-1-6-9-8-5-18-5-1-1-9 5-9 6 1 4-3 5-4 7-4 5-14-1-17 5l-13 14c-4 5-9 11-10 17 1 2-2 3-2 5-7 17-6 36-2 53 0 2 3 3 2 5 0 6 3 12 8 16 1 3 13 17 15 11 0-3 7-12 10-7 2 2 5 5 3 8-1 1 0 3 1 4l2 2c3 4 11 0 15 1 8 0 15-4 23-6 2-2 4 1 5-2s6-4 6-7c5-1 5-7 10-7 0-4 5-5 6-8 2-6 6-11 9-16 1-2 0-4 2-5v-4c3-1 2-3 2-5 3-8 4-16 4-24zm-9-126c-3-12-2-25-7-37l-1-3c0-7-6-12-6-18-3-7-8-15-13-21-5-3-9-10-14-10v2c2 2 0 5 1 7l4 8c3 12 4 26 9 37 3 23 6 46 7 69 1 6 3 5-3 7 1 2 3-1 3 5l9 4c4 2 8 2 12 6 0 0 3 0 2-2l-1-27c1-5-1-4-2-8zM274 43c4 2 6-4 10-4 13-5 26-7 40-10 4 0 9-2 13 0 2-3 5 0 7-1 8-2 15 2 22 1-16-9-37-4-55-5-9 0-16 7-24 10-4 4-10 4-13 9zm222 518c8 1 15-1 20-8 4-4 2-12-4-9-5 0-7-5-10 1-2 6-7 9-6 16zm27-28c0-2-3-3-4 0 0 2 3 3 4 0zm-67 1c1-1-1-3-3-2 0 2 3 6 3 2zM150 319l2-1c-2-3-7 1-2 1zm370 245c0 1-1 4 1 4 2-1 1-3-1-4zm-68-40c0-2-3-3-3-1s3 3 3 1zM25 728c2-1 1-3 0-3s-2 3 0 3zm175-439 1-6h-1zm-78 180c1 0 3 1 4-1-1-1-2-2-4 1zM15 745c0 1-2 3 0 3zm98-252v3c2 0 1-2 0-3zm305 130c-1-1-2-3-2-1s1 2 2 1zM116 490h-2zm205 117v-1c-3 1-1 3 0 1zm120-405v-1c-2 1 0 3 0 1zm47 1v1zm-7 44h-1zm-328-19h-1l1 1zm230-21v1zm-60 417v-1l-1 1zm237 16h-1zm-504 8v1zM288 60v-1l-1 1zm137 667h-1l1 1zM305 49h-1l1 1zm160 310h-1l1 1z" id="path1012"/>
      <path d="M331 206c2 7-5 14-13 12-1-1 1-3-1-3-4 2-9 0-9-5v-2c-3-6 7-15 11-13 4 0 6 3 9 5 3 1 3 3 3 6zm-57 13c1 3-1 5-5 7-3 5-10 4-14 0-5-2-2-7-4-11 0-6 10-12 15-7 4 3 9 5 8 11z" id="path1014"/>
    </g>
    <path d="M244 149h-6l-1-1c-1 0-3-3-4-2l-2 1-1 1-2 1-1 1h-2l-1 1h1l2 3 2 4 1 1h-1l-1 2-3-1v-1c-2-1-1-3-2-3l-1-4h1l-1-1-3 2-7 1-1 5 1 1c1 1-1 2-2 2h-1c0-1-2-1-2-3-1-4 2-5-4-5h-1l-1-1h-3l-1-1-1 5-1 2h-3v-1c-1-1 1-3 1-4 0-2 1-2-1-3l-7-3-6-5-1-2v-2l3-1 6-5 3-1 1-1-1-1-2-3c0-1 1-2 3-2l2 1 1 2 2 1h3l2-1v-1h1-1v-1l-2-5c0-2 3-2 4-1l1 2v1h1l1 3 2-1 9-1c0-3-1-6 1-9 0 0 0 1 0 0h1l1 1 1 1-1 2 1 5h4l5 2h1v1c1 1 1-1 1-2l1-3 1-1 1-1v-2l3 1v3l-1 1-1 2-1 1v1l-2 1h1l2 3 2 6-1 4-1 2 2 1-1 1h2l5 4zm-16-13 1-1-1 1-1 1 1-1zm-17 14 4-1 2-1-2-1v-1l-2-1c-2-2-3-5-3-8v-3l1-5-6 1-3 1-2 1-8 3-4 3-1 1c-1 1-4 2-3 4l5 2 4 2c2 1 4 0 7 2h2l2 1h7zm10-22c-2 0-4-1-4 1l-1 1-1 1-1 1v2l1 5 2 4h1l5-7v-1c1-1 3-2 3-4 0-1 2-2 0-2l-2 2-2 3h-1l-2 3-1 1c0 1-1 2-2 1 0 0-2-1-1-2l3-4c0-2 2-3 3-5zm1 19h1v-1l-1-2c0-1 7-9 3-5l-1 1-2 3-2 2 2 2zm7-3 3-3h-1l-2 3zm1-11h1c0-2-1-1-1 0zm3 4v-1c0-1 0 0 0 0v1zm0 8h-1zm-42-18h1zm-3 10zm36 2zm-130 4 2-2 1-1 2-1 1-1 3-2 1-1h1l4-2-1-1-2-3-1-2v-1c3-3 6 3 6 5s1 1 2 0l4-2-2-2-1-2v-1l2-1 2 1 3 4c2 1 4-1 6-1l2-1c1-1-2-2-2-4l2-2v1h2l1 1v1c0 1 2 3 3 2h6l1-1c4 1 3-2 3-5h3c3 0-1 6 1 7s5 3 5 5l1 1v1l1 2v3l-1 2-2 7 2 2c2 1 6 3 2 5l-2-1-1-1h-2l-2-3-9 4v2h1l1 2 1 2-3 1-1-1-1-1v-1l-1-1v-2l-2-1-6 1-1 1v4c-1 2-2 1-4 0v-5l-4-1h-5l-1 1-1 1c1 1 0 4-2 3l-1-1v-1l-1-5v-1h-1l-2-1-9-2-1-1h-1l-2-2zm46 4-3-2-1-1-1-1v-2c0-2-2-5 0-6-1-3 3-6 2-6h-3l-3 1-2 1h-3l-3 1-4 1-2 1c-5 3-11 4-16 8l6 2h2l1 1h1l1 1h1l2 1 2 1h5l2 1 3 1h2l1-1h5l2-1h1l2-1zm2-12-1 2-2 2c-2 1 1 3 1 4h1l1 2 1 1s-1-2 1-3v-1l1-1v-1l1-1 1-1 1-3 1-1v-2h-1l-1 2-2 4-1 2-1 2c0 1-3 1-3-1v-2l2-4zm5 9c1 0 4-3 3-4l-3 3zm-20-16h1-1zm7-1h1-1zm-33 12h-1 1zm-5 3v-1 1zm13-7zm-12 7v-1zm65 47-2-1h-1l-1-1h-1l-3-2c-1-2-4-5-1-6l3 1 4 4c5 2 11 1 14-3 2-2 2-5 4-6l3 1v1s1 0 0 0v2l-2 2-2 4-1 1c-1 1-1 2-3 1l-4 1-2 1zm17-9h1-1zm-3-1h-1 1zm21-22v-1z" id="peep" class="drawing" style="stroke-width:0.222177"/>
  </g>
  <path d="M665-211c-2 1-3 3-6 2-5 0-11 4-16 0l-4-3c-1-2-3-1-4-2-5-2-15-13-19-12-2 3-7 3-8 6l-4 4c-5 1-7 7-12 6l-5 2c-3-1-4 3-7 3-2-1-5 2-4 4l2 1c4-1 10 5 9 10 3 7 9 13 12 20l2 3-2 2c-3 4-2 4-6 6-6 3-7-2-11-4 0-3-3-1-3-4v-1c-6-3-5-10-8-10l-1-2c-1-5-5-13-2-18 1 0 2 0 1-1l-2-1c-4 4-8 4-13 5-11 3-22 6-33 7-5 1-2 16-3 20l1 2c2 1 2 4 3 6 2 4-4 9-8 9-2 0-4 1-5-3-3-2-9-5-8-10-5-19 5-25-20-24l-6-1c-2-2-4 0-5-2l-6-2c-2 0-4-2-6-1l-1-1c-1-1-1-2-2-1-4 6-4 16-6 23 0 3 0 5-3 6-1 0-3 0-5 2s-7 1-8-2c-1-1-1-3-3-3-2-6 4-13 4-20 3-9 7-9-4-13-10-5-20-7-29-14-10-5-21-11-28-21-1-2-5-3-5-7 0-2-4-4-1-6l2-3c9-5 13-1 15-6 4-10 18-13 25-21 5-2 9-6 14-6 2 0 2-4 4-4v-2c-2-1-2-4-5-5-2-3-4-7-8-10-1-8 4-10 11-9 4-1 5 3 9 3 0 4 5 6 7 9 0 2 7 7 8 5 1-1 4 1 4-1 1-3 2-1 4-1 1-1 2-2 4-1 3-3 6-3 10-4 1-1 2-3 3-2h1c0-1 1-3-1-3l-1-2c-3-8-8-14-11-21-1-10 13-13 19-6l4 9c1 1-1 2 1 3 2 0 1 2 2 3 3 3 1 11 6 10 4 0 5-2 8-3 13-2 26-5 40-4 0-14-2-27 5-39 2-1 3 2 3 0h2c1 2 5 0 6 4 2 0 0 4 3 4v1c-2 2 1 5-2 6 3 7 0 16 3 23 6-1 12 3 19 2 8 1 15 3 23 6l4 2c2 0 1 2 1 3 4 5 4-4 2-6-1-6 2-10 5-15l3-3c0-2 0-3 2-4l2-3c0-3 4-4 3-7 4-1 8-1 12 1 5 1 2 4 2 8v2c-3 0-2 3-3 4l-1 4c-4 3-5 6-8 10l-3 4-2 4-7 5-1 2c3 2 3-4 6 0 3 5 8 7 9 13 5 8 9 18 9 27-1 7-4 13-7 20-2 3-5 6-1 8 2 3 7 2 6 5l-1 1c1-2 4-1 5 0 9 6 22 9 24 20zm-73-60 4-4c-3 0-4 1-4 5-1 1-2 1-2 3 3 1 2-2 2-4zm-74 64c5-3 11-2 16-4 3-3 7-3 10-4 3-2-5-2-7-6-1-1-1-3-4-2-3-2-3-8-7-8-7-9-12-21-15-32-2-6-1-11 1-16 2-8 2-16 5-24-9 0-18 5-27 8-3 4-9 2-13 5l-8 2-37 16-17 11c-2 1-2 4-5 3-4 6-18 10-13 18 7 6 16 7 23 12 7 2 9 4 15 7 9 7 21 3 31 9 3 2 7 2 11 2 3 3 7 2 10 3h11c3-1 6 2 9 0l2 1c3 1 5-4 9-1zm44-99c-7 0-16-2-19 6l-3 2c-3 0-3 3-5 5-1 2-4 3-3 6-1 3-4 5-3 9 0 8 0 17 4 24 1 5 8 10 11 15l3-1c4-11 14-20 22-28v-1c0-3 3-2 4-5 3-6 11-11 12-18 1-3 7-9 1-10-1 0-2 0-3 2s-5 3-6 6l-2 2c-6 0-6 9-10 12-2 0-2 2-3 3-4 3-6 9-9 13l-1 1-2 4c-3 2-4 7-9 5-3-2-9-6-8-10 4-7 8-14 14-19 3-8 11-14 15-23zm3 86c3 1 4-2 7-2v-4c-2-2-6-3-4-8 0-5 31-40 11-24 1 3-2 4-3 5l-10 13-1 2c0 4-4 6-6 9v2c3 1 2 8 6 7zm32-14c6-3 8-9 13-12v-2c-1-2-4 1-5 2-1 6-9 6-8 12zm4-48 4-1c1-2 3 0 4-2 0-9-6-1-8 3zm13 16c3 0 4 0 4-2 0-4-2-1-4-1s-1 4 0 3zm0 38h-1zm-185-82v1l1-2zm-16 46v1zm164 6h-1l1 1zm-588 21c5-3 7-9 12-12 2-1 4-1 4-3 2-2 7-2 8-5 1-2 2 0 3-2 4-5 11-5 15-9 2-1 4-4 6-4s3-3 5-2c6-3 11-7 18-9-4-2-7-1-8-5l-8-14c-2-4-5-4-4-9 1-2-2-2-1-3 16-12 28 11 30 24 0 5 4 1 6 0 4-2 21-5 18-10l-6-8c0-5-6-7-6-12 0-3-2-1 0-5 4 2 3-4 7-3 3 0 8 0 11 4 2 7 8 12 12 18 8 4 19-5 27-5 3-1 7-1 10-3 4-5-7-11-7-19-1-3 4-8 7-7l2 1c4 0 6 3 9 4l1 3c0 3 3 4 3 6-1 4 9 12 10 6 3-1 7 1 9-1h2c4 3 7-1 11 0 2 0 4-1 6 1h1c1-2 3-2 5-2 18 3 12-11 14-23 3-3 8-6 12-3 16 3-2 27 6 33 8 3 21 16 22 24l2 2c2 1 0 5 3 6 0 4 3 6 2 10l1 6c2 2-1 5-1 8 3 3-1 4-1 7 0 11-5 21-9 30-5 3 4 6 6 10 10 4 27 14 10 23-4 2-5-4-9-4-2 0-3-1-5-3-1-2-5-1-7-2-4-4-8-7-10-11l-1-1c-13 7-24 12-38 16-7 0 3 4 0 8 0 1-1 1 1 1 0 5 3 7 6 11l2 1c2 2 2 3 1 5-1 5-6 6-10 6l-7-4c-1-1-1-4-3-4 0-3-3-4-3-5-1-2-1-4-3-5v-9c0-5-7 2-10-2-8 3-18 3-26 4-1 1-4 1-3 3-6 5 3 15-1 19-4 10-9 4-16-1-1 0-2-1-2-3v-3c0-5 2-11 1-17l-17-2c-1 0-3 1-5-1-2-1-7 2-9-1l-2-1h-5c-2 0-3-4-5 0l-1 5c-2 0-5 0-5 3 1 6 0 18-9 15-1-3-5-3-5-6 0-1-2-1-2-3-2-7 1-17-2-23-1-1-3 0-3-3-2 1-3-1-4-1-4 1-5-4-9-3-12-4-25-9-38-11-2 0-3-3-6-2l-3-3c-2-5-7-5-12-6zm208 19c-5-3-10-5-14-10-2-2-2-6-5-7l-1-1c-1-3 0-7-4-9v-2c1-7-5-24 0-28-2-11 17-28 9-27-2 2-5 1-7 1s-4 2-6 1l-14 4c-1 2-4 1-6 3h-6c-2 0-5 2-7 1l-3 1c-3 3-9 3-13 5-6 2-12 4-19 4-1 4-6 2-8 4-22 13-48 19-69 36 7 5 16 8 25 8 2 0 3 3 7 2 2 0 3 3 6 3l4 2c2 2 4 1 5 3l4 1c4 0 7 4 10 4 4 0 7-1 10 2 10-1 15 6 18 3h3l11 3c3 2 7 0 10 3h11c0-4 2 0 4-1 4 2 2-1 5-1 2 1 4 0 6-1 1-2 3 1 4-1 3 2 7 2 10 1 1-2 4-1 5-4 1-2 5 0 7-1 2-2 4-2 8-2zm8-54c-1 2-4 3-4 5-2 4-4 10-8 13-8 4 5 11 5 16 1 2 3 1 5 2 3 1 2 4 4 6 2 1 0 5 2 6 3-2-1-10 5-12l1-1c-2-2-1-3 0-4l3-4c-1-3 2-4 2-6l4-4c1-1 2-2 1-3 0-2 3-1 3-3-1-5 4-7 5-11 0-2 1-8 4-8 2 0-1-2 1-6l-2-2-2 1c0 4-4 5-5 8-1 7-7 14-11 19-4 2-1 5-2 7l-5 9c-2 6-13 5-13-1 0-4 2-8 1-12 2-5 6-9 6-15zm24 37c4 2 17-13 13-17-2 5-9 7-11 13zm-91-71c0 3 8 0 5-1-1 2-3 1-5 1zm34-6c1 2 5 3 5 1-1-2-3-1-5-1zM20-254l-1-3c-2 1-1 4 1 3zM1-244l-2-1 2 2zm59-30v-1zM5-244l-1-2zM298-31c-1-4-7 0-9-3-5 0-2 0-6-2-1-2-4-2-5-3-1-2-3-3-6-3-2-4-7-5-10-9-5-5-19-21-8-25 6-2 12-1 17 4 2 7 12 16 18 18 20 8 48 6 60-13 9-7 9-22 20-27 5-1 8-1 12 3 2 1 3 2 2 4 0 1 2 2 1 4s0 6-3 8c-3 3-3 8-7 9-1 5-5 10-8 15-1 2-4 0-4 2l-2 3c-6 6-7 9-16 8-8 4-9 4-16 4-3 4-9 0-11 3zm75-41c1 2 3 3 3 1s-2-1-3-1zm-15-3-1 1h1zm96-102v1-2z" id="path1259"/>
</svg>