{% if branding %}
    {% set width = 924 %}
    {% set height = 924 %}
{% else %}
    {% set width = 520 %}
    {% set height = 520 %}
{% endif %}
<svg width="{{width}}" height="{{height}}" viewBox="0 0 {{width}} {{height}}" fill="none" xmlns="http://www.w3.org/2000/svg" xmlns:xlink="http://www.w3.org/1999/xlink">    <style>
        @import url('https://fonts.googleapis.com/css2?family=Inter:wght@900');
        .album-art {
        preserveAspectRatio: "xMidYMid slice";
        height: 135px;
        width: 135px;
        }
        .drawing {
        fill: #F0EEE2;
        }
        text {
        fill: #F0EEE2;
        font-family: 'Inter', sans-serif;
        font-weight: 900;
        }
        .branding {
        font-size: 20px;
        letter-spacing: 0em;
        text-transform: uppercase;
        }
        .subtitle {
        text-anchor: middle;
        font-size: 32px;
        letter-spacing: 0.6em;
        }
        .background {
        fill: #4C6C52;
        }
    </style>
    {% if branding %}
    <g id="g297">
        <rect class="background" width="924" height="924" fill="#4C6C52"/>
        <text class="branding" x="750" y="897" id="text279">LISTENBRAINZ</text>
        <text class="branding" x="26" y="43" id="text281">{{user_name}}</text>
        <text class="branding" font-style="italic" x="26" y="897" id="text283">#YEARINMUSIC</text>
        <text class="branding" x="844" y="43" id="text285">2023</text>
        <text x="50%" y="150" id="my-year" class="subtitle">
          <tspan>M</tspan>
          <tspan dx="12">Y</tspan>
          <tspan dx="30">Y</tspan>
          <tspan dx="12">E</tspan>
          <tspan dx="12">A</tspan>
          <tspan dx="12">R</tspan>
        </text>
        <text x="50%" y="190" id="in-music" class="subtitle">
          <tspan>I</tspan>
          <tspan dx="12">N</tspan>
          <tspan dx="30">M</tspan>
          <tspan dx="12">U</tspan>
          <tspan dx="12">S</tspan>
          <tspan dx="12">I</tspan>
          <tspan dx="12">C</tspan>
        </text>
        <text x="50%" y="755" id="top-artists" class="subtitle">
          <tspan>P</tspan>
          <tspan dx="12">L</tspan>
          <tspan dx="12">A</tspan>
          <tspan dx="12">Y</tspan>
          <tspan dx="12">L</tspan>
          <tspan dx="12">I</tspan>
          <tspan dx="12">S</tspan>
          <tspan dx="12">T</tspan>
          <tspan dx="12">S</tspan>
          <tspan dx="12">:</tspan>
        </text>
        <text x="50%" y="795" id="top-artists" class="subtitle">
          <tspan>M</tspan>
          <tspan dx="12">Y</tspan>
          <tspan dx="30">T</tspan>
          <tspan dx="12">O</tspan>
          <tspan dx="12">P</tspan>
          <tspan dx="30">D</tspan>
          <tspan dx="12">I</tspan>
          <tspan dx="12">S</tspan>
          <tspan dx="12">C</tspan>
          <tspan dx="12">O</tspan>
          <tspan dx="12">V</tspan>
          <tspan dx="12">E</tspan>
          <tspan dx="12">R</tspan>
          <tspan dx="12">I</tspan>
          <tspan dx="12">E</tspan>
          <tspan dx="12">S</tspan>
        </text>
    </g>
    <g transform="translate(195, 190)">
    {% else %}
    <g>
    {% endif %}
        {% set x_s = [50, 50, 50, 185, 185, 185, 320, 320, 320] %}
        {% set y_s = [80, 215, 350, 80, 215, 350, 80, 215, 350] %}
        {% for image in images[:9] %}
            <a href="https://listenbrainz.org/release/{{ image.entity_mbid }}" target="_blank">
                <image
                    class="album-art"
                    preserveAspectRatio="xMidYMid slice"
                    x="{{ x_s[loop.index0] }}"
                    y="{{ y_s[loop.index0] }}"
                    href="{{ image.url }}">
                    {% if image.title and image.artist %}
                        <title>
                            {{- image.title|escape ~ " - " ~ image.artist|escape -}}
                        </title>
                    {% endif %}
                </image>
            </a>
        {% endfor %}
        <g id="hug" transform="matrix(0.65136215,0,0,0.65136215,2.6493108,0.24861121)" class="drawing">
            <path
                    d="m 2.1,535.5 c -0.6,-39.2 8.4,-55 33.5,-86.6 4.6,-4.9 11.3,-7.3 15,-13.5 3.7,-4.8 14.7,-2.5 13.7,5 4.9,25.2 2,52.3 13.9,75.6 4.3,5.7 5,13.8 4.6,21.2 -0.5,10.8 4.3,19.2 10.2,27.4 4.8,5 6.7,15.3 15.6,13.9 15.7,14.8 34.7,22.3 56.1,25 28.5,3.1 55.5,13.8 84.5,13.9 10.6,-0.1 21.2,0 31.8,-0.2 67.9,-2.9 129.5,-35.7 195.8,-46.8 12.1,-1.3 23.9,-0.4 35.7,2.3 20.4,8.5 10.3,47.6 -2.6,59.8 -12.4,13.5 -31,17.5 -44.7,29.9 -10.3,7.5 -22.5,10.1 -34.3,14 -4.9,2.6 -10,3.5 -15.4,3.7 -15.7,0.7 -30.7,5.8 -46.3,7.2 -49.1,5.7 -98.7,6.2 -147.9,0 -21,-2.8 -41.6,-5.4 -62.6,-8.7 -19,-4.6 -37.1,-11.2 -55.3,-17.9 C 48.1,640.2 -2.3,601.5 2.1,535.5 Z M 379,614 c -0.1,-0.1 -0.2,-0.2 -0.3,-0.4 0.1,0.2 0.2,0.3 0.3,0.4 -40.6,11.5 -83.1,20.7 -125.6,18.6 -30.3,2.7 -58.9,-8.9 -88.6,-12.2 -22.3,-3.7 -46.7,-7.3 -65.3,-20.9 C 76,578 65.6,562.8 63.2,530.6 54.8,509.8 54.4,487.1 50.9,465.2 c -0.2,-1.7 -0.3,-3.6 -2.1,-4.2 -2.2,-0.7 -2.8,1.4 -3.7,2.6 -20.7,23.9 -28.6,55.5 -25.6,86.7 14.2,121.4 241.7,132.2 335.8,122.8 30,-3.2 60.3,-7.4 88.8,-17.5 11.9,-6.1 22.9,-13.4 34.7,-19.6 14.7,-7.7 25,-18.4 26.9,-35.8 0.9,-39.5 -106.3,11.7 -126.7,13.8 z m 107.2,22.9 c 0.9,0.6 1.2,-0.1 0.2,-0.4 -0.1,0.1 -0.1,0.3 -0.2,0.4 z"
                    id="path2745"/>
            <path
                    d="m 516.8,550.2 c -36.1,-2.7 -77.4,-1.3 -108.5,-22.5 -6.9,-6.2 -7.9,-15.1 -10.2,-23.2 -1.4,-4.7 8.2,-13.8 14.6,-15.4 76.7,-20.6 163.9,-23.2 228.9,-73.4 20,-13.9 36.4,-32.6 42.4,-56.5 3.8,-12.6 11,-23.9 11.8,-37.2 0.9,-10 2.1,-20 0,-30.2 -1.4,-6.6 1.8,-12.6 7.4,-16.9 5.8,-3.3 18.4,5.5 21.2,10.6 5.5,10.1 16.2,15.7 21.1,26.1 3.7,7.9 10.5,13.9 13.9,21.8 21.7,51.2 -8.1,102.5 -39.4,142.3 -23.1,28.5 -58.1,42.9 -91.6,55.3 -12.5,6.7 -26.4,8.2 -39.8,10.1 -23.9,3.8 -47.5,9.3 -71.8,9.1 z M 745.2,377.3 c 0.7,-24.7 -13.3,-44.2 -26,-63.9 -1,-1.8 -2.8,-3.4 -4.8,-3.1 -5.3,4 -0.6,32.8 -12.1,37.6 -2.5,1.2 -2.7,2.6 -2.8,5 -0.7,29.4 -19.6,55.2 -43.9,70.5 -29,23.5 -62.7,39.3 -97.7,51.6 -7.9,2.3 -16.9,1.3 -23.6,7.3 -15.6,2.3 -31.5,8 -46.9,10.3 -19.3,0.9 -37,8.3 -56,10.5 -15.6,1.7 -4.3,13.1 3.9,16.5 7.8,3.5 16.3,4.4 24.6,6.3 49,10.6 98.9,2.6 146.7,-9.3 7.1,-2.6 14,-6.1 21.6,-7.8 20.6,-4.6 38.5,-16.2 55.5,-28 31.1,-20.8 59.6,-66.2 61.5,-103.5 z m -30.8,78.1 0.1,0.3 0.2,-0.2 z"
                    id="path2747"/>
            <path
                    d="m 538,108.5 c -0.7,3.4 2.3,14.5 -3.9,15.1 -4.1,0.1 -8.7,2.9 -12.3,-2 -10.7,-21.9 6,-58.7 17.2,-78.6 35.3,-56 147.5,-52.6 189.6,-6.3 19.4,20.8 31.8,64.7 33.7,93.1 -2.2,35.1 -14,80.6 -51.1,92.9 -3.9,1.4 -17,-3.2 -13.1,-8.9 6.6,-9.6 15.8,-17 25.4,-23.6 12.7,-15.1 15.9,-42.6 16.4,-62 0,-22.7 -8.2,-44.8 -18,-65.2 -1.9,-5.7 -6.4,-1.9 -8.6,-6.3 -11.3,-17.6 -28.6,-25.2 -48,-29.1 -18.9,-5.5 -38.6,-7.9 -58,-3.5 -42.1,3 -70.1,43 -69.3,84.4 z M 725.8,38 l -0.1,0.3 0.3,-0.1 z"
                    id="path2749"/>
            <path
                    d="m 406.7,92.9 c -30,-4.3 -41.6,-59.6 -10,-69.4 4.9,-1.8 12.5,-6.1 18.1,1.4 6,4.6 16.3,-13.1 32.4,-4.5 20.6,9.6 12,45.7 -5,55.9 -1.1,0.7 -2.3,1.6 -2.9,2.8 -6.3,11.6 -21.5,12.1 -32.6,13.8 z M 395,51.7 c -2.2,12 12.1,32.9 24.2,24.8 16.4,-13 23,-13.9 23.1,-36.6 -1,-12.5 -16.2,-2.2 -17.9,5.1 -4.9,11.1 -21.1,11.8 -18.6,-2.8 -1.6,-10.1 -13.5,2.6 -10.8,9.5 z"
                    id="path2751"/>
            <path
                    d="m 694.6,115.8 c -17.3,1.1 -43.4,-9.8 -35.7,-29.1 11,-14.2 18.9,22.7 42.3,11.6 11.9,-6.2 16.6,17.2 -6.6,17.5 z"
                    id="path2753"/>
            <path
                    d="m 607.2,90.2 c -16.9,0.6 -22.8,-2.1 -29.2,-20.5 -2.4,-7 3.4,-15.6 8,-18.5 3.4,-2.1 6.5,-1.1 7.9,3 1.8,13 5.1,22.1 20.2,21.8 13.6,1.4 8.7,15.7 -6.9,14.2 z"
                    id="path2755"/>
            <path
                    d="m 430.3,411.6 c -0.3,0.8 -0.6,0.8 -1.2,0.4 0.2,-0.3 0.4,-0.6 0.6,-0.9 0.1,0.1 0.4,0.3 0.6,0.5 z"
                    id="path2757"/>
            <polygon
                    points="402.1,96.2 401.8,96 402.1,95.9 "
                    id="polygon2759"/>
            <polygon
                    points="745,528.1 744.8,528.3 744.7,528.1 "
                    id="polygon2761"/>
        </g>
    </g>
</svg>
