<?xml version="1.0" encoding="utf-8"?>
<!-- Generator: Adobe Illustrator 17.0.0, SVG Export Plug-In . SVG Version: 6.00 Build 0)  -->
<!DOCTYPE svg PUBLIC "-//W3C//DTD SVG 1.1//EN" "http://www.w3.org/Graphics/SVG/1.1/DTD/svg11.dtd">
<svg version="1.1" id="Layer_1" xmlns="http://www.w3.org/2000/svg" xmlns:xlink="http://www.w3.org/1999/xlink" x="0px" y="0px"
	 width="593px" height="150px" viewBox="0 0 593 150" enable-background="new 0 0 593 150" xml:space="preserve">
<g>
</g>
<g>
	<g>
		<polygon fill="#EB743B" points="70.354,2.823 70.354,146.823 131.355,111.823 131.355,37.823 		"/>
		<polygon fill="#353070" points="65.354,2.823 4.354,37.823 4.354,111.823 65.354,146.823 		"/>
		<g>
			<g opacity="0.07">
				<path d="M87.656,94.557c0.386-0.645,1.066-1.03,1.819-1.03c0.378,0,0.752,0.104,1.078,0.297c1,0.601,1.331,1.899,0.735,2.898
					c-0.385,0.646-1.064,1.032-1.817,1.032c-0.379,0-0.755-0.104-1.084-0.301c-0.483-0.288-0.826-0.748-0.964-1.294
					C87.285,95.61,87.368,95.042,87.656,94.557z M100.259,116.919c-0.49,0.421-1.018,0.509-1.373,0.509
					c-0.621,0-1.207-0.269-1.608-0.734c-0.758-0.885-0.654-2.222,0.231-2.981c0.492-0.423,1.018-0.512,1.373-0.512
					c0.617,0,1.201,0.268,1.605,0.74c0.368,0.43,0.547,0.976,0.504,1.538C100.948,116.041,100.689,116.551,100.259,116.919z"/>
				<path d="M79.355,48.434c0.07,0.018,0.142,0.034,0.212,0.046C79.495,48.468,79.425,48.452,79.355,48.434z"/>
				<path d="M90.734,58.08c0.169-0.267,0.395-0.49,0.673-0.661c0.335-0.207,0.722-0.316,1.121-0.316c0.4,0,0.79,0.112,1.122,0.321
					c0.987,0.627,1.283,1.935,0.66,2.919c-0.392,0.618-1.063,0.988-1.795,0.988c-0.397,0-0.785-0.113-1.124-0.327
					C90.407,60.38,90.113,59.067,90.734,58.08z M97.113,37.893c-0.6,0.951-1.938,1.271-2.912,0.653l-0.096-0.063
					c-0.914-0.647-1.161-1.897-0.558-2.851c0.386-0.613,1.053-0.98,1.784-0.98c0.397,0,0.787,0.113,1.124,0.326
					c0.479,0.304,0.813,0.775,0.937,1.33C97.515,36.854,97.418,37.415,97.113,37.893z"/>
				<path d="M113.88,49.491c0.388-0.614,1.054-0.98,1.783-0.98c0.399,0,0.79,0.113,1.125,0.325c0.48,0.304,0.813,0.775,0.937,1.33
					c0.122,0.546,0.024,1.106-0.279,1.584c-0.598,0.951-1.938,1.272-2.912,0.653l-0.094-0.063
					C113.522,51.694,113.277,50.444,113.88,49.491z M113.88,72.954c0.388-0.614,1.054-0.98,1.783-0.98
					c0.399,0,0.79,0.112,1.125,0.326c0.48,0.304,0.813,0.774,0.937,1.329c0.122,0.546,0.024,1.107-0.279,1.585
					c-0.598,0.95-1.938,1.271-2.912,0.652l-0.094-0.063C113.522,75.157,113.277,73.907,113.88,72.954z M113.88,99.257
					c0.388-0.613,1.054-0.979,1.783-0.979c0.399,0,0.79,0.112,1.125,0.325c0.48,0.304,0.813,0.775,0.937,1.33
					c0.122,0.547,0.024,1.106-0.279,1.584c-0.598,0.951-1.938,1.271-2.912,0.653l-0.094-0.063
					C113.522,101.46,113.277,100.211,113.88,99.257z"/>
				<path d="M103.53,108.927c-1.165-1.36-2.858-2.139-4.648-2.139c-1.459,0-2.875,0.525-3.983,1.477
					c-1.612,1.383-2.326,3.429-2.087,5.397c-1.948,0.7-4.258,1.365-5.328,1.332c-0.821-0.044-1.302-0.346-2.224-0.972
					c-1.172-0.795-2.418-1.512-4.149-1.847c2.936-2.761,6.009-6.83,8.584-12.834c2.061-0.076,3.976-1.193,5.038-2.972
					c1.725-2.896,0.773-6.659-2.124-8.394c-0.949-0.565-2.032-0.864-3.134-0.864c-2.146,0-4.161,1.144-5.261,2.986
					c-0.838,1.405-1.079,3.05-0.678,4.636c0.351,1.393,1.16,2.59,2.302,3.429c-4.053,9.218-9.219,13.081-12.565,14.685
					c-0.128,0.045-0.248,0.101-0.36,0.168c-1.187,0.531-2.05,0.704-2.559,0.808v4c0.275-0.03,1.885-0.118,4.247-1.192
					c5.348-1.357,6.839-0.354,8.407,0.709c1.021,0.692,2.291,1.554,4.263,1.656c0.1,0.005,0.204,0.008,0.309,0.008
					c2.109,0,5.172-1.022,7.021-1.723c1.144,1.116,2.676,1.75,4.285,1.75l0,0c1.461,0,2.876-0.524,3.983-1.476
					c1.24-1.062,1.993-2.546,2.118-4.176C105.112,111.748,104.595,110.165,103.53,108.927z M87.656,92.151
					c0.386-0.645,1.066-1.03,1.819-1.03c0.378,0,0.752,0.104,1.078,0.297c1,0.601,1.331,1.899,0.735,2.898
					c-0.385,0.646-1.064,1.032-1.817,1.032c-0.379,0-0.755-0.104-1.084-0.301c-0.483-0.288-0.826-0.748-0.964-1.294
					C87.285,93.205,87.368,92.637,87.656,92.151z M100.259,114.514c-0.49,0.421-1.018,0.509-1.373,0.509
					c-0.621,0-1.207-0.269-1.608-0.734c-0.758-0.885-0.654-2.222,0.231-2.981c0.492-0.423,1.018-0.512,1.373-0.512
					c0.617,0,1.201,0.269,1.605,0.74c0.368,0.43,0.547,0.976,0.504,1.538C100.948,113.636,100.689,114.146,100.259,114.514z"/>
				<path d="M79.355,46.028c0.07,0.018,0.142,0.034,0.212,0.046C79.495,46.063,79.425,46.047,79.355,46.028z"/>
				<path d="M101.305,33.027c-0.357-1.599-1.317-2.964-2.708-3.844c-0.98-0.617-2.109-0.944-3.265-0.944
					c-2.117,0-4.053,1.066-5.174,2.85c-1.354,2.138-1.218,4.799,0.144,6.759c-3.646,4.124-8.706,4.313-9.942,4.293
					c-3.692-1.604-7.234-2.164-10.005-2.317v3.996c2.441,0.143,5.553,0.685,8.748,2.136c0.005,0.002,0.01,0.002,0.015,0.005
					c3.445,1.563,6.334,3.928,8.607,7.041c-0.136,0.173-0.265,0.352-0.382,0.538c-1.796,2.854-0.942,6.644,1.903,8.444
					c0.98,0.622,2.111,0.951,3.27,0.951c2.113,0,4.051-1.065,5.183-2.852c1.806-2.851,0.951-6.642-1.908-8.453
					c-1.384-0.871-3.092-1.113-4.667-0.755c-1.538-2.154-3.323-4.017-5.345-5.566c2.517-0.778,5.401-2.269,7.78-5.096
					c0.572,0.172,1.166,0.267,1.77,0.267c2.116,0,4.051-1.068,5.172-2.849C101.375,36.256,101.661,34.622,101.305,33.027z
					 M90.734,55.675c0.169-0.267,0.395-0.49,0.673-0.661c0.335-0.207,0.722-0.316,1.121-0.316c0.4,0,0.79,0.112,1.122,0.321
					c0.987,0.627,1.283,1.936,0.66,2.919c-0.392,0.618-1.063,0.988-1.795,0.988c-0.397,0-0.785-0.113-1.124-0.327
					C90.407,57.975,90.113,56.662,90.734,55.675z M97.113,35.487c-0.6,0.951-1.938,1.271-2.912,0.653l-0.096-0.063
					c-0.914-0.647-1.161-1.897-0.558-2.851c0.386-0.613,1.053-0.98,1.784-0.98c0.397,0,0.787,0.113,1.124,0.326
					c0.479,0.304,0.813,0.775,0.937,1.33C97.515,34.449,97.418,35.01,97.113,35.487z"/>
				<path d="M110,74.011c0.425,1.035,1.136,1.962,2.109,2.649c0.072,0.052,0.151,0.105,0.283,0.191
					c0.981,0.621,2.11,0.949,3.268,0.949c2.116,0,4.052-1.068,5.173-2.849c0.875-1.375,1.16-3.01,0.805-4.604
					c-0.358-1.598-1.318-2.964-2.709-3.844c-0.98-0.617-2.109-0.944-3.266-0.944c-0.125,0-0.25,0.008-0.375,0.018
					c-0.71-3.157-0.919-7.769,0.035-11.265c0.112,0.011,0.225,0.024,0.337,0.024c2.116,0,4.052-1.067,5.173-2.849
					c0.875-1.375,1.16-3.009,0.805-4.604c-0.358-1.599-1.318-2.964-2.709-3.844c-0.98-0.617-2.109-0.944-3.266-0.944
					c-2.114,0-4.051,1.066-5.173,2.85c-1.603,2.532-1.12,5.804,1.025,7.765c0.021,0.02,0.048,0.037,0.071,0.059
					c-1.349,4.518-1.146,10.324-0.036,14.417c-0.143,0.132-0.294,0.254-0.426,0.399c-0.229,0.255-0.445,0.526-0.634,0.824
					c-0.318,0.502-0.551,1.033-0.71,1.578c-3.371,0.488-5.198,1.671-6.824,2.729c-2.035,1.324-3.961,2.572-9.636,2.665
					c-1.964-0.23-3.553-0.177-5.29-0.116c-1.431,0.052-2.91,0.106-4.849,0.003c-1.335-0.071-2.104-0.882-3.458-2.424
					c-1.803-2.055-4.219-4.649-9.369-5.023v4c3.295,0.3,4.796,1.888,6.356,3.667c1.487,1.694,3.175,3.615,6.256,3.782
					c2.118,0.114,3.76,0.052,5.208,0.001c2.491-0.092,4.453-0.161,7.855,0.684c2.607,0.643,12.099,9.673,14.773,14.322
					c-0.108,0.142-0.219,0.282-0.314,0.434c-1.743,2.755-1.026,6.385,1.619,8.251c0.072,0.052,0.151,0.104,0.283,0.191
					c0.981,0.621,2.11,0.948,3.268,0.948c2.116,0,4.052-1.068,5.173-2.849c0.875-1.374,1.16-3.009,0.805-4.603
					c-0.358-1.6-1.318-2.965-2.709-3.845c-0.98-0.617-2.109-0.944-3.266-0.944c-0.528,0-1.047,0.067-1.543,0.195
					c-2.561-4.187-8.652-10.455-13.189-13.792c1.813-0.628,3.05-1.435,4.212-2.188C106.57,75.148,107.757,74.388,110,74.011z
					 M113.88,47.086c0.388-0.614,1.054-0.98,1.783-0.98c0.399,0,0.79,0.113,1.125,0.325c0.48,0.304,0.813,0.775,0.937,1.33
					c0.122,0.546,0.024,1.106-0.279,1.584c-0.598,0.951-1.938,1.272-2.912,0.653l-0.094-0.063
					C113.522,49.289,113.277,48.039,113.88,47.086z M113.88,70.549c0.388-0.614,1.054-0.98,1.783-0.98
					c0.399,0,0.79,0.112,1.125,0.326c0.48,0.304,0.813,0.774,0.937,1.329c0.122,0.546,0.024,1.107-0.279,1.585
					c-0.598,0.95-1.938,1.271-2.912,0.652l-0.094-0.063C113.522,72.752,113.277,71.502,113.88,70.549z M113.88,96.852
					c0.388-0.613,1.054-0.979,1.783-0.979c0.399,0,0.79,0.112,1.125,0.325c0.48,0.304,0.813,0.775,0.937,1.33
					c0.122,0.547,0.024,1.106-0.279,1.584c-0.598,0.951-1.938,1.271-2.912,0.653l-0.094-0.063
					C113.522,99.055,113.277,97.806,113.88,96.852z"/>
			</g>
			<g>
				<g>
					<path fill="#D3562C" d="M103.53,111.927c-1.165-1.36-2.858-2.139-4.648-2.139c-1.459,0-2.875,0.525-3.983,1.477
						c-1.612,1.383-2.326,3.429-2.087,5.397c-1.948,0.7-4.258,1.365-5.328,1.332c-0.821-0.044-1.302-0.346-2.224-0.972
						c-1.172-0.795-2.418-1.512-4.149-1.847c2.936-2.761,6.009-6.83,8.584-12.834c2.061-0.076,3.976-1.193,5.038-2.972
						c1.725-2.896,0.773-6.659-2.124-8.394c-0.949-0.565-2.032-0.864-3.134-0.864c-2.146,0-4.161,1.144-5.261,2.986
						c-0.838,1.405-1.079,3.05-0.678,4.636c0.351,1.393,1.16,2.59,2.302,3.429c-4.053,9.218-9.219,13.081-12.565,14.685
						c-0.128,0.045-0.248,0.101-0.36,0.168c-1.187,0.531-2.05,0.704-2.559,0.808v4c0.275-0.03,1.885-0.118,4.247-1.192
						c5.348-1.357,6.839-0.354,8.407,0.709c1.021,0.692,2.291,1.554,4.263,1.656c0.1,0.005,0.204,0.008,0.309,0.008
						c2.109,0,5.172-1.022,7.021-1.723c1.144,1.116,2.676,1.75,4.285,1.75l0,0c1.461,0,2.876-0.524,3.983-1.476
						c1.24-1.062,1.993-2.546,2.118-4.176C105.112,114.748,104.595,113.165,103.53,111.927z M87.656,95.151
						c0.386-0.645,1.066-1.03,1.819-1.03c0.378,0,0.752,0.104,1.078,0.297c1,0.601,1.331,1.899,0.735,2.898
						c-0.385,0.646-1.064,1.032-1.817,1.032c-0.379,0-0.755-0.104-1.084-0.301c-0.483-0.288-0.826-0.748-0.964-1.294
						C87.285,96.205,87.368,95.637,87.656,95.151z M100.259,117.514c-0.49,0.421-1.018,0.509-1.373,0.509
						c-0.621,0-1.207-0.269-1.608-0.734c-0.758-0.885-0.654-2.222,0.231-2.981c0.492-0.423,1.018-0.512,1.373-0.512
						c0.617,0,1.201,0.269,1.605,0.74c0.368,0.43,0.547,0.976,0.504,1.538C100.948,116.636,100.689,117.146,100.259,117.514z"/>
					<path d="M79.355,48.434c0.07,0.018,0.142,0.034,0.212,0.046C79.495,48.468,79.425,48.452,79.355,48.434z"/>
					<path fill="#D3562C" d="M101.305,35.031c-0.357-1.599-1.317-2.964-2.708-3.844c-0.98-0.617-2.109-0.944-3.265-0.944
						c-2.117,0-4.053,1.066-5.174,2.85c-1.354,2.138-1.218,4.799,0.144,6.759c-3.646,4.124-8.706,4.313-9.942,4.293
						c-3.692-1.604-7.234-2.164-10.005-2.317v3.996c2.441,0.144,5.553,0.686,8.748,2.136c0.005,0.002,0.01,0.002,0.015,0.005
						c3.445,1.563,6.334,3.928,8.607,7.041c-0.136,0.173-0.265,0.352-0.382,0.538c-1.796,2.854-0.942,6.644,1.903,8.444
						c0.98,0.622,2.111,0.951,3.27,0.951c2.113,0,4.051-1.065,5.183-2.852c1.806-2.851,0.951-6.642-1.908-8.453
						c-1.384-0.871-3.092-1.113-4.667-0.755c-1.538-2.154-3.323-4.017-5.345-5.566c2.517-0.778,5.401-2.269,7.78-5.096
						c0.572,0.172,1.166,0.267,1.77,0.267c2.116,0,4.051-1.068,5.172-2.849C101.375,38.26,101.661,36.626,101.305,35.031z
						 M90.734,57.679c0.169-0.267,0.395-0.49,0.673-0.661c0.335-0.207,0.722-0.316,1.121-0.316c0.4,0,0.79,0.112,1.122,0.321
						c0.987,0.627,1.283,1.936,0.66,2.919c-0.392,0.618-1.063,0.988-1.795,0.988c-0.397,0-0.785-0.113-1.124-0.327
						C90.407,59.979,90.113,58.666,90.734,57.679z M97.113,37.491c-0.6,0.951-1.938,1.271-2.912,0.653l-0.096-0.063
						c-0.914-0.647-1.161-1.897-0.558-2.851c0.386-0.613,1.053-0.98,1.784-0.98c0.397,0,0.787,0.113,1.124,0.326
						c0.479,0.304,0.813,0.775,0.937,1.33C97.515,36.453,97.418,37.014,97.113,37.491z"/>
					<path fill="#D3562C" d="M110,77.011c0.425,1.035,1.136,1.962,2.109,2.649c0.072,0.052,0.151,0.105,0.283,0.191
						c0.981,0.621,2.11,0.949,3.268,0.949c2.116,0,4.052-1.068,5.173-2.849c0.875-1.375,1.16-3.01,0.805-4.604
						c-0.358-1.598-1.318-2.964-2.709-3.844c-0.98-0.617-2.109-0.944-3.266-0.944c-0.125,0-0.25,0.008-0.375,0.018
						c-0.71-3.157-0.919-7.769,0.035-11.265c0.112,0.011,0.225,0.024,0.337,0.024c2.116,0,4.052-1.067,5.173-2.849
						c0.875-1.375,1.16-3.009,0.805-4.604c-0.358-1.599-1.318-2.964-2.709-3.844c-0.98-0.617-2.109-0.944-3.266-0.944
						c-2.114,0-4.051,1.066-5.173,2.85c-1.603,2.532-1.12,5.804,1.025,7.765c0.021,0.02,0.048,0.037,0.071,0.059
						c-1.349,4.518-1.146,10.324-0.036,14.417c-0.143,0.132-0.294,0.254-0.426,0.399c-0.229,0.255-0.445,0.526-0.634,0.824
						c-0.318,0.502-0.551,1.033-0.71,1.578c-3.371,0.488-5.198,1.671-6.824,2.729c-2.035,1.324-3.961,2.572-9.636,2.665
						c-1.964-0.23-3.553-0.177-5.29-0.116c-1.431,0.052-2.91,0.106-4.849,0.003c-1.335-0.071-2.104-0.882-3.458-2.424
						c-1.803-2.055-4.219-4.649-9.369-5.023v4c3.295,0.3,4.796,1.888,6.356,3.667c1.487,1.694,3.175,3.615,6.256,3.782
						c2.118,0.114,3.76,0.052,5.208,0.001c2.491-0.092,4.453-0.161,7.855,0.684c2.607,0.643,12.099,9.673,14.773,14.322
						c-0.108,0.142-0.219,0.282-0.314,0.434c-1.743,2.755-1.026,6.385,1.619,8.251c0.072,0.052,0.151,0.104,0.283,0.191
						c0.981,0.621,2.11,0.948,3.268,0.948c2.116,0,4.052-1.068,5.173-2.849c0.875-1.374,1.16-3.009,0.805-4.603
						c-0.358-1.6-1.318-2.965-2.709-3.845c-0.98-0.617-2.109-0.944-3.266-0.944c-0.528,0-1.047,0.067-1.543,0.195
						c-2.561-4.187-8.652-10.455-13.189-13.792c1.813-0.628,3.05-1.435,4.212-2.188C106.57,78.148,107.757,77.388,110,77.011z
						 M113.88,50.086c0.388-0.614,1.054-0.98,1.783-0.98c0.399,0,0.79,0.113,1.125,0.325c0.48,0.304,0.813,0.775,0.937,1.33
						c0.122,0.546,0.024,1.106-0.279,1.584c-0.598,0.951-1.938,1.272-2.912,0.653l-0.094-0.063
						C113.522,52.289,113.277,51.039,113.88,50.086z M113.88,73.549c0.388-0.614,1.054-0.98,1.783-0.98
						c0.399,0,0.79,0.112,1.125,0.326c0.48,0.304,0.813,0.774,0.937,1.329c0.122,0.546,0.024,1.107-0.279,1.585
						c-0.598,0.95-1.938,1.271-2.912,0.652l-0.094-0.063C113.522,75.752,113.277,74.502,113.88,73.549z M113.88,99.852
						c0.388-0.613,1.054-0.979,1.783-0.979c0.399,0,0.79,0.112,1.125,0.325c0.48,0.304,0.813,0.775,0.937,1.33
						c0.122,0.547,0.024,1.106-0.279,1.584c-0.598,0.951-1.938,1.271-2.912,0.653l-0.094-0.063
						C113.522,102.055,113.277,100.806,113.88,99.852z"/>
				</g>
				<g>
					<path fill="#FFFEDB" d="M103.53,108.927c-1.165-1.36-2.858-2.139-4.648-2.139c-1.459,0-2.875,0.525-3.983,1.477
						c-1.612,1.383-2.326,3.429-2.087,5.397c-1.948,0.7-4.258,1.365-5.328,1.332c-0.821-0.044-1.302-0.346-2.224-0.972
						c-1.172-0.795-2.418-1.512-4.149-1.847c2.936-2.761,6.009-6.83,8.584-12.834c2.061-0.076,3.976-1.193,5.038-2.972
						c1.725-2.896,0.773-6.659-2.124-8.394c-0.949-0.565-2.032-0.864-3.134-0.864c-2.146,0-4.161,1.144-5.261,2.986
						c-0.838,1.405-1.079,3.05-0.678,4.636c0.351,1.393,1.16,2.59,2.302,3.429c-4.053,9.218-9.219,13.081-12.565,14.685
						c-0.128,0.045-0.248,0.101-0.36,0.168c-1.187,0.531-2.05,0.704-2.559,0.808v4c0.275-0.03,1.885-0.118,4.247-1.192
						c5.348-1.357,6.839-0.354,8.407,0.709c1.021,0.692,2.291,1.554,4.263,1.656c0.1,0.005,0.204,0.008,0.309,0.008
						c2.109,0,5.172-1.022,7.021-1.723c1.144,1.116,2.676,1.75,4.285,1.75l0,0c1.461,0,2.876-0.524,3.983-1.476
						c1.24-1.062,1.993-2.546,2.118-4.176C105.112,111.748,104.595,110.165,103.53,108.927z M87.656,92.151
						c0.386-0.645,1.066-1.03,1.819-1.03c0.378,0,0.752,0.104,1.078,0.297c1,0.601,1.331,1.899,0.735,2.898
						c-0.385,0.646-1.064,1.032-1.817,1.032c-0.379,0-0.755-0.104-1.084-0.301c-0.483-0.288-0.826-0.748-0.964-1.294
						C87.285,93.205,87.368,92.637,87.656,92.151z M100.259,114.514c-0.49,0.421-1.018,0.509-1.373,0.509
						c-0.621,0-1.207-0.269-1.608-0.734c-0.758-0.885-0.654-2.222,0.231-2.981c0.492-0.423,1.018-0.512,1.373-0.512
						c0.617,0,1.201,0.269,1.605,0.74c0.368,0.43,0.547,0.976,0.504,1.538C100.948,113.636,100.689,114.146,100.259,114.514z"/>
					<path fill="#FFFEDB" d="M79.355,46.028c0.07,0.018,0.142,0.034,0.212,0.046C79.495,46.063,79.425,46.047,79.355,46.028z"/>
					<path fill="#FFFEDB" d="M101.305,33.027c-0.357-1.599-1.317-2.964-2.708-3.844c-0.98-0.617-2.109-0.944-3.265-0.944
						c-2.117,0-4.053,1.066-5.174,2.85c-1.354,2.138-1.218,4.799,0.144,6.759c-3.646,4.124-8.706,4.313-9.942,4.293
						c-3.692-1.604-7.234-2.164-10.005-2.317v3.996c2.441,0.143,5.553,0.685,8.748,2.136c0.005,0.002,0.01,0.002,0.015,0.005
						c3.445,1.563,6.334,3.928,8.607,7.041c-0.136,0.173-0.265,0.352-0.382,0.538c-1.796,2.854-0.942,6.644,1.903,8.444
						c0.98,0.622,2.111,0.951,3.27,0.951c2.113,0,4.051-1.065,5.183-2.852c1.806-2.851,0.951-6.642-1.908-8.453
						c-1.384-0.871-3.092-1.113-4.667-0.755c-1.538-2.154-3.323-4.017-5.345-5.566c2.517-0.778,5.401-2.269,7.78-5.096
						c0.572,0.172,1.166,0.267,1.77,0.267c2.116,0,4.051-1.068,5.172-2.849C101.375,36.256,101.661,34.622,101.305,33.027z
						 M90.734,55.675c0.169-0.267,0.395-0.49,0.673-0.661c0.335-0.207,0.722-0.316,1.121-0.316c0.4,0,0.79,0.112,1.122,0.321
						c0.987,0.627,1.283,1.936,0.66,2.919c-0.392,0.618-1.063,0.988-1.795,0.988c-0.397,0-0.785-0.113-1.124-0.327
						C90.407,57.975,90.113,56.662,90.734,55.675z M97.113,35.487c-0.6,0.951-1.938,1.271-2.912,0.653l-0.096-0.063
						c-0.914-0.647-1.161-1.897-0.558-2.851c0.386-0.613,1.053-0.98,1.784-0.98c0.397,0,0.787,0.113,1.124,0.326
						c0.479,0.304,0.813,0.775,0.937,1.33C97.515,34.449,97.418,35.01,97.113,35.487z"/>
					<path fill="#FFFEDB" d="M110,74.011c0.425,1.035,1.136,1.962,2.109,2.649c0.072,0.052,0.151,0.105,0.283,0.191
						c0.981,0.621,2.11,0.949,3.268,0.949c2.116,0,4.052-1.068,5.173-2.849c0.875-1.375,1.16-3.01,0.805-4.604
						c-0.358-1.598-1.318-2.964-2.709-3.844c-0.98-0.617-2.109-0.944-3.266-0.944c-0.125,0-0.25,0.008-0.375,0.018
						c-0.71-3.157-0.919-7.769,0.035-11.265c0.112,0.011,0.225,0.024,0.337,0.024c2.116,0,4.052-1.067,5.173-2.849
						c0.875-1.375,1.16-3.009,0.805-4.604c-0.358-1.599-1.318-2.964-2.709-3.844c-0.98-0.617-2.109-0.944-3.266-0.944
						c-2.114,0-4.051,1.066-5.173,2.85c-1.603,2.532-1.12,5.804,1.025,7.765c0.021,0.02,0.048,0.037,0.071,0.059
						c-1.349,4.518-1.146,10.324-0.036,14.417c-0.143,0.132-0.294,0.254-0.426,0.399c-0.229,0.255-0.445,0.526-0.634,0.824
						c-0.318,0.502-0.551,1.033-0.71,1.578c-3.371,0.488-5.198,1.671-6.824,2.729c-2.035,1.324-3.961,2.572-9.636,2.665
						c-1.964-0.23-3.553-0.177-5.29-0.116c-1.431,0.052-2.91,0.106-4.849,0.003c-1.335-0.071-2.104-0.882-3.458-2.424
						c-1.803-2.055-4.219-4.649-9.369-5.023v4c3.295,0.3,4.796,1.888,6.356,3.667c1.487,1.694,3.175,3.615,6.256,3.782
						c2.118,0.114,3.76,0.052,5.208,0.001c2.491-0.092,4.453-0.161,7.855,0.684c2.607,0.643,12.099,9.673,14.773,14.322
						c-0.108,0.142-0.219,0.282-0.314,0.434c-1.743,2.755-1.026,6.385,1.619,8.251c0.072,0.052,0.151,0.104,0.283,0.191
						c0.981,0.621,2.11,0.948,3.268,0.948c2.116,0,4.052-1.068,5.173-2.849c0.875-1.374,1.16-3.009,0.805-4.603
						c-0.358-1.6-1.318-2.965-2.709-3.845c-0.98-0.617-2.109-0.944-3.266-0.944c-0.528,0-1.047,0.067-1.543,0.195
						c-2.561-4.187-8.652-10.455-13.189-13.792c1.813-0.628,3.05-1.435,4.212-2.188C106.57,75.148,107.757,74.388,110,74.011z
						 M113.88,47.086c0.388-0.614,1.054-0.98,1.783-0.98c0.399,0,0.79,0.113,1.125,0.325c0.48,0.304,0.813,0.775,0.937,1.33
						c0.122,0.546,0.024,1.106-0.279,1.584c-0.598,0.951-1.938,1.272-2.912,0.653l-0.094-0.063
						C113.522,49.289,113.277,48.039,113.88,47.086z M113.88,70.549c0.388-0.614,1.054-0.98,1.783-0.98
						c0.399,0,0.79,0.112,1.125,0.326c0.48,0.304,0.813,0.774,0.937,1.329c0.122,0.546,0.024,1.107-0.279,1.585
						c-0.598,0.95-1.938,1.271-2.912,0.652l-0.094-0.063C113.522,72.752,113.277,71.502,113.88,70.549z M113.88,96.852
						c0.388-0.613,1.054-0.979,1.783-0.979c0.399,0,0.79,0.112,1.125,0.325c0.48,0.304,0.813,0.775,0.937,1.33
						c0.122,0.547,0.024,1.106-0.279,1.584c-0.598,0.951-1.938,1.271-2.912,0.653l-0.094-0.063
						C113.522,99.055,113.277,97.806,113.88,96.852z"/>
				</g>
			</g>
		</g>
		<g>
			<g opacity="0.3">
				<path d="M22.626,69.045c-2.683,0-5.183-1.066-7.04-3.002c-1.804-1.88-2.767-4.35-2.714-6.956c0.054-2.606,1.119-5.034,3-6.838
					c1.825-1.751,4.224-2.716,6.753-2.716c2.683,0,5.184,1.066,7.04,3.002c1.805,1.88,2.769,4.351,2.715,6.955
					c-0.054,2.605-1.119,5.034-3,6.838C27.555,68.08,25.156,69.045,22.626,69.045z M22.625,54.533c-1.232,0-2.401,0.471-3.292,1.324
					c-0.916,0.88-1.436,2.064-1.462,3.333c-0.026,1.271,0.444,2.475,1.323,3.392c0.905,0.943,2.124,1.463,3.432,1.463
					c1.233,0,2.402-0.471,3.293-1.324c0.916-0.88,1.435-2.063,1.462-3.333c0.026-1.271-0.444-2.475-1.323-3.392
					C25.152,55.053,23.934,54.533,22.625,54.533z"/>
				<path d="M52.902,100.328H33.559c-1.104,0-2-0.896-2-2s0.896-2,2-2h19.344c1.104,0,2,0.896,2,2S54.007,100.328,52.902,100.328z"
					/>
				<path d="M52.902,112.45H33.559c-1.104,0-2-0.896-2-2s0.896-2,2-2h19.344c1.104,0,2,0.896,2,2S54.007,112.45,52.902,112.45z"/>
				<circle cx="22.714" cy="98.328" r="3"/>
				<circle cx="22.714" cy="110.45" r="3"/>
				<path d="M52.902,88.205H33.559c-1.104,0-2-0.896-2-2c0-1.104,0.896-2,2-2h19.344c1.104,0,2,0.896,2,2
					C54.902,87.31,54.007,88.205,52.902,88.205z"/>
				<circle cx="22.714" cy="86.205" r="3"/>
				<path d="M45.256,70.846c-0.396,0-0.796-0.117-1.146-0.361c-0.904-0.634-1.124-1.881-0.491-2.786
					c0.449-0.642,0.854-1.326,1.202-2.035c2.354-4.8,2.023-10.349-0.888-14.844c-0.601-0.927-0.336-2.165,0.592-2.766
					c0.927-0.601,2.165-0.336,2.766,0.592c3.627,5.601,4.057,12.797,1.121,18.78c-0.439,0.893-0.949,1.757-1.516,2.567
					C46.507,70.549,45.887,70.846,45.256,70.846z"/>
				<path d="M53.086,75.578c-0.407,0-0.818-0.124-1.174-0.382c-0.894-0.65-1.092-1.9-0.442-2.794
					c0.745-1.024,1.408-2.127,1.972-3.275c3.668-7.476,2.84-16.26-2.161-22.927c-0.663-0.884-0.484-2.138,0.399-2.8
					c0.885-0.665,2.139-0.482,2.8,0.399c5.908,7.876,6.887,18.256,2.554,27.089c-0.665,1.354-1.448,2.655-2.327,3.865
					C54.314,75.292,53.705,75.578,53.086,75.578z"/>
				<path d="M38.071,65.819c-0.331,0-0.668-0.082-0.978-0.256c-0.963-0.541-1.306-1.76-0.765-2.724
					c1.247-2.22,1.348-4.925,0.271-7.236c-0.467-1.001-0.033-2.19,0.968-2.657c1-0.469,2.191-0.034,2.657,0.968
					c1.62,3.476,1.468,7.544-0.407,10.885C39.45,65.452,38.771,65.819,38.071,65.819z"/>
			</g>
			<g>
				<path fill="#FFFEDB" d="M22.626,66.045c-2.683,0-5.183-1.066-7.04-3.002c-1.804-1.88-2.767-4.35-2.714-6.956
					c0.054-2.606,1.119-5.034,3-6.838c1.825-1.751,4.224-2.716,6.753-2.716c2.683,0,5.184,1.066,7.04,3.002
					c1.805,1.88,2.769,4.351,2.715,6.955c-0.054,2.605-1.119,5.034-3,6.838C27.555,65.08,25.156,66.045,22.626,66.045z
					 M22.625,51.533c-1.232,0-2.401,0.471-3.292,1.324c-0.916,0.88-1.436,2.064-1.462,3.333c-0.026,1.271,0.444,2.475,1.323,3.392
					c0.905,0.943,2.124,1.463,3.432,1.463c1.233,0,2.402-0.471,3.293-1.324c0.916-0.88,1.435-2.063,1.462-3.333
					c0.026-1.271-0.444-2.475-1.323-3.392C25.152,52.053,23.934,51.533,22.625,51.533z"/>
				<path fill="#FFFEDB" d="M52.902,97.328H33.559c-1.104,0-2-0.896-2-2s0.896-2,2-2h19.344c1.104,0,2,0.896,2,2
					S54.007,97.328,52.902,97.328z"/>
				<path fill="#FFFEDB" d="M52.902,109.45H33.559c-1.104,0-2-0.896-2-2s0.896-2,2-2h19.344c1.104,0,2,0.896,2,2
					S54.007,109.45,52.902,109.45z"/>
				<circle fill="#FFFEDB" cx="22.714" cy="95.328" r="3"/>
				<circle fill="#FFFEDB" cx="22.714" cy="107.45" r="3"/>
				<path fill="#FFFEDB" d="M52.902,85.205H33.559c-1.104,0-2-0.896-2-2c0-1.104,0.896-2,2-2h19.344c1.104,0,2,0.896,2,2
					C54.902,84.31,54.007,85.205,52.902,85.205z"/>
				<circle fill="#FFFEDB" cx="22.714" cy="83.205" r="3"/>
				<path fill="#EB743B" d="M45.256,67.846c-0.396,0-0.796-0.117-1.146-0.361c-0.904-0.634-1.124-1.881-0.491-2.786
					c0.449-0.642,0.854-1.326,1.202-2.035c2.354-4.8,2.023-10.349-0.888-14.844c-0.601-0.927-0.336-2.165,0.592-2.766
					c0.927-0.601,2.165-0.336,2.766,0.592c3.627,5.601,4.057,12.797,1.121,18.78c-0.439,0.893-0.949,1.757-1.516,2.567
					C46.507,67.549,45.887,67.846,45.256,67.846z"/>
				<path fill="#EB743B" d="M53.086,72.578c-0.407,0-0.818-0.124-1.174-0.382c-0.894-0.65-1.092-1.9-0.442-2.794
					c0.745-1.024,1.408-2.127,1.972-3.275c3.668-7.476,2.84-16.26-2.161-22.927c-0.663-0.884-0.484-2.138,0.399-2.8
					c0.885-0.665,2.139-0.482,2.8,0.399c5.908,7.876,6.887,18.256,2.554,27.089c-0.665,1.354-1.448,2.655-2.327,3.865
					C54.314,72.292,53.705,72.578,53.086,72.578z"/>
				<path fill="#EB743B" d="M38.071,62.819c-0.331,0-0.668-0.082-0.978-0.256c-0.963-0.541-1.306-1.76-0.765-2.724
					c1.247-2.22,1.348-4.925,0.271-7.236c-0.467-1.001-0.033-2.19,0.968-2.657c1-0.469,2.191-0.034,2.657,0.968
					c1.62,3.476,1.468,7.544-0.407,10.885C39.45,62.452,38.771,62.819,38.071,62.819z"/>
			</g>
		</g>
	</g>
	<g>
		<path fill="#353070" d="M169.754,92.183h18.234v10.641h-31.546V48.216h13.312V92.183z"/>
		<path fill="#353070" d="M235.769,90.619c0-1.322-0.518-2.465-1.553-3.428c-1.034-0.963-3.019-2.149-5.95-3.559
			c-4.686-1.753-8.201-3.736-10.544-5.95c-2.344-2.214-3.515-5.089-3.515-8.625c0-3.795,1.502-7.036,4.507-9.725
			c3.003-2.688,6.979-4.032,11.923-4.032c5.175,0,9.3,1.38,12.377,4.141c3.076,2.76,4.556,6.281,4.441,10.564l-0.129,0.259H235.51
			c0-1.954-0.402-3.507-1.207-4.657c-0.806-1.149-2.042-1.725-3.709-1.725c-1.322,0-2.443,0.446-3.363,1.337
			c-0.921,0.892-1.38,1.97-1.38,3.234c0,1.38,0.459,2.494,1.38,3.342c0.92,0.849,2.917,2.005,5.994,3.472
			c4.887,1.667,8.51,3.644,10.867,5.93c2.357,2.285,3.536,5.282,3.536,8.991c0,3.967-1.582,7.216-4.744,9.745
			c-3.162,2.53-7.316,3.795-12.462,3.795c-5.377,0-9.632-1.566-12.765-4.7c-3.134-3.133-4.629-6.669-4.485-10.608l0.086-0.259
			h11.213c0.057,2.473,0.632,4.255,1.725,5.348c1.092,1.093,2.602,1.639,4.528,1.639c1.639,0,2.889-0.402,3.751-1.208
			C235.338,93.136,235.769,92.028,235.769,90.619z"/>
		<path fill="#353070" d="M268.327,44.563v11.601h6.469v8.883h-6.469v23.416c0,1.897,0.273,3.256,0.819,4.075
			c0.546,0.819,1.294,1.229,2.242,1.229c0.748,0,1.38-0.036,1.897-0.108c0.518-0.071,1.093-0.193,1.726-0.366l0.948,9.314
			c-1.294,0.402-2.53,0.69-3.708,0.862c-1.18,0.173-2.517,0.259-4.011,0.259c-3.939,0-6.95-1.214-9.034-3.644
			c-2.085-2.429-3.127-6.289-3.127-11.579V65.047h-5.52v-8.883h5.52V44.563H268.327z"/>
		<path fill="#353070" d="M299.85,103.729c-5.864,0-10.522-1.926-13.972-5.778c-3.45-3.852-5.175-8.711-5.175-14.575v-6.556
			c0-6.296,1.603-11.456,4.809-15.48c3.205-4.025,7.64-6.038,13.303-6.038c5.462,0,9.688,1.826,12.679,5.478
			c2.989,3.65,4.485,8.624,4.485,14.92v7.504h-23.071v0.173c0,3.076,0.696,5.605,2.091,7.589c1.395,1.984,3.5,2.976,6.318,2.976
			c2.3,0,4.168-0.259,5.605-0.775c1.438-0.518,3.148-1.381,5.132-2.588l3.105,7.806c-1.611,1.552-3.76,2.832-6.447,3.838
			C306.023,103.226,303.069,103.729,299.85,103.729z M298.815,65.09c-1.955,0-3.393,0.896-4.312,2.687
			c-0.921,1.79-1.438,4.201-1.553,7.233h10.996v-1.733c0-2.599-0.402-4.612-1.207-6.042C301.934,65.805,300.626,65.09,298.815,65.09
			z"/>
		<path fill="#353070" d="M333.357,56.164l0.518,6.425c1.293-2.3,2.882-4.089,4.765-5.369c1.883-1.278,3.96-1.919,6.231-1.919
			c3.881,0,6.936,1.495,9.164,4.485c2.228,2.99,3.342,7.69,3.342,14.102v28.936h-12.29V73.855c0-3.224-0.453-5.489-1.358-6.8
			c-0.905-1.31-2.308-1.965-4.205-1.965c-1.093,0-2.099,0.289-3.018,0.864c-0.92,0.575-1.696,1.367-2.328,2.374v34.495H321.93
			V56.164H333.357z"/>
		<path fill="#EB743B" d="M366.195,102.823V48.216h19.405c5.813,0,10.336,1.273,13.57,3.82c3.234,2.547,4.851,6.305,4.851,11.272
			c0,2.595-0.742,4.915-2.226,6.961c-1.485,2.047-3.571,3.586-6.258,4.617c3.593,0.781,6.288,2.297,8.085,4.547
			c1.797,2.25,2.695,4.922,2.695,8.016c0,5.094-1.531,8.929-4.593,11.507c-3.063,2.578-7.517,3.867-13.359,3.867H366.195z
			 M379.507,70.949h6.328c1.594-0.031,2.805-0.535,3.633-1.512c0.827-0.977,1.242-2.394,1.242-4.251
			c0-2.205-0.422-3.812-1.266-4.818c-0.844-1.008-2.125-1.512-3.844-1.512h-6.094V70.949z M379.507,79.621v12.562h8.859
			c1.781,0,3.007-0.465,3.68-1.396c0.672-0.931,1.008-2.419,1.008-4.466c0-2.296-0.336-3.986-1.008-5.071
			c-0.673-1.086-1.898-1.629-3.68-1.629H379.507z"/>
		<path fill="#EB743B" d="M435.51,67.333l-4.614-0.13c-1.294,0-2.365,0.316-3.213,0.949c-0.849,0.633-1.503,1.524-1.962,2.673
			v31.998h-12.247V56.164h11.428l0.474,6.253l0.216,0.086c0.747-2.242,1.79-4.003,3.127-5.283c1.336-1.278,2.896-1.919,4.679-1.919
			c0.546,0,1.128,0.051,1.746,0.151c0.618,0.101,1.157,0.223,1.617,0.366L435.51,67.333z"/>
		<path fill="#EB743B" d="M464.445,102.823c-0.345-0.776-0.654-1.624-0.927-2.544c-0.273-0.92-0.482-1.855-0.626-2.804
			c-1.149,1.897-2.552,3.414-4.204,4.55c-1.653,1.136-3.572,1.703-5.757,1.703c-3.854,0-6.937-1.265-9.25-3.795
			c-2.314-2.529-3.472-5.907-3.472-10.134c0-4.571,1.473-8.121,4.42-10.651c2.947-2.529,7.324-3.795,13.132-3.795h4.613v-3.795
			c0-2.271-0.409-4.018-1.228-5.239c-0.819-1.222-2.049-1.833-3.688-1.833c-1.38,0-2.414,0.489-3.105,1.467s-1.035,2.4-1.035,4.269
			l-11.858-0.043l-0.13-0.259c-0.145-4.054,1.358-7.503,4.507-10.35c3.148-2.846,7.294-4.27,12.44-4.27
			c4.858,0,8.805,1.417,11.838,4.248c3.032,2.832,4.55,6.864,4.55,12.096v18.889c0,2.3,0.157,4.441,0.474,6.425
			c0.316,1.984,0.805,3.939,1.467,5.865H464.445z M456.468,94.5c1.235,0,2.378-0.33,3.428-0.991c1.05-0.661,1.876-1.51,2.479-2.545
			v-8.581h-4.613c-1.869,0-3.221,0.647-4.054,1.94c-0.835,1.294-1.251,2.933-1.251,4.916c0,1.553,0.359,2.818,1.078,3.795
			C454.254,94.012,455.232,94.5,456.468,94.5z"/>
		<g>
			<path fill="#EB743B" d="M482.72,44.089c0-1.897,0.604-3.449,1.812-4.657c1.207-1.207,2.817-1.812,4.83-1.812
				c2.012,0,3.622,0.605,4.829,1.812c1.208,1.208,1.812,2.76,1.812,4.657c0,1.869-0.597,3.422-1.789,4.657
				c-1.193,1.236-2.81,1.854-4.852,1.854c-2.042,0-3.659-0.618-4.852-1.854C483.316,47.511,482.72,45.958,482.72,44.089z
				 M495.527,102.823H483.28V56.164h12.247V102.823z"/>
		</g>
		<g>
			<path fill="#353070" d="M194.155,44.089c0-1.897,0.605-3.449,1.812-4.657c1.207-1.207,2.817-1.812,4.83-1.812
				c2.012,0,3.622,0.605,4.829,1.812c1.208,1.208,1.812,2.76,1.812,4.657c0,1.869-0.597,3.422-1.789,4.657
				c-1.193,1.236-2.811,1.854-4.852,1.854c-2.042,0-3.659-0.618-4.852-1.854C194.752,47.511,194.155,45.958,194.155,44.089z
				 M206.963,102.823h-12.247V56.164h12.247V102.823z"/>
		</g>
		<path fill="#EB743B" d="M514.986,56.164l0.518,6.425c1.293-2.3,2.882-4.089,4.765-5.369c1.883-1.278,3.96-1.919,6.231-1.919
			c3.881,0,6.936,1.495,9.164,4.485c2.227,2.99,3.342,7.69,3.342,14.102v28.936h-12.29V73.855c0-3.224-0.453-5.489-1.358-6.8
			c-0.905-1.31-2.308-1.965-4.205-1.965c-1.093,0-2.099,0.289-3.019,0.864c-0.92,0.575-1.696,1.367-2.328,2.374v34.495h-12.247
			V56.164H514.986z"/>
		<path fill="#EB743B" d="M559.575,93.034h18.241v9.789h-32.3v-7.288l17.768-29.582h-17.25v-9.789h31.481v7.115L559.575,93.034z"/>
	</g>
</g>
</svg>
