<?xml version="1.0" encoding="utf-8"?>
<!-- Generator: Adobe Illustrator 17.0.0, SVG Export Plug-In . SVG Version: 6.00 Build 0)  -->
<!DOCTYPE svg PUBLIC "-//W3C//DTD SVG 1.1//EN" "http://www.w3.org/Graphics/SVG/1.1/DTD/svg11.dtd">
<svg version="1.1" id="Layer_1" xmlns="http://www.w3.org/2000/svg" xmlns:xlink="http://www.w3.org/1999/xlink" x="0px" y="0px"
	 width="593px" height="150px" viewBox="0 0 593 150" enable-background="new 0 0 593 150" xml:space="preserve">
<g>
</g>
<g>
	<g>
		<g>
			<polygon fill="#EB743B" points="70.354,2.823 70.354,146.823 131.355,111.823 131.355,37.823 			"/>
			<polygon fill="#B50437" points="65.354,2.823 4.354,37.823 4.354,111.823 65.354,146.823 			"/>
			<g>
				<defs>
					<polygon id="SVGID_1_" points="9.354,108.928 9.354,40.719 65.354,8.511 65.354,141.011 					"/>
				</defs>
				<clipPath id="SVGID_2_">
					<use xlink:href="#SVGID_1_"  overflow="visible"/>
				</clipPath>
				<g clip-path="url(#SVGID_2_)">
					<g id="section_53_">
						<g>
							<polyline id="background_60_" fill="#8E0324" stroke="#8E0324" stroke-width="1.5" points="3.446,45.355 2.523,46.056 
								1.703,46.875 1,47.796 0.428,48.804 -0.003,49.88 -0.285,51.004 -0.413,52.156 -0.385,53.315 -0.202,54.459 0.135,55.568 
								0.617,56.622 1.237,57.601 1.984,58.487 2.842,59.266 3.798,59.921 4.834,60.442 5.93,60.818 7.067,61.044 8.224,61.114 
								9.379,61.028 10.513,60.786 11.604,60.395 12.632,59.86 13.578,59.192 14.427,58.402 15.16,57.505 15.767,56.517 
								16.235,55.457 16.543,53.799 16.9,52.508 19.481,53.222 19.124,54.513 18.816,56.172 18.229,57.573 17.458,58.882 
								16.517,60.076 15.424,61.132 14.2,62.032 12.865,62.758 11.444,63.298 9.964,63.641 8.451,63.783 6.932,63.719 5.437,63.451 
								3.99,62.984 2.62,62.326 1.351,61.491 0.206,60.491 -0.794,59.347 -1.63,58.079 -2.289,56.709 -2.757,55.263 -3.025,53.767 
								-3.09,52.249 -2.95,50.736 -2.608,49.255 -2.069,47.834 -1.343,46.499 -0.444,45.273 0.611,44.18 1.804,43.239 							"/>
						</g>
						<g>
							<g>
								<polyline id="background_47_" fill="#FFFEDB" stroke="#FFFEDB" stroke-width="1.5" points="3.446,42.355 2.523,43.056 
									1.703,43.875 1,44.796 0.428,45.804 -0.003,46.88 -0.285,48.004 -0.413,49.156 -0.385,50.315 -0.202,51.459 0.135,52.568 
									0.617,53.622 1.237,54.601 1.984,55.487 2.842,56.266 3.798,56.921 4.834,57.442 5.93,57.818 7.067,58.044 8.224,58.114 
									9.379,58.028 10.513,57.786 11.604,57.395 12.632,56.86 13.578,56.192 14.427,55.402 15.16,54.505 15.767,53.517 
									16.235,52.457 16.543,50.799 16.9,49.508 19.481,50.222 19.124,51.513 18.816,53.172 18.229,54.573 17.458,55.882 
									16.517,57.076 15.424,58.132 14.2,59.032 12.865,59.758 11.444,60.298 9.964,60.641 8.451,60.783 6.932,60.719 
									5.437,60.451 3.99,59.984 2.62,59.326 1.351,58.491 0.206,57.491 -0.794,56.347 -1.63,55.079 -2.289,53.709 -2.757,52.263 
									-3.025,50.767 -3.09,49.249 -2.95,47.736 -2.608,46.255 -2.069,44.834 -1.343,43.499 -0.444,42.273 0.611,41.18 
									1.804,40.239 								"/>
							</g>
						</g>
					</g>
					<g id="section_76_">
						<g>
							<polyline id="background_50_" fill="#8E0324" stroke="#8E0324" stroke-width="1.5" points="16.547,58.084 17.568,56.959 
								18.429,55.707 19.113,54.35 19.608,52.913 19.905,51.423 19.999,49.906 19.887,48.39 19.573,46.904 19.061,45.473 
								18.361,44.124 17.486,42.882 16.451,41.769 15.276,40.805 13.982,40.008 12.592,39.393 11.132,38.971 9.629,38.749 
								-9.117,38.385 -10.456,38.359 -10.508,41.037 -9.169,41.063 9.577,41.427 10.72,41.618 11.827,41.96 12.878,42.449 
								13.854,43.075 14.736,43.826 15.509,44.689 16.159,45.649 16.673,46.687 17.044,47.786 17.262,48.924 17.326,50.081 
								17.233,51.236 16.985,52.368 16.588,53.457 16.047,54.482 15.373,55.425 14.578,56.268 							"/>
						</g>
						<g>
							<g>
								<polyline id="background_42_" fill="#FFFEDB" stroke="#FFFEDB" stroke-width="1.5" points="16.547,55.084 17.568,53.959 
									18.429,52.707 19.113,51.35 19.608,49.913 19.905,48.423 19.999,46.906 19.887,45.39 19.573,43.904 19.061,42.473 
									18.361,41.124 17.486,39.882 16.451,38.769 15.276,37.805 13.982,37.008 12.592,36.393 11.132,35.971 9.629,35.749 
									-9.117,35.385 -10.456,35.359 -10.508,38.037 -9.169,38.063 9.577,38.427 10.72,38.618 11.827,38.96 12.878,39.449 
									13.854,40.075 14.736,40.826 15.509,41.689 16.159,42.649 16.673,43.687 17.044,44.786 17.262,45.924 17.326,47.081 
									17.233,48.236 16.985,49.368 16.588,50.457 16.047,51.482 15.373,52.425 14.578,53.268 								"/>
							</g>
						</g>
					</g>
					<g>
						<g>
							<g>
								<polyline id="background_43_" fill="#8E0324" points="45.72,77.796 45.925,77.643 46.142,77.49 46.373,77.337 
									46.618,77.185 47.865,76.468 48.158,76.312 48.469,76.16 48.799,76.014 49.167,75.869 49.458,75.764 49.666,75.695 
									49.765,75.663 49.868,75.631 49.976,75.599 50.089,75.567 50.207,75.535 50.329,75.503 50.458,75.472 52.415,75.031 
									52.586,74.994 52.766,74.961 52.953,74.929 53.149,74.9 53.354,74.875 53.567,74.853 53.79,74.835 54.023,74.822 
									54.265,74.815 69.734,74.807 70.357,74.806 70.354,70.823 69.732,70.824 54.263,70.832 53.916,70.841 53.583,70.857 
									53.263,70.881 52.957,70.911 52.663,70.947 52.382,70.987 52.113,71.031 51.855,71.079 51.609,71.129 49.581,71.587 
									49.397,71.631 49.221,71.676 49.052,71.721 48.89,71.767 48.736,71.812 48.588,71.858 48.446,71.903 48.197,71.986 
									47.828,72.118 47.347,72.305 46.873,72.51 46.426,72.725 46.004,72.946 44.637,73.729 44.284,73.945 43.952,74.163 
									43.639,74.381 43.345,74.598 								"/>
							</g>
							<g>
								<g>
									<polyline id="background_29_" fill="#FFFEDB" points="45.72,74.796 45.925,74.643 46.142,74.49 46.373,74.337 
										46.618,74.185 47.865,73.468 48.158,73.312 48.469,73.16 48.799,73.014 49.167,72.869 49.458,72.764 49.666,72.695 
										49.765,72.663 49.868,72.631 49.976,72.599 50.089,72.567 50.207,72.535 50.329,72.503 50.458,72.472 52.415,72.031 
										52.586,71.994 52.766,71.961 52.953,71.929 53.149,71.9 53.354,71.875 53.567,71.853 53.79,71.835 54.023,71.822 
										54.265,71.815 69.734,71.807 70.357,71.806 70.354,67.823 69.732,67.824 54.263,67.832 53.916,67.841 53.583,67.857 
										53.263,67.881 52.957,67.911 52.663,67.947 52.382,67.987 52.113,68.031 51.855,68.079 51.609,68.129 49.581,68.587 
										49.397,68.631 49.221,68.676 49.052,68.721 48.89,68.767 48.736,68.812 48.588,68.858 48.446,68.903 48.197,68.986 
										47.828,69.118 47.347,69.305 46.873,69.51 46.426,69.725 46.004,69.946 44.637,70.729 44.284,70.945 43.952,71.163 
										43.639,71.381 43.345,71.598 									"/>
								</g>
							</g>
						</g>
						<g>
							<g>
								<polyline id="background_45_" fill="#8E0324" points="42.653,81.21 42.69,81.141 42.729,81.068 42.772,80.993 
									42.816,80.916 42.862,80.835 42.912,80.752 42.965,80.666 43.021,80.577 43.08,80.485 43.143,80.39 43.209,80.292 
									43.28,80.191 43.355,80.086 43.434,79.979 43.519,79.868 43.609,79.754 43.703,79.636 43.805,79.516 43.912,79.392 
									44.026,79.265 44.147,79.135 44.276,79.002 44.413,78.867 44.558,78.729 44.713,78.588 44.877,78.446 45.051,78.302 
									45.236,78.156 45.476,77.978 45.72,77.796 43.345,74.598 43.1,74.78 42.861,74.958 42.594,75.166 42.343,75.371 
									42.107,75.575 41.886,75.775 41.676,75.972 41.479,76.166 41.294,76.356 41.12,76.541 40.956,76.722 40.801,76.899 
									40.656,77.072 40.519,77.239 40.39,77.403 40.268,77.561 40.154,77.715 40.046,77.865 39.945,78.01 39.849,78.15 
									39.759,78.286 39.674,78.418 39.593,78.545 39.518,78.668 39.446,78.787 39.379,78.902 39.315,79.013 39.255,79.121 
									39.198,79.224 39.144,79.324 								"/>
							</g>
							<g>
								<g>
									<polyline id="background_27_" fill="#FFFEDB" points="42.653,78.21 42.69,78.141 42.729,78.068 42.772,77.993 
										42.816,77.916 42.862,77.835 42.912,77.752 42.965,77.666 43.021,77.577 43.08,77.485 43.143,77.39 43.209,77.292 
										43.28,77.191 43.355,77.086 43.434,76.979 43.519,76.868 43.609,76.754 43.703,76.636 43.805,76.516 43.912,76.392 
										44.026,76.265 44.147,76.135 44.276,76.002 44.413,75.867 44.558,75.729 44.713,75.588 44.877,75.446 45.051,75.302 
										45.236,75.156 45.476,74.978 45.72,74.796 43.345,71.598 43.1,71.78 42.861,71.958 42.594,72.166 42.343,72.371 
										42.107,72.575 41.886,72.775 41.676,72.972 41.479,73.166 41.294,73.356 41.12,73.541 40.956,73.722 40.801,73.899 
										40.656,74.072 40.519,74.239 40.39,74.403 40.268,74.561 40.154,74.715 40.046,74.865 39.945,75.01 39.849,75.15 
										39.759,75.286 39.674,75.418 39.593,75.545 39.518,75.668 39.446,75.787 39.379,75.902 39.315,76.013 39.255,76.121 
										39.198,76.224 39.144,76.324 									"/>
								</g>
							</g>
						</g>
					</g>
					<g id="section_77_">
						<g>
							<polyline id="background_48_" fill="#8E0324" stroke="#8E0324" stroke-width="1.5" points="-31.309,53.32 27.507,85.538 
								28.927,86.081 30.406,86.427 31.919,86.571 33.438,86.51 34.934,86.245 36.381,85.781 37.752,85.126 39.023,84.292 
								40.17,83.295 41.172,82.153 42.011,80.886 39.608,79.702 38.951,80.656 38.17,81.513 37.282,82.257 36.301,82.874 
								35.246,83.354 34.136,83.688 32.992,83.869 31.833,83.894 30.681,83.763 29.558,83.478 28.483,83.044 -30.006,50.98 							
								"/>
						</g>
						<g>
							<g>
								<polyline id="background_26_" fill="#FFFEDB" stroke="#FFFEDB" stroke-width="1.5" points="-31.309,50.32 27.507,82.538 
									28.927,83.081 30.406,83.427 31.919,83.571 33.438,83.51 34.934,83.245 36.381,82.781 37.752,82.126 39.023,81.292 
									40.17,80.295 41.172,79.153 42.011,77.886 39.608,76.702 38.951,77.656 38.17,78.513 37.282,79.257 36.301,79.874 
									35.246,80.354 34.136,80.688 32.992,80.869 31.833,80.894 30.681,80.763 29.558,80.478 28.483,80.044 -30.006,47.98 
																	"/>
							</g>
						</g>
					</g>
					<g id="section_46_">
						<g>
							<path id="background_44_" fill="#8E0324" stroke="#8E0324" stroke-width="1.5" d="M3.625,99.819l0.944,5.456l0.467,1.446
								l0.657,1.37l0.836,1.269l0.999,1.145l1.144,1l1.269,0.837l1.37,0.659l1.446,0.468l1.496,0.269l1.518,0.065l1.513-0.14
								l1.48-0.343l1.421-0.539l1.335-0.725c4.396-2.17,2.527-4.479,8.743-4.449l-0.161-2.903c-5.31-0.755-7.111,3.676-10.148,5.179
								l-1.029,0.534l-1.091,0.391l-1.134,0.24l-1.156,0.086l-1.157-0.071l-1.137-0.226l-1.096-0.377l-1.035-0.521l-0.955-0.656
								l-0.858-0.779l-0.746-0.887l-0.619-0.98l-0.482-1.054l-0.335-1.109L3.195,92.32"/>
						</g>
						<g>
							<g>
								<path id="background_34_" fill="#FFFEDB" stroke="#FFFEDB" stroke-width="1.5" d="M3.625,96.819l0.944,5.456l0.467,1.446
									l0.657,1.37l0.836,1.269l0.999,1.145l1.144,1l1.269,0.837l1.37,0.659l1.446,0.468l1.496,0.269l1.518,0.065l1.513-0.14
									l1.48-0.343l1.421-0.539l1.335-0.725c4.396-2.17,2.527-4.479,8.743-4.449l-0.161-2.903
									c-5.31-0.755-7.111,3.676-10.148,5.179l-1.029,0.534l-1.091,0.391l-1.134,0.24l-1.156,0.086l-1.157-0.071l-1.137-0.226
									l-1.096-0.377l-1.035-0.521l-0.955-0.656l-0.858-0.779l-0.746-0.887l-0.619-0.98l-0.482-1.054l-0.335-1.109L3.195,89.32"/>
							</g>
						</g>
					</g>
					<g id="section_51_">
						<g>
							<polyline id="background_41_" fill="#8E0324" stroke="#8E0324" stroke-width="1.5" points="30.102,104.703 31.523,105.242 
								32.859,105.968 34.084,106.866 35.177,107.922 36.118,109.115 36.89,110.424 37.479,111.825 37.874,113.292 38.067,114.799 
								38.056,116.319 37.84,117.823 37.423,119.285 36.814,120.677 36.022,121.974 35.063,123.153 33.954,124.192 32.715,125.072 
								31.369,125.777 29.94,126.295 28.455,126.615 26.94,126.733 8.394,125.797 7.238,125.884 6.105,126.126 5.014,126.518 
								3.986,127.053 3.04,127.722 -3.889,134.301 -5.128,135.181 -6.474,135.887 -7.903,136.404 -9.388,136.724 -10.904,136.842 
								-12.421,136.754 -13.912,136.463 -15.351,135.973 -16.711,135.295 -17.967,134.439 -19.096,133.422 -20.077,132.262 
								-20.894,130.98 -21.531,129.601 -21.976,128.148 -19.336,127.694 -18.976,128.796 -18.471,129.839 -17.83,130.804 
								-17.065,131.675 -16.19,132.434 -15.22,133.069 -14.174,133.567 -13.07,133.92 -11.929,134.121 -10.771,134.167 
								-9.617,134.055 -8.489,133.79 -7.406,133.376 -6.39,132.819 -5.458,132.13 1.193,125.782 2.417,124.882 3.752,124.155 
								5.173,123.615 6.653,123.27 8.166,123.129 27.073,124.058 28.226,123.947 29.355,123.681 30.437,123.266 31.453,122.71 
								32.385,122.021 33.216,121.213 33.931,120.301 34.516,119.3 34.961,118.23 35.258,117.11 35.402,115.96 35.389,114.801 
								35.22,113.654 34.898,112.541 34.43,111.481 33.822,110.494 33.088,109.598 32.239,108.808 31.292,108.141 30.264,107.606 
								29.173,107.215 							"/>
						</g>
						<g>
							<g>
								<polyline id="background_31_" fill="#FFFEDB" stroke="#FFFEDB" stroke-width="1.5" points="30.102,101.703 31.523,102.242 
									32.859,102.968 34.084,103.866 35.177,104.922 36.118,106.115 36.89,107.424 37.479,108.825 37.874,110.292 38.067,111.799 
									38.056,113.319 37.84,114.823 37.423,116.285 36.814,117.677 36.022,118.974 35.063,120.153 33.954,121.192 32.715,122.072 
									31.369,122.777 29.94,123.295 28.455,123.615 26.94,123.733 8.394,122.797 7.238,122.884 6.105,123.126 5.014,123.518 
									3.986,124.053 3.04,124.722 -3.889,131.301 -5.128,132.181 -6.474,132.887 -7.903,133.404 -9.388,133.724 -10.904,133.842 
									-12.421,133.754 -13.912,133.463 -15.351,132.973 -16.711,132.295 -17.967,131.439 -19.096,130.422 -20.077,129.262 
									-20.894,127.98 -21.531,126.601 -21.976,125.147 -19.336,124.694 -18.976,125.796 -18.471,126.839 -17.83,127.804 
									-17.065,128.675 -16.19,129.434 -15.22,130.069 -14.174,130.567 -13.07,130.92 -11.929,131.121 -10.771,131.167 
									-9.617,131.055 -8.489,130.79 -7.406,130.376 -6.39,129.819 -5.458,129.13 1.193,122.782 2.417,121.882 3.752,121.155 
									5.173,120.615 6.653,120.27 8.166,120.129 27.073,121.058 28.226,120.947 29.355,120.681 30.437,120.266 31.453,119.71 
									32.385,119.021 33.216,118.213 33.931,117.301 34.516,116.3 34.961,115.23 35.258,114.11 35.402,112.96 35.389,111.801 
									35.22,110.654 34.898,109.541 34.43,108.481 33.822,107.494 33.088,106.598 32.239,105.808 31.292,105.141 30.264,104.606 
									29.173,104.215 								"/>
							</g>
						</g>
					</g>
					<g id="section_54_">
						<g>
							<polyline id="background_37_" fill="#8E0324" stroke="#8E0324" stroke-width="1.5" points="-4.527,96.732 13.356,87.19 
								14.582,86.292 15.675,85.237 16.616,84.043 17.388,82.734 17.977,81.333 18.371,79.866 18.565,78.358 18.553,76.839 
								18.337,75.335 17.921,73.873 17.311,72.481 16.52,71.184 15.561,70.005 14.452,68.966 3.736,61.238 2.888,60.448 
								0.796,62.121 1.889,63.178 12.883,71.137 13.714,71.945 14.429,72.857 15.014,73.858 15.459,74.928 15.756,76.048 
								15.899,77.198 15.886,78.357 15.717,79.504 15.396,80.617 14.927,81.677 14.32,82.664 13.585,83.561 12.737,84.35 
								11.79,85.018 -5.786,94.369 							"/>
						</g>
						<g>
							<g>
								<polyline id="background_33_" fill="#FFFEDB" stroke="#FFFEDB" stroke-width="1.5" points="-4.527,93.732 13.356,84.19 
									14.582,83.292 15.675,82.237 16.616,81.043 17.388,79.734 17.977,78.333 18.371,76.866 18.565,75.358 18.553,73.839 
									18.337,72.335 17.921,70.873 17.311,69.481 16.52,68.184 15.561,67.005 14.452,65.966 3.736,58.238 2.888,57.448 
									0.796,59.121 1.889,60.178 12.883,68.137 13.714,68.945 14.429,69.857 15.014,70.858 15.459,71.928 15.756,73.048 
									15.899,74.198 15.886,75.357 15.717,76.504 15.396,77.617 14.927,78.677 14.32,79.664 13.585,80.561 12.737,81.35 
									11.79,82.018 -5.786,91.369 								"/>
							</g>
						</g>
					</g>
					<g id="section_1_">
						<g>
							<polyline id="background_65_" fill="#8E0324" stroke="#8E0324" stroke-width="1.5" points="47.21,139.608 39.163,121.005 
								38.367,119.71 37.405,118.534 36.292,117.499 35.051,116.622 33.703,115.921 32.272,115.408 30.786,115.092 29.271,114.979 
								27.754,115.071 26.263,115.367 24.826,115.861 23.468,116.543 22.215,117.403 21.089,118.423 12.51,128.471 11.653,129.252 
								13.151,131.473 14.293,130.471 23.124,120.164 23.997,119.402 24.965,118.764 26.01,118.263 27.113,117.907 28.254,117.702 
								29.412,117.654 30.566,117.761 31.694,118.023 32.778,118.435 33.796,118.989 34.73,119.674 35.564,120.48 36.281,121.39 
								36.869,122.389 44.751,140.67 							"/>
						</g>
						<g>
							<g>
								<polyline id="background_36_" fill="#FFFEDB" stroke="#FFFEDB" stroke-width="1.5" points="47.21,136.608 39.163,118.005 
									38.367,116.71 37.405,115.534 36.292,114.499 35.051,113.622 33.703,112.921 32.272,112.408 30.786,112.092 29.271,111.979 
									27.754,112.071 26.263,112.367 24.826,112.861 23.468,113.543 22.215,114.403 21.089,115.423 12.51,125.471 11.653,126.252 
									13.151,128.473 14.293,127.471 23.124,117.164 23.997,116.402 24.965,115.764 26.01,115.263 27.113,114.907 28.254,114.702 
									29.412,114.654 30.566,114.761 31.694,115.023 32.778,115.435 33.796,115.989 34.73,116.674 35.564,117.48 36.281,118.39 
									36.869,119.389 44.751,137.67 								"/>
							</g>
						</g>
					</g>
					<g id="section_56_">
						<g>
							<polyline id="background_35_" fill="#8E0324" stroke="#8E0324" stroke-width="1.5" points="-11.819,84.378 -10.675,84.194 
								-9.516,84.166 -8.364,84.294 36.807,96.12 37.883,96.551 38.891,97.123 39.813,97.825 40.632,98.645 41.333,99.568 
								41.903,100.577 42.332,101.654 49.747,132.743 49.874,133.895 49.844,135.054 49.658,136.198 49.32,137.306 48.835,138.359 
								48.214,139.337 47.466,140.223 46.606,140.999 45.649,141.653 44.612,142.172 43.515,142.547 42.378,142.77 41.221,142.838 
								40.066,142.75 38.933,142.507 37.843,142.114 36.815,141.577 35.87,140.907 34.02,142.844 35.244,143.746 36.577,144.475 
								37.997,145.017 39.477,145.363 40.99,145.507 42.508,145.445 44.005,145.18 45.451,144.716 46.822,144.061 48.093,143.227 
								49.24,142.23 50.242,141.087 51.081,139.82 51.741,138.451 52.211,137.006 52.483,135.511 52.55,133.993 52.413,132.479 
								44.938,101.033 44.401,99.611 43.678,98.275 42.782,97.048 41.728,95.953 40.536,95.009 39.229,94.235 37.829,93.644 
								-7.685,81.703 -9.192,81.507 -10.712,81.516 -12.216,81.729 							"/>
						</g>
						<g>
							<g>
								<polyline id="background_30_" fill="#FFFEDB" stroke="#FFFEDB" stroke-width="1.5" points="-11.819,81.378 -10.675,81.194 
									-9.516,81.166 -8.364,81.294 36.807,93.12 37.883,93.551 38.891,94.123 39.813,94.825 40.632,95.645 41.333,96.568 
									41.903,97.577 42.332,98.654 49.747,129.743 49.874,130.895 49.844,132.054 49.658,133.198 49.32,134.306 48.835,135.359 
									48.214,136.337 47.466,137.223 46.606,137.999 45.649,138.653 44.612,139.172 43.515,139.547 42.378,139.77 41.221,139.838 
									40.066,139.75 38.933,139.507 37.843,139.114 36.815,138.577 35.87,137.907 34.02,139.844 35.244,140.746 36.577,141.475 
									37.997,142.017 39.477,142.363 40.99,142.507 42.508,142.445 44.005,142.18 45.451,141.716 46.822,141.061 48.093,140.227 
									49.24,139.23 50.242,138.087 51.081,136.82 51.741,135.451 52.211,134.006 52.483,132.511 52.55,130.993 52.413,129.479 
									44.938,98.033 44.401,96.611 43.678,95.275 42.782,94.048 41.728,92.953 40.536,92.009 39.229,91.235 37.829,90.644 
									-7.685,78.703 -9.192,78.507 -10.712,78.516 -12.216,78.729 								"/>
							</g>
						</g>
					</g>
					<g id="background_57_">
						<g>
							<polygon fill="#8E0324" points="17.12,59.896 30.008,62.805 31.098,63.2 32.125,63.738 33.069,64.409 33.915,65.201 
								34.647,66.1 35.25,67.089 35.715,68.151 36.033,69.266 36.198,70.413 36.207,71.572 36.059,72.721 35.758,73.84 
								35.309,74.909 34.721,75.907 34.003,76.817 33.169,77.622 32.235,78.307 31.216,78.86 30.132,79.272 29.003,79.533 
								29.222,82.202 30.709,81.887 32.139,81.375 33.488,80.674 34.73,79.799 35.843,78.763 36.806,77.588 37.602,76.294 
								38.216,74.904 38.638,73.444 38.859,71.94 38.876,70.421 38.688,68.913 38.299,67.444 37.715,66.041 36.948,64.729 
								36.011,63.533 34.921,62.473 33.699,61.57 32.366,60.84 30.947,60.297 17.712,57.284 16.598,56.965 15.537,56.499 
								14.549,55.894 13.651,55.161 12.86,54.314 12.19,53.368 11.653,52.341 11.26,51.251 11.017,50.118 10.929,48.962 
								10.998,47.805 11.221,46.668 11.596,45.571 12.115,44.535 12.769,43.578 13.546,42.718 14.432,41.971 15.41,41.349 
								16.463,40.865 17.571,40.527 18.715,40.341 19.874,40.312 21.026,40.438 22.15,40.719 23.227,41.148 24.236,41.718 
								25.158,42.419 25.978,43.239 26.681,44.161 29.024,42.864 28.126,41.638 27.071,40.544 25.878,39.603 24.57,38.83 
								23.169,38.241 21.701,37.846 20.194,37.652 18.674,37.663 17.17,37.879 15.708,38.295 14.316,38.904 13.019,39.695 
								11.84,40.653 10.8,41.762 9.92,43.001 9.214,44.346 8.696,45.775 8.375,47.261 8.257,48.776 8.344,50.293 8.635,51.784 
								9.124,53.223 9.802,54.583 10.658,55.839 11.674,56.969 12.834,57.951 14.115,58.768 15.495,59.406 16.948,59.851 							"/>
							<polygon fill="none" stroke="#8E0324" stroke-width="1.5" points="17.12,59.896 30.008,62.805 31.098,63.2 32.125,63.738 
								33.069,64.409 33.915,65.201 34.647,66.1 35.25,67.089 35.715,68.151 36.033,69.266 36.198,70.413 36.207,71.572 
								36.059,72.721 35.758,73.84 35.309,74.909 34.721,75.907 34.003,76.817 33.169,77.622 32.235,78.307 31.216,78.86 
								30.132,79.272 29.003,79.533 29.222,82.202 30.709,81.887 32.139,81.375 33.488,80.674 34.73,79.799 35.843,78.763 
								36.806,77.588 37.602,76.294 38.216,74.904 38.638,73.444 38.859,71.94 38.876,70.421 38.688,68.913 38.299,67.444 
								37.715,66.041 36.948,64.729 36.011,63.533 34.921,62.473 33.699,61.57 32.366,60.84 30.947,60.297 17.712,57.284 
								16.598,56.965 15.537,56.499 14.549,55.894 13.651,55.161 12.86,54.314 12.19,53.368 11.653,52.341 11.26,51.251 
								11.017,50.118 10.929,48.962 10.998,47.805 11.221,46.668 11.596,45.571 12.115,44.535 12.769,43.578 13.546,42.718 
								14.432,41.971 15.41,41.349 16.463,40.865 17.571,40.527 18.715,40.341 19.874,40.312 21.026,40.438 22.15,40.719 
								23.227,41.148 24.236,41.718 25.158,42.419 25.978,43.239 26.681,44.161 29.024,42.864 28.126,41.638 27.071,40.544 
								25.878,39.603 24.57,38.83 23.169,38.241 21.701,37.846 20.194,37.652 18.674,37.663 17.17,37.879 15.708,38.295 
								14.316,38.904 13.019,39.695 11.84,40.653 10.8,41.762 9.92,43.001 9.214,44.346 8.696,45.775 8.375,47.261 8.257,48.776 
								8.344,50.293 8.635,51.784 9.124,53.223 9.802,54.583 10.658,55.839 11.674,56.969 12.834,57.951 14.115,58.768 
								15.495,59.406 16.948,59.851 							"/>
						</g>
						<g>
							<polygon fill="#FFFEDB" points="17.12,56.896 30.008,59.805 31.098,60.2 32.125,60.738 33.069,61.409 33.915,62.201 
								34.647,63.1 35.25,64.089 35.715,65.151 36.033,66.266 36.198,67.413 36.207,68.572 36.059,69.721 35.758,70.84 
								35.309,71.909 34.721,72.907 34.003,73.817 33.169,74.622 32.235,75.307 31.216,75.86 30.132,76.272 29.003,76.533 
								29.222,79.202 30.709,78.887 32.139,78.375 33.488,77.674 34.73,76.799 35.843,75.763 36.806,74.588 37.602,73.294 
								38.216,71.904 38.638,70.444 38.859,68.94 38.876,67.421 38.688,65.913 38.299,64.444 37.715,63.041 36.948,61.729 
								36.011,60.533 34.921,59.473 33.699,58.57 32.366,57.84 30.947,57.297 17.712,54.284 16.598,53.965 15.537,53.499 
								14.549,52.894 13.651,52.161 12.86,51.314 12.19,50.368 11.653,49.341 11.26,48.251 11.017,47.118 10.929,45.962 
								10.998,44.805 11.221,43.668 11.596,42.571 12.115,41.535 12.769,40.578 13.546,39.718 14.432,38.971 15.41,38.349 
								16.463,37.865 17.571,37.527 18.715,37.341 19.874,37.312 21.026,37.438 22.15,37.719 23.227,38.148 24.236,38.718 
								25.158,39.419 25.978,40.239 26.681,41.161 29.024,39.864 28.126,38.638 27.071,37.544 25.878,36.603 24.57,35.83 
								23.169,35.241 21.701,34.846 20.194,34.652 18.674,34.663 17.17,34.879 15.708,35.295 14.316,35.904 13.019,36.695 
								11.84,37.653 10.8,38.762 9.92,40.001 9.214,41.346 8.696,42.775 8.375,44.261 8.257,45.776 8.344,47.293 8.635,48.784 
								9.124,50.223 9.802,51.583 10.658,52.839 11.674,53.969 12.834,54.951 14.115,55.768 15.495,56.406 16.948,56.851 							"/>
							<polygon fill="none" stroke="#FFFEDB" stroke-width="1.5" points="17.12,56.896 30.008,59.805 31.098,60.2 32.125,60.738 
								33.069,61.409 33.915,62.201 34.647,63.1 35.25,64.089 35.715,65.151 36.033,66.266 36.198,67.413 36.207,68.572 
								36.059,69.721 35.758,70.84 35.309,71.909 34.721,72.907 34.003,73.817 33.169,74.622 32.235,75.307 31.216,75.86 
								30.132,76.272 29.003,76.533 29.222,79.202 30.709,78.887 32.139,78.375 33.488,77.674 34.73,76.799 35.843,75.763 
								36.806,74.588 37.602,73.294 38.216,71.904 38.638,70.444 38.859,68.94 38.876,67.421 38.688,65.913 38.299,64.444 
								37.715,63.041 36.948,61.729 36.011,60.533 34.921,59.473 33.699,58.57 32.366,57.84 30.947,57.297 17.712,54.284 
								16.598,53.965 15.537,53.499 14.549,52.894 13.651,52.161 12.86,51.314 12.19,50.368 11.653,49.341 11.26,48.251 
								11.017,47.118 10.929,45.962 10.998,44.805 11.221,43.668 11.596,42.571 12.115,41.535 12.769,40.578 13.546,39.718 
								14.432,38.971 15.41,38.349 16.463,37.865 17.571,37.527 18.715,37.341 19.874,37.312 21.026,37.438 22.15,37.719 
								23.227,38.148 24.236,38.718 25.158,39.419 25.978,40.239 26.681,41.161 29.024,39.864 28.126,38.638 27.071,37.544 
								25.878,36.603 24.57,35.83 23.169,35.241 21.701,34.846 20.194,34.652 18.674,34.663 17.17,34.879 15.708,35.295 
								14.316,35.904 13.019,36.695 11.84,37.653 10.8,38.762 9.92,40.001 9.214,41.346 8.696,42.775 8.375,44.261 8.257,45.776 
								8.344,47.293 8.635,48.784 9.124,50.223 9.802,51.583 10.658,52.839 11.674,53.969 12.834,54.951 14.115,55.768 
								15.495,56.406 16.948,56.851 							"/>
						</g>
					</g>
					<g id="section_59_">
						<g>
							<path id="background_32_" fill="#8E0324" stroke="#8E0324" stroke-width="1.5" d="M54.963,41.794l-0.424-1.459l-0.616-1.389
								l-0.798-1.293l-5.646-7.142l-1.114-1.034l-1.243-0.874l-1.349-0.699l-1.432-0.511l-1.487-0.313l-1.516-0.11l-1.517,0.095
								l-1.49,0.299l-1.436,0.496l-1.356,0.685l-1.252,0.862l-1.124,1.022l-0.976,1.165l-2.063,3.236l-0.742,0.89l-0.855,0.782
								l-0.953,0.66l-1.033,0.525l-1.094,0.381l-1.136,0.23l-1.156,0.075l-1.156-0.081c0,0-1.919-0.553-3.594-2.855
								c-1.675-2.302-4.559-2.587-2.25,1.42s5.271,4.052,5.271,4.052l1.514,0.134l1.518-0.071l1.495-0.275l1.444-0.473l1.367-0.663
								l1.265-0.841l1.14-1.004l0.995-1.149l2.278-3.526l0.761-0.874l0.872-0.764l0.966-0.639l1.044-0.503l1.102-0.358l1.141-0.207
								l1.158-0.051l1.154,0.106l1.129,0.26l1.084,0.41l1.019,0.552l0.936,0.684l0.835,0.804l5.4,6.876l0.59,0.998l0.45,1.068
								l0.302,1.119"/>
						</g>
						<g>
							<g>
								<path id="background_23_" fill="#FFFEDB" stroke="#FFFEDB" stroke-width="1.5" d="M54.963,38.794l-0.424-1.459l-0.616-1.389
									l-0.798-1.293l-5.646-7.142l-1.114-1.034l-1.243-0.874l-1.349-0.699l-1.432-0.511l-1.487-0.313l-1.516-0.11l-1.517,0.095
									l-1.49,0.299l-1.436,0.496l-1.356,0.685l-1.252,0.862l-1.124,1.022l-0.976,1.165l-2.063,3.236l-0.742,0.89l-0.855,0.782
									l-0.953,0.66l-1.033,0.525l-1.094,0.381l-1.136,0.23l-1.156,0.075l-1.156-0.081c0,0-1.919-0.553-3.594-2.855
									c-1.675-2.302-4.559-2.587-2.25,1.42s5.271,4.052,5.271,4.052l1.514,0.134l1.518-0.071l1.495-0.275l1.444-0.473l1.367-0.663
									l1.265-0.841l1.14-1.004l0.995-1.149l2.278-3.526l0.761-0.874l0.872-0.764l0.966-0.639l1.044-0.503l1.102-0.358l1.141-0.207
									l1.158-0.051l1.154,0.106l1.129,0.26l1.084,0.41l1.019,0.552l0.936,0.684l0.835,0.804l5.4,6.876l0.59,0.998l0.45,1.068
									l0.302,1.119"/>
							</g>
						</g>
					</g>
					<g>
						<g id="section_61_">
							<g>
								<polyline id="background_59_" fill="#8E0324" stroke="#8E0324" stroke-width="1.5" points="28.831,58.769 37.524,37.727 
									48.627,8.323 46.152,7.3 35.049,36.704 26.355,57.746 								"/>
							</g>
							<g>
								<g>
									<polyline id="background_25_" fill="#FFFEDB" stroke="#FFFEDB" stroke-width="1.5" points="28.831,55.769 37.524,34.727 
										48.627,5.323 46.152,4.3 35.049,33.704 26.355,54.746 									"/>
								</g>
							</g>
						</g>
						<g id="section_62_">
							<g>
								<polyline id="background_64_" fill="#8E0324" stroke="#8E0324" stroke-width="1.5" points="31.496,103.332 32.91,102.773 
									34.235,102.029 35.447,101.114 36.526,100.043 37.45,98.837 38.204,97.517 38.773,96.108 39.147,94.635 39.319,93.125 
									39.286,91.606 39.049,90.105 38.612,88.649 37.983,87.266 37.174,85.98 36.198,84.815 35.075,83.791 33.824,82.929 
									28.028,79.95 27.073,79.295 26.214,78.517 25.468,77.63 24.848,76.65 24.365,75.597 24.029,74.488 23.846,73.343 
									23.818,72.185 23.946,71.033 24.229,69.909 28.32,60.007 28.831,58.769 26.355,57.746 25.844,58.984 21.753,68.886 
									21.356,70.353 21.159,71.86 21.167,73.379 21.38,74.884 21.794,76.346 22.401,77.74 23.19,79.038 24.146,80.219 
									25.253,81.26 26.49,82.143 32.595,85.309 33.536,85.984 34.379,86.78 35.106,87.683 35.705,88.675 36.165,89.739 
									36.478,90.854 36.637,92.002 36.641,93.161 36.488,94.31 36.182,95.428 35.728,96.494 35.135,97.49 34.413,98.396 
									33.576,99.198 32.638,99.879 31.617,100.427 30.531,100.833 								"/>
							</g>
							<g>
								<g>
									<polyline id="background_49_" fill="#FFFEDB" stroke="#FFFEDB" stroke-width="1.5" points="31.496,100.332 32.91,99.773 
										34.235,99.029 35.447,98.114 36.526,97.043 37.45,95.837 38.204,94.517 38.773,93.108 39.147,91.635 39.319,90.125 
										39.286,88.606 39.049,87.105 38.612,85.649 37.983,84.266 37.174,82.98 36.198,81.815 35.075,80.791 33.824,79.929 
										28.028,76.95 27.073,76.295 26.214,75.517 25.468,74.63 24.848,73.65 24.365,72.597 24.029,71.488 23.846,70.343 
										23.818,69.185 23.946,68.033 24.229,66.909 28.32,57.007 28.831,55.769 26.355,54.746 25.844,55.984 21.753,65.886 
										21.356,67.353 21.159,68.86 21.167,70.379 21.38,71.884 21.794,73.346 22.401,74.74 23.19,76.038 24.146,77.219 
										25.253,78.26 26.49,79.143 32.595,82.309 33.536,82.984 34.379,83.78 35.106,84.683 35.705,85.675 36.165,86.739 
										36.478,87.854 36.637,89.002 36.641,90.161 36.488,91.31 36.182,92.428 35.728,93.494 35.135,94.49 34.413,95.396 
										33.576,96.198 32.638,96.879 31.617,97.427 30.531,97.833 									"/>
								</g>
							</g>
						</g>
					</g>
					<g id="section_52_">
						<g>
							
								<path id="background_38_" fill="#8E0324" stroke="#8E0324" stroke-width="1.5" stroke-linecap="square" stroke-linejoin="round" d="
								M-6.707,62.534l0.929,26.949l0.268,1.496l0.467,1.446l0.657,1.37l0.836,1.269l0.999,1.145l1.144,1l1.269,0.837l1.37,0.658
								l1.446,0.468l25.187,4.724c0,0,2.177,0.177,3.631-0.564l-0.965-2.499c-0.896,0.459-2.531,0.388-2.531,0.388L3.173,96.54
								l-1.096-0.377l-1.035-0.521l-0.955-0.656l-0.859-0.779l-0.746-0.887l-0.619-0.98l-0.482-1.054l-0.336-1.11l-0.183-1.144
								l-0.893-26.59"/>
						</g>
						<g>
							<g>
								
									<path id="background_24_" fill="#FFFEDB" stroke="#FFFEDB" stroke-width="1.5" stroke-linecap="square" stroke-linejoin="round" d="
									M-6.707,59.534l0.929,26.949l0.268,1.496l0.467,1.446l0.657,1.37l0.836,1.269l0.999,1.145l1.144,1l1.269,0.837l1.37,0.658
									l1.446,0.468l25.187,4.724c0,0,2.177,0.177,3.631-0.564l-0.965-2.499c-0.896,0.459-2.531,0.388-2.531,0.388L3.173,93.54
									l-1.096-0.377l-1.035-0.521l-0.955-0.656l-0.859-0.779l-0.746-0.887l-0.619-0.98l-0.482-1.054l-0.336-1.11l-0.183-1.144
									l-0.893-26.59"/>
							</g>
						</g>
					</g>
					<g id="background_4_">
						<g>
							<polyline fill="#8E0324" points="17.194,95.726 18.648,95.286 20.031,94.655 21.315,93.844 22.479,92.866 23.5,91.741 
								24.361,90.488 25.045,89.131 25.54,87.694 28.214,74.756 28.589,73.659 29.108,72.623 29.762,71.666 41.68,58.728 
								42.54,57.476 43.225,56.119 43.72,54.682 44.017,53.192 44.11,51.675 43.999,50.159 43.684,48.672 43.172,47.242 
								42.472,45.893 41.597,44.651 40.562,43.537 39.387,42.574 38.092,41.778 36.703,41.162 35.243,40.74 33.74,40.519 
								32.22,40.501 30.712,40.689 29.243,41.078 30.251,43.559 31.377,43.284 32.529,43.162 33.688,43.196 34.831,43.387 
								35.938,43.729 36.989,44.218 37.965,44.844 38.847,45.595 39.62,46.458 40.27,47.418 40.785,48.456 41.155,49.555 
								41.374,50.693 41.437,51.85 41.345,53.005 41.097,54.137 40.699,55.226 40.158,56.251 39.485,57.194 27.793,69.85 
								26.913,71.088 26.207,72.434 25.689,73.863 22.917,87.15 22.519,88.239 21.979,89.263 21.305,90.206 20.51,91.05 
								19.609,91.779 18.618,92.38 17.555,92.841 16.439,93.156 							"/>
							<polyline fill="none" stroke="#8E0324" stroke-width="1.5" points="17.194,95.726 18.648,95.286 20.031,94.655 
								21.315,93.844 22.479,92.866 23.5,91.741 24.361,90.488 25.045,89.131 25.54,87.694 28.214,74.756 28.589,73.659 
								29.108,72.623 29.762,71.666 41.68,58.728 42.54,57.476 43.225,56.119 43.72,54.682 44.017,53.192 44.11,51.675 
								43.999,50.159 43.684,48.672 43.172,47.242 42.472,45.893 41.597,44.651 40.562,43.537 39.387,42.574 38.092,41.778 
								36.703,41.162 35.243,40.74 33.74,40.519 32.22,40.501 30.712,40.689 29.243,41.078 30.251,43.559 31.377,43.284 
								32.529,43.162 33.688,43.196 34.831,43.387 35.938,43.729 36.989,44.218 37.965,44.844 38.847,45.595 39.62,46.458 
								40.27,47.418 40.785,48.456 41.155,49.555 41.374,50.693 41.437,51.85 41.345,53.005 41.097,54.137 40.699,55.226 
								40.158,56.251 39.485,57.194 27.793,69.85 26.913,71.088 26.207,72.434 25.689,73.863 22.917,87.15 22.519,88.239 
								21.979,89.263 21.305,90.206 20.51,91.05 19.609,91.779 18.618,92.38 17.555,92.841 16.439,93.156 							"/>
						</g>
						<g>
							<polyline fill="#FFFEDB" points="17.194,92.726 18.648,92.286 20.031,91.655 21.315,90.844 22.479,89.866 23.5,88.741 
								24.361,87.488 25.045,86.131 25.54,84.694 28.214,71.756 28.589,70.659 29.108,69.623 29.762,68.666 41.68,55.728 
								42.54,54.476 43.225,53.119 43.72,51.682 44.017,50.192 44.11,48.675 43.999,47.159 43.684,45.672 43.172,44.242 
								42.472,42.893 41.597,41.651 40.562,40.537 39.387,39.574 38.092,38.778 36.703,38.162 35.243,37.74 33.74,37.519 
								32.22,37.501 30.712,37.689 29.243,38.078 30.251,40.559 31.377,40.284 32.529,40.162 33.688,40.196 34.831,40.387 
								35.938,40.729 36.989,41.218 37.965,41.844 38.847,42.595 39.62,43.458 40.27,44.418 40.785,45.456 41.155,46.555 
								41.374,47.693 41.437,48.85 41.345,50.005 41.097,51.137 40.699,52.226 40.158,53.251 39.485,54.194 27.793,66.85 
								26.913,68.088 26.207,69.434 25.689,70.863 22.917,84.15 22.519,85.239 21.979,86.263 21.305,87.206 20.51,88.05 
								19.609,88.779 18.618,89.38 17.555,89.841 16.439,90.156 							"/>
							<polyline fill="none" stroke="#FFFEDB" stroke-width="1.5" points="17.194,92.726 18.648,92.286 20.031,91.655 
								21.315,90.844 22.479,89.866 23.5,88.741 24.361,87.488 25.045,86.131 25.54,84.694 28.214,71.756 28.589,70.659 
								29.108,69.623 29.762,68.666 41.68,55.728 42.54,54.476 43.225,53.119 43.72,51.682 44.017,50.192 44.11,48.675 
								43.999,47.159 43.684,45.672 43.172,44.242 42.472,42.893 41.597,41.651 40.562,40.537 39.387,39.574 38.092,38.778 
								36.703,38.162 35.243,37.74 33.74,37.519 32.22,37.501 30.712,37.689 29.243,38.078 30.251,40.559 31.377,40.284 
								32.529,40.162 33.688,40.196 34.831,40.387 35.938,40.729 36.989,41.218 37.965,41.844 38.847,42.595 39.62,43.458 
								40.27,44.418 40.785,45.456 41.155,46.555 41.374,47.693 41.437,48.85 41.345,50.005 41.097,51.137 40.699,52.226 
								40.158,53.251 39.485,54.194 27.793,66.85 26.913,68.088 26.207,69.434 25.689,70.863 22.917,84.15 22.519,85.239 
								21.979,86.263 21.305,87.206 20.51,88.05 19.609,88.779 18.618,89.38 17.555,89.841 16.439,90.156 							"/>
						</g>
					</g>
					<g id="section_70_">
						<g>
							<polyline id="background_22_" fill="#8E0324" stroke="#8E0324" stroke-width="1.5" points="52.358,42.418 52.64,43.542 
								52.768,44.694 52.739,45.853 52.555,46.997 52.218,48.106 51.736,49.16 51.115,50.139 50.368,51.025 49.509,51.803 
								48.553,52.458 47.518,52.978 46.421,53.354 45.284,53.579 44.127,53.649 42.972,53.562 41.838,53.32 40.747,52.929 
								38.773,51.724 38.773,51.724 29.782,43.75 27.434,44.901 36.926,53.665 38.151,54.564 39.485,55.291 40.906,55.832 
								42.386,56.176 43.899,56.318 45.418,56.254 46.913,55.987 48.36,55.521 49.73,54.864 51,54.028 52.145,53.03 53.145,51.886 
								53.983,50.617 54.641,49.248 55.11,47.802 55.379,46.306 55.444,44.788 55.305,43.275 54.963,41.794 							"/>
						</g>
						<g>
							<g>
								<polyline id="background_18_" fill="#FFFEDB" stroke="#FFFEDB" stroke-width="1.5" points="52.358,39.418 52.64,40.542 
									52.768,41.694 52.739,42.853 52.555,43.997 52.218,45.106 51.736,46.16 51.115,47.139 50.368,48.025 49.509,48.803 
									48.553,49.458 47.518,49.978 46.421,50.354 45.284,50.579 44.127,50.649 42.972,50.562 41.838,50.32 40.747,49.929 
									38.773,48.724 38.773,48.724 29.782,40.75 27.434,41.901 36.926,50.665 38.151,51.564 39.485,52.291 40.906,52.832 
									42.386,53.176 43.899,53.318 45.418,53.254 46.913,52.987 48.36,52.521 49.73,51.864 51,51.028 52.145,50.03 53.145,48.886 
									53.983,47.617 54.641,46.248 55.11,44.802 55.379,43.306 55.444,41.788 55.305,40.275 54.963,38.794 								"/>
							</g>
						</g>
					</g>
					<g id="section_55_">
						<g>
							<polyline id="background_20_" fill="#8E0324" stroke="#8E0324" stroke-width="1.5" points="2.889,105.286 9.137,99.088 
								10.022,98.34 11,97.718 12.053,97.234 15.908,96.103 17.194,95.726 16.439,93.156 15.154,93.533 11.299,94.664 9.907,95.273 
								8.609,96.064 7.43,97.023 0.92,103.47 							"/>
						</g>
						<g>
							<g>
								<polyline id="background_17_" fill="#FFFEDB" stroke="#FFFEDB" stroke-width="1.5" points="2.889,102.286 9.137,96.088 
									10.022,95.34 11,94.718 12.053,94.234 15.908,93.103 17.194,92.726 16.439,90.156 15.154,90.533 11.299,91.664 
									9.907,92.273 8.609,93.064 7.43,94.023 0.92,100.47 								"/>
							</g>
						</g>
					</g>
					<g id="background_3_">
						<g>
							<path fill="#8E0324" d="M32.22,40.501l-1.508,0.188l-1.469,0.389l-12.408,5.041l-1.241,0.504l-13.2,5.424l0.665,2.595
								l13.544-5.537l1.241-0.504l12.408-5.041l1.126-0.276l1.153-0.122c0,0,1.893-0.024,2.729,0.357"/>
							<path fill="none" stroke="#8E0324" stroke-width="1.5" d="M32.22,40.501l-1.508,0.188l-1.469,0.389l-12.408,5.041
								l-1.241,0.504l-13.2,5.424l0.665,2.595l13.544-5.537l1.241-0.504l12.408-5.041l1.126-0.276l1.153-0.122
								c0,0,1.893-0.024,2.729,0.357"/>
						</g>
						<g>
							<path fill="#FFFEDB" d="M32.22,37.501l-1.508,0.188l-1.469,0.389l-12.408,5.041l-1.241,0.504l-13.2,5.424l0.665,2.595
								l13.544-5.537l1.241-0.504l12.408-5.041l1.126-0.276l1.153-0.122c0,0,1.893-0.024,2.729,0.357"/>
							<path fill="none" stroke="#FFFEDB" stroke-width="1.5" d="M32.22,37.501l-1.508,0.188l-1.469,0.389l-12.408,5.041
								l-1.241,0.504l-13.2,5.424l0.665,2.595l13.544-5.537l1.241-0.504l12.408-5.041l1.126-0.276l1.153-0.122
								c0,0,1.893-0.024,2.729,0.357"/>
						</g>
					</g>
				</g>
			</g>
			<g>
				<g opacity="0.07">
					<path d="M87.656,94.557c0.386-0.645,1.066-1.03,1.819-1.03c0.378,0,0.752,0.104,1.078,0.297c1,0.601,1.331,1.899,0.735,2.898
						c-0.385,0.646-1.064,1.032-1.817,1.032c-0.379,0-0.755-0.104-1.084-0.301c-0.483-0.288-0.826-0.748-0.964-1.294
						C87.285,95.61,87.368,95.042,87.656,94.557z M100.259,116.919c-0.49,0.421-1.018,0.509-1.373,0.509
						c-0.621,0-1.207-0.269-1.608-0.734c-0.758-0.885-0.654-2.222,0.231-2.981c0.492-0.423,1.018-0.512,1.373-0.512
						c0.617,0,1.201,0.268,1.605,0.74c0.368,0.43,0.547,0.976,0.504,1.538C100.948,116.041,100.689,116.551,100.259,116.919z"/>
					<path d="M79.355,48.434c0.07,0.018,0.142,0.034,0.212,0.046C79.495,48.468,79.425,48.452,79.355,48.434z"/>
					<path d="M90.734,58.08c0.169-0.267,0.395-0.49,0.673-0.661c0.335-0.207,0.722-0.316,1.121-0.316c0.4,0,0.79,0.112,1.122,0.321
						c0.987,0.627,1.283,1.935,0.66,2.919c-0.392,0.618-1.063,0.988-1.795,0.988c-0.397,0-0.785-0.113-1.124-0.327
						C90.407,60.38,90.113,59.067,90.734,58.08z M97.113,37.893c-0.6,0.951-1.938,1.271-2.912,0.653l-0.096-0.063
						c-0.914-0.647-1.161-1.897-0.558-2.851c0.386-0.613,1.053-0.98,1.784-0.98c0.397,0,0.787,0.113,1.124,0.326
						c0.479,0.304,0.813,0.775,0.937,1.33C97.515,36.854,97.418,37.415,97.113,37.893z"/>
					<path d="M113.88,49.491c0.388-0.614,1.054-0.98,1.783-0.98c0.399,0,0.79,0.113,1.125,0.325c0.48,0.304,0.813,0.775,0.937,1.33
						c0.122,0.546,0.024,1.106-0.279,1.584c-0.598,0.951-1.938,1.272-2.912,0.653l-0.094-0.063
						C113.522,51.694,113.277,50.444,113.88,49.491z M113.88,72.954c0.388-0.614,1.054-0.98,1.783-0.98
						c0.399,0,0.79,0.112,1.125,0.326c0.48,0.304,0.813,0.774,0.937,1.329c0.122,0.546,0.024,1.107-0.279,1.585
						c-0.598,0.95-1.938,1.271-2.912,0.652l-0.094-0.063C113.522,75.157,113.277,73.907,113.88,72.954z M113.88,99.257
						c0.388-0.613,1.054-0.979,1.783-0.979c0.399,0,0.79,0.112,1.125,0.325c0.48,0.304,0.813,0.775,0.937,1.33
						c0.122,0.547,0.024,1.106-0.279,1.584c-0.598,0.951-1.938,1.271-2.912,0.653l-0.094-0.063
						C113.522,101.46,113.277,100.211,113.88,99.257z"/>
					<path d="M103.53,108.927c-1.165-1.36-2.858-2.139-4.648-2.139c-1.459,0-2.875,0.525-3.983,1.477
						c-1.612,1.383-2.326,3.429-2.087,5.397c-1.948,0.7-4.258,1.365-5.328,1.332c-0.821-0.044-1.302-0.346-2.224-0.972
						c-1.172-0.795-2.418-1.512-4.149-1.847c2.936-2.761,6.009-6.83,8.584-12.834c2.061-0.076,3.976-1.193,5.038-2.972
						c1.725-2.896,0.773-6.659-2.124-8.394c-0.949-0.565-2.032-0.864-3.134-0.864c-2.146,0-4.161,1.144-5.261,2.986
						c-0.838,1.405-1.079,3.05-0.678,4.636c0.351,1.393,1.16,2.59,2.302,3.429c-4.053,9.218-9.219,13.081-12.565,14.685
						c-0.128,0.045-0.248,0.101-0.36,0.168c-1.187,0.531-2.05,0.704-2.559,0.808v4c0.275-0.03,1.885-0.118,4.247-1.192
						c5.348-1.357,6.839-0.354,8.407,0.709c1.021,0.692,2.291,1.554,4.263,1.656c0.1,0.005,0.204,0.008,0.309,0.008
						c2.109,0,5.172-1.022,7.021-1.723c1.144,1.116,2.676,1.75,4.285,1.75l0,0c1.461,0,2.876-0.524,3.983-1.476
						c1.24-1.062,1.993-2.546,2.118-4.176C105.112,111.748,104.595,110.165,103.53,108.927z M87.656,92.151
						c0.386-0.645,1.066-1.03,1.819-1.03c0.378,0,0.752,0.104,1.078,0.297c1,0.601,1.331,1.899,0.735,2.898
						c-0.385,0.646-1.064,1.032-1.817,1.032c-0.379,0-0.755-0.104-1.084-0.301c-0.483-0.288-0.826-0.748-0.964-1.294
						C87.285,93.205,87.368,92.637,87.656,92.151z M100.259,114.514c-0.49,0.421-1.018,0.509-1.373,0.509
						c-0.621,0-1.207-0.269-1.608-0.734c-0.758-0.885-0.654-2.222,0.231-2.981c0.492-0.423,1.018-0.512,1.373-0.512
						c0.617,0,1.201,0.269,1.605,0.74c0.368,0.43,0.547,0.976,0.504,1.538C100.948,113.636,100.689,114.146,100.259,114.514z"/>
					<path d="M79.355,46.028c0.07,0.018,0.142,0.034,0.212,0.046C79.495,46.063,79.425,46.047,79.355,46.028z"/>
					<path d="M101.305,33.027c-0.357-1.599-1.317-2.964-2.708-3.844c-0.98-0.617-2.109-0.944-3.265-0.944
						c-2.117,0-4.053,1.066-5.174,2.85c-1.354,2.138-1.218,4.799,0.144,6.759c-3.646,4.124-8.706,4.313-9.942,4.293
						c-3.692-1.604-7.234-2.164-10.005-2.317v3.996c2.441,0.143,5.553,0.685,8.748,2.136c0.005,0.002,0.01,0.002,0.015,0.005
						c3.445,1.563,6.334,3.928,8.607,7.041c-0.136,0.173-0.265,0.352-0.382,0.538c-1.796,2.854-0.942,6.644,1.903,8.444
						c0.98,0.622,2.111,0.951,3.27,0.951c2.113,0,4.051-1.065,5.183-2.852c1.806-2.851,0.951-6.642-1.908-8.453
						c-1.384-0.871-3.092-1.113-4.667-0.755c-1.538-2.154-3.323-4.017-5.345-5.566c2.517-0.778,5.401-2.269,7.78-5.096
						c0.572,0.172,1.166,0.267,1.77,0.267c2.116,0,4.051-1.068,5.172-2.849C101.375,36.256,101.661,34.622,101.305,33.027z
						 M90.734,55.675c0.169-0.267,0.395-0.49,0.673-0.661c0.335-0.207,0.722-0.316,1.121-0.316c0.4,0,0.79,0.112,1.122,0.321
						c0.987,0.627,1.283,1.936,0.66,2.919c-0.392,0.618-1.063,0.988-1.795,0.988c-0.397,0-0.785-0.113-1.124-0.327
						C90.407,57.975,90.113,56.662,90.734,55.675z M97.113,35.487c-0.6,0.951-1.938,1.271-2.912,0.653l-0.096-0.063
						c-0.914-0.647-1.161-1.897-0.558-2.851c0.386-0.613,1.053-0.98,1.784-0.98c0.397,0,0.787,0.113,1.124,0.326
						c0.479,0.304,0.813,0.775,0.937,1.33C97.515,34.449,97.418,35.01,97.113,35.487z"/>
					<path d="M110,74.011c0.425,1.035,1.136,1.962,2.109,2.649c0.072,0.052,0.151,0.105,0.283,0.191
						c0.981,0.621,2.11,0.949,3.268,0.949c2.116,0,4.052-1.068,5.173-2.849c0.875-1.375,1.16-3.01,0.805-4.604
						c-0.358-1.598-1.318-2.964-2.709-3.844c-0.98-0.617-2.109-0.944-3.266-0.944c-0.125,0-0.25,0.008-0.375,0.018
						c-0.71-3.157-0.919-7.769,0.035-11.265c0.112,0.011,0.225,0.024,0.337,0.024c2.116,0,4.052-1.067,5.173-2.849
						c0.875-1.375,1.16-3.009,0.805-4.604c-0.358-1.599-1.318-2.964-2.709-3.844c-0.98-0.617-2.109-0.944-3.266-0.944
						c-2.114,0-4.051,1.066-5.173,2.85c-1.603,2.532-1.12,5.804,1.025,7.765c0.021,0.02,0.048,0.037,0.071,0.059
						c-1.349,4.518-1.146,10.324-0.036,14.417c-0.143,0.132-0.294,0.254-0.426,0.399c-0.229,0.255-0.445,0.526-0.634,0.824
						c-0.318,0.502-0.551,1.033-0.71,1.578c-3.371,0.488-5.198,1.671-6.824,2.729c-2.035,1.324-3.961,2.572-9.636,2.665
						c-1.964-0.23-3.553-0.177-5.29-0.116c-1.431,0.052-2.91,0.106-4.849,0.003c-1.335-0.071-2.104-0.882-3.458-2.424
						c-1.803-2.055-4.219-4.649-9.369-5.023v4c3.295,0.3,4.796,1.888,6.356,3.667c1.487,1.694,3.175,3.615,6.256,3.782
						c2.118,0.114,3.76,0.052,5.208,0.001c2.491-0.092,4.453-0.161,7.855,0.684c2.607,0.643,12.099,9.673,14.773,14.322
						c-0.108,0.142-0.219,0.282-0.314,0.434c-1.743,2.755-1.026,6.385,1.619,8.251c0.072,0.052,0.151,0.104,0.283,0.191
						c0.981,0.621,2.11,0.948,3.268,0.948c2.116,0,4.052-1.068,5.173-2.849c0.875-1.374,1.16-3.009,0.805-4.603
						c-0.358-1.6-1.318-2.965-2.709-3.845c-0.98-0.617-2.109-0.944-3.266-0.944c-0.528,0-1.047,0.067-1.543,0.195
						c-2.561-4.187-8.652-10.455-13.189-13.792c1.813-0.628,3.05-1.435,4.212-2.188C106.57,75.148,107.757,74.388,110,74.011z
						 M113.88,47.086c0.388-0.614,1.054-0.98,1.783-0.98c0.399,0,0.79,0.113,1.125,0.325c0.48,0.304,0.813,0.775,0.937,1.33
						c0.122,0.546,0.024,1.106-0.279,1.584c-0.598,0.951-1.938,1.272-2.912,0.653l-0.094-0.063
						C113.522,49.289,113.277,48.039,113.88,47.086z M113.88,70.549c0.388-0.614,1.054-0.98,1.783-0.98
						c0.399,0,0.79,0.112,1.125,0.326c0.48,0.304,0.813,0.774,0.937,1.329c0.122,0.546,0.024,1.107-0.279,1.585
						c-0.598,0.95-1.938,1.271-2.912,0.652l-0.094-0.063C113.522,72.752,113.277,71.502,113.88,70.549z M113.88,96.852
						c0.388-0.613,1.054-0.979,1.783-0.979c0.399,0,0.79,0.112,1.125,0.325c0.48,0.304,0.813,0.775,0.937,1.33
						c0.122,0.547,0.024,1.106-0.279,1.584c-0.598,0.951-1.938,1.271-2.912,0.653l-0.094-0.063
						C113.522,99.055,113.277,97.806,113.88,96.852z"/>
				</g>
				<g>
					<g>
						<path fill="#D3562C" d="M103.53,111.927c-1.165-1.36-2.858-2.139-4.648-2.139c-1.459,0-2.875,0.525-3.983,1.477
							c-1.612,1.383-2.326,3.429-2.087,5.397c-1.948,0.7-4.258,1.365-5.328,1.332c-0.821-0.044-1.302-0.346-2.224-0.972
							c-1.172-0.795-2.418-1.512-4.149-1.847c2.936-2.761,6.009-6.83,8.584-12.834c2.061-0.076,3.976-1.193,5.038-2.972
							c1.725-2.896,0.773-6.659-2.124-8.394c-0.949-0.565-2.032-0.864-3.134-0.864c-2.146,0-4.161,1.144-5.261,2.986
							c-0.838,1.405-1.079,3.05-0.678,4.636c0.351,1.393,1.16,2.59,2.302,3.429c-4.053,9.218-9.219,13.081-12.565,14.685
							c-0.128,0.045-0.248,0.101-0.36,0.168c-1.187,0.531-2.05,0.704-2.559,0.808v4c0.275-0.03,1.885-0.118,4.247-1.192
							c5.348-1.357,6.839-0.354,8.407,0.709c1.021,0.692,2.291,1.554,4.263,1.656c0.1,0.005,0.204,0.008,0.309,0.008
							c2.109,0,5.172-1.022,7.021-1.723c1.144,1.116,2.676,1.75,4.285,1.75l0,0c1.461,0,2.876-0.524,3.983-1.476
							c1.24-1.062,1.993-2.546,2.118-4.176C105.112,114.748,104.595,113.165,103.53,111.927z M87.656,95.151
							c0.386-0.645,1.066-1.03,1.819-1.03c0.378,0,0.752,0.104,1.078,0.297c1,0.601,1.331,1.899,0.735,2.898
							c-0.385,0.646-1.064,1.032-1.817,1.032c-0.379,0-0.755-0.104-1.084-0.301c-0.483-0.288-0.826-0.748-0.964-1.294
							C87.285,96.205,87.368,95.637,87.656,95.151z M100.259,117.514c-0.49,0.421-1.018,0.509-1.373,0.509
							c-0.621,0-1.207-0.269-1.608-0.734c-0.758-0.885-0.654-2.222,0.231-2.981c0.492-0.423,1.018-0.512,1.373-0.512
							c0.617,0,1.201,0.269,1.605,0.74c0.368,0.43,0.547,0.976,0.504,1.538C100.948,116.636,100.689,117.146,100.259,117.514z"/>
						<path d="M79.355,48.434c0.07,0.018,0.142,0.034,0.212,0.046C79.495,48.468,79.425,48.452,79.355,48.434z"/>
						<path fill="#D3562C" d="M101.305,35.031c-0.357-1.599-1.317-2.964-2.708-3.844c-0.98-0.617-2.109-0.944-3.265-0.944
							c-2.117,0-4.053,1.066-5.174,2.85c-1.354,2.138-1.218,4.799,0.144,6.759c-3.646,4.124-8.706,4.313-9.942,4.293
							c-3.692-1.604-7.234-2.164-10.005-2.317v3.996c2.441,0.144,5.553,0.686,8.748,2.136c0.005,0.002,0.01,0.002,0.015,0.005
							c3.445,1.563,6.334,3.928,8.607,7.041c-0.136,0.173-0.265,0.352-0.382,0.538c-1.796,2.854-0.942,6.644,1.903,8.444
							c0.98,0.622,2.111,0.951,3.27,0.951c2.113,0,4.051-1.065,5.183-2.852c1.806-2.851,0.951-6.642-1.908-8.453
							c-1.384-0.871-3.092-1.113-4.667-0.755c-1.538-2.154-3.323-4.017-5.345-5.566c2.517-0.778,5.401-2.269,7.78-5.096
							c0.572,0.172,1.166,0.267,1.77,0.267c2.116,0,4.051-1.068,5.172-2.849C101.375,38.26,101.661,36.626,101.305,35.031z
							 M90.734,57.679c0.169-0.267,0.395-0.49,0.673-0.661c0.335-0.207,0.722-0.316,1.121-0.316c0.4,0,0.79,0.112,1.122,0.321
							c0.987,0.627,1.283,1.936,0.66,2.919c-0.392,0.618-1.063,0.988-1.795,0.988c-0.397,0-0.785-0.113-1.124-0.327
							C90.407,59.979,90.113,58.666,90.734,57.679z M97.113,37.491c-0.6,0.951-1.938,1.271-2.912,0.653l-0.096-0.063
							c-0.914-0.647-1.161-1.897-0.558-2.851c0.386-0.613,1.053-0.98,1.784-0.98c0.397,0,0.787,0.113,1.124,0.326
							c0.479,0.304,0.813,0.775,0.937,1.33C97.515,36.453,97.418,37.014,97.113,37.491z"/>
						<path fill="#D3562C" d="M110,77.011c0.425,1.035,1.136,1.962,2.109,2.649c0.072,0.052,0.151,0.105,0.283,0.191
							c0.981,0.621,2.11,0.949,3.268,0.949c2.116,0,4.052-1.068,5.173-2.849c0.875-1.375,1.16-3.01,0.805-4.604
							c-0.358-1.598-1.318-2.964-2.709-3.844c-0.98-0.617-2.109-0.944-3.266-0.944c-0.125,0-0.25,0.008-0.375,0.018
							c-0.71-3.157-0.919-7.769,0.035-11.265c0.112,0.011,0.225,0.024,0.337,0.024c2.116,0,4.052-1.067,5.173-2.849
							c0.875-1.375,1.16-3.009,0.805-4.604c-0.358-1.599-1.318-2.964-2.709-3.844c-0.98-0.617-2.109-0.944-3.266-0.944
							c-2.114,0-4.051,1.066-5.173,2.85c-1.603,2.532-1.12,5.804,1.025,7.765c0.021,0.02,0.048,0.037,0.071,0.059
							c-1.349,4.518-1.146,10.324-0.036,14.417c-0.143,0.132-0.294,0.254-0.426,0.399c-0.229,0.255-0.445,0.526-0.634,0.824
							c-0.318,0.502-0.551,1.033-0.71,1.578c-3.371,0.488-5.198,1.671-6.824,2.729c-2.035,1.324-3.961,2.572-9.636,2.665
							c-1.964-0.23-3.553-0.177-5.29-0.116c-1.431,0.052-2.91,0.106-4.849,0.003c-1.335-0.071-2.104-0.882-3.458-2.424
							c-1.803-2.055-4.219-4.649-9.369-5.023v4c3.295,0.3,4.796,1.888,6.356,3.667c1.487,1.694,3.175,3.615,6.256,3.782
							c2.118,0.114,3.76,0.052,5.208,0.001c2.491-0.092,4.453-0.161,7.855,0.684c2.607,0.643,12.099,9.673,14.773,14.322
							c-0.108,0.142-0.219,0.282-0.314,0.434c-1.743,2.755-1.026,6.385,1.619,8.251c0.072,0.052,0.151,0.104,0.283,0.191
							c0.981,0.621,2.11,0.948,3.268,0.948c2.116,0,4.052-1.068,5.173-2.849c0.875-1.374,1.16-3.009,0.805-4.603
							c-0.358-1.6-1.318-2.965-2.709-3.845c-0.98-0.617-2.109-0.944-3.266-0.944c-0.528,0-1.047,0.067-1.543,0.195
							c-2.561-4.187-8.652-10.455-13.189-13.792c1.813-0.628,3.05-1.435,4.212-2.188C106.57,78.148,107.757,77.388,110,77.011z
							 M113.88,50.086c0.388-0.614,1.054-0.98,1.783-0.98c0.399,0,0.79,0.113,1.125,0.325c0.48,0.304,0.813,0.775,0.937,1.33
							c0.122,0.546,0.024,1.106-0.279,1.584c-0.598,0.951-1.938,1.272-2.912,0.653l-0.094-0.063
							C113.522,52.289,113.277,51.039,113.88,50.086z M113.88,73.549c0.388-0.614,1.054-0.98,1.783-0.98
							c0.399,0,0.79,0.112,1.125,0.326c0.48,0.304,0.813,0.774,0.937,1.329c0.122,0.546,0.024,1.107-0.279,1.585
							c-0.598,0.95-1.938,1.271-2.912,0.652l-0.094-0.063C113.522,75.752,113.277,74.502,113.88,73.549z M113.88,99.852
							c0.388-0.613,1.054-0.979,1.783-0.979c0.399,0,0.79,0.112,1.125,0.325c0.48,0.304,0.813,0.775,0.937,1.33
							c0.122,0.547,0.024,1.106-0.279,1.584c-0.598,0.951-1.938,1.271-2.912,0.653l-0.094-0.063
							C113.522,102.055,113.277,100.806,113.88,99.852z"/>
					</g>
					<g>
						<path fill="#FFFEDB" d="M103.53,108.927c-1.165-1.36-2.858-2.139-4.648-2.139c-1.459,0-2.875,0.525-3.983,1.477
							c-1.612,1.383-2.326,3.429-2.087,5.397c-1.948,0.7-4.258,1.365-5.328,1.332c-0.821-0.044-1.302-0.346-2.224-0.972
							c-1.172-0.795-2.418-1.512-4.149-1.847c2.936-2.761,6.009-6.83,8.584-12.834c2.061-0.076,3.976-1.193,5.038-2.972
							c1.725-2.896,0.773-6.659-2.124-8.394c-0.949-0.565-2.032-0.864-3.134-0.864c-2.146,0-4.161,1.144-5.261,2.986
							c-0.838,1.405-1.079,3.05-0.678,4.636c0.351,1.393,1.16,2.59,2.302,3.429c-4.053,9.218-9.219,13.081-12.565,14.685
							c-0.128,0.045-0.248,0.101-0.36,0.168c-1.187,0.531-2.05,0.704-2.559,0.808v4c0.275-0.03,1.885-0.118,4.247-1.192
							c5.348-1.357,6.839-0.354,8.407,0.709c1.021,0.692,2.291,1.554,4.263,1.656c0.1,0.005,0.204,0.008,0.309,0.008
							c2.109,0,5.172-1.022,7.021-1.723c1.144,1.116,2.676,1.75,4.285,1.75l0,0c1.461,0,2.876-0.524,3.983-1.476
							c1.24-1.062,1.993-2.546,2.118-4.176C105.112,111.748,104.595,110.165,103.53,108.927z M87.656,92.151
							c0.386-0.645,1.066-1.03,1.819-1.03c0.378,0,0.752,0.104,1.078,0.297c1,0.601,1.331,1.899,0.735,2.898
							c-0.385,0.646-1.064,1.032-1.817,1.032c-0.379,0-0.755-0.104-1.084-0.301c-0.483-0.288-0.826-0.748-0.964-1.294
							C87.285,93.205,87.368,92.637,87.656,92.151z M100.259,114.514c-0.49,0.421-1.018,0.509-1.373,0.509
							c-0.621,0-1.207-0.269-1.608-0.734c-0.758-0.885-0.654-2.222,0.231-2.981c0.492-0.423,1.018-0.512,1.373-0.512
							c0.617,0,1.201,0.269,1.605,0.74c0.368,0.43,0.547,0.976,0.504,1.538C100.948,113.636,100.689,114.146,100.259,114.514z"/>
						<path fill="#FFFEDB" d="M79.355,46.028c0.07,0.018,0.142,0.034,0.212,0.046C79.495,46.063,79.425,46.047,79.355,46.028z"/>
						<path fill="#FFFEDB" d="M101.305,33.027c-0.357-1.599-1.317-2.964-2.708-3.844c-0.98-0.617-2.109-0.944-3.265-0.944
							c-2.117,0-4.053,1.066-5.174,2.85c-1.354,2.138-1.218,4.799,0.144,6.759c-3.646,4.124-8.706,4.313-9.942,4.293
							c-3.692-1.604-7.234-2.164-10.005-2.317v3.996c2.441,0.143,5.553,0.685,8.748,2.136c0.005,0.002,0.01,0.002,0.015,0.005
							c3.445,1.563,6.334,3.928,8.607,7.041c-0.136,0.173-0.265,0.352-0.382,0.538c-1.796,2.854-0.942,6.644,1.903,8.444
							c0.98,0.622,2.111,0.951,3.27,0.951c2.113,0,4.051-1.065,5.183-2.852c1.806-2.851,0.951-6.642-1.908-8.453
							c-1.384-0.871-3.092-1.113-4.667-0.755c-1.538-2.154-3.323-4.017-5.345-5.566c2.517-0.778,5.401-2.269,7.78-5.096
							c0.572,0.172,1.166,0.267,1.77,0.267c2.116,0,4.051-1.068,5.172-2.849C101.375,36.256,101.661,34.622,101.305,33.027z
							 M90.734,55.675c0.169-0.267,0.395-0.49,0.673-0.661c0.335-0.207,0.722-0.316,1.121-0.316c0.4,0,0.79,0.112,1.122,0.321
							c0.987,0.627,1.283,1.936,0.66,2.919c-0.392,0.618-1.063,0.988-1.795,0.988c-0.397,0-0.785-0.113-1.124-0.327
							C90.407,57.975,90.113,56.662,90.734,55.675z M97.113,35.487c-0.6,0.951-1.938,1.271-2.912,0.653l-0.096-0.063
							c-0.914-0.647-1.161-1.897-0.558-2.851c0.386-0.613,1.053-0.98,1.784-0.98c0.397,0,0.787,0.113,1.124,0.326
							c0.479,0.304,0.813,0.775,0.937,1.33C97.515,34.449,97.418,35.01,97.113,35.487z"/>
						<path fill="#FFFEDB" d="M110,74.011c0.425,1.035,1.136,1.962,2.109,2.649c0.072,0.052,0.151,0.105,0.283,0.191
							c0.981,0.621,2.11,0.949,3.268,0.949c2.116,0,4.052-1.068,5.173-2.849c0.875-1.375,1.16-3.01,0.805-4.604
							c-0.358-1.598-1.318-2.964-2.709-3.844c-0.98-0.617-2.109-0.944-3.266-0.944c-0.125,0-0.25,0.008-0.375,0.018
							c-0.71-3.157-0.919-7.769,0.035-11.265c0.112,0.011,0.225,0.024,0.337,0.024c2.116,0,4.052-1.067,5.173-2.849
							c0.875-1.375,1.16-3.009,0.805-4.604c-0.358-1.599-1.318-2.964-2.709-3.844c-0.98-0.617-2.109-0.944-3.266-0.944
							c-2.114,0-4.051,1.066-5.173,2.85c-1.603,2.532-1.12,5.804,1.025,7.765c0.021,0.02,0.048,0.037,0.071,0.059
							c-1.349,4.518-1.146,10.324-0.036,14.417c-0.143,0.132-0.294,0.254-0.426,0.399c-0.229,0.255-0.445,0.526-0.634,0.824
							c-0.318,0.502-0.551,1.033-0.71,1.578c-3.371,0.488-5.198,1.671-6.824,2.729c-2.035,1.324-3.961,2.572-9.636,2.665
							c-1.964-0.23-3.553-0.177-5.29-0.116c-1.431,0.052-2.91,0.106-4.849,0.003c-1.335-0.071-2.104-0.882-3.458-2.424
							c-1.803-2.055-4.219-4.649-9.369-5.023v4c3.295,0.3,4.796,1.888,6.356,3.667c1.487,1.694,3.175,3.615,6.256,3.782
							c2.118,0.114,3.76,0.052,5.208,0.001c2.491-0.092,4.453-0.161,7.855,0.684c2.607,0.643,12.099,9.673,14.773,14.322
							c-0.108,0.142-0.219,0.282-0.314,0.434c-1.743,2.755-1.026,6.385,1.619,8.251c0.072,0.052,0.151,0.104,0.283,0.191
							c0.981,0.621,2.11,0.948,3.268,0.948c2.116,0,4.052-1.068,5.173-2.849c0.875-1.374,1.16-3.009,0.805-4.603
							c-0.358-1.6-1.318-2.965-2.709-3.845c-0.98-0.617-2.109-0.944-3.266-0.944c-0.528,0-1.047,0.067-1.543,0.195
							c-2.561-4.187-8.652-10.455-13.189-13.792c1.813-0.628,3.05-1.435,4.212-2.188C106.57,75.148,107.757,74.388,110,74.011z
							 M113.88,47.086c0.388-0.614,1.054-0.98,1.783-0.98c0.399,0,0.79,0.113,1.125,0.325c0.48,0.304,0.813,0.775,0.937,1.33
							c0.122,0.546,0.024,1.106-0.279,1.584c-0.598,0.951-1.938,1.272-2.912,0.653l-0.094-0.063
							C113.522,49.289,113.277,48.039,113.88,47.086z M113.88,70.549c0.388-0.614,1.054-0.98,1.783-0.98
							c0.399,0,0.79,0.112,1.125,0.326c0.48,0.304,0.813,0.774,0.937,1.329c0.122,0.546,0.024,1.107-0.279,1.585
							c-0.598,0.95-1.938,1.271-2.912,0.652l-0.094-0.063C113.522,72.752,113.277,71.502,113.88,70.549z M113.88,96.852
							c0.388-0.613,1.054-0.979,1.783-0.979c0.399,0,0.79,0.112,1.125,0.325c0.48,0.304,0.813,0.775,0.937,1.33
							c0.122,0.547,0.024,1.106-0.279,1.584c-0.598,0.951-1.938,1.271-2.912,0.653l-0.094-0.063
							C113.522,99.055,113.277,97.806,113.88,96.852z"/>
					</g>
				</g>
			</g>
		</g>
	</g>
	<g>
		<path fill="#B50437" d="M182.223,86.793h0.281l9.516-38.577h16.687v54.607h-13.313v-28.64h-0.281l-8.296,28.64h-8.859
			l-7.922-27.468h-0.281v27.468h-13.312V48.216h16.405L182.223,86.793z"/>
		<path fill="#B50437" d="M236.547,103.728c-5.864,0-10.521-1.926-13.972-5.778c-3.45-3.852-5.175-8.711-5.175-14.575v-6.556
			c0-6.296,1.603-11.456,4.809-15.48c3.205-4.025,7.64-6.038,13.303-6.038c5.462,0,9.688,1.826,12.679,5.478
			c2.989,3.65,4.485,8.624,4.485,14.92v7.504h-23.071v0.173c0,3.076,0.696,5.605,2.091,7.589c1.395,1.984,3.5,2.976,6.318,2.976
			c2.3,0,4.168-0.259,5.605-0.775c1.438-0.518,3.148-1.381,5.132-2.588l3.105,7.806c-1.611,1.552-3.76,2.832-6.447,3.838
			C242.721,103.226,239.767,103.728,236.547,103.728z M235.512,65.09c-1.955,0-3.393,0.896-4.312,2.687
			c-0.921,1.79-1.438,4.201-1.553,7.232h10.996v-1.732c0-2.599-0.402-4.612-1.207-6.042C238.631,65.805,237.323,65.09,235.512,65.09
			z"/>
		<path fill="#B50437" d="M279.153,90.619c0-1.322-0.518-2.465-1.553-3.428c-1.034-0.963-3.019-2.149-5.95-3.559
			c-4.687-1.753-8.201-3.736-10.544-5.95c-2.344-2.214-3.515-5.089-3.515-8.625c0-3.795,1.502-7.036,4.507-9.725
			c3.003-2.688,6.979-4.032,11.923-4.032c5.175,0,9.3,1.38,12.377,4.141c3.076,2.76,4.556,6.281,4.441,10.564l-0.129,0.259h-11.816
			c0-1.954-0.402-3.507-1.207-4.657c-0.806-1.149-2.042-1.725-3.709-1.725c-1.322,0-2.443,0.446-3.363,1.337
			c-0.921,0.892-1.38,1.97-1.38,3.234c0,1.38,0.459,2.494,1.38,3.342c0.92,0.849,2.917,2.005,5.994,3.472
			c4.887,1.667,8.51,3.644,10.867,5.93c2.356,2.285,3.536,5.282,3.536,8.991c0,3.967-1.582,7.216-4.744,9.745
			c-3.162,2.53-7.316,3.795-12.462,3.795c-5.377,0-9.632-1.566-12.765-4.7c-3.134-3.133-4.629-6.669-4.485-10.608l0.086-0.259
			h11.213c0.057,2.473,0.632,4.255,1.725,5.348c1.092,1.093,2.602,1.639,4.528,1.639c1.639,0,2.889-0.402,3.751-1.208
			C278.723,93.136,279.153,92.028,279.153,90.619z"/>
		<path fill="#B50437" d="M317.447,90.619c0-1.322-0.518-2.465-1.552-3.428c-1.035-0.963-3.02-2.149-5.951-3.559
			c-4.687-1.753-8.201-3.736-10.544-5.95c-2.344-2.214-3.515-5.089-3.515-8.625c0-3.795,1.502-7.036,4.507-9.725
			c3.003-2.688,6.979-4.032,11.923-4.032c5.175,0,9.3,1.38,12.377,4.141c3.076,2.76,4.556,6.281,4.441,10.564l-0.129,0.259h-11.816
			c0-1.954-0.402-3.507-1.207-4.657c-0.806-1.149-2.042-1.725-3.709-1.725c-1.322,0-2.443,0.446-3.363,1.337
			c-0.921,0.892-1.38,1.97-1.38,3.234c0,1.38,0.459,2.494,1.38,3.342c0.92,0.849,2.917,2.005,5.994,3.472
			c4.887,1.667,8.51,3.644,10.867,5.93c2.356,2.285,3.536,5.282,3.536,8.991c0,3.967-1.582,7.216-4.744,9.745
			c-3.162,2.53-7.316,3.795-12.462,3.795c-5.377,0-9.632-1.566-12.765-4.7c-3.134-3.133-4.629-6.669-4.485-10.608l0.086-0.259
			h11.213c0.057,2.473,0.632,4.255,1.725,5.348c1.092,1.093,2.602,1.639,4.528,1.639c1.639,0,2.889-0.402,3.751-1.208
			C317.017,93.136,317.447,92.028,317.447,90.619z"/>
		<path fill="#B50437" d="M350.438,83.677l0.086,0.474l6.813-27.986h13.109l-15.74,53.688c-1.179,3.363-2.753,6.173-4.722,8.431
			c-1.97,2.257-4.98,3.385-9.034,3.385c-1.007,0-1.897-0.086-2.674-0.259c-0.776-0.172-1.812-0.431-3.104-0.776l1.423-9.142
			c0.488,0.086,0.841,0.15,1.057,0.194c0.216,0.043,0.452,0.064,0.711,0.064c1.782,0,3.127-0.468,4.032-1.401
			c0.905-0.935,1.56-2.164,1.962-3.688l1.078-3.45l-13.756-47.047h13.152L350.438,83.677z"/>
		<path fill="#EB743B" d="M375.771,102.823V48.216h19.405c5.813,0,10.336,1.273,13.57,3.82s4.851,6.305,4.851,11.272
			c0,2.595-0.742,4.915-2.226,6.961c-1.485,2.047-3.571,3.586-6.258,4.617c3.593,0.781,6.288,2.297,8.085,4.547
			s2.695,4.922,2.695,8.016c0,5.094-1.531,8.929-4.593,11.507c-3.063,2.578-7.517,3.867-13.359,3.867H375.771z M389.082,70.949
			h6.328c1.594-0.031,2.805-0.535,3.633-1.512c0.827-0.977,1.242-2.394,1.242-4.251c0-2.205-0.422-3.812-1.266-4.818
			c-0.844-1.008-2.125-1.512-3.844-1.512h-6.094V70.949z M389.082,79.621v12.562h8.859c1.781,0,3.007-0.465,3.68-1.396
			c0.672-0.931,1.008-2.419,1.008-4.466c0-2.296-0.336-3.986-1.008-5.071c-0.673-1.086-1.898-1.629-3.68-1.629H389.082z"/>
		<path fill="#EB743B" d="M445.085,67.333l-4.614-0.13c-1.294,0-2.365,0.316-3.213,0.949c-0.849,0.633-1.503,1.523-1.962,2.673
			v31.998h-12.247V56.164h11.428l0.474,6.253l0.216,0.086c0.747-2.242,1.79-4.003,3.127-5.283c1.336-1.278,2.896-1.919,4.679-1.919
			c0.546,0,1.128,0.051,1.746,0.151s1.157,0.223,1.617,0.366L445.085,67.333z"/>
		<path fill="#EB743B" d="M474.021,102.823c-0.345-0.776-0.654-1.624-0.927-2.544c-0.273-0.92-0.482-1.854-0.626-2.804
			c-1.149,1.897-2.552,3.414-4.204,4.55c-1.653,1.136-3.572,1.703-5.757,1.703c-3.854,0-6.937-1.265-9.25-3.795
			c-2.314-2.529-3.472-5.907-3.472-10.134c0-4.571,1.473-8.121,4.42-10.651c2.947-2.529,7.324-3.795,13.132-3.795h4.613v-3.795
			c0-2.271-0.409-4.018-1.229-5.239s-2.049-1.833-3.688-1.833c-1.38,0-2.414,0.489-3.104,1.467s-1.035,2.4-1.035,4.269
			l-11.858-0.043l-0.13-0.259c-0.145-4.054,1.358-7.503,4.507-10.35c3.147-2.846,7.294-4.27,12.44-4.27
			c4.858,0,8.805,1.417,11.838,4.248c3.032,2.832,4.55,6.864,4.55,12.096v18.889c0,2.3,0.157,4.441,0.474,6.425
			c0.316,1.984,0.805,3.939,1.467,5.865H474.021z M466.043,94.5c1.235,0,2.378-0.33,3.428-0.991s1.876-1.51,2.479-2.545v-8.581
			h-4.613c-1.869,0-3.221,0.646-4.054,1.94c-0.835,1.294-1.251,2.933-1.251,4.916c0,1.553,0.359,2.818,1.078,3.795
			C463.829,94.012,464.807,94.5,466.043,94.5z"/>
		<path fill="#EB743B" d="M504.812,44.908h-12.247v-9.357h12.247V44.908z M504.812,102.823h-12.247V56.164h12.247V102.823z"/>
		<path fill="#EB743B" d="M524.562,56.164l0.518,6.425c1.293-2.3,2.882-4.089,4.765-5.369c1.883-1.278,3.96-1.919,6.231-1.919
			c3.881,0,6.936,1.495,9.164,4.485c2.228,2.99,3.342,7.69,3.342,14.102v28.936h-12.29V73.854c0-3.224-0.453-5.489-1.358-6.8
			c-0.905-1.31-2.308-1.965-4.205-1.965c-1.093,0-2.099,0.289-3.019,0.864s-1.696,1.367-2.328,2.374v34.495h-12.247V56.164H524.562z
			"/>
		<path fill="#EB743B" d="M569.151,93.034h18.241v9.789h-32.3v-7.288l17.768-29.582h-17.25v-9.789h31.48v7.115L569.151,93.034z"/>
	</g>
</g>
</svg>
