<?xml version="1.0" encoding="utf-8"?>
<!-- Generator: Adobe Illustrator 17.0.0, SVG Export Plug-In . SVG Version: 6.00 Build 0)  -->
<!DOCTYPE svg PUBLIC "-//W3C//DTD SVG 1.1//EN" "http://www.w3.org/Graphics/SVG/1.1/DTD/svg11.dtd">
<svg version="1.1" id="Layer_1" xmlns="http://www.w3.org/2000/svg" xmlns:xlink="http://www.w3.org/1999/xlink" x="0px" y="0px"
	 width="191px" height="30px" viewBox="0 0 191 30" enable-background="new 0 0 191 30" xml:space="preserve">
<g>
</g>
<g>
	<g>
		<polygon fill="#353070" points="14,1 2,8 2,22 14,29 		"/>
		<polygon fill="#EB743B" points="15,1 27,8 27,22 15,29 		"/>
	</g>
	<g>
		<path fill="#353070" d="M40.667,21.149h6.6V25H35.849V5.236h4.818V21.149z"/>
		<path fill="#353070" d="M64.56,20.583c0-0.479-0.188-0.892-0.563-1.24c-0.374-0.349-1.092-0.778-2.153-1.288
			c-1.696-0.635-2.968-1.353-3.816-2.153c-0.848-0.802-1.271-1.842-1.271-3.122c0-1.373,0.543-2.546,1.631-3.519
			c1.087-0.973,2.525-1.459,4.315-1.459c1.873,0,3.365,0.5,4.48,1.498c1.113,0.999,1.648,2.273,1.607,3.824l-0.047,0.094h-4.276
			c0-0.708-0.146-1.269-0.438-1.686c-0.291-0.416-0.738-0.625-1.342-0.625c-0.479,0-0.885,0.162-1.218,0.484
			c-0.333,0.322-0.499,0.713-0.499,1.171c0,0.499,0.166,0.902,0.499,1.209c0.333,0.308,1.057,0.726,2.17,1.257
			c1.769,0.604,3.079,1.318,3.933,2.146c0.854,0.827,1.28,1.912,1.28,3.254c0,1.437-0.572,2.612-1.717,3.527
			c-1.145,0.916-2.649,1.374-4.511,1.374c-1.945,0-3.485-0.567-4.62-1.701c-1.134-1.135-1.675-2.414-1.623-3.84l0.031-0.094h4.059
			c0.021,0.896,0.229,1.54,0.624,1.936s0.941,0.593,1.639,0.593c0.593,0,1.046-0.146,1.357-0.437
			C64.403,21.494,64.56,21.093,64.56,20.583z"/>
		<path fill="#353070" d="M76.342,3.915v4.198h2.341v3.215h-2.341v8.475c0,0.687,0.099,1.179,0.297,1.475
			c0.197,0.297,0.468,0.445,0.812,0.445c0.271,0,0.499-0.013,0.687-0.039s0.396-0.07,0.624-0.133l0.344,3.371
			c-0.469,0.146-0.916,0.25-1.342,0.313c-0.427,0.063-0.911,0.094-1.452,0.094c-1.426,0-2.516-0.439-3.27-1.319
			c-0.755-0.879-1.132-2.275-1.132-4.19v-8.49h-1.997V8.113h1.997V3.915H76.342z"/>
		<path fill="#353070" d="M87.752,25.328c-2.123,0-3.809-0.697-5.057-2.092c-1.249-1.394-1.873-3.152-1.873-5.275v-2.372
			c0-2.278,0.58-4.146,1.74-5.603c1.16-1.457,2.765-2.186,4.814-2.186c1.977,0,3.506,0.661,4.589,1.982
			c1.082,1.321,1.623,3.121,1.623,5.399v2.716h-8.35v0.063c0,1.113,0.252,2.029,0.757,2.747c0.504,0.718,1.267,1.077,2.286,1.077
			c0.832,0,1.509-0.094,2.029-0.281c0.52-0.188,1.139-0.499,1.856-0.937l1.124,2.825c-0.583,0.562-1.36,1.024-2.333,1.389
			C89.986,25.146,88.917,25.328,87.752,25.328z M87.377,11.344c-0.708,0-1.228,0.324-1.561,0.972
			c-0.333,0.648-0.521,1.521-0.562,2.618h3.979v-0.627c0-0.94-0.146-1.67-0.438-2.186C88.506,11.602,88.032,11.344,87.377,11.344z"
			/>
		<path fill="#353070" d="M99.878,8.113l0.187,2.325c0.469-0.832,1.043-1.481,1.725-1.943c0.682-0.463,1.434-0.694,2.256-0.694
			c1.404,0,2.51,0.541,3.316,1.623c0.806,1.082,1.209,2.783,1.209,5.103V25h-4.447V14.516c0-1.167-0.164-1.986-0.492-2.461
			c-0.327-0.474-0.835-0.711-1.521-0.711c-0.396,0-0.76,0.104-1.093,0.313c-0.333,0.208-0.614,0.495-0.843,0.859V25h-4.433V8.113
			H99.878z"/>
		<path fill="#EB743B" d="M111.762,25V5.236h7.023c2.104,0,3.741,0.461,4.911,1.383c1.171,0.922,1.756,2.281,1.756,4.08
			c0,0.939-0.269,1.778-0.806,2.52c-0.537,0.74-1.292,1.297-2.265,1.671c1.301,0.282,2.276,0.831,2.927,1.646
			c0.649,0.813,0.975,1.781,0.975,2.9c0,1.844-0.554,3.232-1.662,4.165c-1.108,0.933-2.72,1.399-4.835,1.399H111.762z
			 M116.58,13.464h2.29c0.577-0.011,1.015-0.193,1.314-0.547c0.3-0.353,0.45-0.866,0.45-1.538c0-0.798-0.153-1.38-0.458-1.744
			c-0.306-0.365-0.77-0.547-1.392-0.547h-2.205V13.464z M116.58,16.603v4.547h3.206c0.645,0,1.089-0.169,1.332-0.506
			c0.243-0.336,0.364-0.875,0.364-1.616c0-0.831-0.121-1.442-0.364-1.835c-0.243-0.393-0.688-0.59-1.332-0.59H116.58z"/>
		<path fill="#EB743B" d="M136.849,12.155l-1.67-0.047c-0.468,0-0.856,0.114-1.163,0.344c-0.307,0.229-0.544,0.552-0.71,0.968V25
			h-4.433V8.113h4.136l0.172,2.263l0.078,0.031c0.27-0.811,0.647-1.449,1.132-1.912c0.483-0.463,1.048-0.694,1.693-0.694
			c0.197,0,0.408,0.019,0.632,0.055c0.224,0.036,0.419,0.081,0.585,0.133L136.849,12.155z"/>
		<path fill="#EB743B" d="M147.321,25c-0.125-0.281-0.237-0.588-0.336-0.921c-0.099-0.333-0.174-0.671-0.227-1.015
			c-0.416,0.686-0.923,1.236-1.521,1.646c-0.599,0.411-1.293,0.617-2.083,0.617c-1.395,0-2.511-0.458-3.349-1.374
			c-0.837-0.915-1.256-2.138-1.256-3.667c0-1.655,0.533-2.939,1.6-3.855c1.066-0.915,2.65-1.373,4.753-1.373h1.67v-1.374
			c0-0.821-0.148-1.454-0.445-1.896c-0.297-0.441-0.741-0.663-1.334-0.663c-0.5,0-0.874,0.177-1.124,0.531
			c-0.25,0.354-0.375,0.868-0.375,1.545l-4.292-0.016l-0.047-0.094c-0.052-1.467,0.492-2.716,1.632-3.746
			c1.139-1.03,2.64-1.545,4.502-1.545c1.759,0,3.187,0.513,4.284,1.537c1.098,1.025,1.646,2.484,1.646,4.378v6.836
			c0,0.833,0.058,1.607,0.172,2.325c0.114,0.719,0.291,1.426,0.531,2.123H147.321z M144.434,21.988c0.447,0,0.861-0.12,1.241-0.359
			c0.379-0.239,0.679-0.546,0.897-0.921v-3.105h-1.67c-0.677,0-1.166,0.233-1.468,0.702c-0.302,0.468-0.452,1.061-0.452,1.779
			c0,0.562,0.13,1.02,0.39,1.373C143.633,21.81,143.986,21.988,144.434,21.988z"/>
		<path fill="#EB743B" d="M165.613,8.113l0.187,2.325c0.469-0.832,1.043-1.481,1.725-1.943c0.682-0.463,1.434-0.694,2.256-0.694
			c1.404,0,2.51,0.541,3.316,1.623c0.806,1.082,1.209,2.783,1.209,5.103V25h-4.447V14.516c0-1.167-0.164-1.986-0.492-2.461
			c-0.327-0.474-0.835-0.711-1.521-0.711c-0.395,0-0.76,0.104-1.093,0.313c-0.333,0.208-0.614,0.495-0.843,0.859V25h-4.433V8.113
			H165.613z"/>
		<path fill="#EB743B" d="M181.751,21.457h6.601V25h-11.689v-2.638l6.43-10.706h-6.242V8.113h11.393v2.575L181.751,21.457z"/>
		<path fill="#EB743B" d="M153.829,3.743c0-0.687,0.219-1.249,0.655-1.686c0.438-0.438,1.02-0.655,1.748-0.655
			s1.311,0.218,1.748,0.655c0.438,0.437,0.656,0.999,0.656,1.686c0,0.677-0.217,1.238-0.648,1.685
			c-0.432,0.447-1.017,0.671-1.756,0.671c-0.738,0-1.324-0.224-1.756-0.671C154.045,4.981,153.829,4.42,153.829,3.743z M158.465,25
			h-4.433V8.113h4.433V25z"/>
		<path fill="#353070" d="M49.412,3.743c0-0.687,0.219-1.249,0.655-1.686c0.438-0.438,1.019-0.655,1.748-0.655
			s1.312,0.218,1.748,0.655c0.438,0.437,0.656,0.999,0.656,1.686c0,0.677-0.217,1.238-0.648,1.685
			C53.14,5.876,52.555,6.1,51.816,6.1c-0.738,0-1.324-0.224-1.756-0.671C49.628,4.981,49.412,4.42,49.412,3.743z M54.048,25h-4.433
			V8.113h4.433V25z"/>
	</g>
</g>
</svg>
