<?xml version="1.0" encoding="UTF-8"?>
<svg id="Layer_1" xmlns="http://www.w3.org/2000/svg" version="1.1" viewBox="0 0 514.3 514.3">
  <!-- Generator: Adobe Illustrator 30.2.1, SVG Export Plug-In . SVG Version: 2.1.1 Build 1)  -->
  <path d="M516.8,83.7c-.8.3-1.7.7-2.5,1v-1.7c-1.3,1.1-2.3,2-3.1,2.8-7.7,2.5-15.9,3.9-24.6,3.9s-4,0-6-.2l6.4,9.8c1.5,3,4.9,7.7,5.7,8.9,1.9,2.6,3.4,5.3,5.6,7.7,1.4,1.6,5.3-1.3,6.8.7.3.4-.2,1.7-.8,1.9l-3.3,1.3,4.5,6.6,3.7-2.7c.6-.5,2.3.3,2.7.9,1.8,3-1.6,3.4-3.4,5.7l1.7,2.8c.5.8.3,2.1-.4,2.5-.8.4-2.2.1-2.7-.6l-6.2-8.7c-.5-.8-1.6-2-2.2-2.7-.4-.1-1.6.2-1.7.6-.8,2.5.3,3.8-.9,4.8-1.4,1.3-3.5-.6-3.7-.4-1.6,1.1-.9,2.7-4,2.5-1.2,0-2.5-.4-3.3-1.1-.8-.7-1.4-2.3-1.2-3.5l.5-4.6-12.7-3.4c-1.8-.5-3.6-1.5-4.8-3.1-.3-.4,0-1.7.3-2.2.4-.6,1.8-1,2.3-.5.9.9,1.9,2.2,2.9,2.4l7,1.5c1-2.5,2.7-5.3,4.8-6.6.1.4,1.7,1.7,1.4,2l-2.2,2.7c-.3.4-.3,1.7,0,2.1.3.4,1.4-.4,1.8-.4l8.3-.5-13.3-19.2-5.3-8.1c-20.8-3.1-38.7-14.3-49.6-30h0c-7.2-10.4-11.4-22.7-11.4-36s.1-4.8.4-7.2c0,0,0,0,0,0,.5-4.1,1.3-8,2.6-11.9,0,0,0-.2,0-.3.2-.5.3-1,.5-1.6,0-.2.1-.3.2-.5.2-.4.3-.9.5-1.3.9-2.2,1.8-4.3,2.9-6.4l-5.1-.7-2.9,6.9h-8c-2.9,8.3-4.6,12.4-7.1,21-2.4,8.3-5.6,17.7-8.2,25.9l-6,17.3c3.1,0,6.8-.1,9.8-.3l6.2-.4,7.4-.4,14.6-.7,1.6,2.5,4.6,71.1c.2,2.5.4,7.8.4,7.8l39.6,10.9c15.5,4.7,30.8,9.7,46.4,12.9v-70.2l2.5-1.4v-12.2Z"/>
</svg>