<?xml version="1.0" encoding="UTF-8"?>
<svg id="Layer_1" xmlns="http://www.w3.org/2000/svg" version="1.1" viewBox="0 0 1000 1000">
  <!-- Generator: Adobe Illustrator 30.2.1, SVG Export Plug-In . SVG Version: 2.1.1 Build 1)  -->
  <defs>
    <style>
      .st0 {
        fill: #434343;
      }
    </style>
  </defs>
  <path class="st0" d="M252.7,1c3.3,9.5,6.6,19.1,12.2,28,8.8,14.1,18.9,27.9,32.5,37.9,0,5.1-.3,10.4-.7,15.6l-2,27.3c-4.4,2.1-8.3,4-12,6.4l-1.6,3.5c-3.1-2.9-5.5-5.5-8.3-8.7s-6.6-6-8.7-9.5-2.2-4.7-4.3-6.8l-4.5,3.1c-1.8-2.3-4.2-4.9-6.7-5.9-6.7,1.2-9.1,7.8-7.6,13.1l4.9,5.1h6.5c7.3,8.3,17,19,23.6,27.3-1.3-1.7,3,13.2,2.7,11.9l7.5,4.7c-1.9,3.1-8.4,3.3-8.7,5s.3,2.5.3,3.7l.5,15.7c.1,3.4,5.7,5.5,8.5,6.4,6.1,2.1.5,6.8,3.3,9.2s7.4,3.3,10.6,2.1.3-8.6,6-8.7,7.3-3.4,10.9-5.5,8.1-1.4,7.8-6.2-3.1-6.2-4-9.3c-3.6-13.2,5.9-18.2-2.4-22.4s-2.1-4.3-2.4-6.5c-.6-4.1-5.5-4.3-8.8-5.3-1.1-5.2-.5-10.5.7-16.4,3.5.4,6.8,1.2,10.1,2.1,1.6-.1,2.4-3.7,2-6l-11.3-3.2c-.9-7.6.4-23.3,1.8-32,37.6,22.2,81.8,27.9,123.6,16.6s84.6-45.7,97-92.2h79.9c-.6,1.3-1.8,3-3,4.2l-27.4,24.6c-6.4,5.7,1,9.1-5,14.2l-43.2,37.4-7.1,6-113.8,103.2-14.1,13.2-13.7,12.2-9.1,8.5c-3.1-2.6-5.6-1.8-8.1.5l-10.2,9.6-9.6,8.8-9.6,8.8-8.5,7.7c-2.7,2.5-5.8,5.6-8,8.1,1,1.5,1.7,3.3,1.2,4.2s-2.9,2-3.8,1.1l-17.1-18.1-18.8-19.6-14.8-15.6-15.2-16-15.2-16-16.8-17.6-19.5-20.3-16-16.8-12-12.8-17.2-17.9-17.5-18.5-16.8-17.5-15.6-16.4-18.8-19.6c-2.3-2.4-3.2-6.5-5-9.7,3.3-4.3,7.6-7.1,11.6-10.6l10.2-9.1h148.7Z"/>
</svg>