<?xml version="1.0" encoding="UTF-8"?>
<svg id="Layer_1" xmlns="http://www.w3.org/2000/svg" version="1.1" viewBox="0 0 1000 1000">
  <!-- Generator: Adobe Illustrator 30.2.1, SVG Export Plug-In . SVG Version: 2.1.1 Build 1)  -->
  <path d="M571.1,764.2l-104.7-77.1-258-189-50.1-36.4c-2.3-1.7-3-6.2-3.4-9.8l124.3-155.3,123.7-154.5,223.7,157,189.4,133.1c1.9,1.3,1.4,4.3.2,5.9l-59.8,80.7-178.7,239.9c-1.8,2.4-3.3,3.7-6.5,5.6ZM717,461.4c.6-1.9,7-1.8,7.6,0,1.1,3.4,2.9,9.5,5.8,10.9,5.7.1,12.2-.5,16.8-2.7s3.4-9.2,3.8-13.9l10.4-2.5c1.9-3.9,1-9.3-1.6-12.9l-11,.8c-1.6-4.5-3.3-9.3-6-12.4-6-.6-12.1.2-17.6,2.5-2.4,2.5-2.5,8.9-3.2,12.5s-6.3,3.1-7.1,1.8l-.8-10c-6.1-5.9-15.9-6.4-21.6.3l-2.9,9.5c-.7,2.2-5.6,5.6-8,6l-23.9,3.7-.4-7.5c0-1.1-1.2-2.9-2.1-3.2s-2.4,1.6-2.5,2.4l-1.4,9.4-44.2,6c.5-4.7,3.1-7.5,4.4-11.7,14.4-45.4,7.6-94.3-18-134.7-55.9-88.4-180.6-109.3-263.7-43.2-9.3,7.4-16.8,15.4-24.4,24.3-30.2,35.5-43.3,80.6-36.7,127.2,7.3,51.9,43.1,97.4,85,121.4,52.7,30.2,112,30.4,164.3,7.3,26.5-11.7,48.8-28,65-51.8l15.3-22.4,52.7-8.2c1.2-.2,3.6.3,4.4.9s.3,3.2-.2,4.1l-3.6,7c-1.5,2.9-1.2,7.6.9,10.1s5.2,2.8,9.6,4.2c-4.5,9.7-13.1,15.4-15.5,22.9l9.8,6.9,3.3-1.5c2.4,1.6,7,3.8,8.7,3,1.5-3.4,2.6-4.6,5.5-6.7l-4.5-9.1,6.9-8.5c.5-.6,3.2-1.3,3.5-.6l1.8,3.6v-7.7c0-2.4,2.7-5.7,4.5-7.1s7.4-2.5,9.4-.4,3.3,5.4,4.8,7.9c3.7.2,10.5-2.7,11.1-6.2-1.4-6.8-2.2-12.1.7-18.2s3.2-8.9,4.7-13.6ZM687.6,528.8l-2.8-8.8c-1.7,4,0,7.1,2.8,8.8Z"/>
</svg>