<svg width="77" height="77" viewBox="0 0 77 77" fill="none" xmlns="http://www.w3.org/2000/svg">
<rect x="0.920898" y="0.5" width="75.2311" height="75.2311" rx="3.5" fill="#F5F5F5" stroke="#F5F5F5"/>
<circle cx="12.5061" cy="11.1214" r="8.19364" fill="#BCBCBC"/>
<circle cx="48.1731" cy="11.1214" r="8.19364" fill="#BCBCBC"/>
<circle cx="65.5237" cy="11.1214" r="8.19364" fill="#BCBCBC"/>
<ellipse cx="12.5061" cy="28.9549" rx="8.19364" ry="8.67562" fill="#BCBCBC"/>
<circle cx="12.5061" cy="46.7884" r="8.19364" fill="#BCBCBC"/>
<circle cx="12.5061" cy="64.139" r="8.19364" fill="#BCBCBC"/>
<ellipse cx="48.1731" cy="28.9549" rx="8.19364" ry="8.67562" fill="#BCBCBC"/>
<ellipse cx="65.5237" cy="28.9549" rx="8.19364" ry="8.67562" fill="#BCBCBC"/>
<circle cx="48.1731" cy="46.7884" r="8.19364" fill="#BCBCBC"/>
<circle cx="48.1731" cy="64.139" r="8.19364" fill="#BCBCBC"/>
<circle cx="65.5237" cy="46.7884" r="8.19364" fill="#BCBCBC"/>
<circle cx="65.5237" cy="64.139" r="8.19364" fill="#BCBCBC"/>
<ellipse cx="30.3397" cy="11.1214" rx="8.67562" ry="8.19364" fill="#BCBCBC"/>
<circle cx="30.3397" cy="28.9549" r="8.67562" fill="#BCBCBC"/>
<ellipse cx="30.3397" cy="46.7884" rx="8.67562" ry="8.19364" fill="#BCBCBC"/>
<ellipse cx="30.3397" cy="64.139" rx="8.67562" ry="8.19364" fill="#BCBCBC"/>
</svg>
