<svg width="77" height="77" viewBox="0 0 77 77" fill="none" xmlns="http://www.w3.org/2000/svg">
<rect x="0.621094" y="0.5" width="75.2311" height="75.2311" rx="3.5" fill="#F5F5F5" stroke="#F5F5F5"/>
<circle cx="9.79653" cy="9.67544" r="6.7477" fill="#BCBCBC"/>
<circle cx="24.2565" cy="9.67544" r="6.7477" fill="#BCBCBC"/>
<circle cx="38.7155" cy="9.67544" r="6.7477" fill="#BCBCBC"/>
<circle cx="53.1745" cy="9.67544" r="6.7477" fill="#BCBCBC"/>
<circle cx="67.6344" cy="9.67544" r="6.7477" fill="#BCBCBC"/>
<circle cx="9.79653" cy="24.1354" r="6.7477" fill="#BCBCBC"/>
<circle cx="24.2565" cy="24.1354" r="6.7477" fill="#BCBCBC"/>
<circle cx="38.7155" cy="24.1354" r="6.7477" fill="#BCBCBC"/>
<circle cx="53.1745" cy="24.1354" r="6.7477" fill="#BCBCBC"/>
<circle cx="67.6344" cy="24.1354" r="6.7477" fill="#BCBCBC"/>
<circle cx="9.79653" cy="38.5944" r="6.7477" fill="#BCBCBC"/>
<circle cx="24.2565" cy="38.5944" r="6.7477" fill="#BCBCBC"/>
<circle cx="38.7155" cy="38.5944" r="6.7477" fill="#BCBCBC"/>
<circle cx="53.1745" cy="38.5944" r="6.7477" fill="#BCBCBC"/>
<circle cx="67.6344" cy="38.5944" r="6.7477" fill="#BCBCBC"/>
<circle cx="9.79653" cy="53.0534" r="6.7477" fill="#BCBCBC"/>
<circle cx="24.2565" cy="53.0534" r="6.7477" fill="#BCBCBC"/>
<circle cx="38.7155" cy="53.0534" r="6.7477" fill="#BCBCBC"/>
<circle cx="53.1745" cy="53.0534" r="6.7477" fill="#BCBCBC"/>
<circle cx="67.6344" cy="53.0534" r="6.7477" fill="#BCBCBC"/>
<circle cx="9.79653" cy="67.5133" r="6.7477" fill="#BCBCBC"/>
<circle cx="24.2565" cy="67.5133" r="6.7477" fill="#BCBCBC"/>
<circle cx="38.7155" cy="67.5133" r="6.7477" fill="#BCBCBC"/>
<circle cx="53.1745" cy="67.5133" r="6.7477" fill="#BCBCBC"/>
<circle cx="67.6344" cy="67.5133" r="6.7477" fill="#BCBCBC"/>
</svg>
