<?xml version="1.0" encoding="utf-8"?>
<svg xmlns="http://www.w3.org/2000/svg" viewBox="439.4681 30.1143 95.8156 107.522" width="95.8156px" height="107.522px">
  <path d="M 0 0 L -9.788 5.494 L -1.031 7.955 C 1.186 8.578 2.478 10.879 1.855 13.096 L 1.311 15.033 C 0.688 17.25 -1.614 18.542 -3.83 17.919 L -22.552 12.659 L -35.206 19.762 L -22.552 26.865 L -3.83 21.604 C -1.614 20.982 0.688 22.274 1.311 24.49 L 1.855 26.428 C 2.478 28.644 1.186 30.946 -1.031 31.568 L -9.788 34.029 L 0 39.523 C 2.008 40.65 2.722 43.191 1.595 45.199 L 0.61 46.954 C -0.517 48.962 -3.058 49.676 -5.066 48.549 L -14.854 43.054 L -12.394 51.812 C -11.771 54.028 -13.063 56.33 -15.279 56.953 L -17.217 57.497 C -19.433 58.12 -21.735 56.828 -22.357 54.612 L -27.618 35.89 L -40.604 28.601 L -40.604 43.493 L -26.853 57.243 C -25.225 58.871 -25.225 61.511 -26.853 63.139 L -28.276 64.562 C -29.904 66.19 -32.543 66.19 -34.171 64.562 L -40.604 58.129 L -40.604 69.354 C -40.604 71.656 -42.47 73.523 -44.772 73.523 L -46.785 73.523 C -49.087 73.523 -50.953 71.656 -50.953 69.354 L -50.953 58.129 L -57.386 64.562 C -59.014 66.19 -61.653 66.19 -63.281 64.562 L -64.704 63.139 C -66.332 61.511 -66.332 58.871 -64.704 57.243 L -50.953 43.493 L -50.953 28.601 L -63.939 35.89 L -69.199 54.612 C -69.822 56.828 -72.124 58.12 -74.34 57.497 L -76.278 56.953 C -78.494 56.33 -79.786 54.028 -79.163 51.812 L -76.703 43.054 L -86.491 48.549 C -88.499 49.676 -91.04 48.962 -92.167 46.954 L -93.152 45.199 C -94.279 43.191 -93.564 40.65 -91.557 39.523 L -81.769 34.029 L -90.526 31.568 C -92.743 30.946 -94.035 28.644 -93.412 26.428 L -92.868 24.49 C -92.245 22.274 -89.943 20.982 -87.727 21.604 L -69.005 26.865 L -56.351 19.762 L -69.005 12.659 L -87.727 17.919 C -89.943 18.542 -92.245 17.25 -92.868 15.033 L -93.412 13.096 C -94.035 10.879 -92.743 8.578 -90.526 7.955 L -81.769 5.494 L -91.557 0 C -93.565 -1.127 -94.279 -3.668 -93.152 -5.676 L -92.167 -7.43 C -91.04 -9.438 -88.499 -10.152 -86.491 -9.025 L -76.703 -3.531 L -79.163 -12.289 C -79.786 -14.505 -78.494 -16.807 -76.278 -17.429 L -74.34 -17.974 C -72.124 -18.597 -69.822 -17.305 -69.199 -15.088 L -63.939 3.634 L -50.953 10.923 L -50.953 -3.969 L -64.704 -17.72 C -66.332 -19.348 -66.332 -21.987 -64.704 -23.615 L -63.281 -25.038 C -61.653 -26.666 -59.014 -26.666 -57.386 -25.038 L -50.953 -18.606 L -50.953 -29.831 C -50.953 -32.133 -49.087 -33.999 -46.785 -33.999 L -44.772 -33.999 C -42.47 -33.999 -40.604 -32.133 -40.604 -29.831 L -40.604 -18.606 L -34.171 -25.038 C -32.543 -26.666 -29.904 -26.666 -28.276 -25.038 L -26.853 -23.615 C -25.225 -21.987 -25.225 -19.348 -26.853 -17.72 L -40.604 -3.969 L -40.604 10.923 L -27.618 3.634 L -22.357 -15.088 C -21.735 -17.305 -19.433 -18.597 -17.217 -17.974 L -15.279 -17.429 C -13.063 -16.807 -11.771 -14.505 -12.394 -12.289 L -14.854 -3.531 L -5.066 -9.025 C -3.058 -10.152 -0.517 -9.438 0.61 -7.43 L 1.595 -5.676 C 2.722 -3.668 2.008 -1.127 0 0" style="fill-opacity: 1; fill: rgb(91, 82, 172);" id="object-15" transform="matrix(1, 0, 0, -1, 533.1544189453125, 103.63729095458986)"/>
</svg>