<?xml version="1.0" encoding="utf-8"?>
<svg xmlns="http://www.w3.org/2000/svg" viewBox="156.8416 27.6389 114.6701 114.67" width="114.67px" height="114.67px" preserveAspectRatio="none">
  <defs>
    <clipPath id="clippath0" transform="">
      <path d="M 0 172.941 L 566.118 172.941 L 566.118 0 L 0 0 Z" style="fill: none; clip-rule: nonzero;"/>
    </clipPath>
  </defs>
  <g id="object-10" transform="matrix(1, 0, 0, 1, 7.105427357601002e-15, 0)">
    <g style="clip-path: url(&quot;#clippath0&quot;);" transform="matrix(1, 0, 0, -1, 0, 172.940994)" id="object-1">
      <g transform="translate(242.9318 89.0654)">
        <path d="M 0 0 C 0 -15.881 -12.874 -28.755 -28.755 -28.755 C -44.636 -28.755 -57.51 -15.881 -57.51 0 C -57.51 15.881 -44.636 28.755 -28.755 28.755 C -12.874 28.755 0 15.881 0 0" style="fill-opacity: 1; fill: rgb(60, 140, 84);"/>
      </g>
    </g>
    <g style="clip-path: url(&quot;#clippath0&quot;);" transform="matrix(1, 0, 0, -1, 0, 172.940994)" id="object-2">
      <g transform="translate(221.6911 132.5461)">
        <path d="M 0 0 C -1.861 5.594 -7.514 12.756 -7.514 12.756 C -7.514 12.756 -15.418 3.376 -15.579 -2.178 C -15.584 -2.226 -15.587 -2.275 -15.591 -2.324 C -15.591 -2.335 -15.594 -2.348 -15.594 -2.359 C -15.594 -2.361 -15.593 -2.363 -15.593 -2.364 C -15.613 -2.592 -15.628 -2.821 -15.628 -3.054 C -15.628 -7.535 -11.996 -11.168 -7.514 -11.168 C -3.033 -11.168 0.599 -7.535 0.599 -3.054 C 0.599 -1.973 0.384 -0.943 0 0" style="fill-opacity: 1; fill: rgb(60, 140, 84);"/>
      </g>
    </g>
    <g style="clip-path: url(&quot;#clippath0&quot;);" transform="matrix(1, 0, 0, -1, 0, 172.940994)" id="object-3">
      <g transform="translate(206.6623 43.3881)">
        <path d="M 0 0 C 1.861 -5.594 7.514 -12.756 7.514 -12.756 C 7.514 -12.756 15.418 -3.376 15.579 2.178 C 15.584 2.226 15.587 2.275 15.591 2.324 C 15.591 2.335 15.594 2.348 15.594 2.359 C 15.594 2.361 15.593 2.363 15.593 2.364 C 15.613 2.592 15.628 2.821 15.628 3.054 C 15.628 7.535 11.996 11.168 7.514 11.168 C 3.033 11.168 -0.599 7.535 -0.599 3.054 C -0.599 1.973 -0.384 0.943 0 0" style="fill-opacity: 1; fill: rgb(60, 140, 84);"/>
      </g>
    </g>
    <g style="clip-path: url(&quot;#clippath0&quot;);" transform="matrix(1, 0, 0, -1, 0, 172.940994)" id="object-4">
      <g transform="translate(250.4046 115.2741)">
        <path d="M 0 0 C 2.639 5.271 3.706 14.333 3.706 14.333 C 3.706 14.333 -8.515 13.289 -12.556 9.476 C -12.594 9.446 -12.63 9.413 -12.668 9.382 C -12.676 9.374 -12.687 9.367 -12.695 9.359 C -12.696 9.357 -12.697 9.356 -12.698 9.354 C -12.873 9.207 -13.046 9.056 -13.21 8.891 C -16.379 5.723 -16.379 0.585 -13.21 -2.583 C -10.042 -5.752 -4.904 -5.752 -1.736 -2.583 C -0.971 -1.819 -0.396 -0.938 0 0" style="fill-opacity: 1; fill: rgb(60, 140, 84);"/>
      </g>
    </g>
    <g style="clip-path: url(&quot;#clippath0&quot;);" transform="matrix(1, 0, 0, -1, 0, 172.940994)" id="object-5">
      <g transform="translate(176.7334 62.8568)">
        <path d="M 0 0 C -2.639 -5.271 -3.706 -14.333 -3.706 -14.333 C -3.706 -14.333 8.515 -13.289 12.556 -9.476 C 12.594 -9.446 12.63 -9.413 12.668 -9.382 C 12.676 -9.374 12.687 -9.367 12.695 -9.359 C 12.696 -9.357 12.697 -9.356 12.698 -9.354 C 12.873 -9.207 13.046 -9.056 13.21 -8.891 C 16.379 -5.723 16.379 -0.585 13.21 2.583 C 10.042 5.752 4.904 5.752 1.736 2.583 C 0.971 1.819 0.396 0.938 0 0" style="fill-opacity: 1; fill: rgb(60, 140, 84);"/>
      </g>
    </g>
    <g style="clip-path: url(&quot;#clippath0&quot;);" transform="matrix(1, 0, 0, -1, 0, 172.940994)" id="object-6">
      <g transform="translate(258.7557 80.9433)">
        <path d="M 0 0 C 5.594 1.861 12.756 7.514 12.756 7.514 C 12.756 7.514 3.376 15.418 -2.178 15.579 C -2.226 15.584 -2.275 15.587 -2.324 15.591 C -2.335 15.591 -2.348 15.594 -2.359 15.594 C -2.361 15.594 -2.363 15.593 -2.364 15.593 C -2.592 15.613 -2.821 15.628 -3.054 15.628 C -7.535 15.628 -11.168 11.996 -11.168 7.514 C -11.168 3.033 -7.535 -0.599 -3.054 -0.599 C -1.973 -0.599 -0.943 -0.384 0 0" style="fill-opacity: 1; fill: rgb(60, 140, 84);"/>
      </g>
    </g>
    <g style="clip-path: url(&quot;#clippath0&quot;);" transform="matrix(1, 0, 0, -1, 0, 172.940994)" id="object-7">
      <g transform="translate(169.5976 95.9721)">
        <path d="M 0 0 C -5.594 -1.861 -12.756 -7.514 -12.756 -7.514 C -12.756 -7.514 -3.376 -15.418 2.178 -15.579 C 2.226 -15.584 2.275 -15.587 2.324 -15.591 C 2.335 -15.591 2.348 -15.594 2.359 -15.594 C 2.361 -15.594 2.363 -15.593 2.364 -15.593 C 2.592 -15.613 2.821 -15.628 3.054 -15.628 C 7.535 -15.628 11.168 -11.996 11.168 -7.514 C 11.168 -3.033 7.535 0.599 3.054 0.599 C 1.973 0.599 0.943 0.384 0 0" style="fill-opacity: 1; fill: rgb(60, 140, 84);"/>
      </g>
    </g>
    <g style="clip-path: url(&quot;#clippath0&quot;);" transform="matrix(1, 0, 0, -1, 0, 172.940994)" id="object-8">
      <g transform="translate(241.4836 52.2298)">
        <path d="M 0 0 C 5.271 -2.639 14.333 -3.706 14.333 -3.706 C 14.333 -3.706 13.289 8.515 9.476 12.556 C 9.446 12.594 9.413 12.63 9.382 12.668 C 9.374 12.676 9.367 12.687 9.359 12.695 C 9.357 12.696 9.356 12.697 9.354 12.698 C 9.207 12.873 9.056 13.046 8.891 13.21 C 5.723 16.379 0.585 16.379 -2.583 13.21 C -5.752 10.042 -5.752 4.904 -2.583 1.736 C -1.819 0.971 -0.938 0.396 0 0" style="fill-opacity: 1; fill: rgb(60, 140, 84);"/>
      </g>
    </g>
    <g style="clip-path: url(&quot;#clippath0&quot;);" transform="matrix(1, 0, 0, -1, 0, 172.940994)" id="object-9">
      <g transform="translate(189.0663 125.9011)">
        <path d="M 0 0 C -5.271 2.639 -14.333 3.706 -14.333 3.706 C -14.333 3.706 -13.289 -8.515 -9.476 -12.556 C -9.446 -12.594 -9.413 -12.63 -9.382 -12.668 C -9.374 -12.676 -9.367 -12.687 -9.359 -12.695 C -9.357 -12.696 -9.356 -12.697 -9.354 -12.698 C -9.207 -12.873 -9.056 -13.046 -8.891 -13.21 C -5.723 -16.379 -0.585 -16.379 2.583 -13.21 C 5.752 -10.042 5.752 -4.904 2.583 -1.736 C 1.819 -0.971 0.938 -0.396 0 0" style="fill-opacity: 1; fill: rgb(60, 140, 84);"/>
      </g>
    </g>
  </g>
</svg>