<?xml version="1.0" encoding="UTF-8" standalone="no"?>
<!-- Created with Inkscape (http://www.inkscape.org/) -->
<svg xmlns:dc="http://purl.org/dc/elements/1.1/" xmlns:cc="http://creativecommons.org/ns#" xmlns:rdf="http://www.w3.org/1999/02/22-rdf-syntax-ns#" xmlns:svg="http://www.w3.org/2000/svg" xmlns="http://www.w3.org/2000/svg" xmlns:sodipodi="http://sodipodi.sourceforge.net/DTD/sodipodi-0.dtd" xmlns:inkscape="http://www.inkscape.org/namespaces/inkscape" width="240" height="80" id="svg2" sodipodi:version="0.32" inkscape:version="0.46+devel" version="1.0" sodipodi:docname="libre.fm_logo_ready_to_use.svg" inkscape:output_extension="org.inkscape.output.svg.inkscape">
  <title id="title16">Libre.fm logo</title>
  <defs id="defs4">
    <inkscape:perspective sodipodi:type="inkscape:persp3d" inkscape:vp_x="0 : 526.18109 : 1" inkscape:vp_y="0 : 1000 : 0" inkscape:vp_z="744.09448 : 526.18109 : 1" inkscape:persp3d-origin="372.04724 : 350.78739 : 1" id="perspective10"/>
    <inkscape:perspective id="perspective2453" inkscape:persp3d-origin="372.04724 : 350.78739 : 1" inkscape:vp_z="744.09448 : 526.18109 : 1" inkscape:vp_y="0 : 1000 : 0" inkscape:vp_x="0 : 526.18109 : 1" sodipodi:type="inkscape:persp3d"/>
    <marker style="overflow: visible;" id="StopL" refX="0" refY="0" orient="auto" inkscape:stockid="StopL">
      <path transform="scale(0.8)" style="fill: none; stroke: rgb(0, 0, 0); stroke-width: 1pt;" d="M 0,5.65 0,-5.65" id="path3361"/>
    </marker>
    <marker style="overflow: visible;" id="StopM" refX="0" refY="0" orient="auto" inkscape:stockid="StopM">
      <path transform="scale(0.4)" style="fill: none; stroke: rgb(0, 0, 0); stroke-width: 1pt;" d="M 0,5.65 0,-5.65" id="path3364"/>
    </marker>
  </defs>
  <sodipodi:namedview id="base" pagecolor="#ffffff" bordercolor="#666666" borderopacity="1.0" gridtolerance="10000" guidetolerance="10" objecttolerance="10" inkscape:pageopacity="0.0" inkscape:pageshadow="2" inkscape:zoom="1.4921875" inkscape:cx="119.23428" inkscape:cy="17.20568" inkscape:document-units="px" inkscape:current-layer="layer1" showgrid="false" showborder="true" inkscape:window-width="1024" inkscape:window-height="694" inkscape:window-x="0" inkscape:window-y="25"/>
  <metadata id="metadata7">
    <rdf:RDF>
      <cc:Work rdf:about="">
        <dc:format>image/svg+xml</dc:format>
        <dc:type rdf:resource="http://purl.org/dc/dcmitype/StillImage"/>
        <dc:title>Libre.fm logo</dc:title>
        <cc:license rdf:resource="http://creativecommons.org/licenses/by-sa/3.0/"/>
        <dc:creator>
          <cc:Agent>
            <dc:title>Matt Lee</dc:title>
          </cc:Agent>
        </dc:creator>
        <dc:contributor>
          <cc:Agent>
            <dc:title>Bernd Gruber (tweaks)</dc:title>
          </cc:Agent>
        </dc:contributor>
        <dc:publisher>
          <cc:Agent>
            <dc:title>FooCorp</dc:title>
          </cc:Agent>
        </dc:publisher>
      </cc:Work>
      <cc:License rdf:about="http://creativecommons.org/licenses/by-sa/3.0/">
        <cc:permits rdf:resource="http://creativecommons.org/ns#Reproduction"/>
        <cc:permits rdf:resource="http://creativecommons.org/ns#Distribution"/>
        <cc:requires rdf:resource="http://creativecommons.org/ns#Notice"/>
        <cc:requires rdf:resource="http://creativecommons.org/ns#Attribution"/>
        <cc:permits rdf:resource="http://creativecommons.org/ns#DerivativeWorks"/>
        <cc:requires rdf:resource="http://creativecommons.org/ns#ShareAlike"/>
      </cc:License>
    </rdf:RDF>
  </metadata>
  <g inkscape:label="Layer 1" inkscape:groupmode="layer" id="layer1" transform="translate(-130, -160)">
    <g id="g3283">
      <rect transform="scale(-1, 1)" ry="20" y="160" x="-370" height="80" width="240" id="rect3181" style="fill: rgb(153, 0, 0); fill-opacity: 1; stroke: none;"/>
      <path id="text3183" d="m 149.97125,186.36764 c 0,-1.23526 0.41912,-2.20585 1.25736,-2.91176 0.70587,-0.70585 1.63234,-1.05879 2.77941,-1.05883 0.88234,4e-5 1.76469,0.37504 2.64706,1.125 0.7941,0.70592 1.19116,1.65445 1.19117,2.84559 l -0.46323,23.69118 9.92647,-0.46323 c 1.01468,0 1.8088,0.39706 2.38235,1.19117 0.57351,0.75001 0.86027,1.78677 0.8603,3.1103 -3e-5,1.05882 -0.28679,1.94117 -0.8603,2.64705 -0.52943,0.70589 -1.32355,1.05883 -2.38235,1.05883 l -13.96324,0 c -0.79412,0 -1.56618,-0.30882 -2.31617,-0.92647 -0.70589,-0.57353 -1.05883,-1.27941 -1.05883,-2.11765 l 0,-28.19118 z m 24.90915,27.26471 -0.2647,-26.93382 c -1e-5,-1.27938 0.39705,-2.31615 1.19117,-3.1103 0.75,-0.66173 1.7647,-0.99261 3.04412,-0.99265 1.2794,4e-5 2.27205,0.33092 2.97794,0.99265 0.70587,0.6618 1.05881,1.56621 1.05883,2.71324 l -0.33089,27.33088 c -1e-5,1.2353 -0.37501,2.22794 -1.125,2.97794 -0.75001,0.70588 -1.63236,1.05883 -2.64706,1.05882 -1.14706,1e-5 -2.07353,-0.35294 -2.77941,-1.05882 -0.75,-0.70588 -1.125,-1.69853 -1.125,-2.97794 l 0,0 z m 13.31406,-27.26471 c 0,-0.88232 0.30882,-1.72055 0.92647,-2.5147 0.61764,-0.88232 1.32353,-1.3235 2.11765,-1.32353 l 12.04412,0 c 2.16174,3e-5 4.03674,0.9265 5.625,2.77941 1.58821,1.85297 2.38232,3.9265 2.38235,6.22059 -3e-5,2.86767 -1.27944,5.09561 -3.83823,6.68382 2.24997,0.35296 3.97056,1.36767 5.16176,3.04412 1.0588,1.50001 1.58821,3.35295 1.58824,5.55882 -3e-5,2.82354 -0.79415,5.29413 -2.38236,7.41177 -1.76473,2.33823 -3.97061,3.50735 -6.61764,3.50735 l -13.96324,0 c -0.79412,0 -1.50001,-0.24265 -2.11765,-0.72794 -0.61765,-0.48529 -0.92647,-1.125 -0.92647,-1.91912 l 0,-28.72059 z m 13.89706,15.81618 -5.82353,0 0,8.60294 5.82353,0 c 1.80881,1e-5 3.13233,-0.37499 3.97059,-1.125 0.70586,-0.70587 1.0588,-1.52205 1.05882,-2.44853 -2e-5,-0.57352 -0.11031,-1.30146 -0.33088,-2.18382 -0.22061,-0.88234 -0.48531,-1.47793 -0.79412,-1.78677 -0.7059,-0.70586 -2.00737,-1.0588 -3.90441,-1.05882 l 0,0 z m -1.19117,-11.97794 -4.63236,0 0,7.34559 5.82353,0 c 1.32351,2e-5 1.98528,-0.97057 1.9853,-2.91177 -2e-5,-1.58821 -0.22061,-2.73527 -0.66177,-3.44117 -0.39708,-0.66174 -1.23531,-0.99262 -2.5147,-0.99265 l 0,0 z m 17.02995,-5.09559 c -10e-6,-0.61761 0.2647,-1.30144 0.79412,-2.05147 0.61764,-0.70585 1.23528,-1.05879 1.85294,-1.05882 l 13.10294,0 c 2.60292,3e-5 4.87498,1.08091 6.81618,3.24264 1.89703,2.25003 2.84556,4.6765 2.84559,7.27941 -3e-5,2.02944 -0.61768,3.86032 -1.85295,5.49265 -1.36767,1.72061 -3.4412,3.0662 -6.22058,4.03677 l 7.875,7.94117 c 0.8382,0.9706 1.25732,2.00736 1.25735,3.1103 -3e-5,1.05883 -0.35297,1.94118 -1.05882,2.64706 -0.26474,0.35294 -0.69489,0.79412 -1.29045,1.32353 -0.59561,0.52941 -1.11399,0.79411 -1.55514,0.79411 -1.50003,0 -2.86767,-0.74999 -4.10294,-2.25 l -10.45589,-12.83823 0,10.52206 c -1e-5,1.27941 -0.41913,2.38235 -1.25735,3.30882 -0.79413,0.79412 -1.76472,1.19118 -2.91177,1.19118 -1.10294,0 -2.00735,-0.39706 -2.71323,-1.19118 -0.75001,-0.70588 -1.12501,-1.80882 -1.125,-3.30882 l 0,-28.19118 z m 8.00735,3.77206 0,8.13971 5.88971,0 c 1.63233,2e-5 2.75733,-0.39704 3.375,-1.19118 0.66174,-0.7941 1.01468,-1.85292 1.05882,-3.17647 -2e-5,-0.74998 -0.35296,-1.61027 -1.05882,-2.58088 -0.61767,-0.79409 -1.74267,-1.19115 -3.375,-1.19118 l -5.88971,0 z m 22.69014,-3.04412 c -1e-5,-1.05879 0.30881,-1.89702 0.92647,-2.51471 0.70587,-0.61761 1.52205,-0.92643 2.44853,-0.92647 l 12.83823,0 c 1.19116,4e-5 2.09557,0.44122 2.71324,1.32353 0.61762,0.83827 0.92644,1.7868 0.92647,2.84559 -3e-5,1.19121 -0.24267,2.13974 -0.72794,2.84559 -0.52944,0.70591 -1.27944,1.05885 -2.25,1.05882 l -10.58824,-0.39705 0,6.75 9.92647,-0.39706 c 0.92645,2e-5 1.65439,0.37502 2.18383,1.125 0.5735,0.75002 0.86027,1.78678 0.86029,3.11029 -2e-5,1.05884 -0.22061,1.96325 -0.66176,2.71324 -0.52944,0.70589 -1.21326,1.05883 -2.05148,1.05882 l -10.25735,-0.33088 0,6.22059 9.92647,-0.46324 c 1.23527,1e-5 2.1838,0.39707 2.84559,1.19118 0.66174,0.70589 0.99262,1.74265 0.99265,3.11029 -3e-5,0.92648 -0.26473,1.72059 -0.79412,2.38235 -0.48532,0.70589 -1.12502,1.05883 -1.91912,1.05883 l -14.69118,0 c -0.52941,0 -1.10294,-0.30882 -1.72058,-0.92647 -0.61766,-0.48529 -0.92648,-1.08088 -0.92647,-1.78677 l 0,-29.05147 z m 29.13024,23.42647 c 1.23528,1e-5 2.20587,0.41913 2.91176,1.25736 0.70587,0.92647 1.05881,1.94118 1.05882,3.04411 -1e-5,1.10295 -0.33089,2.05148 -0.99264,2.84559 -0.75001,0.88236 -1.74266,1.32353 -2.97794,1.32353 -1.32354,0 -2.38236,-0.44117 -3.17648,-1.32353 -0.70588,-0.92647 -1.05882,-1.91911 -1.05882,-2.97794 0,-1.10294 0.375,-2.07352 1.125,-2.91176 0.70588,-0.83823 1.74264,-1.25735 3.1103,-1.25736 l 0,0 z m 8.83665,4.63236 0,-27.8603 c 0,-2.29408 0.99264,-3.44114 2.97794,-3.44118 l 13.56618,0 c 1.10292,4e-5 1.98527,0.3971 2.64706,1.19118 0.61762,0.83827 0.92645,1.76474 0.92647,2.77941 -2e-5,1.32356 -0.22061,2.25003 -0.66176,2.77941 -0.48532,0.6618 -1.16915,0.99268 -2.05148,0.99265 l -10.78676,-0.39706 0,5.625 9.52941,-0.39706 c 1.01469,3e-5 1.78674,0.35297 2.31618,1.05883 0.5735,0.7059 0.86027,1.72061 0.86029,3.04412 -2e-5,0.92648 -0.26473,1.7206 -0.79412,2.38235 -0.57355,0.79413 -1.36766,1.19119 -2.38235,1.19117 l -9.52941,0 0,11.05148 c -1e-5,1.23529 -0.39707,2.18382 -1.19118,2.84558 -0.75001,0.66177 -1.63236,0.99265 -2.64706,0.99265 -0.44118,0 -0.76103,-0.0772 -0.95956,-0.23162 -0.19853,-0.15441 -0.43015,-0.40808 -0.69485,-0.76103 -0.75,-0.61764 -1.125,-1.56617 -1.125,-2.84558 l 0,0 z m 37.4617,-27.00001 5.36029,15.88236 5.75736,-15.88236 c 0.52938,-1.32349 1.27938,-2.3382 2.25,-3.04411 0.97055,-0.70585 2.02937,-1.05879 3.17647,-1.05883 1.19114,4e-5 2.24996,0.3971 3.17647,1.19118 1.01466,0.88239 1.65437,2.11768 1.91911,3.70588 l 4.36765,25.94118 0,0.86029 c -4e-5,1.05883 -0.33093,1.91912 -0.99265,2.58089 -0.75004,0.61764 -1.87504,0.92647 -3.375,0.92647 -0.97062,0 -1.83092,-0.30883 -2.58088,-0.92647 -0.48533,-0.39706 -0.99268,-2.22794 -1.52206,-5.49265 l -1.98529,-16.21324 -0.0662,0 c -0.13239,3e-5 -0.2868,0.0441 -0.46323,0.13236 l -5.02941,16.08088 c -1.36768,4.2353 -2.77944,6.35294 -4.2353,6.35294 -1.36767,0 -2.80149,-2.11764 -4.30147,-6.35294 l -5.22794,-15.08824 -0.19853,-0.33088 -0.0662,0 c -0.13237,2e-5 -0.33089,0.0883 -0.59559,0.26471 l -0.99264,13.96323 c -0.26472,1.94118 -0.77207,3.69486 -1.52206,5.26103 -0.75001,1.56618 -1.67648,2.34927 -2.77941,2.34927 -1.85295,0 -3.15442,-0.375 -3.90442,-1.125 -0.79412,-0.70588 -1.19118,-1.61029 -1.19117,-2.71324 l 0,-0.59559 4.5,-25.875 c 0.2647,-1.54408 0.9044,-2.75732 1.91912,-3.6397 1.10293,-0.88232 2.24998,-1.3235 3.44117,-1.32353 2.47057,3e-5 4.19116,1.38974 5.16177,4.16911 l 0,0 z" style="font-size: 67.7647px; font-style: normal; font-variant: normal; font-weight: normal; font-stretch: normal; text-align: start; line-height: 125%; text-anchor: start; fill: rgb(255, 255, 255); fill-opacity: 1; stroke: none; font-family: Dyuthi;"/>
    </g>
  </g>
</svg>