<svg width="22" height="14" viewBox="0 0 22 14" fill="none" xmlns="http://www.w3.org/2000/svg">
<path d="M2.84608 5.78831L1.11119 7.52321C0.399705 8.23469 0 9.19966 0 10.2058C0 11.212 0.399705 12.177 1.11119 12.8885C1.82267 13.6 2.78764 13.9997 3.79382 13.9997C4.80001 13.9997 5.76498 13.6 6.47646 12.8885L8.78797 10.5757C9.21701 10.1466 9.53685 9.62086 9.72066 9.04257C9.90446 8.46428 9.94685 7.85033 9.84429 7.25227C9.74172 6.65421 9.49718 6.08947 9.1312 5.60547C8.76521 5.12147 8.28846 4.73233 7.74097 4.4707L6.99997 5.2117C6.92474 5.28706 6.85931 5.37161 6.80523 5.46334C7.22824 5.58494 7.61219 5.81484 7.91912 6.13031C8.22606 6.44577 8.44534 6.83588 8.5553 7.26207C8.66527 7.68825 8.6621 8.13575 8.54611 8.56034C8.43013 8.98492 8.20534 9.37189 7.89397 9.68298L5.58373 11.9945C5.10918 12.469 4.46556 12.7356 3.79446 12.7356C3.12335 12.7356 2.47973 12.469 2.00519 11.9945C1.53064 11.5199 1.26405 10.8763 1.26405 10.2052C1.26405 9.53411 1.53064 8.89049 2.00519 8.41595L3.00794 7.41446C2.86646 6.88429 2.8118 6.3347 2.84608 5.78705V5.78831Z" fill="#F5F5F5"/>
<path d="M5.21198 3.42269C4.78294 3.85179 4.46309 4.37755 4.27929 4.95584C4.09549 5.53413 4.05309 6.14807 4.15566 6.74614C4.25823 7.3442 4.50277 7.90893 4.86875 8.39293C5.23474 8.87694 5.71148 9.26608 6.25898 9.5277L7.23897 8.54645C6.81024 8.43145 6.41933 8.20564 6.10552 7.8917C5.79171 7.57775 5.56605 7.18675 5.45123 6.75797C5.33641 6.32919 5.33647 5.87774 5.4514 5.44899C5.56633 5.02024 5.79209 4.62929 6.10598 4.31543L8.41622 2.00392C8.89076 1.52938 9.53438 1.26278 10.2055 1.26278C10.8766 1.26278 11.5202 1.52938 11.9948 2.00392C12.4693 2.47847 12.7359 3.12209 12.7359 3.79319C12.7359 4.4643 12.4693 5.10792 11.9948 5.58246L10.992 6.58395C11.1336 7.11504 11.188 7.66509 11.1539 8.21136L12.8888 6.47646C13.6002 5.76498 13.9999 4.80001 13.9999 3.79382C13.9999 2.78764 13.6002 1.82267 12.8888 1.11119C12.1773 0.399705 11.2123 0 10.2061 0C9.19994 0 8.23496 0.399705 7.52348 1.11119L5.21198 3.42269Z" fill="#F5F5F5"/>
<g opacity="0.64">
<path d="M6.84608 5.78831L5.11119 7.52321C4.39971 8.23469 4 9.19966 4 10.2058C4 11.212 4.39971 12.177 5.11119 12.8885C5.82267 13.6 6.78764 13.9997 7.79382 13.9997C8.80001 13.9997 9.76498 13.6 10.4765 12.8885L12.788 10.5757C13.217 10.1466 13.5369 9.62086 13.7207 9.04257C13.9045 8.46428 13.9469 7.85033 13.8443 7.25227C13.7417 6.65421 13.4972 6.08947 13.1312 5.60547C12.7652 5.12147 12.2885 4.73233 11.741 4.4707L11 5.2117C10.9247 5.28706 10.8593 5.37161 10.8052 5.46334C11.2282 5.58494 11.6122 5.81484 11.9191 6.13031C12.2261 6.44577 12.4453 6.83588 12.5553 7.26207C12.6653 7.68825 12.6621 8.13575 12.5461 8.56034C12.4301 8.98492 12.2053 9.37189 11.894 9.68298L9.58373 11.9945C9.10918 12.469 8.46556 12.7356 7.79446 12.7356C7.12335 12.7356 6.47973 12.469 6.00519 11.9945C5.53064 11.5199 5.26405 10.8763 5.26405 10.2052C5.26405 9.53411 5.53064 8.89049 6.00519 8.41595L7.00794 7.41446C6.86646 6.88429 6.8118 6.3347 6.84608 5.78705V5.78831Z" fill="#F5F5F5"/>
<path d="M9.21198 3.42269C8.78294 3.85179 8.46309 4.37755 8.27929 4.95584C8.09549 5.53413 8.05309 6.14807 8.15566 6.74614C8.25823 7.3442 8.50277 7.90893 8.86875 8.39293C9.23474 8.87694 9.71148 9.26608 10.259 9.5277L11.239 8.54645C10.8102 8.43145 10.4193 8.20564 10.1055 7.8917C9.79171 7.57775 9.56605 7.18675 9.45123 6.75797C9.33641 6.32919 9.33647 5.87774 9.4514 5.44899C9.56633 5.02024 9.79209 4.62929 10.106 4.31543L12.4162 2.00392C12.8908 1.52938 13.5344 1.26278 14.2055 1.26278C14.8766 1.26278 15.5202 1.52938 15.9948 2.00392C16.4693 2.47847 16.7359 3.12209 16.7359 3.79319C16.7359 4.4643 16.4693 5.10792 15.9948 5.58246L14.992 6.58395C15.1336 7.11504 15.188 7.66509 15.1539 8.21136L16.8888 6.47646C17.6002 5.76498 17.9999 4.80001 17.9999 3.79382C17.9999 2.78764 17.6002 1.82267 16.8888 1.11119C16.1773 0.399705 15.2123 0 14.2061 0C13.1999 0 12.235 0.399705 11.5235 1.11119L9.21198 3.42269Z" fill="#F5F5F5"/>
</g>
<g opacity="0.34">
<path d="M10.8461 5.78831L9.11119 7.52321C8.39971 8.23469 8 9.19966 8 10.2058C8 11.212 8.39971 12.177 9.11119 12.8885C9.82267 13.6 10.7876 13.9997 11.7938 13.9997C12.8 13.9997 13.765 13.6 14.4765 12.8885L16.788 10.5757C17.217 10.1466 17.5369 9.62086 17.7207 9.04257C17.9045 8.46428 17.9469 7.85033 17.8443 7.25227C17.7417 6.65421 17.4972 6.08947 17.1312 5.60547C16.7652 5.12147 16.2885 4.73233 15.741 4.4707L15 5.2117C14.9247 5.28706 14.8593 5.37161 14.8052 5.46334C15.2282 5.58494 15.6122 5.81484 15.9191 6.13031C16.2261 6.44577 16.4453 6.83588 16.5553 7.26207C16.6653 7.68825 16.6621 8.13575 16.5461 8.56034C16.4301 8.98492 16.2053 9.37189 15.894 9.68298L13.5837 11.9945C13.1092 12.469 12.4656 12.7356 11.7945 12.7356C11.1234 12.7356 10.4797 12.469 10.0052 11.9945C9.53064 11.5199 9.26405 10.8763 9.26405 10.2052C9.26405 9.53411 9.53064 8.89049 10.0052 8.41595L11.0079 7.41446C10.8665 6.88429 10.8118 6.3347 10.8461 5.78705V5.78831Z" fill="#F5F5F5"/>
<path d="M13.212 3.42269C12.7829 3.85179 12.4631 4.37755 12.2793 4.95584C12.0955 5.53413 12.0531 6.14807 12.1557 6.74614C12.2582 7.3442 12.5028 7.90893 12.8688 8.39293C13.2347 8.87694 13.7115 9.26608 14.259 9.5277L15.239 8.54645C14.8102 8.43145 14.4193 8.20564 14.1055 7.8917C13.7917 7.57775 13.5661 7.18675 13.4512 6.75797C13.3364 6.32919 13.3365 5.87774 13.4514 5.44899C13.5663 5.02024 13.7921 4.62929 14.106 4.31543L16.4162 2.00392C16.8908 1.52938 17.5344 1.26278 18.2055 1.26278C18.8766 1.26278 19.5202 1.52938 19.9948 2.00392C20.4693 2.47847 20.7359 3.12209 20.7359 3.79319C20.7359 4.4643 20.4693 5.10792 19.9948 5.58246L18.992 6.58395C19.1336 7.11504 19.188 7.66509 19.1539 8.21136L20.8888 6.47646C21.6002 5.76498 21.9999 4.80001 21.9999 3.79382C21.9999 2.78764 21.6002 1.82267 20.8888 1.11119C20.1773 0.399705 19.2123 0 18.2061 0C17.1999 0 16.235 0.399705 15.5235 1.11119L13.212 3.42269Z" fill="#F5F5F5"/>
</g>
</svg>
