<svg
    width="924"
    height="924"
    viewBox="0 0 924 924"
    fill="none"
    xmlns="http://www.w3.org/2000/svg"
    xmlns:xlink="http://www.w3.org/1999/xlink">
    <style>
        @import url('https://fonts.googleapis.com/css2?family=Inter:wght@300;900');
        text {
          fill: #4C6C52;
          font-family: 'Inter', sans-serif;
          font-weight: 900;
        }
        .common-description {
          font-weight: 300;
          font-size: 28px;
          letter-spacing: 0em;
          text-anchor: middle;
        }
        .user-stat {
          font-weight: 900;
        }
        .branding {
		  fill: #F0EEE2;
          font-size: 20px;
          letter-spacing: 0em;
        }
        .subtitle {
            fill: #F0EEE2;
            text-anchor: middle;
            font-size: 32px;
            letter-spacing: 0.6em;
        }
        .drawing {
          fill: #F0EEE2;
        }
        .stroke {
            stroke: #4C6C52;
        }
    </style>
    <g>
        <g>
            <rect class="background" width="924" height="924" fill="#4C6C52"/>
            <text class="branding" x="750" y="897">LISTENBRAINZ</text>
            <text class="branding" x="26" y="43">{{user_name}}</text>
            <text class="branding" font-style="italic" x="26" y="897">#YEARINMUSIC</text>
            <text class="branding" x="844" y="43">2023</text>
            <text x="50%" y="150" id="my-year" class="subtitle">
                <tspan>M</tspan>
                <tspan dx="12">Y</tspan>
                <tspan dx="30">Y</tspan>
                <tspan dx="12">E</tspan>
                <tspan dx="12">A</tspan>
                <tspan dx="12">R</tspan>
            </text>
            <text x="50%" y="190" id="in-music" class="subtitle">
                <tspan>I</tspan>
                <tspan dx="12">N</tspan>
                <tspan dx="30">M</tspan>
                <tspan dx="12">U</tspan>
                <tspan dx="12">S</tspan>
                <tspan dx="12">I</tspan>
                <tspan dx="12">C</tspan>
            </text>
        </g>
        <rect class="stroke" x="110.5" y="276.5" width="684" height="462" fill="#F0EEE2" stroke="#4C6C52"/>
        <text class="common-description" x="451.5" y="353">
            {{most_played_day_message}}
        </text>
        <text class="common-description" x="451.5" y="440">
            LISTENED TO <tspan class="user-stat">{{total_listen_count}}</tspan> SONGS
        </text>
        <text class="common-description" x="451.5" y="527">
            MAINLY PLAYED MUSIC FROM <tspan class="user-stat">{{most_listened_year}}</tspan>
        </text>
        <text class="common-description" x="451.5" y="611">
            LISTENED TO <tspan class="user-stat">{{total_artists_count}}</tspan> ARTISTS
        </text>
        <text class="common-description" x="451.5" y="695">
            DISCOVERED <tspan class="user-stat">{{total_new_artists_discovered}}</tspan> NEW ARTISTS
        </text>
        <line class="stroke" x1="399" y1="384.5" x2="504" y2="384.5" stroke="#4C6C52"/>
        <line class="stroke" x1="399" y1="470.5" x2="504" y2="470.5" stroke="#4C6C52"/>
        <line class="stroke" x1="399" y1="556.5" x2="504" y2="556.5" stroke="#4C6C52"/>
        <line class="stroke" x1="399" y1="642.5" x2="504" y2="642.5" stroke="#4C6C52"/>
        <g id="plant" class="drawing" transform="translate(670, 105)">
            <path d="M73.7,3.2c1.2,0.1,0.3-0.3,0.6-1.2c0.5,0.6,1,1.4,1.5,1.7c1.2,0.7,5.4,3.8,7.6,5.7c0.3,0.5,0.8,2,1.6,1.6   c0.8,0.8,1.3,1.9,2.4,2.4c0.3,0.7,0.5,1.6,1.3,1.8c1.2,0.4,0.1,0.7,0.6,1.2c1.7,1.4,2.2,4,3.4,5.6c0.6,0.8,0.7,2,1.4,2.9   c0.5,0.5-0.5,0.7-0.2,1.2c0.3,0.2,0.6,0,1-0.2c1.3,3.7,2.3,7.8,3.5,11.4c0.1,1.1,0.2,2.2,0.5,3.3c0.3,0.4-0.8,1.2,0.2,1.1   c2.9-3.2,4.6-7.1,8-9.5c0.9-0.7,1.3-2,2.5-2.2c1.1-0.8,2.3-1.9,3.6-2.1c2.2-1.9,5-3,7.8-4.1c1.7-0.9,3.6-1.4,5.5-1.5   c2.4-1.2,5.6-1.2,7.9-1c0.8-0.7,1.6,0.1,2.3,0.3c0.7-0.6,1.2,0.1,1.8,0.2c4.9,0.8,14.3,1.2,11.2,8.4c-0.1,0.8,1.1,1,0,1.6   c-0.3,0.2-0.2,0.7-0.6,0.8c0.5,0.5,0.8-0.1,1.2-0.1c0.4,1,0.2,2.4-0.1,3.5c0.2,0.5-0.2,0.9,0.2,1.5c0,1.1,0.2,2.2,0.2,3.2   c-0.6,0.7,0.1,1.5-0.2,2.2c0,0.5-0.3,0.9-0.3,1.5c-0.1,0.4,0.5,0.6,0.3,1c-0.6,3.5-2.3,6.9-3.9,10.3c0,0.5-0.4,0.8-0.9,0.9   c0,0.4-0.1,0.9-0.5,0.9c-0.5,0-0.2,0.7-0.7,0.6c-0.3-0.1-0.1,0.4-0.3,0.5c-0.2,1.2-1.7,1.7-2,3c-1.1,0.9-1.5,2.1-2.7,2.8   c-0.6,1.6-3.2,1.8,0,1.9c0.5-0.6,1,0.2,1.5,0.1c1.5,0,4.8-1.7,4.9,1c-0.1,0.5,0.6,0.3,0.5,0.5c-0.2,0.2-0.1,0.6-0.4,0.8   c0.1,1.2-0.3,2.3-0.3,3.4c-0.9,3.3-1.5,6.7-3,10c-0.2,2.2-0.9,4-1.3,6.1c0.2,0.4-0.5,1.1-0.7,1.5c0.6,0.8-0.4,1.2-0.5,1.8   c-1.1,3.1-1.4,6.3-3,8.9c1.3,1.1,2.2,2.6,3.1,4.2c0.7,0.2,0.7,1.1,1.4,1.7c0.1,1.3,1.8,1.9,1.7,3.2c1.5,2.6,1.5,6.1,1.5,9.2   c0.3,1-0.3,1.9,0,2.8c0.2,0.3,0.2,0.9,0,1.1c-0.3,1-0.1,1.9-0.5,2.9c-0.2,2.4-0.3,4.8-1.6,6.8c-0.4,0.6,0.4,1.3-0.7,2.1   c-0.4,0.3,0.4,0.7,0,0.8c-0.5,0.1-0.5,0.4-0.2,0.6c0.8,1.2,0.1,1,1.6,1.3c0.9,0.9,2.1,1.5,3.4,1.9c1,0.5,1.8,1.8,2.5,2.8   c0.6,1.5,4.2,2.8,3.2,4.8c0.1,0.2,0.5,0.1,0.6,0.4c0.2,0.5,0.5-0.8,0.7,0.1c1.1,1.1,1.8,2.5,2.3,4c1.1,0.9,1,2.6,2.1,3.4   c1.5,1.4,1.4,3.6,2,5.3c-0.2,1.2,2.1,3.8,0.3,4c-0.2-0.3-0.4,0-0.5,0.1c-0.3,0.4,0.7,0,0.7,0.5c-0.2,0.6,0.5,1.2,0.1,1.7   c-0.6,1-0.3,4.9-1.6,2.3c-0.7,0.1-0.5,0.9,0,1.1c1.4,0.4-0.1,1.5-0.6,2.3c0,1.9,1.7,3.4,2.8,5.2c0.4,1.7,1.5,2.2,2.2,4   c1.3,2,1.6,4.4,2.5,6.6c0.2,0.3-0.5,0.5-0.2,0.8c0.7,0.6-0.9,1.3,0.4,1.8c0.5,0.2-0.1,1.1-0.1,1.5c0.3,1,0.2,1.8,0,2.9   c0,0.6,0.5,1,0.2,1.6c-0.1,0.3-0.6,0.3-0.5,0.7c0.2,0.8-0.4,1.6-0.3,2.4c0.5,0.5,0.1,0.9,0,1.5c0.2,0.5-0.5,0.4-0.5,0.8   c0.3,1-0.8,1.5-0.8,2.3c-0.6,1.7-1.4,3.1-2.8,4.3c0,0.8-1.2,1.5-1.4,2.4c0,0.6-0.7,0.4-0.9,0.8c-0.1,0.7-0.2,0.6-0.9,1.1   c-1.2,0.7-0.8,2.7-0.2,3.7c0.4,0.2,0.6,0.5,0.6,1c-0.1,1.2,1.4,2,1.3,3.4c0,0.3-0.1,0.6,0.4,0.7c0.5,0.1,0.2,0.8,0.6,1.1   c-0.1,2.8,0.8,5.6,0.9,8.5c0,0.3,0.8,0.6,0.5,0.9c-0.3,0.4-0.5,0.8,0.2,0.9c0.1,0.4-0.3,1.2-0.5,1.7c-0.2,0.4-0.5,0.6,0.2,0.7   c-0.1,0.7-0.7,1.9-0.7,2.8c-0.2,0.9,0.1,1.9-0.7,2.7c-0.3,0.9,0.3,2.7-1.2,2.9c1.9,1.2-0.6,3.6-0.4,5c0.3,2.2-1.9,3.4-2.5,5.5   c-0.7,0.1-0.4,0.9-0.7,1.3c-0.6,0.8-1.5,1.3-2,2.2c0,0.4-0.8,0.4-0.5,1c-0.2,0.4-0.9,0.2-1,0.5c-0.1,1.3-1.8,1.7-2.1,2   c-0.7,2-3.3,2.1-4.1,3.8c-0.2,0.4,0.6,0.5,0.2,0.9c-0.5,0.6,0.1,1.4,0.1,2.1c0.4,0.7,0.3,1.5,0.1,2.3c-0.1,0.5,0.6,1.7-0.5,1.6   c-1.2,0.6,0.2,0.2,0.4,0.9c0.4,1-0.7,1.8-0.1,2.8c0.1,0.5-0.5,1-0.5,1.6c0,0.4,0.5,0.7,0.3,1.1c-0.8,1.3,0.2,2.6-0.5,3.8   c-0.2,0.2,0.3,0.4,0.1,0.6c-1.6,2.4-2.4,5.7-4.5,7.8c-0.8,1-1.6,2.1-2.7,2.8c-0.4,0.2,0.2,0.8-0.5,0.9c-1.1,0.3-1.8,1.6-3,1.8   c-0.6,0.8-1.2,1.6-2.2,1.9c-0.5,0.3-1.5,0.1-1.6,0.9c-1.8,1.7-5.3,2.2-6.5,4.4c-2-0.2,0,0.7-1.2,1.1c0.3,1.5-1.7,1.4-3,1.8   c-0.7,0.2-0.9-0.7-1.5-0.8c0-0.7,0.4-2.1-0.5-2.9c-0.6-1.4,0.4-1.4,1.2-2.1c1.8-1.6,3.5-2.8,5.5-4c12.3-6.4,16-12.6,15.4-25.8   c0.8-5-2.9-0.1-7.6-3.8c-2.4-1.1-3.8-4.2-5.3-6.1c-0.6-1.6-0.4-2.9,0.5-4.4c1.3-0.2,0.3-0.6,1.4-1.1c3.4-3.7,10.2-2,11.6,3.1   c0.2,0.2,2.9,2.5,1.5,1.9c-0.8,1.5,1.6,0,2.2-0.1c0.2,0-0.5-0.4,0.1-0.4c6.5-4.6,9.7-13.2,10.7-21.3c-0.1-1.8,0.7-2.7,0.5-4.7   c0.7-2-0.1-5.3-0.6-7.5c-1.6-2.6-3.3-5.4-4.5-8.3c0-1.5-2.1,0.3-2.8,0.5c-2,0.3-3.8,0.3-5.7,0c-1.4,0-1.6-0.9-2.9-1.1   c-0.2,0.3-0.2-1-0.6-0.8c-1,0.5-2.4-0.4-2.9-1.3c-1.1-0.8-3.6-2.4-1.5-3.8c0.3-0.3-0.5-0.6,0-0.8c1.1,0-0.9-0.8,0.2-0.8   c0.7-0.9,0.2-1.5,1.8-1.2c-0.3-0.7-0.4-1.5,0.9-1c0.4,0-0.1-0.3-0.3-0.2c-0.7,0.6,0.8,1.3,0.3,0.2c-0.5-1.1,3.7-3,4.4-2.5   c-0.5,1,0.6,0.5,1,0.1c-0.4-0.1-0.5-0.2-0.7-0.3c0.5-0.2,0.9-0.6,1.6-0.2c0.7,0.4,2.1-0.4,2.7,0.5c1,0.8,4.2,0.8,4.5,2.8   c1.3-0.6,0.8,0.8,2.6,1.6c2.3-1.7,4.1-4.1,5.2-6.8c0.6-1.4,1.4-2.7,1.3-4.5c-0.3-0.9,1-1.5,0.5-2.4c-0.5-1,0.7-1.9,0.1-2.8   c-0.3-0.4,0.7,0,0.3-0.5c-0.4-0.7-0.2-1.8-0.4-2.7c0.4-4-2.4-7.2-4.5-10.3c-0.4-1.1-1.6-2.4-2.7-2.2c0.6,1.1-2.1,0.7-2.5,1.7   c-3.9,0.6-7.5-0.2-10.6-2.5c-1,0.2-1.2-1.8-1-2.4c0.3-0.4-0.4-0.9,0.1-1.5c0.1-1.7,0.6-3.7,2.1-4.7c0.2-0.2,0.8,0.2,0.9-0.2   c0.6-0.7,1.8-0.6,2.8-0.8c2.7-0.2,6-0.1,8,2.1c0.6-0.5,0.7,1.5,1.6,0.1c0.6-1.5,2.5-4.1,1.2-5.4c-0.3-0.2-0.2-0.6-0.2-0.9   c-0.3-4.5-3.2-8.5-5.6-11.9c-2.2-2.9-3.8-5.5-6.6-7.7c-0.2-1-1.6-0.4-2.2-1.3c-0.3-0.6-1.5-0.3-2-0.9c-1.8-0.5-2.7,3-4.6,3.4   c-0.4,0.6-0.8,0.7-1.5,1.1c-0.8,0.2-1,1.4-2.1,1.4c-0.5,0-0.3,0.8-0.7,0.8c-1.1,0-1.5,1-2.7,0.9c0,1.3-9.3,0.6-8,2.3   c-0.5,0.5,0,1.2-0.5,1.7c0.2,0.3,0.4,0.5-0.1,0.7c-1.4,0.6-0.2,2.7-1,3.9c0.4,0.8-1.2,1.8-0.9,3c-0.1,1.7-0.9,3.5-0.3,4.9   c0.3,1-1.5,0.7-1.6,1.3c0.3,0.6,0.8-0.1,1.3,0c-0.2,0.3,0.5,0.9-0.4,1.1c-0.2,0-0.2,0.3-0.1,0.5c-0.1,0.8-0.3,2.2-1.2,2.7   c1,1.7-1.1,1.4,0.1,2.9c-1,2.3-2.2,1.3-4,1.8c-1.6-0.1-3.2-0.2-4.8-0.3c-0.5-0.3-1.4,0-1.8-0.6c-0.9,0-2.1,0.3-3-0.2   c-0.4-0.4-0.8,0.3-1.2-0.1c-0.8-0.5-1.6,0.6-2.4,0c-10.4,0.3-20.8,0.2-31,0.7c-0.1-0.1-0.2-0.5-0.3-0.5c-0.2,0.8-0.9,0.5-1.4,0.5   c-1.2,0.2-2.8-0.3-3.9,0c-0.5,0.2-0.8-0.1-1.2-0.3c-0.5-0.2-0.6,0.5-1.1,0.2c-0.5-0.4-1.3-0.3-1.8-0.1c-2.2,0.1-4.5,0.6-6.8,0.1   c-0.9-0.2-1.8-0.4-2.6-0.7c-0.3,0.9-1.2,0.2-1.7,0.7c-0.5,0-1.1-0.5-1.8-0.2c-0.4,0.2-0.2-0.4-0.3-0.4c-0.1,0.4,0.5-0.2,0.1,0   c-0.5,0.2-2-0.1-1.4-0.5c-1-0.9-0.2-2-0.7-3c-0.1-0.1-0.1-0.5,0.1-0.7c-0.5-2.2-0.6-5-1.3-7.1c-0.3-2.6-0.9-5.1-1.5-7.6   c-0.1-0.3,0.1-0.7-0.5-0.7c-0.3-0.6,0-1.5-0.1-2.2c-0.4-0.2-0.8-0.1-1.1-0.1c-0.9,1.2-2.4,0.1-3.6,0.8c-0.6,0.1-1.1-0.4-1.7-0.2   c-0.7,0.3-1.4-0.9-2.1-0.7c-0.8,0.6-1.4-0.8-2.2-0.5c-1.1,0.4-3.8-2.2-4.5-1.4c-8.2-4.6-17.8-11.4-20.9-20.9   c-1.8-4.4-4.5-12.1-2.9-16.4c0.4-0.2-0.2-0.4,0-0.6c0.2-0.4,0.3-0.8,0.4-1.3c-0.1-0.4,0.5-0.4,0-0.7c-0.1-0.7,0.1-1.5,0.5-2.2   c-0.7-0.6,0.6-0.9,0.7-1.5c0-0.8-0.2-1.5,0.1-2.3c0-0.4,0.6-0.7,0-1.1c-0.1-0.1,0.1-0.3,0.2-0.4c1.3-2.8,2.6-5.6,4.8-8   c1.1-0.8,2.2-1.5,3.4-2.4c0.8-0.7,2.2-0.7,2.6-1.7c0.7-0.1,1.6-0.8,2.5-0.6c0.5,0.1,0.2-0.6,0.6-0.5c0.4,0,0.7,0,1.1,0   c0.3,0,0.8,0.1,0.4-0.4c0.9-0.2,1.3-0.9,1.3-1.7c-0.3-3.8-0.7-7.9-1.2-11.8c0.1-0.9,1.6-0.6,2-1.4C13.4,70.3,8.7,57.5,6.4,50.7   C5.9,46.4,5.8,42.2,6.6,38c-0.2-0.6,0.9-1,0.5-1.5c-0.4-0.4,0-0.8,0.1-1c1.1-2,2.1-5.5,4.7-5.6c1,0.1,3.3,0.2,3.2,1.2   c-0.2,0.5,1,0.6,0.8,0c-0.2-0.7,1.4,0.4,1.9,0.4c1.7-0.3,3.1,1.6,4.6,1.4c0.9,1,1.4-0.2,2,0.7c0.6,0.8,1.4,0.5,1.9,1.1   c1.9,0.4,3.3,1,4.8,1.9c0.3,0.8,2.1-0.1,1.8,1c0,0.1,0.1,0.2,0.4,0.3c0.2,0-0.3-0.2-0.1,0c0.4,0.4-0.2-0.8,0.4-0.3   c1,0.9,2.3,1.2,3.3,2c0.7,0.8,1.8,1,2.1,2.1c0.1,0.2,0.3,0.5,0.6,0.1c0.3,0.3,3.6,2.8,3.1,1.8c0.1-0.3,0.1-0.8,0.4-1.1   c0.3-0.2-0.5-0.6,0-0.8c-0.2-0.7,0.7-1.3,0-2.1c0.2-1.2,0.6-2.7,0.9-3.9c-0.3-1.1,0.8-1.7,0.5-2.9c0.3-0.7,0.7-1.3,0.8-1.9   c-0.2-0.3,0.2-0.4,0.3-0.6c0.1-0.5,0.2-0.9,0.5-1.3c0.2-0.3-0.4-0.5,0.1-0.8c1.3-1.2,1.2-3.3,2.4-4.7c0.5-0.7,0.6-1.6,1.3-2.3   c0.1-0.1,0.4-0.4,0-0.7c3.2-4.8,6.3-8.8,10.6-12.7c1.2-1.3,2.6-2.4,3.9-3.6c0.5-0.1,1.1-0.1,1.3-0.7c0.6-0.9,2.4-0.9,2.7-2.3   c1-2.4,3-0.9,4.6,0.1c0.2,0.1,0.4,0.3,0.1,0.6c-0.2,0.7,0.5,0.8,0,1.6C73.1,3,73.1,4.8,73.7,3.2z M34,66c0,0,0-0.1,0-0.1   c-0.5,0.1-0.1,0.5,0.2-0.2c-0.1,0-0.3,0.3,0,0.2C34.3,65.8,34.3,65.5,34,66z M54.5,33.2C54.4,32.9,54.1,33.2,54.5,33.2   c-0.2-0.1-0.2-0.5-0.7-0.4c0.1-0.1,0.3,0.1,0.2-0.1c-0.3-0.4-0.9,0.2,0,0.1C54,33,54.1,33.1,54.5,33.2z M140.9,210.7   c0-0.1-0.3-0.3-0.2,0c0.1,0.2,0.4,0.2-0.1-0.1c0,0,0.1,0,0.1,0C140.5,210.1,140.1,210.4,140.9,210.7z M146.4,175.3   c-0.1,0-0.3,0.3,0,0.2c0.2-0.1,0.2-0.4-0.1,0.1c0,0,0-0.1,0-0.1C145.7,175.7,146.1,176.1,146.4,175.3z M91.5,31.2   c-0.1,0-0.3,0.3,0,0.2c0.2-0.1,0.2-0.4-0.1,0.1c0,0,0-0.1,0-0.1C90.8,31.6,91.2,32,91.5,31.2z M149.8,26.1c-0.1,0-0.3,0.3,0,0.2   c0.2-0.1,0.2-0.4-0.1,0.1c0,0,0-0.1,0-0.1C149.2,26.5,149.5,26.9,149.8,26.1z M54.2,24c-0.1,0-0.3,0.3,0,0.2   c0.2-0.1,0.2-0.4-0.1,0.1c0,0,0-0.1,0-0.1C53.5,24.4,53.9,24.8,54.2,24z M160.8,162.9c0-0.1-0.3-0.3-0.2,0c0.1,0.2,0.4,0.2-0.1-0.1   c0,0,0.1,0,0.1,0C160.5,162.3,160.1,162.6,160.8,162.9z M72.6,64.4c0-0.1-0.3-0.3-0.2,0c0.1,0.2,0.4,0.2-0.1-0.1   C72.8,63.7,71.4,63.8,72.6,64.4z M142.4,209.2c0,0,0.1,0,0.1,0c-0.2-0.5-0.5-0.1,0.5,0.2c0-0.3-0.4-0.2-0.5-0.2   C142.4,209.6,143.2,209.5,142.4,209.2z M34.4,69.1c0,0,0.1,0,0.1,0c-0.2-0.5-0.5-0.1,0.5,0.2c0-0.3-0.4-0.2-0.5-0.2   C34.4,69.5,35.3,69.4,34.4,69.1z M15.9,100.6c0.7,0.1-0.1-1.1-0.3-0.3c-0.3,0,1.1,1.2,1.6,0.7c0.1-0.7-1-0.8-1.1-0.1   C16.3,101.3,17.3,101.3,15.9,100.6z M139.3,262.9c0.1-1-1.2-1.3-1.1-2.3c0-0.1-0.2-0.1-0.3-0.1c-0.2,0-0.4,0-0.4-0.2   c0-1.3-1.2-1.6-2.1-2.3c-3.2-0.1-0.9,2.1,0.1,3.4c0.7,0.5,1.5,1.8,2.2,1.7c0.7-0.5,1,0.7,1.5,0.4c0.8,0.6-4.2-4.7-6.3-3.5   c-0.3,0.3,0.1,0.8,0.5,0.8C134.5,259.8,132.8,259.4,139.3,262.9z M144.3,209.7c-1.2,0.5-3.3,0.5-3.7,2.3c0,0,0-0.1,0-0.1   c-0.4,0-0.2,0.5,0,0c1.5,0.8,3.4,1.7,5,1.1c4.3,0.3,3.9-1,0.5-2.7c-1,0-1,0-1.5-1.1c-0.2-0.1-0.4,0.5-0.1,0.5   C145,209.9,145.1,208.8,144.3,209.7z M117.2,64c-0.7,0.3-4.5,2.8-2.6,2.9c0.6-0.8,1.6,0,2.5-0.5c0.5-0.1,1-0.6,1.5-0.3   c1,0.7,1.9-0.2,2.8-0.1c0.4-0.6,0.6,0.2,1,0.1c0.6-0.2,2,0.1,2.6,0c1.6-0.9,3.5,0.2,5-0.2c0.7-1-0.9-0.4-1.4-0.8   c-0.4-0.2-0.8,0.2-1.2,0.2c-0.4-0.1-1.1-0.2-1.3-0.3c-0.5-0.6-0.8,0-1.1,0c-0.6,0-0.9-0.5-1.4-0.5c-1.1,0.4-2.3-0.4-3.4,0.2   c-0.7-0.7-4.8,0.7-2.2-0.8c-0.3-0.4-0.9-0.8-0.9-0.1C117.2,64.2,118.2,63.9,117.2,64z M25.5,72.8c1.1-0.6,8.8-0.4,4.3-2.1   c-1.6-0.3-2.9-2.1-4.4-2c-1-0.8-2.6-1.1-3.5-2c-0.6,0-4.2-2.4-3.2-0.6c1.7,1.3,1.6,3.2,3.7,4.3c0.5,0.1,0.2,0.7,0.5,0.8   c0.8,0.2,2,0.4,2,1.4c0.4,0.8-2.3-2.1-2.7-1.1C22.6,72,22.4,71.2,25.5,72.8z M25,77.1c0.1,0.3-2.3,0.1-2.4,0.7c0,1-0.6,1.8,0,2.7   c-0.5,4,1,7.8,0.5,11.6c0.7,1.1,0.4,2.8,1.5,3.8c0,0.7,0,1.4,0.1,2.1c-0.3,0.6,0.7,0.9,0.3,1.3c-1.1,0.6,0.9,1.2-0.1,1.6   c-0.8,0.6,1.2,1.1,1.1,2.2c1.2,1.1,0.8,3.5,2.1,4.2c2.4,0.8,2.1,2.1,2.4,4.1c0.7,0.8,0.8-1.1,1.4-1.3c3.2-0.4,6.6,0.4,9.8,0   c20.6-2.4,42.3-3.8,63.3-4.7c0.3,0.5,0.7,0,1,0c0.6,0.2,1.2,0.5,1.9,0.2c0.8-0.6,1.5,0.4,2.3,0c0.9-0.4,1.3,0,2.4,0   c3.5-0.5,6.9,0.3,10.5-0.7c2.8,0.4,5.6,0.2,8.5-0.4c1.3-0.4,0-1.8,1-2.5c1-5.3,3.3-10.9,4.9-15.9c0.3-2.2,1.8-5.1,1.9-7.3   c1-2,0.8-4,1.6-6c-0.5-0.3,0.2-0.5,0-0.9c-0.2-0.3,0.3-0.6,0.1-0.9c-0.3-0.5-0.6-0.1-0.9,0c-0.9-0.6-1.6,0-2.4,0.1   c-1.5-0.4-3.2-0.8-4.5-1.1c-0.2,0.4-0.4-0.2-0.7-0.1c-0.6,0-1,0.5-1.6,0.3c-8.8-0.3-16.5,0.6-25.2,1.1c-1.8,1.1-4-0.3-5.6,1   c-1.4-0.2-2.7,0.7-4,0.1c-0.9,0.4-2.4,0.5-3.4,0.5c-0.7,0.4-1.5,0.2-2.1-0.1c-7.3,1.3-15.1,1.5-22.2,2.1c-2.6-0.1-5.5,0.2-8.5,0.2   c-3.1-0.1-6.5,0.3-9.6-0.2c-4,0.5-9.2-0.1-13.3,0.5c-2.3,1.1-4.9,0.5-7.2,1.1c-0.8,1.1-2.3-0.2-3.1,0.9C26,77.3,25.2,76.9,25,77.1z    M40.1,114.5c-0.4,0.2-3.8-0.6-3.1,1.3c0.5,2.6,0.5,5.1,1.3,7.6c0.9,1.6,1.7,4.2,1.4,6c1.1,1.4,0.5,2.3,1.1,3.6   c0.5,0.6,0.1,2.1,0.9,2.3c0.1,0,0.1,0.1,0,0.2c-0.4,0.3,0.2,0.4,0.1,0.6c0.1,2.5,0.5,5.6,1.6,7.4c0.3,2.7,1.2,5.7,1.1,8.3   c1,0.8-0.3,1.5,0.7,2.1c0.6,3.2,1.4,6.1,2,9.3c-0.3,1.2,0.6,2.2,0.2,3.3c0.5,0.4,0.5,1.7,1,1.8c0.6-0.3,0.1,0.5,0.5,0.4   c1,0.2,2.1,0.1,3.1,0.5c0.6,0.5,0.6,0.6,1.1,0c0.8-0.1,1.3,0.8,2.2,0.5c0.3,0,0.3,0.2,0.4,0.4c0.1,0.2,0.4,0.2,0.5-0.1   c0.1-0.6,1-0.2,1.5-0.4c4.7,0.2,9.2,0.9,14,0.3c0.6,0.5,1.1-0.4,1.7,0.2c1.1,0.1,2.4-0.8,3.5,0.1c0,0.1,0.3,0.1,0.3-0.1   c0.3-1.1,1.9,0.6,3.1-0.5c6.8,0.3,15.6,0.5,22.6-0.2c1.3,0.8,2.3-0.2,3.6,0.5c1-0.7,1.9,0.9,2.9,0c0.2-0.1,0.5-0.4,0.9-0.1   c2.4,0.2,1.8-6.7,2.9-8.2c-0.8-0.9,1-1.6,0.1-2.6c0-0.8,0.7-1.8,0.6-2.8c0.7-1.3,0.4-2.5,1-3.8c0.1-2,1.2-4,1.6-6   c0-1.2,0.3-2.6,0.4-3.6c0.4-0.2-0.2-1.1,0.7-1.2c0-0.1,0-0.3,0-0.4c-0.2-1.4,0.7-3.3,0.8-4.8c-0.4-0.7,0.9-1.3,0.2-2.2   c0.6-4.3,1-9,1.9-13.2c0.9-2.9,1.2-6.2,1.3-9.3c0.1-0.8,0.8-2.3-0.1-2.7c-0.3-0.3-0.4,0-0.5,0.1c-0.7,0.5-1.7-0.5-2.5,0.1   c-0.5,0.1-1.1-0.3-1.7-0.2c-0.2-0.6-0.8,0.1-1.2-0.2c-0.8-0.3-2.1,0.4-2.9,0.5c-1-0.4-1.8,0.1-2.8,0c-1.3-0.4-3-0.5-4.2-0.2   c-0.9,0.4-1.6-0.4-2.6,0.3c-1.6-0.6-3.2,0.3-4.8-0.1c-1.5-0.3-2.9,0.8-4.3,0.1c-0.2-0.2-0.3,0.3-0.5,0.4c-2.1-0.2-5.5-0.6-7.5,0.5   c-0.8-0.1-1.8,0.2-2.5-0.1C68.7,111.5,54.6,113.2,40.1,114.5z M71.9,64.9c-0.1-6-2.5-4.8-5.6-8.5c-1.8-2.7-4.8-4.1-6.9-6.5   c-0.8-0.5-1.5-1.2-2.3-1.6c-0.3-0.1,0.2-0.9-0.5-0.4c-0.5,0-0.8-1-1.2-1.3c-1.6-0.6-2.9-2.5-4.3-3c-0.6-0.2-2.1-2.1-2.6-0.9   c0.4,0.4,0,0.9-0.1,1.2c0.1,0.9,0,1.5-0.2,2.4c0,0.4,0.5,0.9-0.2,1.3c-0.1,0.1-0.1,0.6,0,0.7c0.5,0.4,0,1.3,0.4,1.5   c0.6-0.6,0.3,0.8,0.4,1.1c-0.1,1.3,1.3,1.4,1.9,2.1c0.3,0.7,0.6,0.6,1.2,0.4c1.3,1,2.2,2.5,4,2.9c3.1,2.4,7,5.4,10.3,7.9   c0.2,0.1,0.1,0.3,0.2,0.5c0.7-0.1,0.8,0.2,1.6,0.7c1.3,1,2.3,2.3,3.7,3.2c1.1,0.1-0.1-1.4,0-2C71.3,65.8,72,65.6,71.9,64.9z    M30.8,45.7c-0.4-1,1.4-1.7,0.8-0.8c-0.4,2-0.3,4.1-0.6,5.9c-0.5,0.5,0.1,0.9,0.1,1.3c-0.2,0.6-0.5,1-0.2,1.6   c0.4,2.3-1.3,4.9,0.2,6.8c1.6,0.4,3.8,7,4.2,2.9c0.8-2.4,1.5-4.9,0.9-7.6c0.9-2.7,0.3-5.5,1.8-7.8c1.7-2.4-3.1-4-4.7-5.3   c-1.9-0.8-3.5-3-5.4-2.9c-0.2-0.3-0.8,0.2-0.8-0.4c0-0.3-0.5-0.4-0.7-0.4c-1,0.1-1.8-1.7-2.6-0.8c-0.3,0.4,0.6,0.4,0.3,0.8   c-0.7,2.1,0.4,4.7-0.9,6.5c-0.5,0.3,0.5,0.7,0.1,1c-0.2,0.4-0.4,0.7-0.4,1.2c-1,1.3,3.6,7.2,5,7.9c-0.5-1.6,0-3.4,0.3-4.8   c-0.5-1.3,0.3-3.1,1.1-4.3c-0.1-0.7-0.1-1.4,0.3-2c0.1-0.3,0.1-0.4,0-0.7c-0.4-0.7,0.7-0.9,0.6-1.6c0.5-0.1,0.7,0.4,1.2,0.2   c0.5,0.1,0.6,1.2,0.6,1.6c-0.7,0.4-1.4,0.9-2.3,1.1C30.2,45,30.4,45.3,30.8,45.7z M92.6,33.9c-3,1.5-5.5,3.9-8.2,6.4   c-0.6,0.1,0.1,0.4-0.1,0.4c-0.7,0.1-0.9,1-1.6,1c-1.3,1-2.3,2.5-3.8,3.3c-3.2,3.2-5.2,1.7-4.2,7.7c0.5,1-0.1,6.8,1.5,4.9   c2.7-2.9,5.6-5.2,8.7-7.6c1.1-1,2.5-2,3.7-2.6c0.5-1.2,2.1-1.4,2.6-2.9c0.7-0.9,2.4-1.2,2.8-2.4c-0.2-1,0.5-1.9-0.3-2.6   c-0.1-0.7,0.2-1.9-0.1-2.5C92.8,36.6,93.3,34.8,92.6,33.9z M74.8,32.1c-2.7,1.9-0.2,5.2-1.3,7.8c-0.4,0.7,0.9,1.4,0.5,2.2   c-0.5,0.8,0.2,2.7,1,2.3c0.8-1.6,2.6-2.4,3.8-3.4c0.9-1.1,1.9-2.2,3.1-2.8c0.3,0.4,0.5,0,0.5-0.1c0.2-1,1.3-1.5,1.9-1.9   c-0.1-0.7,0.4-0.6,0.8-0.7c2.2-1.4,4.2-3,6.2-4.7c0.2-1.2-0.7-2.5-0.9-3.5c-1.1-0.5-0.5-2.3-1.7-2.9c-0.1-0.7-0.4-2.8-1.5-2.4   c-2.5,1.6-3.8,4.1-6.2,5.7c-1.6,1.8-4.3,1.9-5.5,4.4c-0.4-0.5-1-0.6-1.3-1.1C73.6,31.8,74.5,31.7,74.8,32.1z M122.1,50.2   c1.5-1.7,3.2-3.7,4.8-5.4c0.3-1.2,1.4-1.3,1.2-2.9c0-0.3-0.1-0.7,0.2-0.9c-1.3-4.2-1.9-8.7-3.8-12.8c-1.5-1.4-7.1,3.2-8.6,3.9   c0.5,3.1,1.9,6.9,3.1,9.8c-0.2,1.3,1.2,1.8,1.1,3.2c0,0.7,0.1,1.5,0.9,2C121.9,47.8,121.4,49.2,122.1,50.2z M114.6,59.8   c1-2.2,4.3-4.5,4.6-7.2c-1.3-5.7-3.7-11-5.2-16.3c-1.1-0.3-0.1-2.3-1.3-1.8c-1.9,1.3-3.3,3.5-5.2,4.9c-2.4,1.7,2,7.4,2.5,9.9   C111.3,53,112.2,56.5,114.6,59.8z M71.1,55.2c-0.4-3.2-0.1-6.3-3.4-8.1c-0.8-2.4-3.5-3.6-5-5.6c-0.2-0.7-0.9-0.8-1.3-1.3   c-0.7-0.6-0.2-0.9-1.2-1c-1.6-2.3-4.6-3.2-6.2-5.6c-0.4-0.8-1.7-0.6-2.1-1.6c0-0.5-1-0.2-1,0.2c0.1,0.3-0.3,0.5-0.2,0.8   c0.2,0.4-0.4,0.5-0.4,0.8c-0.3,1-0.2,2.1-0.7,3c-0.5,1.5,1.3,1.9,0.3,3.3c1.5-0.5,2.5,1.3,3.9,1.9c0.1,0.1,0.3,0.3,0.4,0.3   c0.5-0.6,1.2,1.1,1.5,1.4c3.1,1.6,6.7,5.4,9.8,7.7c0.7,1.1,2,1.5,2.7,2.5c0.5,0.3,1.3,0.2,1.4,1C70,55.4,70.9,56.8,71.1,55.2z    M75,62.8c1.7,0.5,0.4,3.4,1.5,4.7c1.1,0.6,2.3-1.5,3.6-1.7c-0.7-0.6,0.8-0.8,1.1-1.1c0.3-0.9,0.9-0.9,1.6-1.2   c3.1-1.9,5.5-4.9,8.9-6.6c2,0,1.2-3.2,2.3-4.3c0.1-0.1,0.2-0.1,0.1-0.3c-0.6-0.8,0.6-1.6-0.1-2.3c0.4-0.9,2.5-1.2,1.4-2.5   c-0.7-2.2-2-0.3-3.2,0.5C86.6,53.1,79.7,57.4,75,62.8z M52.1,29.1c1.4-0.1,2.8,0.9,3.2,2.2c0.1,0.8,0.8,0.5,1.1,0.9   c1.5,2,4,3,5.6,4.5c1.1,0.9,2.1,2.4,3.4,3c5.2,5.1,4.3,5.9,4.3-1.6c-0.1-2.2-0.7-4.2-2.7-5.2c-0.7-1.7-2.6-3.4-4.1-4.5   c-0.6,0-0.3-1.1-0.9-1.2c-1-0.6-1.8-1.5-2.8-2.1c-0.7-1.1-2.1-1.4-2.7-2.7c-0.1-0.2-0.3-0.3-0.5-0.1C54.3,24.3,53.8,26.9,52.1,29.1   z M104.2,44.3c-1.4,1.3-2.3,2.5-2.7,4.3c-0.2,0.2,0.1,0.8-0.6,0.8c-0.4,0.7-0.6,1.8-1.1,1.9c-1,0.6-0.9,2.2-0.2,3.2   c0,1.2,1.8,0.1,1.8,1.3c0,0.4,0.4,0.7,0.3,1.1c0,0.3-0.4,0.8,0.3,1c0.8,0.3,0.6,1.3,1.1,1.9c0.3,0.3,0.6,0.7,0.4,1.1   c-0.2,0.6,0.8,0.3,0.5,0.8c0.6,0.1,0,0.8,0.5,0.9c0.7,0.1,0.1,0.7,0.3,1c0.2,0.8,0.9,1.2,1,2c0.1,0.7,0.5,1.8,1.3,1.8   c5.9-0.7,1.2,0.1,3.8-3.4c0.4-1.5-0.7-3.2-0.7-4.7c-0.7,0-0.2-0.9-0.5-1.4c-0.3-0.8-0.6-1.4-1.2-2.2   C107.4,51.8,105.9,47.8,104.2,44.3z M118.2,60.9c0.6,1,1.1,0.5,2.1,0.4c0.8,0.2,1.1,0.2,1.9,0c4,0.2,8.3,1.6,12,0.7   c1.6,0,6.8-5.5,6.9-7c-1.9-0.1-4.1-0.8-6.1-0.1c-1.6-0.9-3.2,0.2-4.6-0.5c-0.5,0.5-1.4,0.3-2,0.4c-0.8-0.3-1.2,0.5-2-0.1   c-1.2,0.2-2.7,0.1-3.7,0.7c-0.3,0.5-0.7,0.9-1.4,0.9c-0.6,0.3,0.1,0.5,0.3,0.7C120.4,58.3,119.5,59.6,118.2,60.9z M146.2,43.8   c0.3-1.1-4.2-0.3-4.6,0.1c-0.5,0.2-1.1,0.1-1.6-0.2c-0.5,0-0.9,0.5-1.5,0.2c-0.5-0.5-1.1-0.4-1.7-0.2c-0.8,0.3-2-0.6-2.6-0.1   c-1.4,1.1-3.2,0.9-3.8,2.7c-0.4,0.5-1.3,0.5-1.3,1.3c-0.2,0.6-1.2,1-1.7,1.7c-0.3,0.2,0.3,0.6-0.2,0.8c-0.4,0.2-0.3,0.9-0.9,0.9   c-0.2,0-0.2,0.4-0.1,0.6c2.6-0.4,5.9,0.1,8.9-0.1c0.5-0.1,1,0.2,1.4-0.2c0.6,0.1,1.6,0.6,2.2,0.1c0.9-0.8,1.7-0.2,2.6-0.2   c0.7-0.6,1.2,0,1.7,0.2c1.4,0.7,2.2-4.2,2.6-5c-0.1-0.4,0.6-0.6,0.2-1.1C145.8,44.9,146,44.1,146.2,43.8z M40.4,49.1   c-0.9,5-1.5,9.9-2.4,14.8c0.3,1.4-1.7,3.4-0.4,4.4c1.1,0.9,1.7,3,3.3,2.6c-0.4-0.8,0.3-1.3,0.8-1.9c0.1-0.1,0.3-0.1,0.1-0.3   c-0.5-0.5,0.5-1.2,0.8-1.7c0.4-0.3-0.3-0.5,0-0.7c0.4-0.3,0.4-0.7,0.5-1.2c0.4-1.5,1.3-2.6,1.6-4c0.5-1.1,0.8-2.4,1.9-3.4   c-0.3-2-2.3-3-3-4.9c0.2-0.9-0.9-1.2-1-1.8C42.2,50.4,41.6,48.8,40.4,49.1z M80.7,12.1C79,14,77,16,75.5,17.8   c-1.3-0.1-1.6,1.7-2.9,1.6c-0.4,0-0.7,0.6-0.4,0.9c0.5,0.6,0,1.6,0.3,2.1c0.3,0.8,0.6,1.6,0.2,2.4c0.5,1.2-0.1,2.5,0.3,3.5   c1.9,0.3,3.1-2.7,5-3c2.2-2.3,4.3-5,6.8-6.8C86.4,18,81.3,13.4,80.7,12.1z M68.5,18.9c-1.3,0-2.4,0.3-2.9-1.1   c-0.3,0.5-0.5,0-0.7-0.1c-1.1-1.2-2.6-2.2-3.1-3.6c-1.4,1.1-2.5,3-3.9,4.4c0.1,1.7,3,3.8,4.6,5c2.1,1.4,3.8,4,6.4,5.7   c1.1-0.5-0.3-3.7,0-5.2c-0.6-1,0.7-2.2-0.5-2.9c-0.6-0.3,0.1-0.7-0.1-0.8C67.9,19.9,68.3,19.5,68.5,18.9z M65.3,71.2   C67,71,71,72,68.3,69.5c-0.1-0.9-1.1-0.5-1.5-0.9c0-0.4-0.4-0.5-0.5-0.7c-2.7-2.4-6.6-4.9-9.4-7.5c-2.1-1.4-2.4-0.9-3.9-2.8   c-0.1-0.7-1.5-0.7-1.1,0.1c0.4,0.8,1.4,1.2,1.2,2.3c1,0.3,0.5,1.2,1,1.8c1.1,1.6,1.4,3.7,2.2,5.4c0.3,0.4,1.2-0.2,1.2,0.6   c0.5-0.4,0.8,0.1,0.8,0.3c0.4,1.6,2.7,1.2,2.6,2.9C61.7,71.5,63.9,71.1,65.3,71.2z M13.2,54.4c-0.8,2.1,2.4,4,2.5,6.2   c0.3,0.7,1.8,0.6,2.3,1.3c0.3,0.2,0.6-0.3,0.8,0.2c0.4,0.4,1.3,0.8,1.7,1c0.3-0.4,0.4,0.3,0.8,0.1c0.5-0.2,0.8,0.9,1.2,0.8   c0.4-0.4,0.5,0,0.7,0.2c0.6,0.9,1.7,0.7,2.4,1.4c2.5,0.7,4.3,1.7,6.6,2.9c0.2-1.7-2.7-3-3-4.6c-0.4-0.9-1.7-3.5-2.7-3   c-0.2,0.8-0.8,0.5-1,0.3c-2.3-0.8-4.4-1.7-6.2-3.6c-0.3-0.1-0.7,0-0.8-0.3c-0.2-0.5-0.4,0.2-0.7-0.1c-0.3-0.3-1-0.2-1.1-0.9   C15.3,56,14,55.2,13.2,54.4z M131.2,25.9c-2.7,0.6-4,0-2.6,3.2c0.6,1.5,0.5,3.5,1.6,4.5c-0.1,1.8,1.2,3,1.1,4.8   c0.6,1.2,2.2-1.2,2.5-1.8c0.8-0.8,3.3-1.9,2.7-3.2c-2-2.1-1.6-6-3.6-7.7C132.2,26.3,132,25.8,131.2,25.9z M95.9,68.8   c2.4-0.6,5.3,0,7.4-1.2c-0.5-0.1,0-0.8-0.5-0.9c-0.2,0-0.4-0.2-0.3-0.3c-0.3-1.8-2.3-3.7-2.9-5.7c-0.6-0.6-1.6-4.4-2.3-3.4   C96,61,95.2,65,95.9,68.8z M90.9,61.8c-2.9,1.8-5.8,3.7-8.4,5.9c-1,1.1-3,1.2-3.6,2.7c3.6,0.2,7-0.8,10.2-0.7   c1-1.2,2.2,0.2,3.2-0.9C89.7,67,91.7,64.2,90.9,61.8z M19,49.9c-2.3,2.2-5.3-1.6-7.5-1.6c-0.9,0.2,0.4,2.5,0.2,3.2   c0.9,0.7,2.3,1.5,3.2,2c0.4-0.6,0.7,0.1,1,0.1c1.4-0.2,2.3,1.7,3.5,1.3c1.6,1.3,3.1,2,4.8,3c1.6,1,0.4-2.2-0.7-2.2   c-0.7-0.1,0.1-0.9-0.6-1.1c-1.1-0.8-1.3-2.1-2.2-3.1c-0.2-0.2-0.2,0.2-0.4,0.1C20.1,50.9,19.6,50.4,19,49.9z M44.7,71.3   c7.2-0.5,9.9,2.3,5.3-6.9c0.1-1-1.2-4.4-2-3c0,0.2,0,1.3-0.5,1.6C46.9,65.7,44.8,68.2,44.7,71.3z M146.5,39.5   c-0.4-7.1-0.2-3.6-5-4.4c-2.4,0-4.1,3.9-5.9,5.2c0.7,0.5,2.3,0.2,3.1,0.1c0-0.4,0.3-0.5,0.6-0.4C141.9,40.2,144.1,39.1,146.5,39.5z    M15.5,40.2c1-1.4,1.6,0.9,1.8,1.6c0.6-0.1,0.1,0.4,0.3,0.6c0.5,0.3,0.2,0.9,0.7,1.2c1,0,1,1.8,1.8,1.4c0.6-0.5-0.5-2,0.3-2.7   c-0.8-0.7,0.2-1.3,0-2c0.1-0.8,0.1-1.8,0.5-2.4c1.7-2.6-5.1-1.3-5.2-3.8c-0.4,1.1-0.9,0.5-1.7,0.6C13,36.4,16.3,37.8,15.5,40.2z    M77.4,9.5c-7.5-6.4-4.8-3.8-5.6,3.2c0.8,0.6-0.5,2.2,0.5,2.2C74.3,13.2,75.9,11.4,77.4,9.5z M16.8,47c-0.8-1.9-2.3-3.2-3.6-4.5   c0-1.1-2.3-4.2-2.2-1.7c0.2,1.3-0.8,3-0.1,4.2c0.8-0.5,1.5,0.9,2.2,0.7c0.9-0.6,1.6,1.6,2.3,0.7C15.8,47.2,16.2,46.9,16.8,47z    M68.4,9.5c-0.4-2.4-3.1,1.4-4.3,1.9c-0.8,1,1.9,2.1,2.6,2.8c1.1,0.2,0.6,1.2,1.2,1.7c1-0.9,0.1-2.3,0.2-3.3c-0.1-0.8,0.3-1.3,0-2   C68.2,10.2,68.6,9.9,68.4,9.5z M151.6,173.7c-1-1-1.8-1.2-3-1.8c0-0.6-0.5-0.4-0.6-0.3c-0.7,0.4-1.5-0.7-2.2-0.2   c-0.4,0.3-0.9,0-1.2,0.3C144.9,175,149.4,173.8,151.6,173.7z M139.1,31.2c4-4.4,4.3-4.6-1.7-4.7C138,27.7,138.9,29.6,139.1,31.2z    M145.2,29.1c-0.2,0.2-0.4,0.4-0.6,0.6c0.6,0.6-0.3,0.3-0.3,0.6c0,0.6-1,0.4-0.8,1.1c0.4,0.4,0.9-0.4,1.1-0.1   c0.4,0.5,0.6,0,0.8-0.1C146.2,30.9,145.6,29.5,145.2,29.1z M30.6,138.9c0.8,0.5,1.7,0.4,1.1-0.7c-0.2-0.7-0.2-3.9-1.1-3.2   c0.5,1.1-0.1,2,0.2,3C31.3,138.5,31.2,138.5,30.6,138.9z M32.6,69.6c1.2,0.8-0.9,1.5,0.2,1.9c1.6,0.8,1.5-0.6,1.2-1.7   C33.7,69.4,33.2,69.7,32.6,69.6z M19.9,136.5c0.4-0.5-1.6-2.6-1.2-1.5C18.6,135.7,19.6,138.3,19.9,136.5z M28.9,126.2   c-0.1,0.5,0.5,2.7,1,2.2C30,127.7,29.1,123.8,28.9,126.2z M139.8,123.5c0.3,0,0.4-0.3,0.5-0.4C139.6,120.9,138.5,122.2,139.8,123.5   z M60.7,70.5c-0.3-0.3-1.2-1-1.3-0.4C59.5,70.8,60.3,71.3,60.7,70.5z M16.2,34.2c0.4-0.1,0.1-0.6,0.5-0.6   C17.6,32.9,15.7,32.3,16.2,34.2z M21,72.6c-0.2-0.4-0.7-0.2-0.6-0.6C19.6,71.2,19.2,73,21,72.6z M73.8,56.9   c-0.1,0.4-0.4,1.3,0.2,1.3C74.5,58,74.3,57,73.8,56.9z M43.8,167.5c-0.9-0.7-0.4,1.3,0.2,0.3c0.6,0.6,0.4-0.1,0.4-0.3   C44.4,167,44,167.7,43.8,167.5z M43.6,164.9c0-0.3-0.2-1.2-0.6-1.1c-0.5,0.2,0.2,0.3,0.1,0.5C42.8,164.8,43.4,165.6,43.6,164.9z    M56.4,172.8c0.5,0.2,1.5,0.6,1.3-0.3C57.3,172.2,56.9,172.7,56.4,172.8z M119.9,302.3c0.1,0,0.5-0.5,0.4-0.6   C119.9,301.1,119.2,301.9,119.9,302.3z M135.8,213.1c-0.1-0.6,0.3-1.2-0.3-1.2C135,212.2,135.4,212.7,135.8,213.1z M50.3,172.4   c0-0.9-1.3,0.3-0.6,0.5C50,172.9,50.2,172.7,50.3,172.4z M47.2,167.3c-0.2,0.3-0.2,1.2,0.3,1C47.9,168,47.3,167.6,47.2,167.3z    M30.7,133.1c-0.5,0.6-0.5,0.6,0,1.1C30.9,133.8,30.8,133.5,30.7,133.1z M157.2,165.8c0,0.5-0.3,0.9,0.2,1   C158,166.6,157.5,166.2,157.2,165.8z M15.6,32.2c0.4,0.3,1.1,0,0.6-0.4C16,31.7,15.8,31.9,15.6,32.2z M26.4,105.1   c0.2-0.1,0.3-0.8-0.1-0.8C25.7,104.4,26.2,104.9,26.4,105.1z M13.7,98.9c-0.1-0.4-0.8-0.7-0.8-0.1C13.1,99.1,13.5,99,13.7,98.9z    M151.8,177.4c0.5,0-0.2-0.4-0.4-0.5C151.1,177.2,151.3,177.5,151.8,177.4z M142.7,177c0.3,0.3,1,0.2,0.8-0.3   C143.2,176.6,143,177,142.7,177z M151.8,172.4c0.3,0.1,0.4-0.6,0-0.5C151.4,171.8,151.4,172.4,151.8,172.4z M51.1,169.6   c-0.1-0.4-0.6-0.2-0.5,0.1C50.6,170.1,51.2,170,51.1,169.6z M43.7,169.5c0.2-0.4,0.2-0.8,0-1.2C43.6,168.7,43.6,169.1,43.7,169.5z    M8.7,121c-0.4-0.4-0.4-0.4-0.7,0.1C8.2,121.1,8.5,121.2,8.7,121z M38,113.1c0-0.1-0.1-0.2-0.2-0.2C37,112.8,37.9,113.9,38,113.1z    M76.3,59.4c0.6-0.7-0.9-1.1-0.2-0.4C76.1,59.2,76,59.4,76.3,59.4z M53.4,74.3c-0.2-0.4-0.6-0.4-0.7,0   C52.7,74.6,53.4,74.5,53.4,74.3z M34,68.8c0.1-0.4-0.6-0.4-0.5,0C33.4,69.2,34.1,69.2,34,68.8z M9.2,104.3c-0.1,0-0.1,0.1-0.2,0.1   c0.2,0.1,0.3,0.2,0.5,0.3C9.6,104.5,9.5,104.3,9.2,104.3z M122.2,299.7c0.5,0.1,0.7-0.3,0.2-0.3   C122.2,299.3,121.7,299.6,122.2,299.7z M132.6,145.2c0-0.1-0.1-0.2-0.1-0.2c-0.2,0.1-0.3,0.2-0.5,0.3   C132.2,145.5,132.6,145.5,132.6,145.2z M151.7,168.4c0.1-0.1,0.3-0.2,0.3-0.4C151.9,167.5,151.2,168.1,151.7,168.4z M142.5,168.9   c0.1,0,0.1-0.1,0.2-0.1c-0.1-0.1-0.2-0.3-0.4-0.4C142.2,168.6,142.1,168.9,142.5,168.9z M143.4,41.1c0.2-0.3,0.2-0.5,0-0.8   C143.2,40.5,143.2,40.8,143.4,41.1z M72.9,16c-0.1-0.5-0.4,0-0.5,0.1C72.6,16.3,72.9,16.3,72.9,16z M129.2,112.3   c0.3,0.1,0.7-0.2,0.2-0.3C129.1,111.9,128.6,112.3,129.2,112.3z M75.3,65.3c0-0.1-0.1-0.1-0.1-0.2c-0.1,0.2-0.2,0.3-0.3,0.5   C75.1,65.7,75.4,65.6,75.3,65.3z M36.8,110.4c-0.1,0.2-0.5,0.5-0.1,0.5C37,111,37,110.6,36.8,110.4z M131,257.2   c0-0.1-0.1-0.1-0.1-0.2c-0.1,0.2-0.2,0.3-0.3,0.5C130.8,257.6,131.1,257.5,131,257.2z M139.5,207.2c-0.1-0.1-0.2-0.2-0.4-0.4   C138.8,207.1,139.3,207.6,139.5,207.2z M46.5,59.7c0.1-0.1-0.1-0.2-0.1-0.3C45.9,58.8,45.8,60.1,46.5,59.7z M144.3,208.7   c0-0.1-0.1-0.2-0.1-0.2c-0.2,0.1-0.3,0.2-0.5,0.3C144,209,144.4,209,144.3,208.7z M72.5,67.5c0.2-0.3,0.2-0.5,0-0.8   C72.3,67,72.3,67.2,72.5,67.5z M154.5,217.9c-0.3-0.4-0.8,0.2-0.4,0.3C154.2,218.2,154.4,218,154.5,217.9z M13.7,46.5   c-0.1-0.1-0.2-0.3-0.4-0.4C13,46.5,13.5,46.9,13.7,46.5z M23.8,97.4c0.2-0.3,0.2-0.5,0-0.8C23.5,96.8,23.5,97.1,23.8,97.4z    M145.1,215.9c0-0.1-0.1-0.1-0.1-0.2c-0.1,0.1-0.3,0.2-0.4,0.4C144.8,216.2,145.2,216.2,145.1,215.9z M140.1,212.9   c0-0.1-0.1-0.1-0.1-0.2c-0.1,0.2-0.2,0.3-0.3,0.5C139.9,213.3,140.1,213.2,140.1,212.9z M138.8,215.2c-0.2-0.2-0.3-0.1-0.6,0   C138.4,215.4,138.5,215.3,138.8,215.2z M91.8,32.3c0-0.6-0.4-0.2-0.1,0.2C91.8,32.5,91.8,32.4,91.8,32.3z M139.3,215.6   c0-0.3-0.3-0.3-0.3,0C139,215.9,139.3,215.9,139.3,215.6z M138.9,214c-0.2,0.2-0.1,0.3,0,0.6C139.1,214.4,139,214.2,138.9,214z    M19.6,73.4c0.1,0.1,0.1,0.2,0.2,0.2c0.1-0.2,0.2-0.4,0-0.5C19.7,73.2,19.6,73.3,19.6,73.4z M141.1,212.9c0.3,0,0.3-0.3,0-0.3   C140.8,212.7,140.9,213,141.1,212.9z M31.6,69c0-0.2-0.3-0.3-0.4-0.1C31.1,69.1,31.5,69.2,31.6,69z M12.4,39.3   c0-0.6-0.4-0.2-0.1,0.2C12.3,39.4,12.4,39.3,12.4,39.3z M32.4,66.9c0-0.2-0.3-0.3-0.4-0.1C31.9,67,32.3,67,32.4,66.9z M18,31.9   c0-0.2-0.3-0.3-0.4-0.1C17.5,32,17.9,32.1,18,31.9z M74.8,45.7c0-0.6-0.4-0.2-0.1,0.2C74.7,45.8,74.7,45.7,74.8,45.7z M161.6,230.5   c0.2-0.1,0.1-0.5-0.1-0.4C161.3,230.2,161.4,230.5,161.6,230.5z M158.7,249.9c-0.1-0.2-0.5-0.1-0.4,0.1   C158.4,250.1,158.6,250.1,158.7,249.9z M79.4,8.4c-0.2-0.2-0.3-0.1-0.6,0C79,8.6,79.1,8.5,79.4,8.4z M142.2,259.9   c0-0.3-0.3-0.3-0.3,0C142,260.2,142.3,260.2,142.2,259.9z M165.4,200.4c0-0.3-0.3-0.3-0.3,0C165.1,200.7,165.4,200.7,165.4,200.4z    M64,42.1c0.2-0.1,0.1-0.4-0.1-0.4C63.8,41.8,63.8,42,64,42.1z M146.9,174.7c0.2-0.1,0.1-0.5-0.1-0.4   C146.6,174.4,146.7,174.7,146.9,174.7z M57.5,174c0-0.3-0.3-0.3-0.3,0C57.1,174.2,57.4,174.3,57.5,174z M12.9,39.8   c-0.2,0-0.3,0.3-0.1,0.4C13,40.2,13,39.9,12.9,39.8z M69.4,173.1c0.2-0.1,0.1-0.5-0.1-0.4C69.1,172.8,69.2,173.1,69.4,173.1z    M145.6,261.3c-0.1-0.2-0.5-0.1-0.4,0.1C145.3,261.6,145.6,261.5,145.6,261.3z M39.3,52.1c0-0.6-0.4-0.2-0.1,0.2   C39.3,52.2,39.3,52.1,39.3,52.1z M131.8,261.5c-0.3,0-0.3,0.3,0,0.3C132.1,261.8,132.1,261.5,131.8,261.5z M58,171.5   c0-0.2-0.3-0.3-0.4-0.1C57.5,171.6,57.8,171.7,58,171.5z M73.2,170.7c-0.1-0.1-0.1-0.2-0.2-0.2c-0.1,0.2-0.2,0.4,0,0.5   C73.1,170.9,73.2,170.8,73.2,170.7z M7.7,135.4c-0.2-0.2-0.3-0.1-0.6,0C7.3,135.6,7.4,135.5,7.7,135.4z M74.3,53   c-0.1-0.1-0.1-0.2-0.2-0.2c-0.1,0.2-0.2,0.4,0,0.5C74.2,53.2,74.2,53.1,74.3,53z M48.6,169.4c-0.1,0.1-0.2,0.1-0.2,0.2   c0.2,0.1,0.4,0.2,0.5,0C48.8,169.5,48.7,169.5,48.6,169.4z M48.4,169.2c0.3,0,0.3-0.3,0-0.3C48.1,168.9,48.1,169.2,48.4,169.2z    M23.4,54.1c0.3,0,0.3-0.3,0-0.3C23.1,53.9,23.1,54.2,23.4,54.1z M146,281.6c0-0.1-0.1-0.2-0.2-0.3c-0.2,0.2-0.1,0.3,0,0.5   C145.9,281.7,145.9,281.6,146,281.6z M72.3,61.8c-0.2,0.2-0.1,0.3,0,0.6C72.5,62.2,72.4,62.1,72.3,61.8z M146.2,166.9   c0-0.2-0.3-0.3-0.4-0.1C145.7,167.1,146.1,167.1,146.2,166.9z M150.7,148.4C150.7,148.4,150.6,148.4,150.7,148.4   C150.4,148.5,150.6,148.7,150.7,148.4z M151.1,148.6c-0.1,0.1-0.1,0.2,0,0.3C151.3,148.8,151.2,148.7,151.1,148.6z M151.8,150.7   C151.9,150.7,151.9,150.7,151.8,150.7C152.1,150.6,151.9,150.4,151.8,150.7z M82,22C82.1,22.2,82.3,22,82,22   C82.1,21.9,82.1,21.9,82,22z M157.8,165.4C157.9,165.4,157.9,165.3,157.8,165.4C157.7,165.1,157.6,165.3,157.8,165.4z M79.5,55.4   C79.4,55.1,79.3,55.3,79.5,55.4C79.5,55.5,79.5,55.4,79.5,55.4z M141.4,22.8C141.5,22.9,141.5,22.9,141.4,22.8   C141.7,22.7,141.5,22.6,141.4,22.8z M75.8,16.4C75.7,16.1,75.6,16.3,75.8,16.4C75.7,16.5,75.8,16.5,75.8,16.4z M50.5,40.7   C50.4,40.4,50.2,40.6,50.5,40.7C50.4,40.8,50.5,40.7,50.5,40.7z M113.5,168C113.5,168,113.5,168.1,113.5,168   C113.7,167.9,113.6,167.7,113.5,168z M112.1,168.3C112.2,168.3,112.2,168.3,112.1,168.3C112.4,168.2,112.2,168,112.1,168.3z    M157.8,168.3C157.9,168.3,157.9,168.3,157.8,168.3C157.7,168.1,157.6,168.2,157.8,168.3z M137.6,141.3   C137.5,141,137.4,141.2,137.6,141.3C137.6,141.4,137.6,141.4,137.6,141.3z M158.2,168.5C158.3,168.7,158.5,168.6,158.2,168.5   C158.3,168.4,158.3,168.4,158.2,168.5z M116,169.4C116,169.4,116.1,169.3,116,169.4C115.9,169.1,115.7,169.3,116,169.4z M148,28.9   C148,28.9,148,28.8,148,28.9C147.8,29,147.9,29.2,148,28.9z M49.5,41.7C49.6,42,49.8,41.8,49.5,41.7C49.6,41.6,49.5,41.7,49.5,41.7   z M76.4,15.9c-0.1-0.1-0.2-0.1-0.3,0C76.2,16,76.3,15.9,76.4,15.9z M19.4,121.8C19.4,121.9,19.5,121.9,19.4,121.8   C19.6,121.7,19.5,121.6,19.4,121.8z M56,172.9c-0.1,0.1-0.1,0.2,0,0.3C56.1,173.1,56,173,56,172.9z M96.6,58.2   C96.6,58.2,96.5,58.2,96.6,58.2C96.3,58.3,96.5,58.5,96.6,58.2z M141,175.6c-0.1,0.1-0.1,0.2,0,0.3   C141.2,175.8,141.1,175.7,141,175.6z M0.5,114.8C0.6,115.1,0.7,114.9,0.5,114.8C0.5,114.8,0.5,114.8,0.5,114.8z M145.1,177.1   C145,176.8,144.8,177,145.1,177.1C145,177.1,145.1,177.1,145.1,177.1z M134.3,42.5C134.4,42.8,134.5,42.6,134.3,42.5   C134.3,42.4,134.3,42.5,134.3,42.5z M77.9,58.6C77.8,58.3,77.7,58.5,77.9,58.6C77.9,58.7,77.9,58.6,77.9,58.6z M146.8,205.4   C146.8,205.4,146.8,205.4,146.8,205.4C147,205.3,146.9,205.1,146.8,205.4z M130.4,109.9c-0.1,0.1-0.1,0.2,0,0.3   C130.5,110.1,130.4,110,130.4,109.9z M68.4,47C68.5,47.3,68.7,47.1,68.4,47C68.5,47,68.5,47,68.4,47z M25.2,60.4   C25.1,60.3,25.1,60.3,25.2,60.4C24.9,60.5,25.1,60.7,25.2,60.4z M136.4,209.2C136.7,209.1,136.5,208.9,136.4,209.2   C136.4,209.1,136.4,209.1,136.4,209.2z M29.9,60.3C29.6,60.4,29.8,60.6,29.9,60.3C30,60.4,30,60.4,29.9,60.3z M44.9,45.5   C44.8,45.2,44.6,45.4,44.9,45.5C44.8,45.6,44.9,45.5,44.9,45.5z M80,11.9C80.1,11.9,80.1,11.9,80,11.9C79.9,11.7,79.7,11.8,80,11.9   z M12.7,97.7C12.6,97.7,12.6,97.7,12.7,97.7C12.4,97.8,12.6,98,12.7,97.7z M23.2,95.5c-0.1,0.1-0.1,0.2,0,0.3   C23.4,95.7,23.3,95.6,23.2,95.5z M147.5,39C147.5,39,147.4,39,147.5,39C147.2,39.1,147.4,39.3,147.5,39z M18.6,31.9   c-0.1-0.1-0.2-0.1-0.3,0C18.4,32,18.4,31.9,18.6,31.9z M148.1,32.7c-0.1-0.1-0.2-0.1-0.3,0C147.9,32.8,148,32.7,148.1,32.7z    M144.5,217.2c-0.1,0.1-0.1,0.2,0,0.3C144.6,217.4,144.5,217.3,144.5,217.2z M44,65.9C44.1,65.8,44.1,65.8,44,65.9   C43.9,65.6,43.8,65.8,44,65.9z M130.7,255.5C130.6,255.3,130.5,255.4,130.7,255.5C130.6,255.6,130.7,255.6,130.7,255.5z    M130.8,256.6C130.8,256.6,130.9,256.7,130.8,256.6C131,256.5,130.9,256.3,130.8,256.6z M44.8,35.2C44.6,35.3,44.7,35.5,44.8,35.2   C44.9,35.3,44.9,35.3,44.8,35.2z M75.2,64.3C74.9,64.4,75.1,64.6,75.2,64.3C75.3,64.4,75.3,64.4,75.2,64.3z M139.5,64.2   c-0.1-0.1-0.2-0.1-0.3,0C139.4,64.3,139.4,64.2,139.5,64.2z M130.8,262.5C130.8,262.5,130.9,262.5,130.8,262.5   C131,262.4,130.9,262.2,130.8,262.5z M95.2,61.7C94.9,61.8,95.1,61.9,95.2,61.7C95.3,61.7,95.2,61.7,95.2,61.7z M148,263   C147.9,262.7,147.8,262.9,148,263C148,263.1,148,263,148,263z M137.5,263.4c-0.1,0.1-0.1,0.2,0,0.3   C137.7,263.6,137.6,263.5,137.5,263.4z M146.4,265.6C146.4,265.6,146.4,265.5,146.4,265.6C146.2,265.7,146.3,265.9,146.4,265.6z    M29.4,62.5C29.4,62.5,29.4,62.4,29.4,62.5C29.2,62.6,29.3,62.8,29.4,62.5z M134.7,293C134.7,292.9,134.7,292.9,134.7,293   C134.6,292.7,134.4,292.9,134.7,293z M121,300.5c-0.1,0.1-0.1,0.2,0,0.3C121.2,300.7,121.1,300.6,121,300.5z M123.4,146.4   C123.7,146.3,123.5,146.2,123.4,146.4C123.3,146.4,123.3,146.4,123.4,146.4z"/>
            <path d="M72.6,139.3c-1.9-2.8-0.5-2.1,0-1c0.3,1.3,1.6,1.8,2,2.9c4.6,2.3,9.6,3.1,13.8-1.2c1.7-0.7,0.9-4.2,2.9-4.2   c0.6-0.4,1.2-0.9,2.1-0.3c1.6,0.8,1.2,3.6,0.6,5.1c0,1-1.1,1-1.2,1.9c0.1,1.1-1,1.4-1.3,2.2c-6.1,3.4-8.5,3.6-15.2,1.5   c-0.3-0.1-0.5-0.5-0.9,0c-0.6,0.2-0.9-0.6-1.5-0.8c-0.4-0.1-1-0.2-1.1-0.9c0-0.4-0.3,0.3-0.5,0c-0.1-0.2-0.3-0.4-0.6-0.4   c-0.8,0.1,0.1-0.4-0.4-0.6c-1.7-0.7-2.8-2-2.4-3.8c-0.5-1.2,0.8-2,1.7-2.4C70.5,137.2,70.6,137.2,72.6,139.3c2,2.3,2.1,1.5,1.7,2   C74.5,142,74.7,141.6,72.6,139.3z M74,141.2c-0.1-0.6-1-0.7-0.8,0C73.2,141.6,74,141.5,74,141.2z M91.3,136.6c0.3,0,0.3-0.3,0-0.3   C91,136.3,91,136.7,91.3,136.6z M75.1,141.7c-0.3,0-0.3,0.3,0,0.3C75.3,142,75.3,141.7,75.1,141.7z M78.7,143.5   c-0.2,0.2-0.1,0.3,0,0.6C78.8,143.9,78.8,143.7,78.7,143.5z M91,143.9C91,143.9,90.9,143.8,91,143.9C90.7,144,90.9,144.2,91,143.9z    M70.2,141.8C70.2,141.7,70.2,141.7,70.2,141.8C70,141.9,70.1,142.1,70.2,141.8z M90.3,140C90.6,139.9,90.4,139.8,90.3,140   C90.3,140,90.3,140,90.3,140z"/>
            <path d="M70.2,120.1c4.2-0.5,5.4,5.4,0.5,5.6c-1,0.2-3.5-1-2.5-2.3C68.4,122,68.3,119.9,70.2,120.1z"/>
            <path d="M89.4,122.9c0-3.2,1.5-3.2,4.3-2.8c0.6,0.4,1,1.3,1.2,2.1c0.4,0.3-0.4,0.6,0.1,1c0.3,0.2-0.1,0.6-0.2,0.9   c-0.6,1.2-3.5,1.4-4.3,0.4C90.3,123.5,89.2,124.4,89.4,122.9z"/>
        </g>
        <g id="dog" class="drawing" transform="translate(270 775)">
            <path d="M173.9,31.6c11.4,5.9,19.1,17.1,18.7,29.8c0.2,2.1-0.2,3.9-0.6,5.6c-0.4,1.5,0.2,3.2-1,4.3c-0.7,3.5-5.9,4.6-6.2,7.4   c1,0.3,0.6,2,1.5,1.9c0.4,0,0.7,0,0.6,0.5c-0.2,1.4,1.9,0.9,1.6,2.3c-0.1,0.6,1.1,0.2,0.8,1c0.5,1.5,2.8,2.2,3,4.1   c2.6,2.6,1.8,7.3,5.1,9c3.8,1.8,7.2,4.1,9.3,8.2c2.3,9.9-10.4,16.8-18.5,12.9c-3-1.3-6.5,2.3-9.4,0.9c-5.3-0.2-11.1,0.2-16.2-0.9   c-0.4,0.8-1.3-0.2-1.9,0.4c-1.1-0.5-2.8-0.6-3.7-1.2c-3,0.5-6.1-0.9-9.5-0.4c-3.4,0.1-10.5-4.4-10,1c1.3,5.2,1.6,11.8,2.9,17.1   c0,2.1,0.3,4.6,1,6.5c-0.2,2-0.3,4,0.4,6.1c-2.3,3.5-7.2,2-7.9-1.9c1-1.8,0.1-3.5,0.5-5.5c-0.4-1.4,0.5-3-0.6-4.2   c0.7-0.2,0.1-3.2-0.4-3.6c1-0.6,0-1.1,0-1.7c-0.8-1.7-0.6-3.6-1.2-5.3c-0.5-3.4,0.4-9.4-2-11.5c-0.5,0.4-1.2,0.5-1.6,0   c-0.5-0.7-0.9,0.6-1.3,0c-0.3-0.5-0.9-0.5-1.4-0.6c-2.3-0.5-4.9-0.2-6.9-1.2c-0.2-0.7-0.7,0.3-1-0.2c-0.4-0.6-0.9,0.6-1.4-0.1   c-1.7-0.8-4.5,0-5.9-0.8c-1.9,1.1-2.2-1.8-2.9-2.8c-2.7-2.2,2.9-4.2,5.1-3c2.8,0.1,6.2,0.5,8.3,1.3c3,0.2,6.2,1.2,9,1.8   c0.4,0.5,0.7-0.6,1.1-0.1c0.3,0.5,0.9-0.4,1.2,0.3c8.6,1,17.3,2.4,25.4,3.3c7,0.1,14.1,1.9,21.3,0.8c2,0,1.6-1.6,1-2.9   c-0.6-3.5,0.2-9.3,3.5-11.1c2.1-3.9,8.5,0.5,2.4-7.8c-2.2-6.2-8.9-10.5-11.9-15.8c-2.7-2.7-6.2-4.2-8.8-6.5c0.2-1-0.6-0.1-0.7-0.3   c-0.3-0.7-1.6-0.5-1.4-1.6c-1-1.4-4.4-0.8-5.2-2.6c-0.4-4.2-0.8-8-1.2-12.5c0.3-0.6-0.3-0.7-0.8-1c0.3-3.1-2.6-5.4-2.4-8.4   c-0.4-0.6-1.4,0.1-1.6-0.5c0.3-0.7-0.7-1,0-1.7c-1.1-1.2-0.7-2.8-1.2-4.1c-0.9-0.5-0.8-0.9-0.9-1.8c-2.3-2-2.8,8.1-7,7.4   c-2.7,2.7-6.8,1.8-10.2,2.8c-1.8,0.3-4.2-0.1-5.9,0.8c-0.3,0.3-0.5,0.5-0.9,0c-0.4-0.7-1.2,0.4-1.7-0.3c-0.5,1.5-2.9,0.4-4.1,1.3   c-0.4,0.6-1.5-0.1-1.6,0.4c-0.2,0.8-0.8,0.4-1.1,0.7c-1.4,0.8-3.2,0.2-4.5,0c-5.2,0.6-11.2,2.4-16.6,1.6c-4.7,3.3-6.8-6.1-9.1,0.1   c9.5,3.3,15.4,12.6,18,22.1c0.5,1.1,0.7,2.1,1.4,3.1c0.9,0.5-0.5,1-0.2,1.7c0.9,1-0.1,2.3,0.8,3.3c-0.2,1.4,0,2.8-0.7,4.2   c0.5,1.1,0.4,2.8-0.1,4c-0.1,3.5-0.7,5.9-3.4,8.2c0.6,1.7-1.4,2.4-1,3.8c0.2,0.3-1,0.4-1.1,0.9c-4.4,5.1-11,5.5-7.5,14.1   c0.3,1.5,0,3.5,0.8,5.2c-0.8,2.3,0.6,4.7,0.3,7c0.8,6,2.1,11.6,2.3,17.4c-0.3,2-0.1,4-0.9,6c-0.6,1-4.3,1.3-4.5-0.8   c-1.3-3.6,0-8.2-1-11.6c0.1-4.2-0.7-9.6-2-14.3c-1.4-1.6-0.2-4.3-1.2-6.4c0.3-1-0.5-2.3-0.4-3.6c-0.1-0.3-0.8-0.9-0.1-1.5   c0-3.9-3.3-1.8-5.9-2.5c-1.3-1.1-0.8,0.3-2.1-0.4c-1.7,0.6-3.7-0.6-5.2-0.6c-2.9-3.1-2.4,4.7-2.5,6.4c-1.7,2.7-2.4,5.2-3.9,7.9   c0,3.5-1.2,4.5-3.7,7c-1.6,1-1,4.3-2.7,5c-3.2,1.2-3.3,5.8-6.6,6.8c-0.8,0-1.3,0.5-0.9,1.1c-2.3,1.4-6.6,1.3-7.9,3.5   c-0.2,8.6-4.6,16.5-10.2,21.6c-5.7,6-12.9,9.2-21.1,10.9c-3.2,0.2-9.3,1.2-11.6-2c-1.8-1.5-3.2-3.5-1.8-5.8c0-0.4,0.7-0.7,0.3-1   c-0.5-1.1,0.8-2.6,1.7-3c10.5,2.1,3.4,4.8,6.4,6.9c7.3-0.7,14.6-3.5,20.5-8.6c3.8-2.5,8.3-10.5,7.4-15c1.5-2.7-1.4-5.4-3.8-5.4   c-1.6-0.6-2.7-1.4-4.5-2.1c-3.6-2.8-6.1-7-5.8-11.5c-2.1-6.1,4.1-8,8.3-6.9c0.8,3,5.5,1.6,6.2,4c2.4,2,4.8,5.8,4.4,8.9   c0.7,1,0.1,3.7,2.1,2.1c3.4-0.7,6.7-3.4,9.6-6c4-4.5,7.8-10.8,8.8-16.7c-0.1-1.2,0.8-1.6,0.7-2.9c0.5-1,0.8-2.3,0.3-3.2   c1.1-2.9-1.7-5.9-3.7-7.7C50,99,44.2,86.7,44,76.3c0.6-6.5,3.8-9.9,5.2-15.9c1.4-1.4,2.7-3.3,3.6-4.9c-0.1-1.3,1.5,0.1,1.7-1.2   c2.2-2.6,5.5-4.2,8.5-5.8c3.8-0.6,2.9-4.8,4.6-7.6c0.1-1.2-0.3-3,0.9-3.9c0.5-0.3,0.2-0.6,0-0.9c0.1-0.3,0.2-1,0.1-1.2   c0.7-2.1,1.8-3.7,2.7-5.7c0.2-1.5,0.9-4.3,2.5-4.9C78.2,18.1,85,13.9,91.3,10c7.3-2.4,14.3-9.3,22.2-9c-0.1-1.3,4.9-1,5.6-0.8   c1.4,0.5,3.1-0.1,4.6,0.3c0.4,0.6,0.8-0.4,1.1-0.1c0.5,0.5,1.2,0,1.5,0.3c1.8,0.2,3.9,0.1,5.9,0.6c1.4,0.4,2.3,1.7,3.8,1.4   c0.2-0.1,0.4,1.1,1.1,0.3c6.6,3.8,11.8,8.7,16.7,14.7c2,1.7,3.8,4.1,4.6,5.8c1.2,1.1,1.3,2.4,1.8,3.9c0.5,0.6-1,1.7-0.2,2.1   c1.6,1.7,3.1,1.3,5.2,0.9C168.4,30.8,170.7,29.9,173.9,31.6z M34.8,137.9c-0.1-0.2-0.5-0.4-0.4-0.1c0.1,0.2,0.5,0.3,0-0.1   c-0.6-1.9-2.1-2.8-2.6-4.4C27.6,131.5,32,138,34.8,137.9z M71,52.5c-1.4-0.4-2,1.1-3.5,1.2c-1.9,1.3-3.2,2.1-5.3,3.3   c-2.7,2.7-5.6,6-7,10c-4.2,6.9-5.6,17.5,0.8,23.5c0.1,0,0,0.7,0.1,1.1c0,0.5,1,0.1,0.8,0.8c-0.1,1.4,1.9,1.2,2.1,2.5   c0.4,0.7,1.5-0.8,1.7,0.4c1.1,0.8,2.8,1.3,4,2c6.8,3.3,13.3,7,20.8,4.5c4.2-1.3,9.5-5,10.2-8.9c-0.2-0.2-0.8-0.3-0.3-0.7   c1.6-2.1,1.9-4.8,3-7c2.3-9-3.4-20.5-9.8-27.5c-0.4-1.1-1.3,0.4-1.7-0.5c-0.3-0.5-0.6,0.1-0.9-0.1c-4.1-2.7-8.9-0.5-13.2-2   C71.5,54.2,74,51.9,71,52.5z M85.6,39.4c1,0.5,1.5-0.5,2.3-0.6c0.3,0.1,0.4,0.8,0.8,0.5c1.2-0.3,1.2,1.6,2.5,1.8   c1.3,0.7,3.1,1.8,4.3,2.2c0.8-0.1,2.1,0,1.7,1.4c-0.2,1.8,2.2-0.3,3-0.4c3.6,0,8.1-1.9,12.3-1.6c2.9-1,6.2-0.7,9.4-2   c3.6-1.9,7.8-1.4,11.2-2.8c3-0.1,8.1,0,9-4.1c1.4-1.6-0.2-4.1,0.9-5.8c-0.6-0.8-1.7-1-2.3-0.8c-0.7-2-2.8-3.1-4-4.7   c-3.1-1.2-6.4-0.6-9.5-0.7c-1.2-0.6-3.1,0.5-4.2-0.5c-0.4-0.3-1,1.2-1.1,0.8c-4.5-1.4-9,1.8-13.6,1.6   C98.9,25.7,90.2,30.6,85.6,39.4z M179.7,71.4c5.4-0.5,6.2-7.8,5.8-11.7c0.6-1.6-1-2.9-1.3-4.4c0.4-0.9-0.9-2.3-0.9-3.5   c-1.2-0.3-0.5-1.8-1.3-2.5c-4.3-5.6-11.4-13.6-19-11.3c-1.4-0.2-5-0.4-5,1.2c2.4,5.1,4.6,10.2,5.5,15.7c-0.2,2.3-0.9,4.3-0.2,6.5   C168.3,64.5,174,70.8,179.7,71.4z M146.7,20.1c-4.1-4.2-7.9-7.8-12.7-10.6c-0.1-0.1-0.6,0.7-0.5-0.1c-0.3-1.7-3.1-1.6-4.5-1.8   c-3.6-0.7-6.9,0.5-9.9-1.4c-3.1,1-7,1.1-10.1,2.4c-4.7,0.6-10.1,3.7-14.7,6.2c-6,2.5-11.3,6.6-14.1,13c-3.6,5.7-5.6,12.2-7.3,18.6   c0.6,0.8,3.8,1.8,3.7,0.2c-0.8-0.8,0.2-2-0.7-2.8c-0.5-0.5,0.7-1.1-0.1-1.6c0.5-1.1,1.2-1.8,1.6-2.9c0.4-1.5,1-2.2,2.4-3   c3-5.2,6.7-9,10.8-13.5c3.4-1.3,5.9-3.9,9.7-4.8c3.6-0.4,7.6-1.3,12-1.7c7.2-0.1,14.9-0.9,22.3-0.9   C138.7,15.2,142.6,22.4,146.7,20.1z M46,79.3c-0.2-0.4-0.4-0.7-0.5-1.1C44.5,78.7,44.8,79.9,46,79.3z M155,32.7   c0.2-0.2,0.4-0.4,0.6-0.5C155.1,31.7,154.4,32.3,155,32.7z M124.2,16.4c0.1,0.4,0.4,0.1,0.1-0.1C124.3,16.3,124.3,16.4,124.2,16.4z    M69.5,36.9c0.1,0.4,0.4,0.1,0.1-0.1C69.6,36.8,69.5,36.9,69.5,36.9z"/>
            <path d="M142.6,71.4c-0.9-0.6-3,0.2-2.8-1.5c-2.1-1.2,1.2-5.2,2.5-5.1c2.3-0.5,1.7,0,3.5,1.4C147.1,68.9,145.1,70.9,142.6,71.4z"/>
            <path d="M120.7,78.2c-2.4-0.5-4.8-2.5-2.7-4.7c-0.6-0.8,0.4-0.3,0.5-0.6c0-0.5,0.5-1.2,1.1-1.1C124.6,70.4,125.8,78.2,120.7,78.2z"/>
            <path d="M123.3,22.8c-0.1,0.4-0.4,0.1-0.1-0.1C123.2,22.7,123.2,22.8,123.3,22.8z"/>
        </g>
    </g>
</svg>
