<svg width="924" height="924" viewBox="0 0 924 924" fill="none" xmlns:xlink="http://www.w3.org/1999/xlink" xmlns="http://www.w3.org/2000/svg">
  <style id="style1242">
    @import url('https://fonts.googleapis.com/css2?family=Inter:wght@900');
        text {
            fill: #F0EEE2;
            font-family: 'Inter', sans-serif;
            font-weight: 900;
        }
        .branding {
            font-size: 20px;
            letter-spacing: 0em;
            text-transform: uppercase;
        }
        .subtitle {
            text-anchor: middle;
            font-size: 32px;
            letter-spacing: 0.6em;
        }
        .album-art{
          height:135px;
          width:135px;
        }
        .background {
            fill: #4C6C52;
        }
        .drawing {
          fill: #F0EEE2;
        }
    </style>
  <g id="g321">
    <g id="g297">
      <rect class="background" width="924" height="924" fill="#4C6C52"/>
      <text class="branding" x="750" y="897" id="text279">LISTENBRAINZ</text>
      <text class="branding" x="26" y="43" id="text281">{{user_name}}</text>
      <text class="branding" font-style="italic" x="26" y="897" id="text283">#YEARINMUSIC</text>
      <text class="branding" x="844" y="43" id="text285">2023</text>
      <text x="50%" y="150" id="my-year" class="subtitle">
          <tspan>M</tspan>
          <tspan dx="12">Y</tspan>
          <tspan dx="30">Y</tspan>
          <tspan dx="12">E</tspan>
          <tspan dx="12">A</tspan>
          <tspan dx="12">R</tspan>
      </text>
      <text x="50%" y="190" id="in-music" class="subtitle">
          <tspan>I</tspan>
          <tspan dx="12">N</tspan>
          <tspan dx="30">M</tspan>
          <tspan dx="12">U</tspan>
          <tspan dx="12">S</tspan>
          <tspan dx="12">I</tspan>
          <tspan dx="12">C</tspan>
      </text>
      <text x="50%" y="755" id="top-albums" class="subtitle">
          <tspan>T</tspan>
          <tspan dx="12">O</tspan>
          <tspan dx="12">P</tspan>
          <tspan dx="30">A</tspan>
          <tspan dx="12">L</tspan>
          <tspan dx="12">B</tspan>
          <tspan dx="12">U</tspan>
          <tspan dx="12">M</tspan>
          <tspan dx="12">S</tspan>
      </text>
    </g>
    <g id="g319">
        {% set x_s = [265, 265, 265, 400, 400, 400, 535, 535, 535] %}
        {% set y_s = [250, 385, 520, 250, 385, 520, 250, 385, 520] %}
        {% for image in images[:9] %}
            <a href="https://listenbrainz.org/album/{{ image.entity_mbid }}" target="_blank">
                <image
                        class="album-art"
                        preserveAspectRatio="xMidYMid slice"
                        x="{{ x_s[loop.index0] }}"
                        y="{{ y_s[loop.index0] }}"
                        href="{{ image.url }}">
                    {% if image.title and image.artist %}
                        <title>
                          {{- image.title|escape ~ " - " ~ image.artist|escape -}}
                        </title>
                    {% endif %}
                </image>
            </a>
        {% endfor %}
        <path d="M306 347c-1 24-7 49-20 69-2 6-3 13-7 18-6 9-11 19-18 27v3c10 12 4 20 9 30 16 33 29 68 35 104 2 14 21 93-8 81-4-10-12-15-20-20-1-1-3 0-3 1 0 4-3 7-4 10-5 8-4 26-19 22-4-2-6-4-6-9 0-4-5-6-6-10 1-6-12-9-13-2-3 9-8 32-21 17-4-9-3-19-4-28-3-3-2-7-1-11 4-17-1-34-2-52-7-74 0-148-3-222v-90c1-5 3-5 1-11v-36c-2-9 0-17 0-25v-4c9-10 56 4 66 12 13 7 18 21 26 32 15 28 16 64 18 94zm-64 144c20 3 14-23-2-22-28 7-35-14-33 14-2 4 30 8 35 8zm-20-58c-1 0-1 2 1 2 1 0 1-3-1-2zm59 126-1-1c-3 1 1 5 1 1zm-72-272c0-2-2-1-2 0h2zm40 64c1 0 2-1 1-2l-1 2zm-39 223h-1 1zm85 79-1-1c-1 1 1 2 1 1zm-88-321v1-1zm84 27h-1 1zm-82 31v-1 1zm101 280c0-1 0 0 0 0zm-40-384 1 1-1-1zm18 358h-1l1 1v-1zm23 6h-1 1zm-37-308zm-25 286z" id="curtain-left" class="drawing" style="stroke-width:.905794"/>
        <path d="M623 667c-8-55 7-112 32-161 6-10-2-19 3-28 1-3 4-5 2-8l1-3c-4 1-3-4-6-4-3-1-4-4-4-6-9-11-14-26-17-40 1-2-3-16 0-14-5-14-3-33-5-49l2-11c-3-5 0-13 1-18 1-22 7-43 17-63 9-18 23-34 41-45 9-6 18-9 28-12h6c3-4 11 9 9 11-3 14-4 28-3 42 1 54-3 108 0 162 4 69-8 138 3 208 0 9 2 19-4 26l-1 4c3 18-5 37-26 23-3 0-7-10-9-4-3 4-3 12-10 11-2 3-7 4-9 0-1-1 1-3-2-3-8-5-13-16-21-23-3-3-3-3-5 1-3 4-6 8-7 12-2 6-4 1-6 4-4 5-11-1-8-6 0-2-3-4 1-3 2 1 1-1 1-2 0-2 2-3-1-4-2 0-3 1-3 3zm75-171c8-1 20 2 20-9 0-1-1-2-3-2-12 1-25-2-37-4-6-2-10 3-8 10s21 3 28 5zm15-25c-1-2-5-11-8-9-1 1 0 1 1 2l3 6c1 2 2-1 4 1zm-21-224c-1 2-3 4-2 6s1-1 2-1c3 1 0-3 0-5zm-14 213c-2-2-2-7-4-8-2 2 1 6 4 8zm40-241c1-2-3-4-3-2 1 3 2 7 3 2zm-20 389c-1 1-2 5 0 5 3 0 3-4 0-5zm3-257c-1-1-2-4-4-4-1 2 3 8 4 4zm-31 90c0-2 1-4-1-5-3 0 0 4 1 5zm14 215c-5 1-1 8 0 3v-3zm6-203c2 0 0-3-1-3-2 0 0 3 1 3zm8-133c0-1-2-2-2 0 0 1 2 2 2 0zm-37 79-1-2c-3 0 1 5 1 2zm12 283v-3 3zm0-332c2 0-1-3-2-1l2 1zm-30 24v2c2 1 1-2 0-2zm60 179v-1c-1-1-2 1 0 1zm-3-265v1-1zm-47 2c0-3-3 0-1 0h1zm65 146h-2 2zm-44-43h-1 1zm-6 284c1-2-2 0-1 1l1-1zm17-142h-1 1zm12-110h-2 2zm-46 27h-1 1zm-9-165h-2 2zm71 217-2 1 2-1zm-5-293c1-2-2 0 0 0zm5 221v-1 1zm-53-147h-1 1zm23 275c0 1 0 1 0 0zm27 97v1-1zm-41-130h-1 1zm-1-45v1-1zm-4-64zm-27 5zm66-198c0 1 0 0 0 0zm-3 143v-1 1zm-61 300v1-1zm29-430zm55 367h1-1zm-76-14h-1l1 1v-1zm40-47s-1 0 0 0zm-27-65h-1 1zm14 33v-1h-1zm11-236zm-7 112zm-31 202zm72 32v1zm-13 27zm-71 3zm14-203v1-1zm-20 211h-1 1zm75 6h1zm-39-327v1-1zm30-107v1zm-51 202zm63 247zm-45-409zm65 331v-1 1zm-31 69z" id="curtain-right" class="drawing" style="stroke-width:.905794"/>
    </g>
  </g>
</svg>