<?xml version="1.0" encoding="utf-8"?>
<!-- Generator: Adobe Illustrator 26.2.1, SVG Export Plug-In . SVG Version: 6.00 Build 0)  -->
<svg version="1.1" id="Layer_1" xmlns="http://www.w3.org/2000/svg" xmlns:xlink="http://www.w3.org/1999/xlink" x="0px" y="0px"
	 width="603px" height="150px" viewBox="0 0 603 150" style="enable-background:new 0 0 603 150;" xml:space="preserve">
<style type="text/css">
	.st0{fill:#B50437;}
	.st1{font-family:'Roboto-Black';}
	.st2{font-size:77px;}
	.st3{fill:#EB743B;}
	.st4{clip-path:url(#SVGID_00000121966673174238342260000007663480599709664163_);}
	.st5{fill:#8E0324;stroke:#8E0324;stroke-width:1.5;}
	.st6{fill:#FFFEDB;stroke:#FFFEDB;stroke-width:1.5;}
	.st7{fill:#8E0324;}
	.st8{fill:#FFFEDB;}
	.st9{fill:none;stroke:#8E0324;stroke-width:1.5;}
	.st10{fill:none;stroke:#FFFEDB;stroke-width:1.5;}
	.st11{fill:#8E0324;stroke:#8E0324;stroke-width:1.5;stroke-linecap:square;stroke-linejoin:round;}
	.st12{fill:#FFFEDB;stroke:#FFFEDB;stroke-width:1.5;stroke-linecap:square;stroke-linejoin:round;}
	.st13{opacity:7.000000e-02;}
	.st14{fill:#D3562C;}
	.st15{display:none;}
	.st16{display:inline;fill:#B50437;}
	.st17{display:inline;fill:#EB743B;}
</style>
<text transform="matrix(1 0 0 1 152.6589 102.5)"><tspan x="0" y="0" class="st0 st1 st2">Messy</tspan><tspan x="228.2" y="0" class="st3 st1 st2">Brainz</tspan></text>
<g>
	<g>
		<g>
			<polygon class="st3" points="68.7,2.5 68.7,146.5 129.7,111.5 129.7,37.5 			"/>
			<polygon class="st0" points="63.7,2.5 2.7,37.5 2.7,111.5 63.7,146.5 			"/>
			<g>
				<defs>
					<polygon id="SVGID_1_" points="7.7,108.6 7.7,40.4 63.7,8.2 63.7,140.7 					"/>
				</defs>
				<clipPath id="SVGID_00000107585716835462253900000010227328530503781792_">
					<use xlink:href="#SVGID_1_"  style="overflow:visible;"/>
				</clipPath>
				<g style="clip-path:url(#SVGID_00000107585716835462253900000010227328530503781792_);">
					<g id="section_53_">
						<g>
							<polyline id="background_00000108988540224817282200000011708145351139028099_" class="st5" points="1.8,45 0.9,45.7 0,46.6 
								-0.7,47.5 -1.2,48.5 -1.7,49.6 -1.9,50.7 -2.1,51.8 -2,53 -1.9,54.1 -1.5,55.2 -1,56.3 -0.4,57.3 0.3,58.2 1.2,58.9 
								2.1,59.6 3.2,60.1 4.3,60.5 5.4,60.7 6.6,60.8 7.7,60.7 8.8,60.5 9.9,60.1 11,59.5 11.9,58.9 12.8,58.1 13.5,57.2 14.1,56.2 
								14.6,55.1 14.9,53.5 15.2,52.2 17.8,52.9 17.5,54.2 17.2,55.8 16.6,57.2 15.8,58.6 14.9,59.8 13.8,60.8 12.5,61.7 11.2,62.4 
								9.8,63 8.3,63.3 6.8,63.5 5.3,63.4 3.8,63.1 2.3,62.7 1,62 -0.3,61.2 -1.5,60.2 -2.5,59 -3.3,57.8 -4,56.4 -4.4,54.9 
								-4.7,53.4 -4.8,51.9 -4.6,50.4 -4.3,48.9 -3.7,47.5 -3,46.2 -2.1,45 -1.1,43.9 0.1,42.9 							"/>
						</g>
						<g>
							<g>
								<polyline id="background_00000111160768890456091220000014851795004467066259_" class="st6" points="1.8,42 0.9,42.7 
									0,43.6 -0.7,44.5 -1.2,45.5 -1.7,46.6 -1.9,47.7 -2.1,48.8 -2,50 -1.9,51.1 -1.5,52.2 -1,53.3 -0.4,54.3 0.3,55.2 1.2,55.9 
									2.1,56.6 3.2,57.1 4.3,57.5 5.4,57.7 6.6,57.8 7.7,57.7 8.8,57.5 9.9,57.1 11,56.5 11.9,55.9 12.8,55.1 13.5,54.2 
									14.1,53.2 14.6,52.1 14.9,50.5 15.2,49.2 17.8,49.9 17.5,51.2 17.2,52.8 16.6,54.2 15.8,55.6 14.9,56.8 13.8,57.8 
									12.5,58.7 11.2,59.4 9.8,60 8.3,60.3 6.8,60.5 5.3,60.4 3.8,60.1 2.3,59.7 1,59 -0.3,58.2 -1.5,57.2 -2.5,56 -3.3,54.8 
									-4,53.4 -4.4,51.9 -4.7,50.4 -4.8,48.9 -4.6,47.4 -4.3,45.9 -3.7,44.5 -3,43.2 -2.1,42 -1.1,40.9 0.1,39.9 								"/>
							</g>
						</g>
					</g>
					<g id="section_76_">
						<g>
							<polyline id="background_00000052820500482650725940000007967403494300227759_" class="st5" points="14.9,57.8 15.9,56.6 
								16.8,55.4 17.4,54 17.9,52.6 18.2,51.1 18.3,49.6 18.2,48.1 17.9,46.6 17.4,45.1 16.7,43.8 15.8,42.6 14.8,41.4 13.6,40.5 
								12.3,39.7 10.9,39.1 9.5,38.6 8,38.4 -10.8,38.1 -12.1,38 -12.2,40.7 -10.8,40.7 7.9,41.1 9.1,41.3 10.2,41.6 11.2,42.1 
								12.2,42.8 13.1,43.5 13.8,44.4 14.5,45.3 15,46.4 15.4,47.5 15.6,48.6 15.7,49.8 15.6,50.9 15.3,52 14.9,53.1 14.4,54.2 
								13.7,55.1 12.9,55.9 							"/>
						</g>
						<g>
							<g>
								<polyline id="background_00000073707020840207045280000014261057011948487301_" class="st6" points="14.9,54.8 15.9,53.6 
									16.8,52.4 17.4,51 17.9,49.6 18.2,48.1 18.3,46.6 18.2,45.1 17.9,43.6 17.4,42.1 16.7,40.8 15.8,39.6 14.8,38.4 13.6,37.5 
									12.3,36.7 10.9,36.1 9.5,35.6 8,35.4 -10.8,35.1 -12.1,35 -12.2,37.7 -10.8,37.7 7.9,38.1 9.1,38.3 10.2,38.6 11.2,39.1 
									12.2,39.8 13.1,40.5 13.8,41.4 14.5,42.3 15,43.4 15.4,44.5 15.6,45.6 15.7,46.8 15.6,47.9 15.3,49 14.9,50.1 14.4,51.2 
									13.7,52.1 12.9,52.9 								"/>
							</g>
						</g>
					</g>
					<g>
						<g>
							<g>
								<polyline id="background_00000133506535696519407200000018379141257789089423_" class="st7" points="44.1,77.5 44.3,77.3 
									44.5,77.2 44.7,77 45,76.9 46.2,76.1 46.5,76 46.8,75.8 47.1,75.7 47.5,75.5 47.8,75.4 48,75.4 48.1,75.3 48.2,75.3 
									48.3,75.3 48.4,75.2 48.5,75.2 48.7,75.2 48.8,75.1 50.8,74.7 50.9,74.7 51.1,74.6 51.3,74.6 51.5,74.6 51.7,74.6 
									51.9,74.5 52.1,74.5 52.4,74.5 52.6,74.5 68.1,74.5 68.7,74.5 68.7,70.5 68.1,70.5 52.6,70.5 52.3,70.5 51.9,70.5 
									51.6,70.6 51.3,70.6 51,70.6 50.7,70.7 50.4,70.7 50.2,70.8 49.9,70.8 47.9,71.3 47.7,71.3 47.6,71.4 47.4,71.4 47.2,71.4 
									47.1,71.5 46.9,71.5 46.8,71.6 46.5,71.7 46.2,71.8 45.7,72 45.2,72.2 44.8,72.4 44.3,72.6 43,73.4 42.6,73.6 42.3,73.8 
									42,74.1 41.7,74.3 								"/>
							</g>
							<g>
								<g>
									<polyline id="background_00000085249502043867690230000017724738663963969679_" class="st8" points="44.1,74.5 44.3,74.3 
										44.5,74.2 44.7,74 45,73.9 46.2,73.1 46.5,73 46.8,72.8 47.1,72.7 47.5,72.5 47.8,72.4 48,72.4 48.1,72.3 48.2,72.3 
										48.3,72.3 48.4,72.2 48.5,72.2 48.7,72.2 48.8,72.1 50.8,71.7 50.9,71.7 51.1,71.6 51.3,71.6 51.5,71.6 51.7,71.6 
										51.9,71.5 52.1,71.5 52.4,71.5 52.6,71.5 68.1,71.5 68.7,71.5 68.7,67.5 68.1,67.5 52.6,67.5 52.3,67.5 51.9,67.5 
										51.6,67.6 51.3,67.6 51,67.6 50.7,67.7 50.4,67.7 50.2,67.8 49.9,67.8 47.9,68.3 47.7,68.3 47.6,68.4 47.4,68.4 47.2,68.4 
										47.1,68.5 46.9,68.5 46.8,68.6 46.5,68.7 46.2,68.8 45.7,69 45.2,69.2 44.8,69.4 44.3,69.6 43,70.4 42.6,70.6 42.3,70.8 
										42,71.1 41.7,71.3 									"/>
								</g>
							</g>
						</g>
						<g>
							<g>
								<polyline id="background_00000178926249886066607190000018080535521159931272_" class="st7" points="41,80.9 41,80.8 
									41.1,80.7 41.1,80.7 41.2,80.6 41.2,80.5 41.2,80.4 41.3,80.3 41.4,80.3 41.4,80.2 41.5,80.1 41.5,80 41.6,79.9 41.7,79.8 
									41.8,79.7 41.9,79.5 41.9,79.4 42,79.3 42.1,79.2 42.2,79.1 42.4,78.9 42.5,78.8 42.6,78.7 42.7,78.5 42.9,78.4 43,78.3 
									43.2,78.1 43.4,78 43.6,77.8 43.8,77.7 44.1,77.5 41.7,74.3 41.4,74.5 41.2,74.6 40.9,74.8 40.7,75 40.4,75.3 40.2,75.5 
									40,75.6 39.8,75.8 39.6,76 39.5,76.2 39.3,76.4 39.1,76.6 39,76.7 38.9,76.9 38.7,77.1 38.6,77.2 38.5,77.4 38.4,77.5 
									38.3,77.7 38.2,77.8 38.1,78 38,78.1 37.9,78.2 37.9,78.3 37.8,78.5 37.7,78.6 37.7,78.7 37.6,78.8 37.5,78.9 37.5,79 
																	"/>
							</g>
							<g>
								<g>
									<polyline id="background_00000051373876294886439350000009614698965912170420_" class="st8" points="41,77.9 41,77.8 
										41.1,77.7 41.1,77.7 41.2,77.6 41.2,77.5 41.2,77.4 41.3,77.3 41.4,77.3 41.4,77.2 41.5,77.1 41.5,77 41.6,76.9 41.7,76.8 
										41.8,76.7 41.9,76.5 41.9,76.4 42,76.3 42.1,76.2 42.2,76.1 42.4,75.9 42.5,75.8 42.6,75.7 42.7,75.5 42.9,75.4 43,75.3 
										43.2,75.1 43.4,75 43.6,74.8 43.8,74.7 44.1,74.5 41.7,71.3 41.4,71.5 41.2,71.6 40.9,71.8 40.7,72 40.4,72.3 40.2,72.5 
										40,72.6 39.8,72.8 39.6,73 39.5,73.2 39.3,73.4 39.1,73.6 39,73.7 38.9,73.9 38.7,74.1 38.6,74.2 38.5,74.4 38.4,74.5 
										38.3,74.7 38.2,74.8 38.1,75 38,75.1 37.9,75.2 37.9,75.3 37.8,75.5 37.7,75.6 37.7,75.7 37.6,75.8 37.5,75.9 37.5,76 
																			"/>
								</g>
							</g>
						</g>
					</g>
					<g id="section_77_">
						<g>
							<polyline id="background_00000149360864590472177040000014097257304959327413_" class="st5" points="-33,53 25.8,85.2 
								27.3,85.8 28.7,86.1 30.3,86.2 31.8,86.2 33.3,85.9 34.7,85.5 36.1,84.8 37.4,84 38.5,83 39.5,81.8 40.3,80.6 37.9,79.4 
								37.3,80.3 36.5,81.2 35.6,81.9 34.6,82.6 33.6,83 32.5,83.4 31.3,83.5 30.2,83.6 29,83.4 27.9,83.2 26.8,82.7 -31.7,50.7 
															"/>
						</g>
						<g>
							<g>
								<polyline id="background_00000099656582661400416220000012691921958923333252_" class="st6" points="-33,50 25.8,82.2 
									27.3,82.8 28.7,83.1 30.3,83.2 31.8,83.2 33.3,82.9 34.7,82.5 36.1,81.8 37.4,81 38.5,80 39.5,78.8 40.3,77.6 37.9,76.4 
									37.3,77.3 36.5,78.2 35.6,78.9 34.6,79.6 33.6,80 32.5,80.4 31.3,80.5 30.2,80.6 29,80.4 27.9,80.2 26.8,79.7 -31.7,47.7 
																	"/>
							</g>
						</g>
					</g>
					<g id="section_46_">
						<g>
							<path id="background_00000124136045263368635800000006974507783760202931_" class="st5" d="M2,99.5l0.9,5.5l0.5,1.4l0.7,1.4
								l0.8,1.3l1,1.1l1.1,1l1.3,0.8l1.4,0.7l1.4,0.5l1.5,0.3l1.5,0.1l1.5-0.1l1.5-0.3l1.4-0.5l1.3-0.7c4.4-2.2,2.5-4.5,8.7-4.4
								l-0.2-2.9c-5.3-0.8-7.1,3.7-10.1,5.2l-1,0.5l-1.1,0.4l-1.1,0.2l-1.2,0.1l-1.2-0.1l-1.1-0.2l-1.1-0.4l-1-0.5l-1-0.7l-0.9-0.8
								l-0.7-0.9l-0.6-1l-0.5-1.1l-0.3-1.1L1.5,92"/>
						</g>
						<g>
							<g>
								<path id="background_00000025404400430803390360000018238626087819031720_" class="st6" d="M2,96.5l0.9,5.5l0.5,1.4l0.7,1.4
									l0.8,1.3l1,1.1l1.1,1l1.3,0.8l1.4,0.7l1.4,0.5l1.5,0.3l1.5,0.1l1.5-0.1l1.5-0.3l1.4-0.5l1.3-0.7c4.4-2.2,2.5-4.5,8.7-4.4
									l-0.2-2.9c-5.3-0.8-7.1,3.7-10.1,5.2l-1,0.5l-1.1,0.4l-1.1,0.2l-1.2,0.1l-1.2-0.1l-1.1-0.2l-1.1-0.4l-1-0.5l-1-0.7l-0.9-0.8
									l-0.7-0.9l-0.6-1l-0.5-1.1l-0.3-1.1L1.5,89"/>
							</g>
						</g>
					</g>
					<g id="section_51_">
						<g>
							<polyline id="background_00000070815713576755284840000009996916081025277630_" class="st5" points="28.4,104.4 29.9,104.9 
								31.2,105.6 32.4,106.5 33.5,107.6 34.5,108.8 35.2,110.1 35.8,111.5 36.2,113 36.4,114.5 36.4,116 36.2,117.5 35.8,119 
								35.2,120.4 34.4,121.7 33.4,122.8 32.3,123.9 31.1,124.7 29.7,125.5 28.3,126 26.8,126.3 25.3,126.4 6.7,125.5 5.6,125.6 
								4.4,125.8 3.4,126.2 2.3,126.7 1.4,127.4 -5.6,134 -6.8,134.9 -8.1,135.6 -9.6,136.1 -11.1,136.4 -12.6,136.5 -14.1,136.4 
								-15.6,136.1 -17,135.7 -18.4,135 -19.6,134.1 -20.8,133.1 -21.7,131.9 -22.6,130.7 -23.2,129.3 -23.6,127.8 -21,127.4 
								-20.6,128.5 -20.1,129.5 -19.5,130.5 -18.7,131.4 -17.9,132.1 -16.9,132.7 -15.8,133.2 -14.7,133.6 -13.6,133.8 -12.4,133.8 
								-11.3,133.7 -10.2,133.5 -9.1,133.1 -8.1,132.5 -7.1,131.8 -0.5,125.5 0.8,124.6 2.1,123.8 3.5,123.3 5,122.9 6.5,122.8 
								25.4,123.7 26.6,123.6 27.7,123.4 28.8,122.9 29.8,122.4 30.7,121.7 31.6,120.9 32.3,120 32.9,119 33.3,117.9 33.6,116.8 
								33.7,115.6 33.7,114.5 33.6,113.3 33.2,112.2 32.8,111.2 32.2,110.2 31.4,109.3 30.6,108.5 29.6,107.8 28.6,107.3 
								27.5,106.9 							"/>
						</g>
						<g>
							<g>
								<polyline id="background_00000134243979176396769980000002627901734866348706_" class="st6" points="28.4,101.4 29.9,101.9 
									31.2,102.6 32.4,103.5 33.5,104.6 34.5,105.8 35.2,107.1 35.8,108.5 36.2,110 36.4,111.5 36.4,113 36.2,114.5 35.8,116 
									35.2,117.4 34.4,118.7 33.4,119.8 32.3,120.9 31.1,121.7 29.7,122.5 28.3,123 26.8,123.3 25.3,123.4 6.7,122.5 5.6,122.6 
									4.4,122.8 3.4,123.2 2.3,123.7 1.4,124.4 -5.6,131 -6.8,131.9 -8.1,132.6 -9.6,133.1 -11.1,133.4 -12.6,133.5 -14.1,133.4 
									-15.6,133.1 -17,132.7 -18.4,132 -19.6,131.1 -20.8,130.1 -21.7,128.9 -22.6,127.7 -23.2,126.3 -23.6,124.8 -21,124.4 
									-20.6,125.5 -20.1,126.5 -19.5,127.5 -18.7,128.4 -17.9,129.1 -16.9,129.7 -15.8,130.2 -14.7,130.6 -13.6,130.8 
									-12.4,130.8 -11.3,130.7 -10.2,130.5 -9.1,130.1 -8.1,129.5 -7.1,128.8 -0.5,122.5 0.8,121.6 2.1,120.8 3.5,120.3 5,119.9 
									6.5,119.8 25.4,120.7 26.6,120.6 27.7,120.4 28.8,119.9 29.8,119.4 30.7,118.7 31.6,117.9 32.3,117 32.9,116 33.3,114.9 
									33.6,113.8 33.7,112.6 33.7,111.5 33.6,110.3 33.2,109.2 32.8,108.2 32.2,107.2 31.4,106.3 30.6,105.5 29.6,104.8 
									28.6,104.3 27.5,103.9 								"/>
							</g>
						</g>
					</g>
					<g id="section_54_">
						<g>
							<polyline id="background_00000007427050716913678680000003295113355653827738_" class="st5" points="-6.2,96.4 11.7,86.9 
								12.9,86 14,84.9 15,83.7 15.7,82.4 16.3,81 16.7,79.5 16.9,78 16.9,76.5 16.7,75 16.3,73.6 15.6,72.2 14.9,70.9 13.9,69.7 
								12.8,68.6 2.1,60.9 1.2,60.1 -0.9,61.8 0.2,62.9 11.2,70.8 12.1,71.6 12.8,72.5 13.4,73.5 13.8,74.6 14.1,75.7 14.2,76.9 
								14.2,78 14.1,79.2 13.7,80.3 13.3,81.4 12.7,82.3 11.9,83.2 11.1,84 10.1,84.7 -7.4,94 							"/>
						</g>
						<g>
							<g>
								<polyline id="background_00000176018544463461340690000012361391985223233449_" class="st6" points="-6.2,93.4 11.7,83.9 
									12.9,83 14,81.9 15,80.7 15.7,79.4 16.3,78 16.7,76.5 16.9,75 16.9,73.5 16.7,72 16.3,70.6 15.6,69.2 14.9,67.9 13.9,66.7 
									12.8,65.6 2.1,57.9 1.2,57.1 -0.9,58.8 0.2,59.9 11.2,67.8 12.1,68.6 12.8,69.5 13.4,70.5 13.8,71.6 14.1,72.7 14.2,73.9 
									14.2,75 14.1,76.2 13.7,77.3 13.3,78.4 12.7,79.3 11.9,80.2 11.1,81 10.1,81.7 -7.4,91 								"/>
							</g>
						</g>
					</g>
					<g id="section_1_">
						<g>
							<polyline id="background_00000032623010551679022120000001430025564707894673_" class="st5" points="45.5,139.3 37.5,120.7 
								36.7,119.4 35.7,118.2 34.6,117.2 33.4,116.3 32,115.6 30.6,115.1 29.1,114.8 27.6,114.7 26.1,114.7 24.6,115 23.2,115.5 
								21.8,116.2 20.6,117.1 19.4,118.1 10.8,128.1 10,128.9 11.5,131.1 12.6,130.1 21.5,119.8 22.3,119.1 23.3,118.4 24.3,117.9 
								25.4,117.6 26.6,117.4 27.7,117.3 28.9,117.4 30,117.7 31.1,118.1 32.1,118.7 33.1,119.4 33.9,120.2 34.6,121.1 35.2,122.1 
								43.1,140.3 							"/>
						</g>
						<g>
							<g>
								<polyline id="background_00000167360662733994955920000017301389433497839789_" class="st6" points="45.5,136.3 37.5,117.7 
									36.7,116.4 35.7,115.2 34.6,114.2 33.4,113.3 32,112.6 30.6,112.1 29.1,111.8 27.6,111.7 26.1,111.7 24.6,112 23.2,112.5 
									21.8,113.2 20.6,114.1 19.4,115.1 10.8,125.1 10,125.9 11.5,128.1 12.6,127.1 21.5,116.8 22.3,116.1 23.3,115.4 24.3,114.9 
									25.4,114.6 26.6,114.4 27.7,114.3 28.9,114.4 30,114.7 31.1,115.1 32.1,115.7 33.1,116.4 33.9,117.2 34.6,118.1 35.2,119.1 
									43.1,137.3 								"/>
							</g>
						</g>
					</g>
					<g id="section_56_">
						<g>
							<polyline id="background_00000040542227362211844690000005669383053128847549_" class="st5" points="-13.5,84.1 -12.3,83.9 
								-11.2,83.8 -10,84 35.1,95.8 36.2,96.2 37.2,96.8 38.1,97.5 39,98.3 39.7,99.2 40.2,100.3 40.7,101.3 48.1,132.4 48.2,133.6 
								48.2,134.7 48,135.9 47.7,137 47.2,138 46.6,139 45.8,139.9 44.9,140.7 44,141.3 42.9,141.8 41.9,142.2 40.7,142.4 
								39.6,142.5 38.4,142.4 37.3,142.2 36.2,141.8 35.2,141.3 34.2,140.6 32.4,142.5 33.6,143.4 34.9,144.2 36.3,144.7 37.8,145 
								39.3,145.2 40.8,145.1 42.3,144.9 43.8,144.4 45.2,143.7 46.4,142.9 47.6,141.9 48.6,140.8 49.4,139.5 50.1,138.1 
								50.5,136.7 50.8,135.2 50.9,133.7 50.7,132.2 43.3,100.7 42.7,99.3 42,98 41.1,96.7 40.1,95.6 38.9,94.7 37.6,93.9 
								36.2,93.3 -9.3,81.4 -10.9,81.2 -12.4,81.2 -13.9,81.4 							"/>
						</g>
						<g>
							<g>
								<polyline id="background_00000133514274491791631510000004349134683707200177_" class="st6" points="-13.5,81.1 -12.3,80.9 
									-11.2,80.8 -10,81 35.1,92.8 36.2,93.2 37.2,93.8 38.1,94.5 39,95.3 39.7,96.2 40.2,97.3 40.7,98.3 48.1,129.4 48.2,130.6 
									48.2,131.7 48,132.9 47.7,134 47.2,135 46.6,136 45.8,136.9 44.9,137.7 44,138.3 42.9,138.8 41.9,139.2 40.7,139.4 
									39.6,139.5 38.4,139.4 37.3,139.2 36.2,138.8 35.2,138.3 34.2,137.6 32.4,139.5 33.6,140.4 34.9,141.2 36.3,141.7 37.8,142 
									39.3,142.2 40.8,142.1 42.3,141.9 43.8,141.4 45.2,140.7 46.4,139.9 47.6,138.9 48.6,137.8 49.4,136.5 50.1,135.1 
									50.5,133.7 50.8,132.2 50.9,130.7 50.7,129.2 43.3,97.7 42.7,96.3 42,95 41.1,93.7 40.1,92.6 38.9,91.7 37.6,90.9 
									36.2,90.3 -9.3,78.4 -10.9,78.2 -12.4,78.2 -13.9,78.4 								"/>
							</g>
						</g>
					</g>
					<g id="background_57_">
						<g>
							<polygon class="st7" points="15.5,59.6 28.3,62.5 29.4,62.9 30.5,63.4 31.4,64.1 32.3,64.9 33,65.8 33.6,66.8 34.1,67.8 
								34.4,68.9 34.5,70.1 34.5,71.2 34.4,72.4 34.1,73.5 33.6,74.6 33.1,75.6 32.3,76.5 31.5,77.3 30.6,78 29.6,78.5 28.5,78.9 
								27.3,79.2 27.6,81.9 29,81.6 30.5,81.1 31.8,80.4 33.1,79.5 34.2,78.4 35.1,77.3 35.9,76 36.6,74.6 37,73.1 37.2,71.6 
								37.2,70.1 37,68.6 36.6,67.1 36.1,65.7 35.3,64.4 34.3,63.2 33.3,62.2 32,61.2 30.7,60.5 29.3,60 16,57 14.9,56.6 13.9,56.2 
								12.9,55.6 12,54.8 11.2,54 10.5,53 10,52 9.6,50.9 9.4,49.8 9.3,48.6 9.3,47.5 9.6,46.3 9.9,45.2 10.5,44.2 11.1,43.3 
								11.9,42.4 12.8,41.6 13.7,41 14.8,40.5 15.9,40.2 17.1,40 18.2,40 19.4,40.1 20.5,40.4 21.6,40.8 22.6,41.4 23.5,42.1 
								24.3,42.9 25,43.8 27.4,42.5 26.5,41.3 25.4,40.2 24.2,39.3 22.9,38.5 21.5,37.9 20,37.5 18.5,37.3 17,37.3 15.5,37.6 14,38 
								12.7,38.6 11.4,39.4 10.2,40.3 9.1,41.4 8.3,42.7 7.6,44 7,45.5 6.7,46.9 6.6,48.5 6.7,50 7,51.5 7.5,52.9 8.1,54.3 9,55.5 
								10,56.6 11.2,57.6 12.5,58.4 13.8,59.1 15.3,59.5 							"/>
							<polygon class="st9" points="15.5,59.6 28.3,62.5 29.4,62.9 30.5,63.4 31.4,64.1 32.3,64.9 33,65.8 33.6,66.8 34.1,67.8 
								34.4,68.9 34.5,70.1 34.5,71.2 34.4,72.4 34.1,73.5 33.6,74.6 33.1,75.6 32.3,76.5 31.5,77.3 30.6,78 29.6,78.5 28.5,78.9 
								27.3,79.2 27.6,81.9 29,81.6 30.5,81.1 31.8,80.4 33.1,79.5 34.2,78.4 35.1,77.3 35.9,76 36.6,74.6 37,73.1 37.2,71.6 
								37.2,70.1 37,68.6 36.6,67.1 36.1,65.7 35.3,64.4 34.3,63.2 33.3,62.2 32,61.2 30.7,60.5 29.3,60 16,57 14.9,56.6 13.9,56.2 
								12.9,55.6 12,54.8 11.2,54 10.5,53 10,52 9.6,50.9 9.4,49.8 9.3,48.6 9.3,47.5 9.6,46.3 9.9,45.2 10.5,44.2 11.1,43.3 
								11.9,42.4 12.8,41.6 13.7,41 14.8,40.5 15.9,40.2 17.1,40 18.2,40 19.4,40.1 20.5,40.4 21.6,40.8 22.6,41.4 23.5,42.1 
								24.3,42.9 25,43.8 27.4,42.5 26.5,41.3 25.4,40.2 24.2,39.3 22.9,38.5 21.5,37.9 20,37.5 18.5,37.3 17,37.3 15.5,37.6 14,38 
								12.7,38.6 11.4,39.4 10.2,40.3 9.1,41.4 8.3,42.7 7.6,44 7,45.5 6.7,46.9 6.6,48.5 6.7,50 7,51.5 7.5,52.9 8.1,54.3 9,55.5 
								10,56.6 11.2,57.6 12.5,58.4 13.8,59.1 15.3,59.5 							"/>
						</g>
						<g>
							<polygon class="st8" points="15.5,56.6 28.3,59.5 29.4,59.9 30.5,60.4 31.4,61.1 32.3,61.9 33,62.8 33.6,63.8 34.1,64.8 
								34.4,65.9 34.5,67.1 34.5,68.2 34.4,69.4 34.1,70.5 33.6,71.6 33.1,72.6 32.3,73.5 31.5,74.3 30.6,75 29.6,75.5 28.5,75.9 
								27.3,76.2 27.6,78.9 29,78.6 30.5,78.1 31.8,77.4 33.1,76.5 34.2,75.4 35.1,74.3 35.9,73 36.6,71.6 37,70.1 37.2,68.6 
								37.2,67.1 37,65.6 36.6,64.1 36.1,62.7 35.3,61.4 34.3,60.2 33.3,59.2 32,58.2 30.7,57.5 29.3,57 16,54 14.9,53.6 13.9,53.2 
								12.9,52.6 12,51.8 11.2,51 10.5,50 10,49 9.6,47.9 9.4,46.8 9.3,45.6 9.3,44.5 9.6,43.3 9.9,42.2 10.5,41.2 11.1,40.3 
								11.9,39.4 12.8,38.6 13.7,38 14.8,37.5 15.9,37.2 17.1,37 18.2,37 19.4,37.1 20.5,37.4 21.6,37.8 22.6,38.4 23.5,39.1 
								24.3,39.9 25,40.8 27.4,39.5 26.5,38.3 25.4,37.2 24.2,36.3 22.9,35.5 21.5,34.9 20,34.5 18.5,34.3 17,34.3 15.5,34.6 14,35 
								12.7,35.6 11.4,36.4 10.2,37.3 9.1,38.4 8.3,39.7 7.6,41 7,42.5 6.7,43.9 6.6,45.5 6.7,47 7,48.5 7.5,49.9 8.1,51.3 9,52.5 
								10,53.6 11.2,54.6 12.5,55.4 13.8,56.1 15.3,56.5 							"/>
							<polygon class="st10" points="15.5,56.6 28.3,59.5 29.4,59.9 30.5,60.4 31.4,61.1 32.3,61.9 33,62.8 33.6,63.8 34.1,64.8 
								34.4,65.9 34.5,67.1 34.5,68.2 34.4,69.4 34.1,70.5 33.6,71.6 33.1,72.6 32.3,73.5 31.5,74.3 30.6,75 29.6,75.5 28.5,75.9 
								27.3,76.2 27.6,78.9 29,78.6 30.5,78.1 31.8,77.4 33.1,76.5 34.2,75.4 35.1,74.3 35.9,73 36.6,71.6 37,70.1 37.2,68.6 
								37.2,67.1 37,65.6 36.6,64.1 36.1,62.7 35.3,61.4 34.3,60.2 33.3,59.2 32,58.2 30.7,57.5 29.3,57 16,54 14.9,53.6 13.9,53.2 
								12.9,52.6 12,51.8 11.2,51 10.5,50 10,49 9.6,47.9 9.4,46.8 9.3,45.6 9.3,44.5 9.6,43.3 9.9,42.2 10.5,41.2 11.1,40.3 
								11.9,39.4 12.8,38.6 13.7,38 14.8,37.5 15.9,37.2 17.1,37 18.2,37 19.4,37.1 20.5,37.4 21.6,37.8 22.6,38.4 23.5,39.1 
								24.3,39.9 25,40.8 27.4,39.5 26.5,38.3 25.4,37.2 24.2,36.3 22.9,35.5 21.5,34.9 20,34.5 18.5,34.3 17,34.3 15.5,34.6 14,35 
								12.7,35.6 11.4,36.4 10.2,37.3 9.1,38.4 8.3,39.7 7.6,41 7,42.5 6.7,43.9 6.6,45.5 6.7,47 7,48.5 7.5,49.9 8.1,51.3 9,52.5 
								10,53.6 11.2,54.6 12.5,55.4 13.8,56.1 15.3,56.5 							"/>
						</g>
					</g>
					<g id="section_59_">
						<g>
							<path id="background_00000155845018131907964270000003066802227786933683_" class="st5" d="M53.3,41.5L52.9,40l-0.6-1.4
								l-0.8-1.3l-5.6-7.1l-1.1-1l-1.2-0.9l-1.3-0.7l-1.4-0.5l-1.5-0.3l-1.5-0.1l-1.5,0.1L34.7,27l-1.4,0.5l-1.4,0.7l-1.3,0.9
								l-1.1,1l-1,1.2l-2.1,3.2l-0.7,0.9l-0.9,0.8l-1,0.7l-1,0.5l-1.1,0.4L20.6,38l-1.2,0.1L18.3,38c0,0-1.9-0.6-3.6-2.9
								s-4.6-2.6-2.2,1.4s5.3,4.1,5.3,4.1l1.5,0.1l1.5-0.1l1.5-0.3l1.4-0.5l1.4-0.7l1.3-0.8l1.1-1l1-1.1l2.3-3.5l0.8-0.9l0.9-0.8
								l1-0.6l1-0.5l1.1-0.4l1.1-0.2l1.2-0.1l1.2,0.1l1.1,0.3l1.1,0.4l1,0.6l0.9,0.7l0.8,0.8l5.4,6.9l0.6,1l0.5,1.1l0.3,1.1"/>
						</g>
						<g>
							<g>
								<path id="background_00000045610091602217207980000011037207156254601395_" class="st6" d="M53.3,38.5L52.9,37l-0.6-1.4
									l-0.8-1.3l-5.6-7.1l-1.1-1l-1.2-0.9l-1.3-0.7l-1.4-0.5l-1.5-0.3l-1.5-0.1l-1.5,0.1L34.7,24l-1.4,0.5l-1.4,0.7l-1.3,0.9
									l-1.1,1l-1,1.2l-2.1,3.2l-0.7,0.9l-0.9,0.8l-1,0.7l-1,0.5l-1.1,0.4L20.6,35l-1.2,0.1L18.3,35c0,0-1.9-0.6-3.6-2.9
									s-4.6-2.6-2.2,1.4s5.3,4.1,5.3,4.1l1.5,0.1l1.5-0.1l1.5-0.3l1.4-0.5l1.4-0.7l1.3-0.8l1.1-1l1-1.1l2.3-3.5l0.8-0.9l0.9-0.8
									l1-0.6l1-0.5l1.1-0.4l1.1-0.2l1.2-0.1l1.2,0.1l1.1,0.3l1.1,0.4l1,0.6l0.9,0.7l0.8,0.8l5.4,6.9l0.6,1l0.5,1.1l0.3,1.1"/>
							</g>
						</g>
					</g>
					<g>
						<g id="section_61_">
							<g>
								<polyline id="background_00000072269194799270318680000015509026391413505414_" class="st5" points="27.2,58.4 35.9,37.4 
									47,8 44.5,7 33.4,36.4 24.7,57.4 								"/>
							</g>
							<g>
								<g>
									<polyline id="background_00000048464589271779357950000009187165151768608914_" class="st6" points="27.2,55.4 35.9,34.4 
										47,5 44.5,4 33.4,33.4 24.7,54.4 									"/>
								</g>
							</g>
						</g>
						<g id="section_62_">
							<g>
								<polyline id="background_00000019646326406283645720000003473365022072544429_" class="st5" points="29.8,103 31.2,102.4 
									32.6,101.7 33.8,100.8 34.9,99.7 35.8,98.5 36.5,97.2 37.1,95.8 37.5,94.3 37.7,92.8 37.6,91.3 37.4,89.8 36.9,88.3 
									36.3,86.9 35.5,85.7 34.5,84.5 33.4,83.5 32.2,82.6 26.4,79.6 25.4,79 24.6,78.2 23.8,77.3 23.2,76.3 22.7,75.3 22.4,74.2 
									22.2,73 22.2,71.9 22.3,70.7 22.6,69.6 26.7,59.7 27.2,58.4 24.7,57.4 24.2,58.7 20.1,68.6 19.7,70 19.5,71.5 19.5,73.1 
									19.7,74.6 20.1,76 20.7,77.4 21.5,78.7 22.5,79.9 23.6,80.9 24.8,81.8 30.9,85 31.9,85.7 32.7,86.5 33.4,87.4 34,88.4 
									34.5,89.4 34.8,90.5 35,91.7 35,92.8 34.8,94 34.5,95.1 34.1,96.2 33.5,97.2 32.7,98.1 31.9,98.9 31,99.6 30,100.1 
									28.9,100.5 								"/>
							</g>
							<g>
								<g>
									<polyline id="background_00000045610152189192563220000017059621608019135388_" class="st6" points="29.8,100 31.2,99.4 
										32.6,98.7 33.8,97.8 34.9,96.7 35.8,95.5 36.5,94.2 37.1,92.8 37.5,91.3 37.7,89.8 37.6,88.3 37.4,86.8 36.9,85.3 
										36.3,83.9 35.5,82.7 34.5,81.5 33.4,80.5 32.2,79.6 26.4,76.6 25.4,76 24.6,75.2 23.8,74.3 23.2,73.3 22.7,72.3 22.4,71.2 
										22.2,70 22.2,68.9 22.3,67.7 22.6,66.6 26.7,56.7 27.2,55.4 24.7,54.4 24.2,55.7 20.1,65.6 19.7,67 19.5,68.5 19.5,70.1 
										19.7,71.6 20.1,73 20.7,74.4 21.5,75.7 22.5,76.9 23.6,77.9 24.8,78.8 30.9,82 31.9,82.7 32.7,83.5 33.4,84.4 34,85.4 
										34.5,86.4 34.8,87.5 35,88.7 35,89.8 34.8,91 34.5,92.1 34.1,93.2 33.5,94.2 32.7,95.1 31.9,95.9 31,96.6 30,97.1 
										28.9,97.5 									"/>
								</g>
							</g>
						</g>
					</g>
					<g id="section_52_">
						<g>
							<path id="background_00000183210772487576999330000001258712637620157321_" class="st11" d="M-8.4,62.2l0.9,26.9l0.3,1.5
								l0.5,1.4l0.7,1.4l0.8,1.3l1,1.1l1.1,1l1.3,0.8l1.4,0.7L1,98.8l25.2,4.7c0,0,2.2,0.2,3.6-0.6l-1-2.5c-0.9,0.5-2.5,0.4-2.5,0.4
								L1.5,96.2l-1.1-0.4l-1-0.5l-1-0.7l-0.9-0.8L-3.2,93l-0.6-1L-4.3,91l-0.3-1.1l-0.2-1.1l-0.9-26.6"/>
						</g>
						<g>
							<g>
								<path id="background_00000165936759124305211620000002407262690358220978_" class="st12" d="M-8.4,59.2l0.9,26.9l0.3,1.5
									l0.5,1.4l0.7,1.4l0.8,1.3l1,1.1l1.1,1l1.3,0.8l1.4,0.7L1,95.8l25.2,4.7c0,0,2.2,0.2,3.6-0.6l-1-2.5
									c-0.9,0.5-2.5,0.4-2.5,0.4L1.5,93.2l-1.1-0.4l-1-0.5l-1-0.7l-0.9-0.8L-3.2,90l-0.6-1L-4.3,88l-0.3-1.1l-0.2-1.1l-0.9-26.6"
									/>
							</g>
						</g>
					</g>
					<g id="background_4_">
						<g>
							<polyline class="st7" points="15.5,95.4 17,95 18.4,94.3 19.7,93.5 20.8,92.5 21.8,91.4 22.7,90.2 23.4,88.8 23.9,87.4 
								26.6,74.4 26.9,73.3 27.4,72.3 28.1,71.3 40,58.4 40.9,57.2 41.6,55.8 42.1,54.4 42.4,52.9 42.4,51.4 42.3,49.8 42,48.3 
								41.5,46.9 40.8,45.6 39.9,44.3 38.9,43.2 37.7,42.3 36.4,41.5 35,40.8 33.6,40.4 32.1,40.2 30.6,40.2 29,40.4 27.6,40.8 
								28.6,43.2 29.7,43 30.9,42.8 32,42.9 33.2,43.1 34.3,43.4 35.3,43.9 36.3,44.5 37.2,45.3 38,46.1 38.6,47.1 39.1,48.1 
								39.5,49.2 39.7,50.4 39.8,51.5 39.7,52.7 39.4,53.8 39,54.9 38.5,55.9 37.8,56.9 26.1,69.5 25.2,70.8 24.5,72.1 24,73.5 
								21.3,86.8 20.9,87.9 20.3,88.9 19.6,89.9 18.8,90.7 17.9,91.5 17,92.1 15.9,92.5 14.8,92.8 							"/>
							<polyline class="st9" points="15.5,95.4 17,95 18.4,94.3 19.7,93.5 20.8,92.5 21.8,91.4 22.7,90.2 23.4,88.8 23.9,87.4 
								26.6,74.4 26.9,73.3 27.4,72.3 28.1,71.3 40,58.4 40.9,57.2 41.6,55.8 42.1,54.4 42.4,52.9 42.4,51.4 42.3,49.8 42,48.3 
								41.5,46.9 40.8,45.6 39.9,44.3 38.9,43.2 37.7,42.3 36.4,41.5 35,40.8 33.6,40.4 32.1,40.2 30.6,40.2 29,40.4 27.6,40.8 
								28.6,43.2 29.7,43 30.9,42.8 32,42.9 33.2,43.1 34.3,43.4 35.3,43.9 36.3,44.5 37.2,45.3 38,46.1 38.6,47.1 39.1,48.1 
								39.5,49.2 39.7,50.4 39.8,51.5 39.7,52.7 39.4,53.8 39,54.9 38.5,55.9 37.8,56.9 26.1,69.5 25.2,70.8 24.5,72.1 24,73.5 
								21.3,86.8 20.9,87.9 20.3,88.9 19.6,89.9 18.8,90.7 17.9,91.5 17,92.1 15.9,92.5 14.8,92.8 							"/>
						</g>
						<g>
							<polyline class="st8" points="15.5,92.4 17,92 18.4,91.3 19.7,90.5 20.8,89.5 21.8,88.4 22.7,87.2 23.4,85.8 23.9,84.4 
								26.6,71.4 26.9,70.3 27.4,69.3 28.1,68.3 40,55.4 40.9,54.2 41.6,52.8 42.1,51.4 42.4,49.9 42.4,48.4 42.3,46.8 42,45.3 
								41.5,43.9 40.8,42.6 39.9,41.3 38.9,40.2 37.7,39.3 36.4,38.5 35,37.8 33.6,37.4 32.1,37.2 30.6,37.2 29,37.4 27.6,37.8 
								28.6,40.2 29.7,40 30.9,39.8 32,39.9 33.2,40.1 34.3,40.4 35.3,40.9 36.3,41.5 37.2,42.3 38,43.1 38.6,44.1 39.1,45.1 
								39.5,46.2 39.7,47.4 39.8,48.5 39.7,49.7 39.4,50.8 39,51.9 38.5,52.9 37.8,53.9 26.1,66.5 25.2,67.8 24.5,69.1 24,70.5 
								21.3,83.8 20.9,84.9 20.3,85.9 19.6,86.9 18.8,87.7 17.9,88.5 17,89.1 15.9,89.5 14.8,89.8 							"/>
							<polyline class="st10" points="15.5,92.4 17,92 18.4,91.3 19.7,90.5 20.8,89.5 21.8,88.4 22.7,87.2 23.4,85.8 23.9,84.4 
								26.6,71.4 26.9,70.3 27.4,69.3 28.1,68.3 40,55.4 40.9,54.2 41.6,52.8 42.1,51.4 42.4,49.9 42.4,48.4 42.3,46.8 42,45.3 
								41.5,43.9 40.8,42.6 39.9,41.3 38.9,40.2 37.7,39.3 36.4,38.5 35,37.8 33.6,37.4 32.1,37.2 30.6,37.2 29,37.4 27.6,37.8 
								28.6,40.2 29.7,40 30.9,39.8 32,39.9 33.2,40.1 34.3,40.4 35.3,40.9 36.3,41.5 37.2,42.3 38,43.1 38.6,44.1 39.1,45.1 
								39.5,46.2 39.7,47.4 39.8,48.5 39.7,49.7 39.4,50.8 39,51.9 38.5,52.9 37.8,53.9 26.1,66.5 25.2,67.8 24.5,69.1 24,70.5 
								21.3,83.8 20.9,84.9 20.3,85.9 19.6,86.9 18.8,87.7 17.9,88.5 17,89.1 15.9,89.5 14.8,89.8 							"/>
						</g>
					</g>
					<g id="section_70_">
						<g>
							<polyline id="background_00000169516723030668983660000014831308307977711798_" class="st5" points="50.7,42.1 51,43.2 
								51.1,44.4 51.1,45.5 50.9,46.7 50.6,47.8 50.1,48.8 49.5,49.8 48.7,50.7 47.8,51.5 46.9,52.1 45.9,52.7 44.8,53 43.6,53.3 
								42.5,53.3 41.3,53.2 40.2,53 39.1,52.6 37.1,51.4 37.1,51.4 28.1,43.4 25.8,44.6 35.3,53.3 36.5,54.2 37.8,55 39.2,55.5 
								40.7,55.9 42.2,56 43.8,55.9 45.2,55.7 46.7,55.2 48.1,54.5 49.3,53.7 50.5,52.7 51.5,51.6 52.3,50.3 53,48.9 53.4,47.5 
								53.7,46 53.8,44.5 53.6,43 53.3,41.5 							"/>
						</g>
						<g>
							<g>
								<polyline id="background_00000024693105745028801280000007662839207975135392_" class="st6" points="50.7,39.1 51,40.2 
									51.1,41.4 51.1,42.5 50.9,43.7 50.6,44.8 50.1,45.8 49.5,46.8 48.7,47.7 47.8,48.5 46.9,49.1 45.9,49.7 44.8,50 43.6,50.3 
									42.5,50.3 41.3,50.2 40.2,50 39.1,49.6 37.1,48.4 37.1,48.4 28.1,40.4 25.8,41.6 35.3,50.3 36.5,51.2 37.8,52 39.2,52.5 
									40.7,52.9 42.2,53 43.8,52.9 45.2,52.7 46.7,52.2 48.1,51.5 49.3,50.7 50.5,49.7 51.5,48.6 52.3,47.3 53,45.9 53.4,44.5 
									53.7,43 53.8,41.5 53.6,40 53.3,38.5 								"/>
							</g>
						</g>
					</g>
					<g id="section_55_">
						<g>
							<polyline id="background_00000115478382615731431460000015129702932480785337_" class="st5" points="1.2,105 7.5,98.8 
								8.4,98 9.3,97.4 10.4,96.9 14.2,95.8 15.5,95.4 14.8,92.8 13.5,93.2 9.6,94.3 8.2,94.9 6.9,95.7 5.8,96.7 -0.7,103.1 							
								"/>
						</g>
						<g>
							<g>
								<polyline id="background_00000111162207531890975170000002756407476719641251_" class="st6" points="1.2,102 7.5,95.8 
									8.4,95 9.3,94.4 10.4,93.9 14.2,92.8 15.5,92.4 14.8,89.8 13.5,90.2 9.6,91.3 8.2,91.9 6.9,92.7 5.8,93.7 -0.7,100.1 
																	"/>
							</g>
						</g>
					</g>
					<g id="background_3_">
						<g>
							<path class="st7" d="M30.6,40.2L29,40.4l-1.5,0.4l-12.4,5l-1.2,0.5L0.7,51.7l0.7,2.6l13.5-5.5l1.2-0.5l12.4-5l1.1-0.3
								l1.2-0.1c0,0,1.9,0,2.7,0.4"/>
							<path class="st9" d="M30.6,40.2L29,40.4l-1.5,0.4l-12.4,5l-1.2,0.5L0.7,51.7l0.7,2.6l13.5-5.5l1.2-0.5l12.4-5l1.1-0.3
								l1.2-0.1c0,0,1.9,0,2.7,0.4"/>
						</g>
						<g>
							<path class="st8" d="M30.6,37.2L29,37.4l-1.5,0.4l-12.4,5l-1.2,0.5L0.7,48.7l0.7,2.6l13.5-5.5l1.2-0.5l12.4-5l1.1-0.3
								l1.2-0.1c0,0,1.9,0,2.7,0.4"/>
							<path class="st10" d="M30.6,37.2L29,37.4l-1.5,0.4l-12.4,5l-1.2,0.5L0.7,48.7l0.7,2.6l13.5-5.5l1.2-0.5l12.4-5l1.1-0.3
								l1.2-0.1c0,0,1.9,0,2.7,0.4"/>
						</g>
					</g>
				</g>
			</g>
			<g>
				<g class="st13">
					<path d="M86,94.2c0.4-0.6,1.1-1,1.8-1c0.4,0,0.8,0.1,1.1,0.3c1,0.6,1.3,1.9,0.7,2.9c-0.4,0.6-1.1,1-1.8,1
						c-0.4,0-0.8-0.1-1.1-0.3c-0.5-0.3-0.8-0.7-1-1.3C85.6,95.3,85.7,94.7,86,94.2z M98.6,116.6c-0.5,0.4-1,0.5-1.4,0.5
						c-0.6,0-1.2-0.3-1.6-0.7c-0.8-0.9-0.7-2.2,0.2-3c0.5-0.4,1-0.5,1.4-0.5c0.6,0,1.2,0.3,1.6,0.7c0.4,0.4,0.5,1,0.5,1.5
						C99.3,115.7,99,116.2,98.6,116.6z"/>
					<path d="M77.7,48.1c0.1,0,0.1,0,0.2,0C77.8,48.1,77.8,48.1,77.7,48.1z"/>
					<path d="M89.1,57.8c0.2-0.3,0.4-0.5,0.7-0.7c0.3-0.2,0.7-0.3,1.1-0.3c0.4,0,0.8,0.1,1.1,0.3c1,0.6,1.3,1.9,0.7,2.9
						c-0.4,0.6-1.1,1-1.8,1c-0.4,0-0.8-0.1-1.1-0.3C88.7,60.1,88.4,58.7,89.1,57.8z M95.4,37.6c-0.6,1-1.9,1.3-2.9,0.7l-0.1-0.1
						c-0.9-0.6-1.2-1.9-0.6-2.9c0.4-0.6,1.1-1,1.8-1c0.4,0,0.8,0.1,1.1,0.3c0.5,0.3,0.8,0.8,0.9,1.3C95.9,36.5,95.8,37.1,95.4,37.6z
						"/>
					<path d="M112.2,49.2c0.4-0.6,1.1-1,1.8-1c0.4,0,0.8,0.1,1.1,0.3c0.5,0.3,0.8,0.8,0.9,1.3c0.1,0.5,0,1.1-0.3,1.6
						c-0.6,1-1.9,1.3-2.9,0.7l-0.1-0.1C111.9,51.4,111.6,50.1,112.2,49.2z M112.2,72.6c0.4-0.6,1.1-1,1.8-1c0.4,0,0.8,0.1,1.1,0.3
						c0.5,0.3,0.8,0.8,0.9,1.3c0.1,0.5,0,1.1-0.3,1.6c-0.6,1-1.9,1.3-2.9,0.7l-0.1-0.1C111.9,74.8,111.6,73.6,112.2,72.6z
						 M112.2,98.9c0.4-0.6,1.1-1,1.8-1c0.4,0,0.8,0.1,1.1,0.3c0.5,0.3,0.8,0.8,0.9,1.3c0.1,0.5,0,1.1-0.3,1.6
						c-0.6,1-1.9,1.3-2.9,0.7l-0.1-0.1C111.9,101.1,111.6,99.9,112.2,98.9z"/>
					<path d="M101.9,108.6c-1.2-1.4-2.9-2.1-4.6-2.1c-1.5,0-2.9,0.5-4,1.5c-1.6,1.4-2.3,3.4-2.1,5.4c-1.9,0.7-4.3,1.4-5.3,1.3
						c-0.8,0-1.3-0.3-2.2-1c-1.2-0.8-2.4-1.5-4.1-1.8c2.9-2.8,6-6.8,8.6-12.8c2.1-0.1,4-1.2,5-3c1.7-2.9,0.8-6.7-2.1-8.4
						c-0.9-0.6-2-0.9-3.1-0.9c-2.1,0-4.2,1.1-5.3,3c-0.8,1.4-1.1,3-0.7,4.6c0.4,1.4,1.2,2.6,2.3,3.4c-4.1,9.2-9.2,13.1-12.6,14.7
						c-0.1,0-0.2,0.1-0.4,0.2c-1.2,0.5-2,0.7-2.6,0.8v4c0.3,0,1.9-0.1,4.2-1.2c5.3-1.4,6.8-0.4,8.4,0.7c1,0.7,2.3,1.6,4.3,1.7
						c0.1,0,0.2,0,0.3,0c2.1,0,5.2-1,7-1.7c1.1,1.1,2.7,1.8,4.3,1.8l0,0c1.5,0,2.9-0.5,4-1.5c1.2-1.1,2-2.5,2.1-4.2
						C103.4,111.4,102.9,109.8,101.9,108.6z M86,91.8c0.4-0.6,1.1-1,1.8-1c0.4,0,0.8,0.1,1.1,0.3c1,0.6,1.3,1.9,0.7,2.9
						c-0.4,0.6-1.1,1-1.8,1c-0.4,0-0.8-0.1-1.1-0.3c-0.5-0.3-0.8-0.7-1-1.3C85.6,92.9,85.7,92.3,86,91.8z M98.6,114.2
						c-0.5,0.4-1,0.5-1.4,0.5c-0.6,0-1.2-0.3-1.6-0.7c-0.8-0.9-0.7-2.2,0.2-3c0.5-0.4,1-0.5,1.4-0.5c0.6,0,1.2,0.3,1.6,0.7
						c0.4,0.4,0.5,1,0.5,1.5C99.3,113.3,99,113.8,98.6,114.2z"/>
					<path d="M77.7,45.7c0.1,0,0.1,0,0.2,0C77.8,45.7,77.8,45.7,77.7,45.7z"/>
					<path d="M99.6,32.7c-0.4-1.6-1.3-3-2.7-3.8c-1-0.6-2.1-0.9-3.3-0.9c-2.1,0-4.1,1.1-5.2,2.8c-1.4,2.1-1.2,4.8,0.1,6.8
						c-3.6,4.1-8.7,4.3-9.9,4.3c-3.7-1.6-7.2-2.2-10-2.3v4c2.4,0.1,5.6,0.7,8.7,2.1c0,0,0,0,0,0c3.4,1.6,6.3,3.9,8.6,7
						c-0.1,0.2-0.3,0.4-0.4,0.5c-1.8,2.9-0.9,6.6,1.9,8.4c1,0.6,2.1,1,3.3,1c2.1,0,4.1-1.1,5.2-2.9c1.8-2.9,1-6.6-1.9-8.5
						c-1.4-0.9-3.1-1.1-4.7-0.8c-1.5-2.2-3.3-4-5.3-5.6c2.5-0.8,5.4-2.3,7.8-5.1c0.6,0.2,1.2,0.3,1.8,0.3c2.1,0,4.1-1.1,5.2-2.8
						C99.7,35.9,100,34.3,99.6,32.7z M89.1,55.4c0.2-0.3,0.4-0.5,0.7-0.7c0.3-0.2,0.7-0.3,1.1-0.3c0.4,0,0.8,0.1,1.1,0.3
						c1,0.6,1.3,1.9,0.7,2.9c-0.4,0.6-1.1,1-1.8,1c-0.4,0-0.8-0.1-1.1-0.3C88.7,57.7,88.4,56.3,89.1,55.4z M95.4,35.2
						c-0.6,1-1.9,1.3-2.9,0.7l-0.1-0.1c-0.9-0.6-1.2-1.9-0.6-2.9c0.4-0.6,1.1-1,1.8-1c0.4,0,0.8,0.1,1.1,0.3
						c0.5,0.3,0.8,0.8,0.9,1.3C95.9,34.1,95.8,34.7,95.4,35.2z"/>
					<path d="M108.3,73.7c0.4,1,1.1,2,2.1,2.6c0.1,0.1,0.2,0.1,0.3,0.2c1,0.6,2.1,0.9,3.3,0.9c2.1,0,4.1-1.1,5.2-2.8
						c0.9-1.4,1.2-3,0.8-4.6c-0.4-1.6-1.3-3-2.7-3.8c-1-0.6-2.1-0.9-3.3-0.9c-0.1,0-0.2,0-0.4,0c-0.7-3.2-0.9-7.8,0-11.3
						c0.1,0,0.2,0,0.3,0c2.1,0,4.1-1.1,5.2-2.8c0.9-1.4,1.2-3,0.8-4.6c-0.4-1.6-1.3-3-2.7-3.8c-1-0.6-2.1-0.9-3.3-0.9
						c-2.1,0-4.1,1.1-5.2,2.8c-1.6,2.5-1.1,5.8,1,7.8c0,0,0,0,0.1,0.1c-1.3,4.5-1.1,10.3,0,14.4c-0.1,0.1-0.3,0.3-0.4,0.4
						c-0.2,0.3-0.4,0.5-0.6,0.8c-0.3,0.5-0.6,1-0.7,1.6c-3.4,0.5-5.2,1.7-6.8,2.7c-2,1.3-4,2.6-9.6,2.7c-2-0.2-3.6-0.2-5.3-0.1
						c-1.4,0.1-2.9,0.1-4.8,0c-1.3-0.1-2.1-0.9-3.5-2.4c-1.8-2.1-4.2-4.6-9.4-5v4c3.3,0.3,4.8,1.9,6.4,3.7c1.5,1.7,3.2,3.6,6.3,3.8
						c2.1,0.1,3.8,0.1,5.2,0c2.5-0.1,4.5-0.2,7.9,0.7c2.6,0.6,12.1,9.7,14.8,14.3c-0.1,0.1-0.2,0.3-0.3,0.4c-1.7,2.8-1,6.4,1.6,8.3
						c0.1,0.1,0.2,0.1,0.3,0.2c1,0.6,2.1,0.9,3.3,0.9c2.1,0,4.1-1.1,5.2-2.8c0.9-1.4,1.2-3,0.8-4.6c-0.4-1.6-1.3-3-2.7-3.8
						c-1-0.6-2.1-0.9-3.3-0.9c-0.5,0-1,0.1-1.5,0.2c-2.6-4.2-8.7-10.5-13.2-13.8c1.8-0.6,3-1.4,4.2-2.2
						C104.9,74.8,106.1,74.1,108.3,73.7z M112.2,46.8c0.4-0.6,1.1-1,1.8-1c0.4,0,0.8,0.1,1.1,0.3c0.5,0.3,0.8,0.8,0.9,1.3
						c0.1,0.5,0,1.1-0.3,1.6c-0.6,1-1.9,1.3-2.9,0.7l-0.1-0.1C111.9,49,111.6,47.7,112.2,46.8z M112.2,70.2c0.4-0.6,1.1-1,1.8-1
						c0.4,0,0.8,0.1,1.1,0.3c0.5,0.3,0.8,0.8,0.9,1.3c0.1,0.5,0,1.1-0.3,1.6c-0.6,1-1.9,1.3-2.9,0.7l-0.1-0.1
						C111.9,72.4,111.6,71.2,112.2,70.2z M112.2,96.5c0.4-0.6,1.1-1,1.8-1c0.4,0,0.8,0.1,1.1,0.3c0.5,0.3,0.8,0.8,0.9,1.3
						c0.1,0.5,0,1.1-0.3,1.6c-0.6,1-1.9,1.3-2.9,0.7l-0.1-0.1C111.9,98.7,111.6,97.5,112.2,96.5z"/>
				</g>
				<g>
					<g>
						<path class="st14" d="M101.9,111.6c-1.2-1.4-2.9-2.1-4.6-2.1c-1.5,0-2.9,0.5-4,1.5c-1.6,1.4-2.3,3.4-2.1,5.4
							c-1.9,0.7-4.3,1.4-5.3,1.3c-0.8,0-1.3-0.3-2.2-1c-1.2-0.8-2.4-1.5-4.1-1.8c2.9-2.8,6-6.8,8.6-12.8c2.1-0.1,4-1.2,5-3
							c1.7-2.9,0.8-6.7-2.1-8.4c-0.9-0.6-2-0.9-3.1-0.9c-2.1,0-4.2,1.1-5.3,3c-0.8,1.4-1.1,3-0.7,4.6c0.4,1.4,1.2,2.6,2.3,3.4
							c-4.1,9.2-9.2,13.1-12.6,14.7c-0.1,0-0.2,0.1-0.4,0.2c-1.2,0.5-2,0.7-2.6,0.8v4c0.3,0,1.9-0.1,4.2-1.2
							c5.3-1.4,6.8-0.4,8.4,0.7c1,0.7,2.3,1.6,4.3,1.7c0.1,0,0.2,0,0.3,0c2.1,0,5.2-1,7-1.7c1.1,1.1,2.7,1.8,4.3,1.8l0,0
							c1.5,0,2.9-0.5,4-1.5c1.2-1.1,2-2.5,2.1-4.2C103.4,114.4,102.9,112.8,101.9,111.6z M86,94.8c0.4-0.6,1.1-1,1.8-1
							c0.4,0,0.8,0.1,1.1,0.3c1,0.6,1.3,1.9,0.7,2.9c-0.4,0.6-1.1,1-1.8,1c-0.4,0-0.8-0.1-1.1-0.3c-0.5-0.3-0.8-0.7-1-1.3
							C85.6,95.9,85.7,95.3,86,94.8z M98.6,117.2c-0.5,0.4-1,0.5-1.4,0.5c-0.6,0-1.2-0.3-1.6-0.7c-0.8-0.9-0.7-2.2,0.2-3
							c0.5-0.4,1-0.5,1.4-0.5c0.6,0,1.2,0.3,1.6,0.7c0.4,0.4,0.5,1,0.5,1.5C99.3,116.3,99,116.8,98.6,117.2z"/>
						<path d="M77.7,48.1c0.1,0,0.1,0,0.2,0C77.8,48.1,77.8,48.1,77.7,48.1z"/>
						<path class="st14" d="M99.6,34.7c-0.4-1.6-1.3-3-2.7-3.8c-1-0.6-2.1-0.9-3.3-0.9c-2.1,0-4.1,1.1-5.2,2.8
							c-1.4,2.1-1.2,4.8,0.1,6.8c-3.6,4.1-8.7,4.3-9.9,4.3c-3.7-1.6-7.2-2.2-10-2.3v4c2.4,0.1,5.6,0.7,8.7,2.1c0,0,0,0,0,0
							c3.4,1.6,6.3,3.9,8.6,7c-0.1,0.2-0.3,0.4-0.4,0.5c-1.8,2.9-0.9,6.6,1.9,8.4c1,0.6,2.1,1,3.3,1c2.1,0,4.1-1.1,5.2-2.9
							c1.8-2.9,1-6.6-1.9-8.5c-1.4-0.9-3.1-1.1-4.7-0.8c-1.5-2.2-3.3-4-5.3-5.6c2.5-0.8,5.4-2.3,7.8-5.1c0.6,0.2,1.2,0.3,1.8,0.3
							c2.1,0,4.1-1.1,5.2-2.8C99.7,37.9,100,36.3,99.6,34.7z M89.1,57.4c0.2-0.3,0.4-0.5,0.7-0.7c0.3-0.2,0.7-0.3,1.1-0.3
							c0.4,0,0.8,0.1,1.1,0.3c1,0.6,1.3,1.9,0.7,2.9c-0.4,0.6-1.1,1-1.8,1c-0.4,0-0.8-0.1-1.1-0.3C88.7,59.7,88.4,58.3,89.1,57.4z
							 M95.4,37.2c-0.6,1-1.9,1.3-2.9,0.7l-0.1-0.1c-0.9-0.6-1.2-1.9-0.6-2.9c0.4-0.6,1.1-1,1.8-1c0.4,0,0.8,0.1,1.1,0.3
							c0.5,0.3,0.8,0.8,0.9,1.3C95.9,36.1,95.8,36.7,95.4,37.2z"/>
						<path class="st14" d="M108.3,76.7c0.4,1,1.1,2,2.1,2.6c0.1,0.1,0.2,0.1,0.3,0.2c1,0.6,2.1,0.9,3.3,0.9c2.1,0,4.1-1.1,5.2-2.8
							c0.9-1.4,1.2-3,0.8-4.6c-0.4-1.6-1.3-3-2.7-3.8c-1-0.6-2.1-0.9-3.3-0.9c-0.1,0-0.2,0-0.4,0c-0.7-3.2-0.9-7.8,0-11.3
							c0.1,0,0.2,0,0.3,0c2.1,0,4.1-1.1,5.2-2.8c0.9-1.4,1.2-3,0.8-4.6c-0.4-1.6-1.3-3-2.7-3.8c-1-0.6-2.1-0.9-3.3-0.9
							c-2.1,0-4.1,1.1-5.2,2.8c-1.6,2.5-1.1,5.8,1,7.8c0,0,0,0,0.1,0.1c-1.3,4.5-1.1,10.3,0,14.4c-0.1,0.1-0.3,0.3-0.4,0.4
							c-0.2,0.3-0.4,0.5-0.6,0.8c-0.3,0.5-0.6,1-0.7,1.6c-3.4,0.5-5.2,1.7-6.8,2.7c-2,1.3-4,2.6-9.6,2.7c-2-0.2-3.6-0.2-5.3-0.1
							c-1.4,0.1-2.9,0.1-4.8,0c-1.3-0.1-2.1-0.9-3.5-2.4c-1.8-2.1-4.2-4.6-9.4-5v4c3.3,0.3,4.8,1.9,6.4,3.7c1.5,1.7,3.2,3.6,6.3,3.8
							c2.1,0.1,3.8,0.1,5.2,0c2.5-0.1,4.5-0.2,7.9,0.7c2.6,0.6,12.1,9.7,14.8,14.3c-0.1,0.1-0.2,0.3-0.3,0.4c-1.7,2.8-1,6.4,1.6,8.3
							c0.1,0.1,0.2,0.1,0.3,0.2c1,0.6,2.1,0.9,3.3,0.9c2.1,0,4.1-1.1,5.2-2.8c0.9-1.4,1.2-3,0.8-4.6c-0.4-1.6-1.3-3-2.7-3.8
							c-1-0.6-2.1-0.9-3.3-0.9c-0.5,0-1,0.1-1.5,0.2c-2.6-4.2-8.7-10.5-13.2-13.8c1.8-0.6,3-1.4,4.2-2.2
							C104.9,77.8,106.1,77.1,108.3,76.7z M112.2,49.8c0.4-0.6,1.1-1,1.8-1c0.4,0,0.8,0.1,1.1,0.3c0.5,0.3,0.8,0.8,0.9,1.3
							c0.1,0.5,0,1.1-0.3,1.6c-0.6,1-1.9,1.3-2.9,0.7l-0.1-0.1C111.9,52,111.6,50.7,112.2,49.8z M112.2,73.2c0.4-0.6,1.1-1,1.8-1
							c0.4,0,0.8,0.1,1.1,0.3c0.5,0.3,0.8,0.8,0.9,1.3c0.1,0.5,0,1.1-0.3,1.6c-0.6,1-1.9,1.3-2.9,0.7l-0.1-0.1
							C111.9,75.4,111.6,74.2,112.2,73.2z M112.2,99.5c0.4-0.6,1.1-1,1.8-1c0.4,0,0.8,0.1,1.1,0.3c0.5,0.3,0.8,0.8,0.9,1.3
							c0.1,0.5,0,1.1-0.3,1.6c-0.6,1-1.9,1.3-2.9,0.7l-0.1-0.1C111.9,101.7,111.6,100.5,112.2,99.5z"/>
					</g>
					<g>
						<path class="st8" d="M101.9,108.6c-1.2-1.4-2.9-2.1-4.6-2.1c-1.5,0-2.9,0.5-4,1.5c-1.6,1.4-2.3,3.4-2.1,5.4
							c-1.9,0.7-4.3,1.4-5.3,1.3c-0.8,0-1.3-0.3-2.2-1c-1.2-0.8-2.4-1.5-4.1-1.8c2.9-2.8,6-6.8,8.6-12.8c2.1-0.1,4-1.2,5-3
							c1.7-2.9,0.8-6.7-2.1-8.4c-0.9-0.6-2-0.9-3.1-0.9c-2.1,0-4.2,1.1-5.3,3c-0.8,1.4-1.1,3-0.7,4.6c0.4,1.4,1.2,2.6,2.3,3.4
							c-4.1,9.2-9.2,13.1-12.6,14.7c-0.1,0-0.2,0.1-0.4,0.2c-1.2,0.5-2,0.7-2.6,0.8v4c0.3,0,1.9-0.1,4.2-1.2
							c5.3-1.4,6.8-0.4,8.4,0.7c1,0.7,2.3,1.6,4.3,1.7c0.1,0,0.2,0,0.3,0c2.1,0,5.2-1,7-1.7c1.1,1.1,2.7,1.8,4.3,1.8l0,0
							c1.5,0,2.9-0.5,4-1.5c1.2-1.1,2-2.5,2.1-4.2C103.4,111.4,102.9,109.8,101.9,108.6z M86,91.8c0.4-0.6,1.1-1,1.8-1
							c0.4,0,0.8,0.1,1.1,0.3c1,0.6,1.3,1.9,0.7,2.9c-0.4,0.6-1.1,1-1.8,1c-0.4,0-0.8-0.1-1.1-0.3c-0.5-0.3-0.8-0.7-1-1.3
							C85.6,92.9,85.7,92.3,86,91.8z M98.6,114.2c-0.5,0.4-1,0.5-1.4,0.5c-0.6,0-1.2-0.3-1.6-0.7c-0.8-0.9-0.7-2.2,0.2-3
							c0.5-0.4,1-0.5,1.4-0.5c0.6,0,1.2,0.3,1.6,0.7c0.4,0.4,0.5,1,0.5,1.5C99.3,113.3,99,113.8,98.6,114.2z"/>
						<path class="st8" d="M77.7,45.7c0.1,0,0.1,0,0.2,0C77.8,45.7,77.8,45.7,77.7,45.7z"/>
						<path class="st8" d="M99.6,32.7c-0.4-1.6-1.3-3-2.7-3.8c-1-0.6-2.1-0.9-3.3-0.9c-2.1,0-4.1,1.1-5.2,2.8
							c-1.4,2.1-1.2,4.8,0.1,6.8c-3.6,4.1-8.7,4.3-9.9,4.3c-3.7-1.6-7.2-2.2-10-2.3v4c2.4,0.1,5.6,0.7,8.7,2.1c0,0,0,0,0,0
							c3.4,1.6,6.3,3.9,8.6,7c-0.1,0.2-0.3,0.4-0.4,0.5c-1.8,2.9-0.9,6.6,1.9,8.4c1,0.6,2.1,1,3.3,1c2.1,0,4.1-1.1,5.2-2.9
							c1.8-2.9,1-6.6-1.9-8.5c-1.4-0.9-3.1-1.1-4.7-0.8c-1.5-2.2-3.3-4-5.3-5.6c2.5-0.8,5.4-2.3,7.8-5.1c0.6,0.2,1.2,0.3,1.8,0.3
							c2.1,0,4.1-1.1,5.2-2.8C99.7,35.9,100,34.3,99.6,32.7z M89.1,55.4c0.2-0.3,0.4-0.5,0.7-0.7c0.3-0.2,0.7-0.3,1.1-0.3
							c0.4,0,0.8,0.1,1.1,0.3c1,0.6,1.3,1.9,0.7,2.9c-0.4,0.6-1.1,1-1.8,1c-0.4,0-0.8-0.1-1.1-0.3C88.7,57.7,88.4,56.3,89.1,55.4z
							 M95.4,35.2c-0.6,1-1.9,1.3-2.9,0.7l-0.1-0.1c-0.9-0.6-1.2-1.9-0.6-2.9c0.4-0.6,1.1-1,1.8-1c0.4,0,0.8,0.1,1.1,0.3
							c0.5,0.3,0.8,0.8,0.9,1.3C95.9,34.1,95.8,34.7,95.4,35.2z"/>
						<path class="st8" d="M108.3,73.7c0.4,1,1.1,2,2.1,2.6c0.1,0.1,0.2,0.1,0.3,0.2c1,0.6,2.1,0.9,3.3,0.9c2.1,0,4.1-1.1,5.2-2.8
							c0.9-1.4,1.2-3,0.8-4.6c-0.4-1.6-1.3-3-2.7-3.8c-1-0.6-2.1-0.9-3.3-0.9c-0.1,0-0.2,0-0.4,0c-0.7-3.2-0.9-7.8,0-11.3
							c0.1,0,0.2,0,0.3,0c2.1,0,4.1-1.1,5.2-2.8c0.9-1.4,1.2-3,0.8-4.6c-0.4-1.6-1.3-3-2.7-3.8c-1-0.6-2.1-0.9-3.3-0.9
							c-2.1,0-4.1,1.1-5.2,2.8c-1.6,2.5-1.1,5.8,1,7.8c0,0,0,0,0.1,0.1c-1.3,4.5-1.1,10.3,0,14.4c-0.1,0.1-0.3,0.3-0.4,0.4
							c-0.2,0.3-0.4,0.5-0.6,0.8c-0.3,0.5-0.6,1-0.7,1.6c-3.4,0.5-5.2,1.7-6.8,2.7c-2,1.3-4,2.6-9.6,2.7c-2-0.2-3.6-0.2-5.3-0.1
							c-1.4,0.1-2.9,0.1-4.8,0c-1.3-0.1-2.1-0.9-3.5-2.4c-1.8-2.1-4.2-4.6-9.4-5v4c3.3,0.3,4.8,1.9,6.4,3.7c1.5,1.7,3.2,3.6,6.3,3.8
							c2.1,0.1,3.8,0.1,5.2,0c2.5-0.1,4.5-0.2,7.9,0.7c2.6,0.6,12.1,9.7,14.8,14.3c-0.1,0.1-0.2,0.3-0.3,0.4c-1.7,2.8-1,6.4,1.6,8.3
							c0.1,0.1,0.2,0.1,0.3,0.2c1,0.6,2.1,0.9,3.3,0.9c2.1,0,4.1-1.1,5.2-2.8c0.9-1.4,1.2-3,0.8-4.6c-0.4-1.6-1.3-3-2.7-3.8
							c-1-0.6-2.1-0.9-3.3-0.9c-0.5,0-1,0.1-1.5,0.2c-2.6-4.2-8.7-10.5-13.2-13.8c1.8-0.6,3-1.4,4.2-2.2
							C104.9,74.8,106.1,74.1,108.3,73.7z M112.2,46.8c0.4-0.6,1.1-1,1.8-1c0.4,0,0.8,0.1,1.1,0.3c0.5,0.3,0.8,0.8,0.9,1.3
							c0.1,0.5,0,1.1-0.3,1.6c-0.6,1-1.9,1.3-2.9,0.7l-0.1-0.1C111.9,49,111.6,47.7,112.2,46.8z M112.2,70.2c0.4-0.6,1.1-1,1.8-1
							c0.4,0,0.8,0.1,1.1,0.3c0.5,0.3,0.8,0.8,0.9,1.3c0.1,0.5,0,1.1-0.3,1.6c-0.6,1-1.9,1.3-2.9,0.7l-0.1-0.1
							C111.9,72.4,111.6,71.2,112.2,70.2z M112.2,96.5c0.4-0.6,1.1-1,1.8-1c0.4,0,0.8,0.1,1.1,0.3c0.5,0.3,0.8,0.8,0.9,1.3
							c0.1,0.5,0,1.1-0.3,1.6c-0.6,1-1.9,1.3-2.9,0.7l-0.1-0.1C111.9,98.7,111.6,97.5,112.2,96.5z"/>
					</g>
				</g>
			</g>
		</g>
	</g>
	<g class="st15">
		<path class="st16" d="M180.6,86.5h0.3l9.5-38.6H207v54.6h-13.3V73.9h-0.3l-8.3,28.6h-8.9L168.4,75h-0.3v27.5h-13.3V47.9h16.4
			L180.6,86.5z"/>
		<path class="st16" d="M234.9,103.4c-5.9,0-10.5-1.9-14-5.8c-3.5-3.9-5.2-8.7-5.2-14.6v-6.6c0-6.3,1.6-11.5,4.8-15.5
			c3.2-4,7.6-6,13.3-6c5.5,0,9.7,1.8,12.7,5.5c3,3.7,4.5,8.6,4.5,14.9v7.5h-23.1v0.2c0,3.1,0.7,5.6,2.1,7.6c1.4,2,3.5,3,6.3,3
			c2.3,0,4.2-0.3,5.6-0.8c1.4-0.5,3.1-1.4,5.1-2.6l3.1,7.8c-1.6,1.6-3.8,2.8-6.4,3.8C241.1,102.9,238.1,103.4,234.9,103.4z
			 M233.8,64.8c-2,0-3.4,0.9-4.3,2.7c-0.9,1.8-1.4,4.2-1.6,7.2h11V73c0-2.6-0.4-4.6-1.2-6C237,65.5,235.7,64.8,233.8,64.8z"/>
		<path class="st16" d="M277.5,90.3c0-1.3-0.5-2.5-1.6-3.4c-1-1-3-2.1-6-3.6c-4.7-1.8-8.2-3.7-10.5-6c-2.3-2.2-3.5-5.1-3.5-8.6
			c0-3.8,1.5-7,4.5-9.7c3-2.7,7-4,11.9-4c5.2,0,9.3,1.4,12.4,4.1c3.1,2.8,4.6,6.3,4.4,10.6l-0.1,0.3h-11.8c0-2-0.4-3.5-1.2-4.7
			c-0.8-1.1-2-1.7-3.7-1.7c-1.3,0-2.4,0.4-3.4,1.3c-0.9,0.9-1.4,2-1.4,3.2c0,1.4,0.5,2.5,1.4,3.3c0.9,0.8,2.9,2,6,3.5
			c4.9,1.7,8.5,3.6,10.9,5.9c2.4,2.3,3.5,5.3,3.5,9c0,4-1.6,7.2-4.7,9.7c-3.2,2.5-7.3,3.8-12.5,3.8c-5.4,0-9.6-1.6-12.8-4.7
			c-3.1-3.1-4.6-6.7-4.5-10.6l0.1-0.3h11.2c0.1,2.5,0.6,4.3,1.7,5.3c1.1,1.1,2.6,1.6,4.5,1.6c1.6,0,2.9-0.4,3.8-1.2
			C277.1,92.8,277.5,91.7,277.5,90.3z"/>
		<path class="st16" d="M315.8,90.3c0-1.3-0.5-2.5-1.6-3.4c-1-1-3-2.1-6-3.6c-4.7-1.8-8.2-3.7-10.5-6c-2.3-2.2-3.5-5.1-3.5-8.6
			c0-3.8,1.5-7,4.5-9.7c3-2.7,7-4,11.9-4c5.2,0,9.3,1.4,12.4,4.1c3.1,2.8,4.6,6.3,4.4,10.6l-0.1,0.3h-11.8c0-2-0.4-3.5-1.2-4.7
			c-0.8-1.1-2-1.7-3.7-1.7c-1.3,0-2.4,0.4-3.4,1.3c-0.9,0.9-1.4,2-1.4,3.2c0,1.4,0.5,2.5,1.4,3.3c0.9,0.8,2.9,2,6,3.5
			c4.9,1.7,8.5,3.6,10.9,5.9c2.4,2.3,3.5,5.3,3.5,9c0,4-1.6,7.2-4.7,9.7c-3.2,2.5-7.3,3.8-12.5,3.8c-5.4,0-9.6-1.6-12.8-4.7
			c-3.1-3.1-4.6-6.7-4.5-10.6l0.1-0.3h11.2c0.1,2.5,0.6,4.3,1.7,5.3c1.1,1.1,2.6,1.6,4.5,1.6c1.6,0,2.9-0.4,3.8-1.2
			C315.4,92.8,315.8,91.7,315.8,90.3z"/>
		<path class="st16" d="M348.8,83.4l0.1,0.5l6.8-28h13.1L353,109.5c-1.2,3.4-2.8,6.2-4.7,8.4c-2,2.3-5,3.4-9,3.4
			c-1,0-1.9-0.1-2.7-0.3c-0.8-0.2-1.8-0.4-3.1-0.8l1.4-9.1c0.5,0.1,0.8,0.2,1.1,0.2c0.2,0,0.5,0.1,0.7,0.1c1.8,0,3.1-0.5,4-1.4
			c0.9-0.9,1.6-2.2,2-3.7l1.1-3.5l-13.8-47h13.2L348.8,83.4z"/>
		<path class="st17" d="M374.1,102.5V47.9h19.4c5.8,0,10.3,1.3,13.6,3.8c3.2,2.5,4.9,6.3,4.9,11.3c0,2.6-0.7,4.9-2.2,7
			c-1.5,2-3.6,3.6-6.3,4.6c3.6,0.8,6.3,2.3,8.1,4.5c1.8,2.2,2.7,4.9,2.7,8c0,5.1-1.5,8.9-4.6,11.5c-3.1,2.6-7.5,3.9-13.4,3.9H374.1z
			 M387.4,70.6h6.3c1.6,0,2.8-0.5,3.6-1.5c0.8-1,1.2-2.4,1.2-4.3c0-2.2-0.4-3.8-1.3-4.8c-0.8-1-2.1-1.5-3.8-1.5h-6.1V70.6z
			 M387.4,79.3v12.6h8.9c1.8,0,3-0.5,3.7-1.4c0.7-0.9,1-2.4,1-4.5c0-2.3-0.3-4-1-5.1c-0.7-1.1-1.9-1.6-3.7-1.6H387.4z"/>
		<path class="st17" d="M443.4,67l-4.6-0.1c-1.3,0-2.4,0.3-3.2,0.9c-0.8,0.6-1.5,1.5-2,2.7v32h-12.2V55.8h11.4l0.5,6.3l0.2,0.1
			c0.7-2.2,1.8-4,3.1-5.3c1.3-1.3,2.9-1.9,4.7-1.9c0.5,0,1.1,0.1,1.7,0.2c0.6,0.1,1.2,0.2,1.6,0.4L443.4,67z"/>
		<path class="st17" d="M472.4,102.5c-0.3-0.8-0.7-1.6-0.9-2.5c-0.3-0.9-0.5-1.9-0.6-2.8c-1.1,1.9-2.6,3.4-4.2,4.5
			c-1.7,1.1-3.6,1.7-5.8,1.7c-3.9,0-6.9-1.3-9.2-3.8c-2.3-2.5-3.5-5.9-3.5-10.1c0-4.6,1.5-8.1,4.4-10.7c2.9-2.5,7.3-3.8,13.1-3.8
			h4.6v-3.8c0-2.3-0.4-4-1.2-5.2c-0.8-1.2-2-1.8-3.7-1.8c-1.4,0-2.4,0.5-3.1,1.5c-0.7,1-1,2.4-1,4.3l-11.9,0l-0.1-0.3
			c-0.1-4.1,1.4-7.5,4.5-10.3c3.1-2.8,7.3-4.3,12.4-4.3c4.9,0,8.8,1.4,11.8,4.2c3,2.8,4.5,6.9,4.5,12.1v18.9c0,2.3,0.2,4.4,0.5,6.4
			c0.3,2,0.8,3.9,1.5,5.9H472.4z M464.4,94.2c1.2,0,2.4-0.3,3.4-1c1-0.7,1.9-1.5,2.5-2.5v-8.6h-4.6c-1.9,0-3.2,0.6-4.1,1.9
			c-0.8,1.3-1.3,2.9-1.3,4.9c0,1.6,0.4,2.8,1.1,3.8C462.2,93.7,463.1,94.2,464.4,94.2z"/>
		<path class="st17" d="M503.1,44.6h-12.2v-9.4h12.2V44.6z M503.1,102.5h-12.2V55.8h12.2V102.5z"/>
		<path class="st17" d="M522.9,55.8l0.5,6.4c1.3-2.3,2.9-4.1,4.8-5.4c1.9-1.3,4-1.9,6.2-1.9c3.9,0,6.9,1.5,9.2,4.5
			c2.2,3,3.3,7.7,3.3,14.1v28.9h-12.3v-29c0-3.2-0.5-5.5-1.4-6.8c-0.9-1.3-2.3-2-4.2-2c-1.1,0-2.1,0.3-3,0.9
			c-0.9,0.6-1.7,1.4-2.3,2.4v34.5h-12.2V55.8H522.9z"/>
		<path class="st17" d="M567.5,92.7h18.2v9.8h-32.3v-7.3l17.8-29.6h-17.2v-9.8h31.5V63L567.5,92.7z"/>
	</g>
</g>
</svg>
