<?xml version="1.0" encoding="UTF-8"?><svg xmlns="http://www.w3.org/2000/svg" xmlns:xlink="http://www.w3.org/1999/xlink" viewBox="0 0 603 150"><defs><style>.bu{filter:url(#j);}.bv{filter:url(#au);}.bw{filter:url(#ab);}.bx{mix-blend-mode:multiply;opacity:.07;}.by{isolation:isolate;}.c`,.ca,.cb,.cc,.cd,.ce{fill:#fffedb;}.ca,.cb,.cc,.cf,.cd,.ce{stroke-width:1.5px;}.ca,.cb,.cc,.cd,.ce{stroke:#fffedb;}.cg{filter:url(#bc);}.ch{filter:url(#c);}.cb{stroke-linecap:square;stroke-linejoin:round;}.ci{fill:#b50437;}.cj{filter:url(#x);}.ck{filter:url(#aj);}.cl{filter:url(#aq);}.cc{filter:url(#an);}.cm{filter:url(#m);}.cn{clip-path:url(#b);}.co{filter:url(#t);}.cp{filter:url(#bj);}.cq{filter:url(#p);}.cf{fill:#8e0324;stroke:#8e0324;}.cr{filter:url(#af);}.cs{filter:url(#ay);}.ct{fill:none;}.cu{fill:#d3562c;}.cd{filter:url(#bg);}.ce{filter:url(#br);}.cv{fill:#eb743b;}.cw{filter:url(#bn);}</style><clipPath id="b"><polygon class="ct" points="7.68 108.93 7.68 40.72 63.68 8.51 63.68 141.01 7.68 108.93"/></clipPath><filter id="c" filterUnits="userSpaceOnUse"><feOffset dx="0" dy="3"/><feGaussianBlur result="d" stdDeviation="0"/><feFlood flood-color="#8e0324" flood-opacity="1"/><feComposite in2="d" operator="in"/><feComposite in="SourceGraphic"/></filter><filter id="j" filterUnits="userSpaceOnUse"><feOffset dx="0" dy="3"/><feGaussianBlur result="k" stdDeviation="0"/><feFlood flood-color="#8e0324" flood-opacity="1"/><feComposite in2="k" operator="in"/><feComposite in="SourceGraphic"/></filter><filter id="m" filterUnits="userSpaceOnUse"><feOffset dx="0" dy="3"/><feGaussianBlur result="n" stdDeviation="0"/><feFlood flood-color="#8e0324" flood-opacity="1"/><feComposite in2="n" operator="in"/><feComposite in="SourceGraphic"/></filter><filter id="p" filterUnits="userSpaceOnUse"><feOffset dx="0" dy="3"/><feGaussianBlur result="q" stdDeviation="0"/><feFlood flood-color="#8e0324" flood-opacity="1"/><feComposite in2="q" operator="in"/><feComposite in="SourceGraphic"/></filter><filter id="t" filterUnits="userSpaceOnUse"><feOffset dx="0" dy="3"/><feGaussianBlur result="u" stdDeviation="0"/><feFlood flood-color="#8e0324" flood-opacity="1"/><feComposite in2="u" operator="in"/><feComposite in="SourceGraphic"/></filter><filter id="x" filterUnits="userSpaceOnUse"><feOffset dx="0" dy="3"/><feGaussianBlur result="y" stdDeviation="0"/><feFlood flood-color="#8e0324" flood-opacity="1"/><feComposite in2="y" operator="in"/><feComposite in="SourceGraphic"/></filter><filter id="ab" filterUnits="userSpaceOnUse"><feOffset dx="0" dy="3"/><feGaussianBlur result="ac" stdDeviation="0"/><feFlood flood-color="#8e0324" flood-opacity="1"/><feComposite in2="ac" operator="in"/><feComposite in="SourceGraphic"/></filter><filter id="af" filterUnits="userSpaceOnUse"><feOffset dx="0" dy="3"/><feGaussianBlur result="ag" stdDeviation="0"/><feFlood flood-color="#8e0324" flood-opacity="1"/><feComposite in2="ag" operator="in"/><feComposite in="SourceGraphic"/></filter><filter id="aj" filterUnits="userSpaceOnUse"><feOffset dx="0" dy="3"/><feGaussianBlur result="ak" stdDeviation="0"/><feFlood flood-color="#8e0324" flood-opacity="1"/><feComposite in2="ak" operator="in"/><feComposite in="SourceGraphic"/></filter><filter id="an" filterUnits="userSpaceOnUse"><feOffset dx="0" dy="3"/><feGaussianBlur result="ao" stdDeviation="0"/><feFlood flood-color="#8e0324" flood-opacity="1"/><feComposite in2="ao" operator="in"/><feComposite in="SourceGraphic"/></filter><filter id="aq" filterUnits="userSpaceOnUse"><feOffset dx="0" dy="3"/><feGaussianBlur result="ar" stdDeviation="0"/><feFlood flood-color="#8e0324" flood-opacity="1"/><feComposite in2="ar" operator="in"/><feComposite in="SourceGraphic"/></filter><filter id="au" filterUnits="userSpaceOnUse"><feOffset dx="0" dy="3"/><feGaussianBlur result="av" stdDeviation="0"/><feFlood flood-color="#8e0324" flood-opacity="1"/><feComposite in2="av" operator="in"/><feComposite in="SourceGraphic"/></filter><filter id="ay" filterUnits="userSpaceOnUse"><feOffset dx="0" dy="3"/><feGaussianBlur result="b`" stdDeviation="0"/><feFlood flood-color="#8e0324" flood-opacity="1"/><feComposite in2="b`" operator="in"/><feComposite in="SourceGraphic"/></filter><filter id="bc" filterUnits="userSpaceOnUse"><feOffset dx="0" dy="3"/><feGaussianBlur result="bd" stdDeviation="0"/><feFlood flood-color="#8e0324" flood-opacity="1"/><feComposite in2="bd" operator="in"/><feComposite in="SourceGraphic"/></filter><filter id="bg" filterUnits="userSpaceOnUse"><feOffset dx="0" dy="3"/><feGaussianBlur result="bh" stdDeviation="0"/><feFlood flood-color="#8e0324" flood-opacity="1"/><feComposite in2="bh" operator="in"/><feComposite in="SourceGraphic"/></filter><filter id="bj" filterUnits="userSpaceOnUse"><feOffset dx="0" dy="3"/><feGaussianBlur result="bk" stdDeviation="0"/><feFlood flood-color="#8e0324" flood-opacity="1"/><feComposite in2="bk" operator="in"/><feComposite in="SourceGraphic"/></filter><filter id="bn" filterUnits="userSpaceOnUse"><feOffset dx="0" dy="3"/><feGaussianBlur result="bo" stdDeviation="0"/><feFlood flood-color="#8e0324" flood-opacity="1"/><feComposite in2="bo" operator="in"/><feComposite in="SourceGraphic"/></filter><filter id="br" filterUnits="userSpaceOnUse"><feOffset dx="0" dy="3"/><feGaussianBlur result="bs" stdDeviation="0"/><feFlood flood-color="#8e0324" flood-opacity="1"/><feComposite in2="bs" operator="in"/><feComposite in="SourceGraphic"/></filter></defs><g class="by"><g id="a"><g><g><polygon class="cv" points="68.68 2.82 68.68 146.82 129.68 111.82 129.68 37.82 68.68 2.82"/><polygon class="ci" points="63.68 2.82 2.68 37.82 2.68 111.82 63.68 146.82 63.68 2.82"/><g class="cn"><g><g id="e" class="ch"><polyline id="f" class="ca" points="1.77 42.36 .85 43.06 .03 43.87 -.68 44.8 -1.25 45.8 -1.68 46.88 -1.96 48 -2.09 49.16 -2.06 50.31 -1.88 51.46 -1.54 52.57 -1.06 53.62 -.44 54.6 .31 55.49 1.17 56.27 2.12 56.92 3.16 57.44 4.25 57.82 5.39 58.04 6.55 58.11 7.7 58.03 8.84 57.79 9.93 57.4 10.95 56.86 11.9 56.19 12.75 55.4 13.48 54.5 14.09 53.52 14.56 52.46 14.87 50.8 15.22 49.51 17.8 50.22 17.45 51.51 17.14 53.17 16.55 54.57 15.78 55.88 14.84 57.08 13.75 58.13 12.52 59.03 11.19 59.76 9.77 60.3 8.29 60.64 6.77 60.78 5.26 60.72 3.76 60.45 2.31 59.98 .94 59.33 -.33 58.49 -1.47 57.49 -2.47 56.35 -3.31 55.08 -3.97 53.71 -4.43 52.26 -4.7 50.77 -4.77 49.25 -4.63 47.74 -4.28 46.26 -3.75 44.83 -3.02 43.5 -2.12 42.27 -1.07 41.18 .13 40.24"/></g><g id="g"><polyline id="h" class="cf" points="14.87 58.08 15.89 56.96 16.75 55.71 17.44 54.35 17.93 52.91 18.23 51.42 18.32 49.91 18.21 48.39 17.9 46.9 17.38 45.47 16.68 44.12 15.81 42.88 14.77 41.77 13.6 40.8 12.3 40.01 10.92 39.39 9.46 38.97 7.95 38.75 -10.79 38.38 -12.13 38.36 -12.18 41.04 -10.85 41.06 7.9 41.43 9.04 41.62 10.15 41.96 11.2 42.45 12.18 43.07 13.06 43.83 13.83 44.69 14.48 45.65 15 46.69 15.37 47.79 15.59 48.92 15.65 50.08 15.56 51.24 15.31 52.37 14.91 53.46 14.37 54.48 13.7 55.42 12.9 56.27"/><polyline id="i" class="ca" points="14.87 55.08 15.89 53.96 16.75 52.71 17.44 51.35 17.93 49.91 18.23 48.42 18.32 46.91 18.21 45.39 17.9 43.9 17.38 42.47 16.68 41.12 15.81 39.88 14.77 38.77 13.6 37.8 12.3 37.01 10.92 36.39 9.46 35.97 7.95 35.75 -10.79 35.38 -12.13 35.36 -12.18 38.04 -10.85 38.06 7.9 38.43 9.04 38.62 10.15 38.96 11.2 39.45 12.18 40.07 13.06 40.83 13.83 41.69 14.48 42.65 15 43.69 15.37 44.79 15.59 45.92 15.65 47.08 15.56 48.24 15.31 49.37 14.91 50.46 14.37 51.48 13.7 52.42 12.9 53.27"/></g><g><g class="bu"><polyline id="l" class="c`" points="44.04 74.8 44.25 74.64 44.47 74.49 44.7 74.34 44.94 74.18 46.19 73.47 46.48 73.31 46.79 73.16 47.12 73.01 47.49 72.87 47.78 72.76 47.99 72.7 48.09 72.66 48.19 72.63 48.3 72.6 48.41 72.57 48.53 72.54 48.65 72.5 48.78 72.47 50.74 72.03 50.91 71.99 51.09 71.96 51.28 71.93 51.47 71.9 51.68 71.87 51.89 71.85 52.11 71.84 52.35 71.82 52.59 71.82 68.06 71.81 68.68 71.81 68.68 67.82 68.05 67.82 52.59 67.83 52.24 67.84 51.91 67.86 51.59 67.88 51.28 67.91 50.99 67.95 50.71 67.99 50.44 68.03 50.18 68.08 49.93 68.13 47.9 68.59 47.72 68.63 47.54 68.68 47.37 68.72 47.21 68.77 47.06 68.81 46.91 68.86 46.77 68.9 46.52 68.99 46.15 69.12 45.67 69.31 45.2 69.51 44.75 69.72 44.33 69.95 42.96 70.73 42.61 70.95 42.28 71.16 41.96 71.38 41.67 71.6"/></g><g class="cm"><polyline id="o" class="c`" points="40.98 78.21 41.01 78.14 41.05 78.07 41.09 77.99 41.14 77.92 41.19 77.84 41.24 77.75 41.29 77.67 41.34 77.58 41.4 77.49 41.47 77.39 41.53 77.29 41.6 77.19 41.68 77.09 41.76 76.98 41.84 76.87 41.93 76.75 42.03 76.64 42.13 76.52 42.24 76.39 42.35 76.26 42.47 76.14 42.6 76 42.74 75.87 42.88 75.73 43.04 75.59 43.2 75.45 43.37 75.3 43.56 75.16 43.8 74.98 44.04 74.8 41.67 71.6 41.42 71.78 41.18 71.96 40.92 72.17 40.67 72.37 40.43 72.58 40.21 72.78 40 72.97 39.8 73.17 39.62 73.36 39.44 73.54 39.28 73.72 39.12 73.9 38.98 74.07 38.84 74.24 38.71 74.4 38.59 74.56 38.48 74.72 38.37 74.86 38.27 75.01 38.17 75.15 38.08 75.29 38 75.42 37.92 75.55 37.84 75.67 37.77 75.79 37.7 75.9 37.64 76.01 37.58 76.12 37.52 76.22 37.47 76.32"/></g></g><g id="r" class="cq"><polyline id="s" class="ca" points="-32.99 50.32 25.83 82.54 27.25 83.08 28.73 83.43 30.24 83.57 31.76 83.51 33.26 83.24 34.7 82.78 36.08 82.13 37.35 81.29 38.49 80.3 39.49 79.15 40.33 77.89 37.93 76.7 37.27 77.66 36.49 78.51 35.6 79.26 34.62 79.87 33.57 80.35 32.46 80.69 31.31 80.87 30.16 80.89 29 80.76 27.88 80.48 26.81 80.04 -31.68 47.98"/></g><g id="v" class="co"><path id="w" class="ca" d="M1.95,96.82l.94,5.46,.47,1.45,.66,1.37,.84,1.27,1,1.15,1.14,1,1.27,.84,1.37,.66,1.45,.47,1.5,.27,1.52,.07,1.51-.14,1.48-.34,1.42-.54,1.34-.73c4.4-2.17,2.53-4.48,8.74-4.45l-.16-2.9c-5.31-.76-7.11,3.68-10.15,5.18l-1.03,.53-1.09,.39-1.13,.24-1.16,.09-1.16-.07-1.14-.23-1.1-.38-1.04-.52-.96-.66-.86-.78-.75-.89-.62-.98-.48-1.05-.34-1.11-3.93-12.15"/></g><g id="a`" class="cj"><polyline id="aa" class="ca" points="28.43 101.7 29.85 102.24 31.18 102.97 32.41 103.87 33.5 104.92 34.44 106.11 35.21 107.42 35.8 108.82 36.2 110.29 36.39 111.8 36.38 113.32 36.16 114.82 35.75 116.29 35.14 117.68 34.35 118.97 33.39 120.15 32.28 121.19 31.04 122.07 29.69 122.78 28.26 123.29 26.78 123.62 25.26 123.73 6.72 122.8 5.56 122.88 4.43 123.13 3.34 123.52 2.31 124.05 1.36 124.72 -5.57 131.3 -6.8 132.18 -8.15 132.89 -9.58 133.4 -11.07 133.72 -12.58 133.84 -14.1 133.75 -15.59 133.46 -17.03 132.97 -18.39 132.29 -19.64 131.44 -20.77 130.42 -21.75 129.26 -22.57 127.98 -23.21 126.6 -23.65 125.15 -21.01 124.69 -20.65 125.8 -20.15 126.84 -19.51 127.8 -18.74 128.67 -17.87 129.43 -16.9 130.07 -15.85 130.57 -14.75 130.92 -13.61 131.12 -12.45 131.17 -11.29 131.06 -10.17 130.79 -9.08 130.38 -8.07 129.82 -7.13 129.13 -.48 122.78 .74 121.88 2.08 121.16 3.5 120.61 4.98 120.27 6.49 120.13 25.4 121.06 26.55 120.95 27.68 120.68 28.76 120.27 29.78 119.71 30.71 119.02 31.54 118.21 32.25 117.3 32.84 116.3 33.28 115.23 33.58 114.11 33.72 112.96 33.71 111.8 33.54 110.65 33.22 109.54 32.75 108.48 32.15 107.49 31.41 106.6 30.56 105.81 29.62 105.14 28.59 104.61 27.5 104.22"/></g><g id="ad" class="bw"><polyline id="ae" class="ca" points="-6.2 93.73 11.68 84.19 12.9 83.29 14 82.24 14.94 81.04 15.71 79.73 16.3 78.33 16.69 76.87 16.89 75.36 16.88 73.84 16.66 72.33 16.24 70.87 15.63 69.48 14.84 68.18 13.88 67.01 12.77 65.97 2.06 58.24 1.21 57.45 -.88 59.12 .21 60.18 11.21 68.14 12.04 68.95 12.75 69.86 13.34 70.86 13.78 71.93 14.08 73.05 14.22 74.2 14.21 75.36 14.04 76.5 13.72 77.62 13.25 78.68 12.64 79.66 11.91 80.56 11.06 81.35 10.11 82.02 -7.46 91.37"/></g><g id="ah" class="cr"><polyline id="ai" class="ca" points="45.53 136.61 37.49 118.01 36.69 116.71 35.73 115.53 34.62 114.5 33.37 113.62 32.03 112.92 30.6 112.41 29.11 112.09 27.59 111.98 26.08 112.07 24.59 112.37 23.15 112.86 21.79 113.54 20.54 114.4 19.41 115.42 10.83 125.47 9.98 126.25 11.47 128.47 12.62 127.47 21.45 117.16 22.32 116.4 23.29 115.76 24.33 115.26 25.44 114.91 26.58 114.7 27.73 114.65 28.89 114.76 30.02 115.02 31.1 115.43 32.12 115.99 33.05 116.67 33.89 117.48 34.6 118.39 35.19 119.39 43.07 137.67"/></g><g id="al" class="ck"><polyline id="am" class="ca" points="-13.5 81.38 -12.35 81.19 -11.19 81.17 -10.04 81.29 35.13 93.12 36.21 93.55 37.21 94.12 38.14 94.83 38.95 95.65 39.66 96.57 40.23 97.58 40.66 98.65 48.07 129.74 48.2 130.9 48.17 132.05 47.98 133.2 47.64 134.31 47.16 135.36 46.54 136.34 45.79 137.22 44.93 138 43.97 138.65 42.94 139.17 41.84 139.55 40.7 139.77 39.54 139.84 38.39 139.75 37.26 139.51 36.17 139.11 35.14 138.58 34.19 137.91 32.34 139.84 33.57 140.75 34.9 141.47 36.32 142.02 37.8 142.36 39.31 142.51 40.83 142.45 42.33 142.18 43.77 141.72 45.15 141.06 46.42 140.23 47.56 139.23 48.57 138.09 49.4 136.82 50.06 135.45 50.53 134.01 50.81 132.51 50.87 130.99 50.74 129.48 43.26 98.03 42.72 96.61 42 95.27 41.1 94.05 40.05 92.95 38.86 92.01 37.55 91.24 36.15 90.64 -9.36 78.7 -10.87 78.51 -12.39 78.52 -13.89 78.73"/></g><polygon id="ap" class="cc" points="15.44 56.9 28.33 59.81 29.42 60.2 30.45 60.74 31.39 61.41 32.24 62.2 32.97 63.1 33.57 64.09 34.04 65.15 34.36 66.27 34.52 67.41 34.53 68.57 34.38 69.72 34.08 70.84 33.63 71.91 33.04 72.91 32.33 73.82 31.49 74.62 30.56 75.31 29.54 75.86 28.46 76.27 27.33 76.53 27.55 79.2 29.03 78.89 30.46 78.37 31.81 77.67 33.05 76.8 34.17 75.76 35.13 74.59 35.93 73.29 36.54 71.9 36.96 70.44 37.18 68.94 37.2 67.42 37.01 65.91 36.62 64.44 36.04 63.04 35.27 61.73 34.33 60.53 33.24 59.47 32.02 58.57 30.69 57.84 29.27 57.3 16.04 54.28 14.92 53.96 13.86 53.5 12.87 52.89 11.97 52.16 11.18 51.31 10.51 50.37 9.98 49.34 9.58 48.25 9.34 47.12 9.25 45.96 9.32 44.81 9.54 43.67 9.92 42.57 10.44 41.54 11.09 40.58 11.87 39.72 12.75 38.97 13.73 38.35 14.79 37.86 15.89 37.53 17.04 37.34 18.2 37.31 19.35 37.44 20.47 37.72 21.55 38.15 22.56 38.72 23.48 39.42 24.3 40.24 25 41.16 27.35 39.86 26.45 38.64 25.39 37.54 24.2 36.6 22.89 35.83 21.49 35.24 20.02 34.85 18.52 34.65 17 34.66 15.49 34.88 14.03 35.29 12.64 35.9 11.34 36.69 10.16 37.65 9.12 38.76 8.24 40 7.54 41.35 7.02 42.78 6.7 44.26 6.58 45.78 6.67 47.29 6.96 48.78 7.45 50.22 8.13 51.58 8.98 52.84 10 53.97 11.16 54.95 12.44 55.77 13.82 56.41 15.27 56.85 15.44 56.9"/><g id="as" class="cl"><path id="at" class="ca" d="M53.29,38.79l-.42-1.46-.62-1.39-.8-1.29-5.65-7.14-1.11-1.03-1.24-.87-1.35-.7-1.43-.51-1.49-.31-1.52-.11-1.52,.09-1.49,.3-1.44,.5-1.36,.69-1.25,.86-1.12,1.02-.98,1.16-2.06,3.24-.74,.89-.86,.78-.95,.66-1.03,.53-1.09,.38-1.14,.23-1.16,.08-1.16-.08s-1.92-.55-3.59-2.85-4.56-2.59-2.25,1.42,5.27,4.05,5.27,4.05l1.51,.13,1.52-.07,1.49-.27,1.44-.47,1.37-.66,1.27-.84,1.14-1,1-1.15,2.28-3.53,.76-.87,.87-.76,.97-.64,1.04-.5,1.1-.36,1.14-.21,1.16-.05,1.15,.11,1.13,.26,1.08,.41,1.02,.55,.94,.68,.83,.8,5.4,6.88,.59,1,.45,1.07,.3,1.12"/></g><g><g id="aw" class="bv"><polyline id="ax" class="ca" points="27.15 55.77 35.85 34.73 46.95 5.32 44.47 4.3 33.37 33.7 24.68 54.75"/></g><g id="ba" class="cs"><polyline id="bb" class="ca" points="29.82 100.33 31.23 99.77 32.56 99.03 33.77 98.11 34.85 97.04 35.77 95.84 36.53 94.52 37.1 93.11 37.47 91.64 37.64 90.13 37.61 88.61 37.37 87.1 36.94 85.65 36.31 84.27 35.5 82.98 34.52 81.81 33.4 80.79 32.15 79.93 26.35 76.95 25.4 76.29 24.54 75.52 23.79 74.63 23.17 73.65 22.69 72.6 22.35 71.49 22.17 70.34 22.14 69.18 22.27 68.03 22.55 66.91 26.64 57.01 27.15 55.77 24.68 54.75 24.17 55.98 20.08 65.89 19.68 67.35 19.48 68.86 19.49 70.38 19.7 71.88 20.12 73.35 20.72 74.74 21.51 76.04 22.47 77.22 23.58 78.26 24.81 79.14 30.92 82.31 31.86 82.98 32.7 83.78 33.43 84.68 34.03 85.67 34.49 86.74 34.8 87.85 34.96 89 34.96 90.16 34.81 91.31 34.51 92.43 34.05 93.49 33.46 94.49 32.74 95.4 31.9 96.2 30.96 96.88 29.94 97.43 28.85 97.83"/></g></g><g id="be" class="cg"><path id="bf" class="cb" d="M-8.38,59.53l.93,26.95,.27,1.5,.47,1.45,.66,1.37,.84,1.27,1,1.14,1.14,1,1.27,.84,1.37,.66,1.45,.47,25.19,4.72s2.18,.18,3.63-.56l-.96-2.5c-.9,.46-2.53,.39-2.53,.39L1.5,93.54l-1.1-.38-1.04-.52-.96-.66-.86-.78-.75-.89-.62-.98-.48-1.05-.34-1.11-.18-1.14-.89-26.59"/></g><polyline id="bi" class="cd" points="15.52 92.73 16.97 92.29 18.35 91.66 19.64 90.84 20.8 89.87 21.82 88.74 22.68 87.49 23.37 86.13 23.86 84.69 26.54 71.76 26.91 70.66 27.43 69.62 28.09 68.67 40 55.73 40.86 54.48 41.55 53.12 42.04 51.68 42.34 50.19 42.43 48.67 42.32 47.16 42.01 45.67 41.5 44.24 40.8 42.89 39.92 41.65 38.89 40.54 37.71 39.57 36.42 38.78 35.03 38.16 33.57 37.74 32.06 37.52 30.54 37.5 29.04 37.69 27.57 38.08 28.57 40.56 29.7 40.28 30.85 40.16 32.01 40.2 33.15 40.39 34.26 40.73 35.31 41.22 36.29 41.84 37.17 42.6 37.94 43.46 38.59 44.42 39.11 45.46 39.48 46.55 39.7 47.69 39.76 48.85 39.67 50.01 39.42 51.14 39.02 52.23 38.48 53.25 37.81 54.19 26.12 66.85 25.24 68.09 24.53 69.43 24.01 70.86 21.24 84.15 20.84 85.24 20.3 86.26 19.63 87.21 18.83 88.05 17.93 88.78 16.94 89.38 15.88 89.84 14.76 90.16"/><g id="bl" class="cp"><polyline id="bm" class="ca" points="50.68 39.42 50.96 40.54 51.09 41.69 51.06 42.85 50.88 44 50.54 45.11 50.06 46.16 49.44 47.14 48.69 48.02 47.83 48.8 46.88 49.46 45.84 49.98 44.74 50.35 43.61 50.58 42.45 50.65 41.3 50.56 40.16 50.32 39.07 49.93 37.1 48.72 37.1 48.72 28.1 40.75 25.76 41.9 35.25 50.66 36.47 51.56 37.81 52.29 39.23 52.83 40.71 53.18 42.22 53.32 43.74 53.25 45.24 52.99 46.68 52.52 48.05 51.86 49.32 51.03 50.47 50.03 51.47 48.89 52.31 47.62 52.96 46.25 53.43 44.8 53.7 43.31 53.77 41.79 53.63 40.28 53.29 38.79"/></g><g id="bp" class="cw"><polyline id="bq" class="ca" points="1.21 102.29 7.46 96.09 8.35 95.34 9.32 94.72 10.38 94.23 14.23 93.1 15.52 92.73 14.76 90.16 13.48 90.53 9.62 91.66 8.23 92.27 6.93 93.06 5.75 94.02 -.76 100.47"/></g><path id="bt" class="ce" d="M30.54,37.5l-1.51,.19-1.47,.39-12.41,5.04-1.24,.5L.72,49.05l.66,2.59,13.54-5.54,1.24-.5,12.41-5.04,1.13-.28,1.15-.12s1.89-.02,2.73,.36"/></g></g><g><g class="bx"><path d="M85.98,94.56c.39-.64,1.07-1.03,1.82-1.03,.38,0,.75,.1,1.08,.3,1,.6,1.33,1.9,.74,2.9-.38,.65-1.06,1.03-1.82,1.03-.38,0-.75-.1-1.08-.3-.48-.29-.83-.75-.96-1.29-.14-.55-.06-1.12,.23-1.6Zm12.6,22.36c-.49,.42-1.02,.51-1.37,.51-.62,0-1.21-.27-1.61-.73-.76-.88-.65-2.22,.23-2.98,.49-.42,1.02-.51,1.37-.51,.62,0,1.2,.27,1.61,.74,.37,.43,.55,.98,.5,1.54-.04,.56-.3,1.07-.73,1.44Z"/><path d="M77.68,48.43c.07,.02,.14,.03,.21,.05-.07-.01-.14-.03-.21-.05Z"/><path d="M89.06,58.08c.17-.27,.39-.49,.67-.66,.33-.21,.72-.32,1.12-.32s.79,.11,1.12,.32c.99,.63,1.28,1.94,.66,2.92-.39,.62-1.06,.99-1.79,.99-.4,0-.79-.11-1.12-.33-.98-.62-1.28-1.94-.66-2.92Zm6.38-20.19c-.6,.95-1.94,1.27-2.91,.65l-.1-.06c-.91-.65-1.16-1.9-.56-2.85,.39-.61,1.05-.98,1.78-.98,.4,0,.79,.11,1.12,.33,.48,.3,.81,.78,.94,1.33,.12,.55,.03,1.11-.28,1.58Z"/><path d="M112.2,49.49c.39-.61,1.05-.98,1.78-.98,.4,0,.79,.11,1.12,.33,.48,.3,.81,.78,.94,1.33,.12,.55,.02,1.11-.28,1.58-.6,.95-1.94,1.27-2.91,.65l-.09-.06c-.92-.65-1.16-1.9-.56-2.85Zm0,23.46c.39-.61,1.05-.98,1.78-.98,.4,0,.79,.11,1.12,.33,.48,.3,.81,.77,.94,1.33,.12,.55,.02,1.11-.28,1.58-.6,.95-1.94,1.27-2.91,.65l-.09-.06c-.92-.65-1.16-1.9-.56-2.85Zm0,26.3c.39-.61,1.05-.98,1.78-.98,.4,0,.79,.11,1.12,.33,.48,.3,.81,.78,.94,1.33,.12,.55,.02,1.11-.28,1.58-.6,.95-1.94,1.27-2.91,.65l-.09-.06c-.92-.65-1.16-1.9-.56-2.85Z"/><path d="M101.85,108.93c-1.17-1.36-2.86-2.14-4.65-2.14-1.46,0-2.88,.53-3.98,1.48-1.61,1.38-2.33,3.43-2.09,5.4-1.95,.7-4.26,1.37-5.33,1.33-.82-.04-1.3-.35-2.22-.97-1.17-.79-2.42-1.51-4.15-1.85,2.94-2.76,6.01-6.83,8.58-12.83,2.06-.08,3.98-1.19,5.04-2.97,1.72-2.9,.77-6.66-2.12-8.39-.95-.57-2.03-.86-3.13-.86-2.15,0-4.16,1.14-5.26,2.99-.84,1.41-1.08,3.05-.68,4.64,.35,1.39,1.16,2.59,2.3,3.43-4.05,9.22-9.22,13.08-12.57,14.68-.13,.04-.25,.1-.36,.17-1.19,.53-2.05,.7-2.56,.81v4c.28-.03,1.88-.12,4.25-1.19,5.35-1.36,6.84-.35,8.41,.71,1.02,.69,2.29,1.55,4.26,1.66,.1,0,.2,0,.31,0,2.11,0,5.17-1.02,7.02-1.72,1.14,1.12,2.68,1.75,4.29,1.75h0c1.46,0,2.88-.52,3.98-1.48,1.24-1.06,1.99-2.55,2.12-4.18,.12-1.63-.39-3.21-1.46-4.45Zm-15.87-16.78c.39-.64,1.07-1.03,1.82-1.03,.38,0,.75,.1,1.08,.3,1,.6,1.33,1.9,.74,2.9-.38,.65-1.06,1.03-1.82,1.03-.38,0-.75-.1-1.08-.3-.48-.29-.83-.75-.96-1.29-.14-.55-.06-1.12,.23-1.6Zm12.6,22.36c-.49,.42-1.02,.51-1.37,.51-.62,0-1.21-.27-1.61-.73-.76-.88-.65-2.22,.23-2.98,.49-.42,1.02-.51,1.37-.51,.62,0,1.2,.27,1.61,.74,.37,.43,.55,.98,.5,1.54-.04,.56-.3,1.07-.73,1.44Z"/><path d="M77.68,46.03c.07,.02,.14,.03,.21,.05-.07-.01-.14-.03-.21-.05Z"/><path d="M99.63,33.03c-.36-1.6-1.32-2.96-2.71-3.84-.98-.62-2.11-.94-3.26-.94-2.12,0-4.05,1.07-5.17,2.85-1.35,2.14-1.22,4.8,.14,6.76-3.65,4.12-8.71,4.31-9.94,4.29-3.69-1.6-7.23-2.16-10-2.32v4c2.44,.14,5.55,.69,8.75,2.14h.01c3.45,1.57,6.33,3.93,8.61,7.05-.14,.17-.26,.35-.38,.54-1.8,2.85-.94,6.64,1.9,8.44,.98,.62,2.11,.95,3.27,.95,2.11,0,4.05-1.07,5.18-2.85,1.81-2.85,.95-6.64-1.91-8.45-1.38-.87-3.09-1.11-4.67-.75-1.54-2.15-3.32-4.02-5.34-5.57,2.52-.78,5.4-2.27,7.78-5.1,.57,.17,1.17,.27,1.77,.27,2.12,0,4.05-1.07,5.17-2.85,.88-1.38,1.16-3.01,.8-4.6Zm-10.57,22.65c.17-.27,.39-.49,.67-.66,.33-.21,.72-.32,1.12-.32s.79,.11,1.12,.32c.99,.63,1.28,1.94,.66,2.92-.39,.62-1.06,.99-1.79,.99-.4,0-.79-.11-1.12-.33-.98-.62-1.28-1.94-.66-2.92Zm6.38-20.19c-.6,.95-1.94,1.27-2.91,.65l-.1-.06c-.91-.65-1.16-1.9-.56-2.85,.39-.61,1.05-.98,1.78-.98,.4,0,.79,.11,1.12,.33,.48,.3,.81,.78,.94,1.33,.12,.55,.03,1.11-.28,1.58Z"/><path d="M108.32,74.01c.42,1.04,1.14,1.96,2.11,2.65,.07,.05,.15,.11,.28,.19,.98,.62,2.11,.95,3.27,.95,2.12,0,4.05-1.07,5.17-2.85,.88-1.38,1.16-3.01,.8-4.6-.36-1.6-1.32-2.96-2.71-3.84-.98-.62-2.11-.94-3.27-.94-.12,0-.25,0-.38,.02-.71-3.16-.92-7.77,.04-11.26,.11,.01,.22,.02,.34,.02,2.12,0,4.05-1.07,5.17-2.85,.88-1.38,1.16-3.01,.8-4.6-.36-1.6-1.32-2.96-2.71-3.84-.98-.62-2.11-.94-3.27-.94-2.11,0-4.05,1.07-5.17,2.85-1.6,2.53-1.12,5.8,1.02,7.76,.02,.02,.05,.04,.07,.06-1.35,4.52-1.15,10.32-.04,14.42-.14,.13-.29,.25-.43,.4-.23,.25-.45,.53-.63,.82-.32,.5-.55,1.03-.71,1.58-3.37,.49-5.2,1.67-6.82,2.73-2.04,1.32-3.96,2.57-9.64,2.67-1.96-.23-3.55-.18-5.29-.12-1.43,.05-2.91,.11-4.85,0-1.33-.07-2.1-.88-3.46-2.42-1.8-2.05-4.22-4.65-9.37-5.02v4c3.29,.3,4.8,1.89,6.36,3.67,1.49,1.69,3.17,3.62,6.26,3.78,2.12,.11,3.76,.05,5.21,0,2.49-.09,4.45-.16,7.86,.68,2.61,.64,12.1,9.67,14.77,14.32-.11,.14-.22,.28-.31,.43-1.74,2.75-1.03,6.38,1.62,8.25,.07,.05,.15,.1,.28,.19,.98,.62,2.11,.95,3.27,.95,2.12,0,4.05-1.07,5.17-2.85,.88-1.37,1.16-3.01,.8-4.6-.36-1.6-1.32-2.96-2.71-3.84-.98-.62-2.11-.94-3.27-.94-.53,0-1.05,.07-1.54,.2-2.56-4.19-8.65-10.46-13.19-13.79,1.81-.63,3.05-1.43,4.21-2.19,1.43-.93,2.61-1.69,4.86-2.07Zm3.88-26.92c.39-.61,1.05-.98,1.78-.98,.4,0,.79,.11,1.12,.33,.48,.3,.81,.78,.94,1.33,.12,.55,.02,1.11-.28,1.58-.6,.95-1.94,1.27-2.91,.65l-.09-.06c-.92-.65-1.16-1.9-.56-2.85Zm0,23.46c.39-.61,1.05-.98,1.78-.98,.4,0,.79,.11,1.12,.33,.48,.3,.81,.77,.94,1.33,.12,.55,.02,1.11-.28,1.58-.6,.95-1.94,1.27-2.91,.65l-.09-.06c-.92-.65-1.16-1.9-.56-2.85Zm0,26.3c.39-.61,1.05-.98,1.78-.98,.4,0,.79,.11,1.12,.33,.48,.3,.81,.78,.94,1.33,.12,.55,.02,1.11-.28,1.58-.6,.95-1.94,1.27-2.91,.65l-.09-.06c-.92-.65-1.16-1.9-.56-2.85Z"/></g><g><g><path class="cu" d="M101.85,111.93c-1.17-1.36-2.86-2.14-4.65-2.14-1.46,0-2.88,.53-3.98,1.48-1.61,1.38-2.33,3.43-2.09,5.4-1.95,.7-4.26,1.37-5.33,1.33-.82-.04-1.3-.35-2.22-.97-1.17-.79-2.42-1.51-4.15-1.85,2.94-2.76,6.01-6.83,8.58-12.83,2.06-.08,3.98-1.19,5.04-2.97,1.72-2.9,.77-6.66-2.12-8.39-.95-.57-2.03-.86-3.13-.86-2.15,0-4.16,1.14-5.26,2.99-.84,1.41-1.08,3.05-.68,4.64,.35,1.39,1.16,2.59,2.3,3.43-4.05,9.22-9.22,13.08-12.57,14.68-.13,.04-.25,.1-.36,.17-1.19,.53-2.05,.7-2.56,.81v4c.28-.03,1.88-.12,4.25-1.19,5.35-1.36,6.84-.35,8.41,.71,1.02,.69,2.29,1.55,4.26,1.66,.1,0,.2,0,.31,0,2.11,0,5.17-1.02,7.02-1.72,1.14,1.12,2.68,1.75,4.29,1.75h0c1.46,0,2.88-.52,3.98-1.48,1.24-1.06,1.99-2.55,2.12-4.18,.12-1.63-.39-3.21-1.46-4.45Zm-15.87-16.78c.39-.64,1.07-1.03,1.82-1.03,.38,0,.75,.1,1.08,.3,1,.6,1.33,1.9,.74,2.9-.38,.65-1.06,1.03-1.82,1.03-.38,0-.75-.1-1.08-.3-.48-.29-.83-.75-.96-1.29-.14-.55-.06-1.12,.23-1.6Zm12.6,22.36c-.49,.42-1.02,.51-1.37,.51-.62,0-1.21-.27-1.61-.73-.76-.88-.65-2.22,.23-2.98,.49-.42,1.02-.51,1.37-.51,.62,0,1.2,.27,1.61,.74,.37,.43,.55,.98,.5,1.54-.04,.56-.3,1.07-.73,1.44Z"/><path d="M77.68,48.43c.07,.02,.14,.03,.21,.05-.07-.01-.14-.03-.21-.05Z"/><path class="cu" d="M99.63,35.03c-.36-1.6-1.32-2.96-2.71-3.84-.98-.62-2.11-.94-3.26-.94-2.12,0-4.05,1.07-5.17,2.85-1.35,2.14-1.22,4.8,.14,6.76-3.65,4.12-8.71,4.31-9.94,4.29-3.69-1.6-7.23-2.16-10-2.32v4c2.44,.14,5.55,.69,8.75,2.14h.01c3.45,1.57,6.33,3.93,8.61,7.05-.14,.17-.26,.35-.38,.54-1.8,2.85-.94,6.64,1.9,8.44,.98,.62,2.11,.95,3.27,.95,2.11,0,4.05-1.07,5.18-2.85,1.81-2.85,.95-6.64-1.91-8.45-1.38-.87-3.09-1.11-4.67-.75-1.54-2.15-3.32-4.02-5.34-5.57,2.52-.78,5.4-2.27,7.78-5.1,.57,.17,1.17,.27,1.77,.27,2.12,0,4.05-1.07,5.17-2.85,.88-1.38,1.16-3.01,.8-4.6Zm-10.57,22.65c.17-.27,.39-.49,.67-.66,.33-.21,.72-.32,1.12-.32s.79,.11,1.12,.32c.99,.63,1.28,1.94,.66,2.92-.39,.62-1.06,.99-1.79,.99-.4,0-.79-.11-1.12-.33-.98-.62-1.28-1.94-.66-2.92Zm6.38-20.19c-.6,.95-1.94,1.27-2.91,.65l-.1-.06c-.91-.65-1.16-1.9-.56-2.85,.39-.61,1.05-.98,1.78-.98,.4,0,.79,.11,1.12,.33,.48,.3,.81,.78,.94,1.33,.12,.55,.03,1.11-.28,1.58Z"/><path class="cu" d="M108.32,77.01c.42,1.04,1.14,1.96,2.11,2.65,.07,.05,.15,.11,.28,.19,.98,.62,2.11,.95,3.27,.95,2.12,0,4.05-1.07,5.17-2.85,.88-1.38,1.16-3.01,.8-4.6-.36-1.6-1.32-2.96-2.71-3.84-.98-.62-2.11-.94-3.27-.94-.12,0-.25,0-.38,.02-.71-3.16-.92-7.77,.04-11.26,.11,.01,.22,.02,.34,.02,2.12,0,4.05-1.07,5.17-2.85,.88-1.38,1.16-3.01,.8-4.6-.36-1.6-1.32-2.96-2.71-3.84-.98-.62-2.11-.94-3.27-.94-2.11,0-4.05,1.07-5.17,2.85-1.6,2.53-1.12,5.8,1.02,7.76,.02,.02,.05,.04,.07,.06-1.35,4.52-1.15,10.32-.04,14.42-.14,.13-.29,.25-.43,.4-.23,.25-.45,.53-.63,.82-.32,.5-.55,1.03-.71,1.58-3.37,.49-5.2,1.67-6.82,2.73-2.04,1.32-3.96,2.57-9.64,2.67-1.96-.23-3.55-.18-5.29-.12-1.43,.05-2.91,.11-4.85,0-1.33-.07-2.1-.88-3.46-2.42-1.8-2.05-4.22-4.65-9.37-5.02v4c3.29,.3,4.8,1.89,6.36,3.67,1.49,1.69,3.17,3.62,6.26,3.78,2.12,.11,3.76,.05,5.21,0,2.49-.09,4.45-.16,7.86,.68,2.61,.64,12.1,9.67,14.77,14.32-.11,.14-.22,.28-.31,.43-1.74,2.75-1.03,6.38,1.62,8.25,.07,.05,.15,.1,.28,.19,.98,.62,2.11,.95,3.27,.95,2.12,0,4.05-1.07,5.17-2.85,.88-1.37,1.16-3.01,.8-4.6-.36-1.6-1.32-2.96-2.71-3.84-.98-.62-2.11-.94-3.27-.94-.53,0-1.05,.07-1.54,.2-2.56-4.19-8.65-10.46-13.19-13.79,1.81-.63,3.05-1.43,4.21-2.19,1.43-.93,2.61-1.69,4.86-2.07Zm3.88-26.92c.39-.61,1.05-.98,1.78-.98,.4,0,.79,.11,1.12,.33,.48,.3,.81,.78,.94,1.33,.12,.55,.02,1.11-.28,1.58-.6,.95-1.94,1.27-2.91,.65l-.09-.06c-.92-.65-1.16-1.9-.56-2.85Zm0,23.46c.39-.61,1.05-.98,1.78-.98,.4,0,.79,.11,1.12,.33,.48,.3,.81,.77,.94,1.33,.12,.55,.02,1.11-.28,1.58-.6,.95-1.94,1.27-2.91,.65l-.09-.06c-.92-.65-1.16-1.9-.56-2.85Zm0,26.3c.39-.61,1.05-.98,1.78-.98,.4,0,.79,.11,1.12,.33,.48,.3,.81,.78,.94,1.33,.12,.55,.02,1.11-.28,1.58-.6,.95-1.94,1.27-2.91,.65l-.09-.06c-.92-.65-1.16-1.9-.56-2.85Z"/></g><g><path class="c`" d="M101.85,108.93c-1.17-1.36-2.86-2.14-4.65-2.14-1.46,0-2.88,.53-3.98,1.48-1.61,1.38-2.33,3.43-2.09,5.4-1.95,.7-4.26,1.37-5.33,1.33-.82-.04-1.3-.35-2.22-.97-1.17-.79-2.42-1.51-4.15-1.85,2.94-2.76,6.01-6.83,8.58-12.83,2.06-.08,3.98-1.19,5.04-2.97,1.72-2.9,.77-6.66-2.12-8.39-.95-.57-2.03-.86-3.13-.86-2.15,0-4.16,1.14-5.26,2.99-.84,1.41-1.08,3.05-.68,4.64,.35,1.39,1.16,2.59,2.3,3.43-4.05,9.22-9.22,13.08-12.57,14.68-.13,.04-.25,.1-.36,.17-1.19,.53-2.05,.7-2.56,.81v4c.28-.03,1.88-.12,4.25-1.19,5.35-1.36,6.84-.35,8.41,.71,1.02,.69,2.29,1.55,4.26,1.66,.1,0,.2,0,.31,0,2.11,0,5.17-1.02,7.02-1.72,1.14,1.12,2.68,1.75,4.29,1.75h0c1.46,0,2.88-.52,3.98-1.48,1.24-1.06,1.99-2.55,2.12-4.18,.12-1.63-.39-3.21-1.46-4.45Zm-15.87-16.78c.39-.64,1.07-1.03,1.82-1.03,.38,0,.75,.1,1.08,.3,1,.6,1.33,1.9,.74,2.9-.38,.65-1.06,1.03-1.82,1.03-.38,0-.75-.1-1.08-.3-.48-.29-.83-.75-.96-1.29-.14-.55-.06-1.12,.23-1.6Zm12.6,22.36c-.49,.42-1.02,.51-1.37,.51-.62,0-1.21-.27-1.61-.73-.76-.88-.65-2.22,.23-2.98,.49-.42,1.02-.51,1.37-.51,.62,0,1.2,.27,1.61,.74,.37,.43,.55,.98,.5,1.54-.04,.56-.3,1.07-.73,1.44Z"/><path class="c`" d="M77.68,46.03c.07,.02,.14,.03,.21,.05-.07-.01-.14-.03-.21-.05Z"/><path class="c`" d="M99.63,33.03c-.36-1.6-1.32-2.96-2.71-3.84-.98-.62-2.11-.94-3.26-.94-2.12,0-4.05,1.07-5.17,2.85-1.35,2.14-1.22,4.8,.14,6.76-3.65,4.12-8.71,4.31-9.94,4.29-3.69-1.6-7.23-2.16-10-2.32v4c2.44,.14,5.55,.69,8.75,2.14h.01c3.45,1.57,6.33,3.93,8.61,7.05-.14,.17-.26,.35-.38,.54-1.8,2.85-.94,6.64,1.9,8.44,.98,.62,2.11,.95,3.27,.95,2.11,0,4.05-1.07,5.18-2.85,1.81-2.85,.95-6.64-1.91-8.45-1.38-.87-3.09-1.11-4.67-.75-1.54-2.15-3.32-4.02-5.34-5.57,2.52-.78,5.4-2.27,7.78-5.1,.57,.17,1.17,.27,1.77,.27,2.12,0,4.05-1.07,5.17-2.85,.88-1.38,1.16-3.01,.8-4.6Zm-10.57,22.65c.17-.27,.39-.49,.67-.66,.33-.21,.72-.32,1.12-.32s.79,.11,1.12,.32c.99,.63,1.28,1.94,.66,2.92-.39,.62-1.06,.99-1.79,.99-.4,0-.79-.11-1.12-.33-.98-.62-1.28-1.94-.66-2.92Zm6.38-20.19c-.6,.95-1.94,1.27-2.91,.65l-.1-.06c-.91-.65-1.16-1.9-.56-2.85,.39-.61,1.05-.98,1.78-.98,.4,0,.79,.11,1.12,.33,.48,.3,.81,.78,.94,1.33,.12,.55,.03,1.11-.28,1.58Z"/><path class="c`" d="M108.32,74.01c.42,1.04,1.14,1.96,2.11,2.65,.07,.05,.15,.11,.28,.19,.98,.62,2.11,.95,3.27,.95,2.12,0,4.05-1.07,5.17-2.85,.88-1.38,1.16-3.01,.8-4.6-.36-1.6-1.32-2.96-2.71-3.84-.98-.62-2.11-.94-3.27-.94-.12,0-.25,0-.38,.02-.71-3.16-.92-7.77,.04-11.26,.11,.01,.22,.02,.34,.02,2.12,0,4.05-1.07,5.17-2.85,.88-1.38,1.16-3.01,.8-4.6-.36-1.6-1.32-2.96-2.71-3.84-.98-.62-2.11-.94-3.27-.94-2.11,0-4.05,1.07-5.17,2.85-1.6,2.53-1.12,5.8,1.02,7.76,.02,.02,.05,.04,.07,.06-1.35,4.52-1.15,10.32-.04,14.42-.14,.13-.29,.25-.43,.4-.23,.25-.45,.53-.63,.82-.32,.5-.55,1.03-.71,1.58-3.37,.49-5.2,1.67-6.82,2.73-2.04,1.32-3.96,2.57-9.64,2.67-1.96-.23-3.55-.18-5.29-.12-1.43,.05-2.91,.11-4.85,0-1.33-.07-2.1-.88-3.46-2.42-1.8-2.05-4.22-4.65-9.37-5.02v4c3.29,.3,4.8,1.89,6.36,3.67,1.49,1.69,3.17,3.62,6.26,3.78,2.12,.11,3.76,.05,5.21,0,2.49-.09,4.45-.16,7.86,.68,2.61,.64,12.1,9.67,14.77,14.32-.11,.14-.22,.28-.31,.43-1.74,2.75-1.03,6.38,1.62,8.25,.07,.05,.15,.1,.28,.19,.98,.62,2.11,.95,3.27,.95,2.12,0,4.05-1.07,5.17-2.85,.88-1.37,1.16-3.01,.8-4.6-.36-1.6-1.32-2.96-2.71-3.84-.98-.62-2.11-.94-3.27-.94-.53,0-1.05,.07-1.54,.2-2.56-4.19-8.65-10.46-13.19-13.79,1.81-.63,3.05-1.43,4.21-2.19,1.43-.93,2.61-1.69,4.86-2.07Zm3.88-26.92c.39-.61,1.05-.98,1.78-.98,.4,0,.79,.11,1.12,.33,.48,.3,.81,.78,.94,1.33,.12,.55,.02,1.11-.28,1.58-.6,.95-1.94,1.27-2.91,.65l-.09-.06c-.92-.65-1.16-1.9-.56-2.85Zm0,23.46c.39-.61,1.05-.98,1.78-.98,.4,0,.79,.11,1.12,.33,.48,.3,.81,.77,.94,1.33,.12,.55,.02,1.11-.28,1.58-.6,.95-1.94,1.27-2.91,.65l-.09-.06c-.92-.65-1.16-1.9-.56-2.85Zm0,26.3c.39-.61,1.05-.98,1.78-.98,.4,0,.79,.11,1.12,.33,.48,.3,.81,.78,.94,1.33,.12,.55,.02,1.11-.28,1.58-.6,.95-1.94,1.27-2.91,.65l-.09-.06c-.92-.65-1.16-1.9-.56-2.85Z"/></g></g></g></g><g><path class="ci" d="M171.12,48.08l12.22,38.09,12.18-38.09h17.37v54.74h-13.23v-12.78l1.28-26.17-13.23,38.95h-8.72l-13.27-38.99,1.28,26.21v12.78h-13.2V48.08h17.33Z"/><path class="ci" d="M240.38,103.58c-6.24,0-11.29-1.86-15.15-5.58-3.86-3.72-5.79-8.57-5.79-14.53v-1.05c0-4.16,.77-7.83,2.31-11.02,1.54-3.18,3.79-5.65,6.75-7.39,2.96-1.74,6.47-2.61,10.53-2.61,5.71,0,10.23,1.77,13.54,5.32s4.96,8.49,4.96,14.83v4.92h-25.19c.45,2.28,1.44,4.07,2.97,5.38,1.53,1.3,3.51,1.96,5.94,1.96,4.01,0,7.14-1.4,9.4-4.21l5.79,6.84c-1.58,2.18-3.82,3.92-6.71,5.21-2.89,1.29-6.01,1.94-9.34,1.94Zm-1.43-32.41c-3.71,0-5.92,2.46-6.62,7.37h12.78v-.98c.05-2.03-.46-3.6-1.54-4.72-1.08-1.12-2.62-1.67-4.62-1.67Z"/><path class="ci" d="M283.92,91.39c0-1.08-.56-1.94-1.69-2.59-1.13-.65-3.27-1.33-6.43-2.03-3.16-.7-5.76-1.62-7.82-2.76-2.05-1.14-3.62-2.53-4.7-4.16-1.08-1.63-1.62-3.5-1.62-5.6,0-3.73,1.54-6.81,4.62-9.23,3.08-2.42,7.12-3.63,12.11-3.63,5.36,0,9.67,1.22,12.93,3.65,3.26,2.43,4.89,5.63,4.89,9.59h-12.71c0-3.26-1.72-4.89-5.15-4.89-1.33,0-2.44,.37-3.35,1.11s-1.35,1.66-1.35,2.76,.55,2.04,1.65,2.74c1.1,.7,2.86,1.28,5.28,1.73s4.54,.99,6.37,1.62c6.12,2.11,9.17,5.88,9.17,11.32,0,3.71-1.65,6.73-4.94,9.06-3.3,2.33-7.56,3.5-12.8,3.5-3.48,0-6.59-.63-9.32-1.88-2.73-1.25-4.86-2.96-6.39-5.11-1.53-2.16-2.29-4.42-2.29-6.81h11.84c.05,1.88,.68,3.25,1.88,4.12,1.2,.87,2.74,1.3,4.62,1.3,1.73,0,3.03-.35,3.89-1.05,.87-.7,1.3-1.62,1.3-2.74Z"/><path class="ci" d="M323.36,91.39c0-1.08-.56-1.94-1.69-2.59-1.13-.65-3.27-1.33-6.43-2.03-3.16-.7-5.76-1.62-7.82-2.76-2.05-1.14-3.62-2.53-4.7-4.16-1.08-1.63-1.62-3.5-1.62-5.6,0-3.73,1.54-6.81,4.62-9.23,3.08-2.42,7.12-3.63,12.11-3.63,5.36,0,9.67,1.22,12.93,3.65,3.26,2.43,4.89,5.63,4.89,9.59h-12.71c0-3.26-1.72-4.89-5.15-4.89-1.33,0-2.44,.37-3.35,1.11s-1.35,1.66-1.35,2.76,.55,2.04,1.65,2.74c1.1,.7,2.86,1.28,5.28,1.73s4.54,.99,6.37,1.62c6.12,2.11,9.17,5.88,9.17,11.32,0,3.71-1.65,6.73-4.94,9.06-3.3,2.33-7.56,3.5-12.8,3.5-3.48,0-6.59-.63-9.32-1.88-2.73-1.25-4.86-2.96-6.39-5.11-1.53-2.16-2.29-4.42-2.29-6.81h11.84c.05,1.88,.68,3.25,1.88,4.12,1.2,.87,2.74,1.3,4.62,1.3,1.73,0,3.03-.35,3.89-1.05,.87-.7,1.3-1.62,1.3-2.74Z"/><path class="ci" d="M357.76,85.08l6.77-22.93h13.57l-16.58,47.49-.71,1.73c-2.36,5.26-6.52,7.89-12.48,7.89-1.65,0-3.4-.25-5.23-.75v-9.03h1.65c1.78,0,3.14-.26,4.08-.77,.94-.51,1.63-1.44,2.09-2.77l1.02-2.71-14.14-41.09h13.54l6.43,22.93Z"/><path class="cv" d="M381.97,102.82V48.08h19.66c7.04,0,12.4,1.29,16.07,3.87,3.67,2.58,5.51,6.33,5.51,11.24,0,2.83-.65,5.25-1.96,7.26-1.3,2-3.22,3.48-5.75,4.44,2.86,.75,5.05,2.16,6.58,4.21,1.53,2.06,2.29,4.56,2.29,7.52,0,5.36-1.7,9.39-5.09,12.09-3.4,2.7-8.43,4.07-15.1,4.12h-22.22Zm13.2-31.92h6.88c2.88-.03,4.94-.55,6.17-1.58,1.23-1.03,1.84-2.55,1.84-4.56,0-2.31-.66-3.98-1.99-5-1.33-1.02-3.47-1.53-6.43-1.53h-6.47v12.67Zm0,8.65v13.12h8.65c2.38,0,4.21-.54,5.49-1.64,1.28-1.09,1.92-2.62,1.92-4.61,0-4.56-2.27-6.86-6.8-6.88h-9.25Z"/><path class="cv" d="M455.66,73.61l-4.17-.3c-3.99,0-6.54,1.25-7.67,3.76v25.75h-12.67V62.14h11.88l.41,5.23c2.13-3.98,5.1-5.98,8.91-5.98,1.35,0,2.53,.15,3.54,.45l-.23,11.77Z"/><path class="cv" d="M482.02,102.82c-.45-.83-.85-2.04-1.2-3.65-2.33,2.93-5.59,4.4-9.78,4.4-3.83,0-7.09-1.16-9.78-3.48-2.68-2.32-4.02-5.23-4.02-8.74,0-4.41,1.63-7.75,4.89-10,3.26-2.26,8-3.38,14.21-3.38h3.91v-2.15c0-3.75-1.62-5.63-4.85-5.63-3.01,0-4.51,1.49-4.51,4.46h-12.67c0-3.93,1.67-7.12,5.02-9.58,3.35-2.45,7.61-3.68,12.8-3.68s9.29,1.27,12.29,3.8c3.01,2.53,4.55,6,4.62,10.41v18.01c.05,3.73,.63,6.59,1.73,8.57v.64h-12.67Zm-7.93-8.27c1.58,0,2.89-.34,3.93-1.02,1.04-.68,1.79-1.44,2.24-2.29v-6.5h-3.68c-4.41,0-6.62,1.98-6.62,5.94,0,1.15,.39,2.09,1.17,2.8,.78,.71,1.77,1.07,2.97,1.07Z"/><path class="cv" d="M499.88,51.62c0-1.82,.65-3.3,1.96-4.46,1.3-1.16,3-1.74,5.08-1.74s3.77,.58,5.08,1.74c1.3,1.16,1.96,2.65,1.96,4.46s-.65,3.3-1.96,4.46c-1.3,1.16-3,1.74-5.08,1.74s-3.77-.58-5.08-1.74c-1.3-1.16-1.96-2.65-1.96-4.46Zm13.46,51.21h-12.71V62.14h12.71v40.68Z"/><path class="cv" d="M532.78,62.14l.41,4.77c2.81-3.68,6.68-5.53,11.62-5.53,4.24,0,7.4,1.27,9.49,3.8,2.09,2.53,3.18,6.34,3.25,11.43v26.21h-12.71v-25.68c0-2.05-.41-3.56-1.24-4.53-.83-.96-2.33-1.45-4.51-1.45-2.48,0-4.32,.98-5.53,2.93v28.72h-12.67V62.14h11.88Z"/><path class="cv" d="M579.51,93.05h18.54v9.78h-34.55v-7.07l18.05-23.84h-17.26v-9.78h33.35v6.84l-18.12,24.06Z"/></g></g></g></g></svg>