<?xml version="1.0" encoding="UTF-8" standalone="no"?>
<svg
   xmlns:dc="http://purl.org/dc/elements/1.1/"
   xmlns:cc="http://creativecommons.org/ns#"
   xmlns:rdf="http://www.w3.org/1999/02/22-rdf-syntax-ns#"
   xmlns:svg="http://www.w3.org/2000/svg"
   xmlns="http://www.w3.org/2000/svg"
   xmlns:sodipodi="http://sodipodi.sourceforge.net/DTD/sodipodi-0.dtd"
   xmlns:inkscape="http://www.inkscape.org/namespaces/inkscape"
   viewBox="0 0 127 144"
   version="1.1"
   id="svg84"
   sodipodi:docname="MetaBrainz_logo.svg"
   width="127"
   height="144"
   inkscape:version="0.92.2 (5c3e80d, 2017-08-06)">
  <metadata
     id="metadata90">
    <rdf:RDF>
      <cc:Work
         rdf:about="">
        <dc:format>image/svg+xml</dc:format>
        <dc:type
           rdf:resource="http://purl.org/dc/dcmitype/StillImage" />
        <dc:title>MetaBrainz_logo</dc:title>
      </cc:Work>
    </rdf:RDF>
  </metadata>
  <defs
     id="defs88" />
  <sodipodi:namedview
     pagecolor="#ffffff"
     bordercolor="#666666"
     borderopacity="1"
     objecttolerance="10"
     gridtolerance="10"
     guidetolerance="10"
     inkscape:pageopacity="0"
     inkscape:pageshadow="2"
     inkscape:window-width="1362"
     inkscape:window-height="729"
     id="namedview86"
     showgrid="false"
     fit-margin-top="0"
     fit-margin-left="0"
     fit-margin-right="0"
     fit-margin-bottom="0"
     inkscape:zoom="0.57821565"
     inkscape:cx="271.52499"
     inkscape:cy="72"
     inkscape:window-x="0"
     inkscape:window-y="18"
     inkscape:window-maximized="0"
     inkscape:current-layer="g82" />
  <title
     id="title2">MetaBrainz_logo</title>
  <g
     style="isolation:isolate"
     id="g82">
    <polygon
       points="66,0 66,144 127,109 127,35 "
       style="fill:#eb743b"
       id="polygon4" />
    <polygon
       points="61,0 0,35 0,109 61,144 "
       style="fill:#5aa854"
       id="polygon6" />
    <g
       style="opacity:0.07000002;mix-blend-mode:multiply"
       id="g24">
      <path
         d="m 87.66,94.56 a 2.11,2.11 0 1 1 -0.23,1.6 2.1,2.1 0 0 1 0.23,-1.6 z m 12.6,22.36 a 2.08,2.08 0 0 1 -1.37,0.51 2.11,2.11 0 0 1 -1.38,-3.72 2.08,2.08 0 0 1 1.37,-0.51 2.12,2.12 0 0 1 2.11,2.28 2.09,2.09 0 0 1 -0.73,1.44 z"
         transform="translate(-4.35,-2.82)"
         id="path8"
         inkscape:connector-curvature="0" />
      <path
         d="m 79.36,48.43 h 0.21 z"
         transform="translate(-4.35,-2.82)"
         id="path10"
         inkscape:connector-curvature="0" />
      <path
         d="M 90.73,58.08 A 2.07,2.07 0 0 1 91.4,57.42 2.11,2.11 0 1 1 92.51,61.33 2.1,2.1 0 0 1 91.39,61 2.13,2.13 0 0 1 90.73,58.08 Z m 6.38,-20.19 a 2.14,2.14 0 0 1 -2.91,0.65 l -0.1,-0.06 a 2.11,2.11 0 1 1 3.29,-2.17 2.08,2.08 0 0 1 -0.28,1.58 z"
         transform="translate(-4.35,-2.82)"
         id="path12"
         inkscape:connector-curvature="0" />
      <path
         d="m 113.88,49.49 a 2.1126109,2.1126109 0 1 1 3.57,2.26 2.14,2.14 0 0 1 -2.91,0.65 l -0.09,-0.06 a 2.1,2.1 0 0 1 -0.57,-2.85 z m 0,23.46 a 2.1126109,2.1126109 0 1 1 3.57,2.26 2.14,2.14 0 0 1 -2.91,0.65 L 114.45,75.8 A 2.1,2.1 0 0 1 113.88,73 Z m 0,26.3 a 2.1126109,2.1126109 0 1 1 3.57,2.26 2.14,2.14 0 0 1 -2.91,0.65 l -0.09,-0.06 a 2.11,2.11 0 0 1 -0.57,-2.84 z"
         transform="translate(-4.35,-2.82)"
         id="path14"
         inkscape:connector-curvature="0" />
      <path
         d="m 103.53,108.93 a 6.12,6.12 0 0 0 -10.72,4.74 19.86,19.86 0 0 1 -5.33,1.33 4,4 0 0 1 -2.22,-1 10.71,10.71 0 0 0 -4.15,-1.85 37.64,37.64 0 0 0 8.59,-12.81 6.12,6.12 0 1 0 -5.48,-9.24 6.12,6.12 0 0 0 1.62,8.06 c -4.05,9.22 -9.22,13.08 -12.57,14.68 a 2,2 0 0 0 -0.36,0.17 11.26,11.26 0 0 1 -2.56,0.81 v 4 a 12.59,12.59 0 0 0 4.25,-1.19 c 5.35,-1.36 6.84,-0.35 8.41,0.71 a 7.88,7.88 0 0 0 4.26,1.66 h 0.31 a 23.61,23.61 0 0 0 7,-1.72 6.13,6.13 0 0 0 4.31,1.72 v 0 a 6.12,6.12 0 0 0 4.64,-10.1 z M 87.66,92.15 a 2.11,2.11 0 1 1 -0.23,1.6 2.1,2.1 0 0 1 0.23,-1.6 z m 12.6,22.36 a 2.08,2.08 0 0 1 -1.37,0.51 2.11,2.11 0 0 1 -1.38,-3.72 2.08,2.08 0 0 1 1.37,-0.51 2.12,2.12 0 0 1 2.11,2.28 2.09,2.09 0 0 1 -0.73,1.44 z"
         transform="translate(-4.35,-2.82)"
         id="path16"
         inkscape:connector-curvature="0" />
      <path
         d="m 79.36,46 h 0.21 z"
         transform="translate(-4.35,-2.82)"
         id="path18"
         inkscape:connector-curvature="0" />
      <path
         d="m 101.3,33 a 6.12,6.12 0 1 0 -11,4.82 13.35,13.35 0 0 1 -9.94,4.29 29.15,29.15 0 0 0 -10,-2.32 v 4 A 24.8,24.8 0 0 1 79.1,46 v 0 a 21.59,21.59 0 0 1 8.61,7 6.32,6.32 0 0 0 -0.38,0.54 6.12,6.12 0 1 0 8.45,-1.91 6.22,6.22 0 0 0 -4.67,-0.75 26,26 0 0 0 -5.34,-5.57 16.35,16.35 0 0 0 7.78,-5.1 6.15,6.15 0 0 0 1.77,0.27 6.13,6.13 0 0 0 6,-7.45 z M 90.73,55.67 a 2.07,2.07 0 0 1 0.67,-0.66 2.11,2.11 0 1 1 1.11,3.91 2.1,2.1 0 0 1 -1.12,-0.33 2.13,2.13 0 0 1 -0.66,-2.92 z m 6.38,-20.19 a 2.14,2.14 0 0 1 -2.91,0.65 l -0.1,-0.06 a 2.11,2.11 0 1 1 3.29,-2.17 2.08,2.08 0 0 1 -0.28,1.59 z"
         transform="translate(-4.35,-2.82)"
         id="path20"
         inkscape:connector-curvature="0" />
      <path
         d="m 110,74 a 6,6 0 0 0 2.11,2.65 l 0.28,0.19 a 6.12,6.12 0 1 0 3.27,-11.29 h -0.37 a 25.73,25.73 0 0 1 0,-11.26 h 0.34 a 6.12,6.12 0 1 0 -4.15,-1.63 l 0.07,0.06 a 28.65,28.65 0 0 0 0,14.42 c -0.14,0.13 -0.29,0.25 -0.43,0.4 a 6.24,6.24 0 0 0 -0.63,0.82 6.16,6.16 0 0 0 -0.71,1.58 15.2,15.2 0 0 0 -6.78,2.78 c -2,1.32 -4,2.57 -9.64,2.67 A 32.64,32.64 0 0 0 88,75.27 c -1.43,0.05 -2.91,0.11 -4.85,0 -1.33,-0.07 -2.1,-0.88 -3.46,-2.42 -1.8,-2.05 -4.22,-4.65 -9.37,-5 v 4 c 3.29,0.3 4.8,1.89 6.36,3.67 1.56,1.78 3.17,3.62 6.26,3.78 2.12,0.11 3.76,0.05 5.21,0 A 24.22,24.22 0 0 1 96,80 c 2.61,0.64 12.1,9.67 14.77,14.32 -0.11,0.14 -0.22,0.28 -0.31,0.43 a 6.1,6.1 0 0 0 1.62,8.25 l 0.28,0.19 a 6.12,6.12 0 1 0 3.27,-11.29 6.18,6.18 0 0 0 -1.54,0.2 C 111.53,87.91 105.44,81.64 100.9,78.31 A 18.18,18.18 0 0 0 105.11,76.12 11.31,11.31 0 0 1 110,74 Z m 3.88,-26.92 a 2.1126109,2.1126109 0 1 1 3.57,2.26 2.14,2.14 0 0 1 -2.91,0.65 l -0.09,-0.06 a 2.1,2.1 0 0 1 -0.57,-2.84 z m 0,23.46 a 2.1126109,2.1126109 0 1 1 3.57,2.26 2.14,2.14 0 0 1 -2.91,0.65 l -0.09,-0.06 a 2.1,2.1 0 0 1 -0.57,-2.84 z m 0,26.3 a 2.1126109,2.1126109 0 1 1 3.57,2.26 2.14,2.14 0 0 1 -2.91,0.65 l -0.09,-0.06 a 2.11,2.11 0 0 1 -0.57,-2.84 z"
         transform="translate(-4.35,-2.82)"
         id="path22"
         inkscape:connector-curvature="0" />
    </g>
    <path
       d="m 103.53,111.93 a 6.12,6.12 0 0 0 -10.72,4.74 19.86,19.86 0 0 1 -5.33,1.33 4,4 0 0 1 -2.22,-1 10.71,10.71 0 0 0 -4.15,-1.85 37.64,37.64 0 0 0 8.58,-12.83 6.12,6.12 0 1 0 -5.48,-9.24 6.12,6.12 0 0 0 1.62,8.06 c -4.05,9.22 -9.22,13.08 -12.57,14.68 a 2,2 0 0 0 -0.36,0.17 11.26,11.26 0 0 1 -2.56,0.81 v 4 a 12.59,12.59 0 0 0 4.25,-1.19 c 5.35,-1.36 6.84,-0.35 8.41,0.71 a 7.88,7.88 0 0 0 4.27,1.68 h 0.31 a 23.61,23.61 0 0 0 7,-1.72 6.13,6.13 0 0 0 4.31,1.72 v 0 a 6.12,6.12 0 0 0 4.64,-10.1 z M 87.66,95.15 a 2.11,2.11 0 1 1 -0.23,1.6 2.1,2.1 0 0 1 0.23,-1.6 z m 12.6,22.36 a 2.08,2.08 0 0 1 -1.37,0.51 2.11,2.11 0 0 1 -1.38,-3.72 2.08,2.08 0 0 1 1.37,-0.51 2.12,2.12 0 0 1 2.11,2.28 2.09,2.09 0 0 1 -0.73,1.44 z"
       transform="translate(-4.35,-2.82)"
       style="fill:#d3562c"
       id="path26"
       inkscape:connector-curvature="0" />
    <path
       d="m 79.36,48.43 h 0.21 z"
       transform="translate(-4.35,-2.82)"
       id="path28"
       inkscape:connector-curvature="0" />
    <path
       d="m 101.3,36 a 6.12,6.12 0 1 0 -11,4.82 13.35,13.35 0 0 1 -9.94,4.29 29.15,29.15 0 0 0 -10,-2.32 v 4 A 24.81,24.81 0 0 1 79.1,49 v 0 a 21.59,21.59 0 0 1 8.61,7 6.32,6.32 0 0 0 -0.38,0.54 6.12,6.12 0 1 0 8.45,-1.91 6.22,6.22 0 0 0 -4.67,-0.75 26,26 0 0 0 -5.34,-5.57 16.35,16.35 0 0 0 7.78,-5.1 6.15,6.15 0 0 0 1.77,0.27 6.13,6.13 0 0 0 6,-7.45 z M 90.73,58.68 a 2.07,2.07 0 0 1 0.67,-0.66 2.11,2.11 0 1 1 1.11,3.91 2.1,2.1 0 0 1 -1.12,-0.33 2.13,2.13 0 0 1 -0.66,-2.92 z m 6.38,-20.19 a 2.14,2.14 0 0 1 -2.91,0.65 l -0.1,-0.06 a 2.11,2.11 0 1 1 3.29,-2.17 2.08,2.08 0 0 1 -0.28,1.58 z"
       transform="translate(-4.35,-2.82)"
       style="fill:#d3562c"
       id="path30"
       inkscape:connector-curvature="0" />
    <path
       d="m 110,77 a 6,6 0 0 0 2.11,2.65 l 0.28,0.19 a 6.12,6.12 0 1 0 3.27,-11.29 h -0.37 a 25.73,25.73 0 0 1 0,-11.26 h 0.34 a 6.12,6.12 0 1 0 -4.15,-1.63 l 0.07,0.06 a 28.65,28.65 0 0 0 0,14.42 c -0.14,0.13 -0.29,0.25 -0.43,0.4 a 6.24,6.24 0 0 0 -0.63,0.82 6.16,6.16 0 0 0 -0.71,1.58 15.2,15.2 0 0 0 -6.78,2.78 c -2,1.32 -4,2.57 -9.64,2.67 A 32.64,32.64 0 0 0 88,78.27 c -1.43,0.05 -2.91,0.11 -4.85,0 -1.33,-0.07 -2.1,-0.88 -3.46,-2.42 -1.8,-2.05 -4.22,-4.65 -9.37,-5 v 4 c 3.29,0.3 4.8,1.89 6.36,3.67 1.56,1.78 3.17,3.62 6.26,3.78 2.12,0.11 3.76,0.05 5.21,0 A 24.22,24.22 0 0 1 96,83 c 2.61,0.64 12.1,9.67 14.77,14.32 -0.11,0.14 -0.22,0.28 -0.31,0.43 a 6.1,6.1 0 0 0 1.62,8.25 l 0.28,0.19 a 6.12,6.12 0 1 0 3.27,-11.29 6.18,6.18 0 0 0 -1.54,0.2 C 111.53,90.91 105.44,84.64 100.9,81.31 A 18.18,18.18 0 0 0 105.11,79.12 11.31,11.31 0 0 1 110,77 Z m 3.88,-26.92 a 2.1126109,2.1126109 0 1 1 3.57,2.26 2.14,2.14 0 0 1 -2.91,0.65 l -0.09,-0.06 a 2.1,2.1 0 0 1 -0.57,-2.84 z m 0,23.46 a 2.1126109,2.1126109 0 1 1 3.57,2.26 2.14,2.14 0 0 1 -2.91,0.65 l -0.09,-0.06 a 2.1,2.1 0 0 1 -0.57,-2.84 z m 0,26.3 a 2.1126109,2.1126109 0 1 1 3.57,2.26 2.14,2.14 0 0 1 -2.91,0.65 l -0.09,-0.06 a 2.11,2.11 0 0 1 -0.57,-2.84 z"
       transform="translate(-4.35,-2.82)"
       style="fill:#d3562c"
       id="path32"
       inkscape:connector-curvature="0" />
    <path
       d="m 103.53,108.93 a 6.12,6.12 0 0 0 -10.72,4.74 19.86,19.86 0 0 1 -5.33,1.33 4,4 0 0 1 -2.22,-1 10.71,10.71 0 0 0 -4.15,-1.85 37.64,37.64 0 0 0 8.59,-12.81 6.12,6.12 0 1 0 -5.48,-9.24 6.12,6.12 0 0 0 1.62,8.06 c -4.05,9.22 -9.22,13.08 -12.57,14.68 a 2,2 0 0 0 -0.36,0.17 11.26,11.26 0 0 1 -2.56,0.81 v 4 a 12.59,12.59 0 0 0 4.25,-1.19 c 5.35,-1.36 6.84,-0.35 8.41,0.71 a 7.88,7.88 0 0 0 4.26,1.66 h 0.31 a 23.61,23.61 0 0 0 7,-1.72 6.13,6.13 0 0 0 4.31,1.72 v 0 a 6.12,6.12 0 0 0 4.64,-10.1 z M 87.66,92.15 a 2.11,2.11 0 1 1 -0.23,1.6 2.1,2.1 0 0 1 0.23,-1.6 z m 12.6,22.36 a 2.08,2.08 0 0 1 -1.37,0.51 2.11,2.11 0 0 1 -1.38,-3.72 2.08,2.08 0 0 1 1.37,-0.51 2.12,2.12 0 0 1 2.11,2.28 2.09,2.09 0 0 1 -0.73,1.44 z"
       transform="translate(-4.35,-2.82)"
       style="fill:#fffedb"
       id="path34"
       inkscape:connector-curvature="0" />
    <path
       d="m 79.36,46 h 0.21 z"
       transform="translate(-4.35,-2.82)"
       style="fill:#fffedb"
       id="path36"
       inkscape:connector-curvature="0" />
    <path
       d="m 101.3,33 a 6.12,6.12 0 1 0 -11,4.82 13.35,13.35 0 0 1 -9.94,4.29 29.15,29.15 0 0 0 -10,-2.32 v 4 A 24.8,24.8 0 0 1 79.1,46 v 0 a 21.59,21.59 0 0 1 8.61,7 6.32,6.32 0 0 0 -0.38,0.54 6.12,6.12 0 1 0 8.45,-1.91 6.22,6.22 0 0 0 -4.67,-0.75 26,26 0 0 0 -5.34,-5.57 16.35,16.35 0 0 0 7.78,-5.1 6.15,6.15 0 0 0 1.77,0.27 6.13,6.13 0 0 0 6,-7.45 z M 90.73,55.67 a 2.07,2.07 0 0 1 0.67,-0.66 2.11,2.11 0 1 1 1.11,3.91 2.1,2.1 0 0 1 -1.12,-0.33 2.13,2.13 0 0 1 -0.66,-2.92 z m 6.38,-20.19 a 2.14,2.14 0 0 1 -2.91,0.65 l -0.1,-0.06 a 2.11,2.11 0 1 1 3.29,-2.17 2.08,2.08 0 0 1 -0.28,1.59 z"
       transform="translate(-4.35,-2.82)"
       style="fill:#fffedb"
       id="path38"
       inkscape:connector-curvature="0" />
    <path
       d="m 110,74 a 6,6 0 0 0 2.11,2.65 l 0.28,0.19 a 6.12,6.12 0 1 0 3.27,-11.29 h -0.37 a 25.73,25.73 0 0 1 0,-11.26 h 0.34 a 6.12,6.12 0 1 0 -4.15,-1.63 l 0.07,0.06 a 28.65,28.65 0 0 0 0,14.42 c -0.14,0.13 -0.29,0.25 -0.43,0.4 a 6.24,6.24 0 0 0 -0.63,0.82 6.16,6.16 0 0 0 -0.71,1.58 15.2,15.2 0 0 0 -6.78,2.78 c -2,1.32 -4,2.57 -9.64,2.67 A 32.64,32.64 0 0 0 88,75.27 c -1.43,0.05 -2.91,0.11 -4.85,0 -1.33,-0.07 -2.1,-0.88 -3.46,-2.42 -1.8,-2.05 -4.22,-4.65 -9.37,-5 v 4 c 3.29,0.3 4.8,1.89 6.36,3.67 1.56,1.78 3.17,3.62 6.26,3.78 2.12,0.11 3.76,0.05 5.21,0 A 24.22,24.22 0 0 1 96,80 c 2.61,0.64 12.1,9.67 14.77,14.32 -0.11,0.14 -0.22,0.28 -0.31,0.43 a 6.1,6.1 0 0 0 1.62,8.25 l 0.28,0.19 a 6.12,6.12 0 1 0 3.27,-11.29 6.18,6.18 0 0 0 -1.54,0.2 C 111.53,87.91 105.44,81.64 100.9,78.31 A 18.18,18.18 0 0 0 105.11,76.12 11.31,11.31 0 0 1 110,74 Z m 3.88,-26.92 a 2.1126109,2.1126109 0 1 1 3.57,2.26 2.14,2.14 0 0 1 -2.91,0.65 l -0.09,-0.06 a 2.1,2.1 0 0 1 -0.57,-2.84 z m 0,23.46 a 2.1126109,2.1126109 0 1 1 3.57,2.26 2.14,2.14 0 0 1 -2.91,0.65 l -0.09,-0.06 a 2.1,2.1 0 0 1 -0.57,-2.84 z m 0,26.3 a 2.1126109,2.1126109 0 1 1 3.57,2.26 2.14,2.14 0 0 1 -2.91,0.65 l -0.09,-0.06 a 2.11,2.11 0 0 1 -0.57,-2.84 z"
       transform="translate(-4.35,-2.82)"
       style="fill:#fffedb"
       id="path40"
       inkscape:connector-curvature="0" />
    <path
       d="m 64.08,43.3 a 12.88,12.88 0 0 1 -2.62,0.83 2.19,2.19 0 0 0 -0.39,0.08 C 57.43,44.89 50.99,44.83 42.3,39.79 a 6.11,6.11 0 0 0 -3.45,-7.45 6.11,6.11 0 1 0 1,10.67 37.59,37.59 0 0 0 14.48,5.28 10.66,10.66 0 0 0 -2.25,3.93 4,4 0 0 1 -1.22,2.09 19.81,19.81 0 0 1 -5.08,2.07 6.11,6.11 0 1 0 -1.73,7.91 v 0 a 6.11,6.11 0 0 0 2.42,-3.93 23.64,23.64 0 0 0 6.67,-2.75 l 0.24,-0.19 a 7.86,7.86 0 0 0 2.45,-3.85 c 0.64,-1.78 1.25,-3.47 6.35,-5.52 a 16.86,16.86 0 0 0 3.12,-1.21 v -4 z M 38.41,38.78 A 2.11,2.11 0 1 1 34.53,37.13 2.11,2.11 0 0 1 37.29,36 2.11,2.11 0 0 1 38.41,38.76 Z M 41.73,61 a 2.11,2.11 0 0 1 -3.34,-1.86 2.11,2.11 0 0 1 0.86,-1.54 2.07,2.07 0 0 1 1.41,-0.4 2.1,2.1 0 0 1 1.07,3.8 z"
       transform="translate(-4.35,-2.82)"
       style="fill:#43883e"
       id="path42"
       inkscape:connector-curvature="0" />
    <path
       d="m 58.89,111.65 -0.18,-0.12 z"
       transform="translate(-4.35,-2.82)"
       id="path44"
       inkscape:connector-curvature="0" />
    <path
       d="m 59.31,112.44 v 0 a 21.54,21.54 0 0 1 -5.59,-9.59 5.91,5.91 0 0 0 0.54,-0.37 6.11,6.11 0 1 0 -8.56,-1.16 6.22,6.22 0 0 0 4.1,2.33 25.9,25.9 0 0 0 3.06,7.07 16.33,16.33 0 0 0 -9.05,2.05 6.1,6.1 0 1 0 2.19,3.35 13.32,13.32 0 0 1 10.79,-0.55 27,27 0 0 0 8.55,5.25 v -4 a 24.5,24.5 0 0 1 -6.03,-4.38 z m -17.94,6.86 a 2.11,2.11 0 1 1 -2.54,-3.3 2.14,2.14 0 0 1 3,0.41 l 0.07,0.09 a 2.1,2.1 0 0 1 -0.53,2.81 z m 7.5,-20.41 a 2.11,2.11 0 1 1 3,0.4 2.06,2.06 0 0 1 -0.86,0.38 2.13,2.13 0 0 1 -2.1,-0.79 z"
       transform="translate(-4.35,-2.82)"
       style="fill:#43883e"
       id="path46"
       inkscape:connector-curvature="0" />
    <path
       d="m 58.89,109.25 -0.18,-0.12 z"
       transform="translate(-4.35,-2.82)"
       id="path48"
       inkscape:connector-curvature="0" />
    <path
       d="m 58.89,111.65 -0.18,-0.12 z"
       transform="translate(-4.35,-2.82)"
       id="path50"
       inkscape:connector-curvature="0" />
    <path
       d="m 56,76.09 c -1.35,1.54 -2.12,2.35 -3.45,2.42 -1.93,0.1 -3.41,0 -4.84,0 -1.43,0 -4,-0.82 -8,-2.6 -4,-1.78 -12.1,-9.66 -14.77,-14.3 0.11,-0.14 0.22,-0.28 0.31,-0.43 A 6.09,6.09 0 0 0 23.64,52.95 L 23.36,52.76 A 6.11,6.11 0 1 0 20.09,64 6.15,6.15 0 0 0 21.63,63.81 C 24.18,68 31.88,75.89 34.79,77.59 a 18.12,18.12 0 0 0 -4.2,2.18 11.28,11.28 0 0 1 -4.85,2.06 6,6 0 0 0 -2.1,-2.64 L 23.35,79 a 6.11,6.11 0 1 0 -3.26,11.27 c 0.13,0 0.25,0 0.37,0 a 25.71,25.71 0 0 1 0,11.25 h -0.34 a 6.11,6.11 0 1 0 4.14,1.62 l -0.08,-0.07 a 28.49,28.49 0 0 0 0,-14.37 c 0.15,-0.13 0.3,-0.26 0.44,-0.41 a 6.17,6.17 0 0 0 0.63,-0.82 6.1,6.1 0 0 0 0.75,-1.62 15.17,15.17 0 0 0 6.81,-2.72 13.88,13.88 0 0 1 7.84,-2.58 21.35,21.35 0 0 0 6.91,2 33.82,33.82 0 0 0 5.2,0 c 3.08,-0.17 4.76,-2.08 6.24,-3.77 1.48,-1.69 3,-3.48 6.4,-3.91 v -4 C 60.15,71.32 57.75,74 56,76.09 Z M 20.09,60 a 2.11,2.11 0 0 1 -1.78,-3.23 2.14,2.14 0 0 1 2.91,-0.65 l 0.09,0.06 A 2.11,2.11 0 0 1 20.09,60 Z M 19,85.94 A 2.11,2.11 0 0 1 18,84.62 2.08,2.08 0 0 1 18.31,83 2.14,2.14 0 0 1 21.22,82.35 l 0.09,0.06 A 2.11,2.11 0 0 1 19,85.94 Z m 2.9,22.76 a 2.11,2.11 0 1 1 -3.56,-2.25 2.14,2.14 0 0 1 2.91,-0.65 l 0.09,0.06 a 2.1,2.1 0 0 1 0.53,2.84 z"
       transform="translate(-4.35,-2.82)"
       style="fill:#43883e"
       id="path52"
       inkscape:connector-curvature="0" />
    <path
       d="m 64.08,40.3 a 12.88,12.88 0 0 1 -2.62,0.83 2.19,2.19 0 0 0 -0.39,0.08 C 57.43,41.89 50.99,41.83 42.3,36.79 a 6.11,6.11 0 0 0 -3.45,-7.45 6.11,6.11 0 1 0 1,10.67 37.59,37.59 0 0 0 14.48,5.28 10.66,10.66 0 0 0 -2.25,3.93 4,4 0 0 1 -1.22,2.09 19.81,19.81 0 0 1 -5.08,2.07 6.11,6.11 0 1 0 -1.73,7.91 v 0 a 6.11,6.11 0 0 0 2.42,-3.93 23.64,23.64 0 0 0 6.67,-2.75 l 0.24,-0.19 a 7.86,7.86 0 0 0 2.45,-3.85 c 0.64,-1.78 1.25,-3.47 6.35,-5.52 a 16.86,16.86 0 0 0 3.12,-1.21 v -4 z M 38.41,35.78 A 2.11,2.11 0 1 1 34.53,34.13 2.11,2.11 0 0 1 37.29,33 2.11,2.11 0 0 1 38.41,35.76 Z M 41.73,58 a 2.11,2.11 0 0 1 -3.34,-1.86 2.11,2.11 0 0 1 0.86,-1.54 2.07,2.07 0 0 1 1.41,-0.4 2.1,2.1 0 0 1 1.07,3.8 z"
       transform="translate(-4.35,-2.82)"
       style="fill:#fffedb"
       id="path54"
       inkscape:connector-curvature="0" />
    <path
       d="m 58.89,109.25 -0.18,-0.12 z"
       transform="translate(-4.35,-2.82)"
       style="fill:#fffedb"
       id="path56"
       inkscape:connector-curvature="0" />
    <path
       d="m 59.31,109.44 v 0 a 21.54,21.54 0 0 1 -5.59,-9.59 5.91,5.91 0 0 0 0.54,-0.37 6.11,6.11 0 1 0 -8.56,-1.16 6.22,6.22 0 0 0 4.1,2.33 25.9,25.9 0 0 0 3.06,7.07 16.33,16.33 0 0 0 -9.05,2.05 6.1,6.1 0 1 0 2.19,3.35 13.32,13.32 0 0 1 10.79,-0.55 27,27 0 0 0 8.55,5.25 v -4 a 24.5,24.5 0 0 1 -6.03,-4.38 z m -17.94,6.86 a 2.11,2.11 0 1 1 -2.54,-3.3 2.14,2.14 0 0 1 3,0.41 l 0.07,0.09 a 2.1,2.1 0 0 1 -0.53,2.81 z m 7.5,-20.41 a 2.11,2.11 0 1 1 3,0.4 2.06,2.06 0 0 1 -0.86,0.38 2.13,2.13 0 0 1 -2.1,-0.79 z"
       transform="translate(-4.35,-2.82)"
       style="fill:#fffedb"
       id="path58"
       inkscape:connector-curvature="0" />
    <path
       d="m 56,73.1 c -1.35,1.54 -2.12,2.35 -3.45,2.42 -1.93,0.1 -3.41,0 -4.84,0 -1.43,0 -4,-0.82 -8,-2.6 -4,-1.78 -12.1,-9.66 -14.77,-14.29 0.11,-0.14 0.22,-0.28 0.31,-0.43 A 6.09,6.09 0 0 0 23.64,50 L 23.36,49.81 A 6.1,6.1 0 1 0 21.64,60.88 C 24.18,65 31.88,72.9 34.79,74.6 a 18.11,18.11 0 0 0 -4.2,2.18 11.28,11.28 0 0 1 -4.85,2.06 6,6 0 0 0 -2.1,-2.64 L 23.35,76 a 6.11,6.11 0 1 0 -3.26,11.27 c 0.13,0 0.25,0 0.37,0 a 25.71,25.71 0 0 1 0,11.25 h -0.34 a 6.11,6.11 0 1 0 4.14,1.62 l -0.08,-0.07 a 28.49,28.49 0 0 0 0,-14.37 c 0.15,-0.13 0.3,-0.26 0.44,-0.41 a 6.17,6.17 0 0 0 0.63,-0.82 6.1,6.1 0 0 0 0.75,-1.6 15.17,15.17 0 0 0 6.81,-2.72 13.88,13.88 0 0 1 7.84,-2.58 21.35,21.35 0 0 0 6.91,2 33.82,33.82 0 0 0 5.2,0 c 3.08,-0.16 4.76,-2.08 6.24,-3.77 1.48,-1.69 3,-3.46 6.4,-3.89 v -4 C 60.15,68.34 57.75,71.05 56,73.1 Z M 20.09,57 a 2.11,2.11 0 0 1 -1.78,-3.23 2.14,2.14 0 0 1 2.91,-0.65 l 0.09,0.06 A 2.11,2.11 0 0 1 20.09,57 Z M 19,83 a 2.11,2.11 0 0 1 -1,-1.37 2.08,2.08 0 0 1 0.28,-1.58 2.14,2.14 0 0 1 2.91,-0.65 l 0.09,0.06 A 2.11,2.11 0 0 1 19,83 Z m 2.9,22.76 a 2.11,2.11 0 1 1 -3.56,-2.25 2.14,2.14 0 0 1 2.91,-0.65 l 0.09,0.06 a 2.1,2.1 0 0 1 0.53,2.8 z"
       transform="translate(-4.35,-2.82)"
       style="fill:#fffedb"
       id="path60"
       inkscape:connector-curvature="0" />
  </g>
</svg>
