<?xml version="1.0" encoding="utf-8"?>
<!-- Generator: Adobe Illustrator 26.2.1, SVG Export Plug-In . SVG Version: 6.00 Build 0)  -->
<svg version="1.1" id="Layer_1" xmlns="http://www.w3.org/2000/svg" xmlns:xlink="http://www.w3.org/1999/xlink" x="0px" y="0px"
	 width="215.7px" height="30px" viewBox="0 0 215.7 30" style="enable-background:new 0 0 215.7 30;" xml:space="preserve">
<style type="text/css">
	.st0{fill:#353070;}
	.st1{fill:#EB743B;}
</style>
<g>
	<g>
		<polygon class="st0" points="14.4,1.1 2.4,8.1 2.4,22.1 14.4,29.1 		"/>
		<polygon class="st1" points="15.4,1.1 27.4,8.1 27.4,22.1 15.4,29.1 		"/>
	</g>
	<g>
		<path class="st0" d="M41.6,22.9h9.5v4.2h-15V4.4h5.5V22.9L41.6,22.9z"/>
		<path class="st0" d="M53.2,5.9c0-0.8,0.3-1.4,0.8-1.9s1.2-0.7,2.1-0.7s1.6,0.2,2.1,0.7C58.8,4.5,59,5.1,59,5.9s-0.3,1.4-0.8,1.8
			c-0.5,0.5-1.2,0.7-2.1,0.7S54.5,8.2,54,7.7S53.2,6.6,53.2,5.9z M58.8,27.1h-5.3V10.2h5.3V27.1L58.8,27.1z"/>
		<path class="st0" d="M70.9,22.4c0-0.5-0.2-0.8-0.7-1.1c-0.5-0.3-1.4-0.5-2.7-0.8s-2.4-0.7-3.2-1.1c-0.8-0.5-1.5-1-2-1.7
			s-0.7-1.5-0.7-2.3c0-1.6,0.6-2.8,1.9-3.8c1.3-1,3-1.5,5-1.5c2.2,0,4,0.5,5.4,1.5c1.3,1,2,2.3,2,4h-5.3c0-1.4-0.7-2-2.1-2
			c-0.6,0-1,0.1-1.4,0.5c-0.4,0.3-0.6,0.7-0.6,1.1s0.2,0.9,0.7,1.1s1.2,0.5,2.2,0.7s1.9,0.4,2.6,0.7c2.5,0.9,3.8,2.4,3.8,4.7
			c0,1.5-0.7,2.8-2.1,3.8s-3.1,1.5-5.3,1.5c-1.4,0-2.7-0.3-3.9-0.8c-1.1-0.5-2-1.2-2.7-2.1s-1-1.8-1-2.8H66c0,0.8,0.3,1.4,0.8,1.7
			s1.1,0.5,1.9,0.5c0.7,0,1.3-0.1,1.6-0.4S70.9,22.8,70.9,22.4L70.9,22.4z"/>
		<path class="st0" d="M84.5,6v4.2h2.8v3.6h-2.8v7.7c0,0.6,0.1,1.1,0.3,1.3c0.2,0.2,0.7,0.4,1.4,0.4c0.5,0,1,0,1.3-0.1V27
			c-0.9,0.3-1.9,0.5-3,0.5c-1.8,0-3.2-0.4-4-1.3s-1.3-2.1-1.3-3.9v-8.4H77v-3.7h2.2V6H84.5L84.5,6z"/>
		<path class="st0" d="M97.5,27.4c-2.6,0-4.7-0.8-6.3-2.3c-1.6-1.5-2.4-3.6-2.4-6v-0.4c0-1.7,0.3-3.2,1-4.6s1.6-2.3,2.8-3.1
			c1.2-0.7,2.7-1.1,4.4-1.1c2.4,0,4.2,0.7,5.6,2.2s2.1,3.5,2.1,6.2v2H94.2c0.2,1,0.6,1.7,1.2,2.2s1.5,0.8,2.5,0.8
			c1.7,0,3-0.6,3.9-1.8l2.4,2.8c-0.7,0.9-1.6,1.6-2.8,2.2C100.2,27.2,98.9,27.4,97.5,27.4L97.5,27.4z M96.9,14c-1.5,0-2.5,1-2.8,3.1
			h5.3v-0.4c0-0.8-0.2-1.5-0.6-2S97.8,14,96.9,14L96.9,14z"/>
		<path class="st0" d="M111.6,10.2l0.2,2c1.2-1.5,2.8-2.3,4.8-2.3c1.8,0,3.1,0.5,3.9,1.6s1.3,2.6,1.3,4.8v10.9h-5.3V16.5
			c0-0.9-0.2-1.5-0.5-1.9s-1-0.6-1.9-0.6c-1,0-1.8,0.4-2.3,1.2v11.9h-5.3V10.2H111.6L111.6,10.2z"/>
		<path class="st1" d="M125,27.1V4.4h8.2c2.9,0,5.1,0.5,6.7,1.6c1.5,1.1,2.3,2.6,2.3,4.7c0,1.2-0.3,2.2-0.8,3s-1.3,1.4-2.4,1.8
			c1.2,0.3,2.1,0.9,2.7,1.8c0.6,0.9,1,1.9,1,3.1c0,2.2-0.7,3.9-2.1,5s-3.5,1.7-6.3,1.7H125L125,27.1z M130.5,13.9h2.9
			c1.2,0,2-0.2,2.6-0.7c0.5-0.4,0.8-1.1,0.8-1.9c0-1-0.3-1.6-0.8-2.1c-0.6-0.4-1.4-0.6-2.7-0.6h-2.7v5.3H130.5z M130.5,17.5v5.4h3.6
			c1,0,1.8-0.2,2.3-0.7s0.8-1.1,0.8-1.9c0-1.9-0.9-2.9-2.8-2.9C134.3,17.5,130.5,17.5,130.5,17.5z"/>
		<path class="st1" d="M155.6,15l-1.7-0.1c-1.6,0-2.7,0.5-3.2,1.6v10.7h-5.3v-17h4.9l0.2,2.2c0.9-1.6,2.1-2.5,3.7-2.5
			c0.6,0,1,0.1,1.5,0.2L155.6,15L155.6,15z"/>
		<path class="st1" d="M166.6,27.1c-0.2-0.3-0.4-0.9-0.5-1.5c-1,1.2-2.3,1.8-4.1,1.8c-1.6,0-2.9-0.5-4.1-1.4c-1.1-1-1.7-2.2-1.7-3.6
			c0-1.8,0.7-3.2,2-4.1c1.4-0.9,3.3-1.4,5.9-1.4h1.6V16c0-1.6-0.7-2.3-2-2.3c-1.2,0-1.9,0.6-1.9,1.9h-5.3c0-1.6,0.7-3,2.1-4
			c1.4-1,3.2-1.5,5.3-1.5s3.9,0.5,5.1,1.6c1.2,1.1,1.9,2.5,1.9,4.3v7.5c0,1.5,0.3,2.7,0.7,3.6v0.3L166.6,27.1L166.6,27.1z
			 M163.3,23.7c0.7,0,1.2-0.1,1.6-0.4s0.7-0.6,0.9-1v-2.7h-1.5c-1.8,0-2.8,0.8-2.8,2.5c0,0.5,0.2,0.9,0.5,1.2
			C162.3,23.5,162.8,23.7,163.3,23.7L163.3,23.7z"/>
		<path class="st1" d="M174,5.9c0-0.8,0.3-1.4,0.8-1.9s1.2-0.7,2.1-0.7s1.6,0.2,2.1,0.7s0.8,1.1,0.8,1.9s-0.3,1.4-0.8,1.8
			c-0.5,0.5-1.2,0.7-2.1,0.7s-1.6-0.2-2.1-0.7C174.2,7.2,174,6.6,174,5.9z M179.6,27.1h-5.3V10.2h5.3V27.1L179.6,27.1z"/>
		<path class="st1" d="M187.6,10.2l0.2,2c1.2-1.5,2.8-2.3,4.8-2.3c1.8,0,3.1,0.5,3.9,1.6s1.3,2.6,1.4,4.8v10.9h-5.3V16.5
			c0-0.9-0.2-1.5-0.5-1.9s-1-0.6-1.9-0.6c-1,0-1.8,0.4-2.3,1.2v11.9h-5.3V10.2H187.6L187.6,10.2z"/>
		<path class="st1" d="M207,23.1h7.7v4.1h-14.3v-2.9l7.5-9.9h-7.2v-4.1h13.8v2.8L207,23.1L207,23.1z"/>
	</g>
</g>
</svg>
