<?xml version="1.0" encoding="utf-8"?>
<svg xmlns="http://www.w3.org/2000/svg" viewBox="293.5678 30.5889 115.046 108.9319" width="115.046px" height="108.932px" preserveAspectRatio="none">
  <path d="M 0 0 C 2.262 8.842 11.926 13.16 11.926 13.16 C 11.926 13.16 4.113 15.628 3.907 22.413 C 3.701 29.199 9.048 37.835 9.048 37.835 C 9.048 37.835 -15.216 17.684 -24.058 21.385 C -32.9 25.086 -30.844 36.19 -30.227 38.658 C -29.61 41.125 -27.759 47.705 -27.759 47.705 C -27.759 47.705 -35.779 42.77 -44.004 45.854 C -50.073 48.13 -52.665 54.091 -53.611 57.064 L -53.949 58.647 C -53.91 58.46 -53.843 58.096 -53.774 57.604 C -53.915 58.091 -54.004 58.458 -54.045 58.647 L -53.702 57.024 C -53.356 53.923 -53.3 47.424 -57.918 42.876 C -64.177 36.713 -73.511 37.959 -73.511 37.959 C -73.511 37.959 -69.143 32.701 -67.576 30.697 C -66.009 28.694 -59.614 19.387 -66.186 12.409 C -72.757 5.431 -103.12 13.97 -103.12 13.97 C -103.12 13.97 -94.723 8.256 -92.151 1.973 C -89.578 -4.31 -95.713 -9.742 -95.713 -9.742 C -95.713 -9.742 -85.127 -9.756 -79.464 -16.913 C -73.802 -24.07 -82.206 -37.041 -82.206 -37.041 C -82.206 -37.041 -76.759 -34.616 -67.594 -33.461 C -58.43 -32.306 -52.538 -38.461 -52.538 -38.461 C -52.538 -38.461 -51.076 -38.711 -48.823 -35.682 C -47.254 -33.572 -41.222 -31.441 -37.703 -30.34 C -37.002 -34.889 -34.843 -42.535 -28.171 -46.427 C -18.301 -52.185 -17.067 -50.128 -15.422 -48.895 C -13.777 -47.661 -13.777 -43.548 -19.123 -43.548 C -22.926 -43.548 -31.508 -41.042 -33.782 -29.388 C -30.479 -28.961 -22.903 -28.178 -20.357 -29.61 C -17.067 -31.461 -15.833 -30.638 -15.833 -30.638 C -15.833 -30.638 -12.954 -22.619 -4.113 -19.946 C 4.729 -17.272 10.693 -17.272 10.693 -17.272 C 10.693 -17.272 -2.262 -8.842 0 0" style="fill-opacity: 1; fill: rgb(203, 49, 70);" id="object-14" transform="matrix(1, 0, 0, -1, 396.6878051757813, 89.23589324951173)"/>
</svg>