<?xml version="1.0" encoding="UTF-8"?>
<svg id="Layer_1" xmlns="http://www.w3.org/2000/svg" version="1.1" xmlns:xlink="http://www.w3.org/1999/xlink" viewBox="0 0 77 77">
  <!-- Generator: Adobe Illustrator 30.2.1, SVG Export Plug-In . SVG Version: 2.1.1 Build 1)  -->
  <defs>
    <style>
      .st0 {
        fill: none;
      }

      .st1 {
        clip-path: url(#clippath-1);
      }

      .st2 {
        fill: #f5f5f5;
        stroke: #f5f5f5;
      }

      .st3 {
        fill: #bcbcbc;
      }

      .st4 {
        clip-path: url(#clippath);
      }
    </style>
    <clipPath id="clippath">
      <rect class="st0" x="1.2" y=".5" width="75.2" height="75.2" rx="3.5" ry="3.5"/>
    </clipPath>
    <clipPath id="clippath-1">
      <rect class="st3" x="1.2" y=".5" width="75.2" height="75.2" rx="3.5" ry="3.5"/>
    </clipPath>
  </defs>
  <g class="st4">
    <g>
      <rect class="st3" x="1.2" y=".5" width="75.2" height="75.2" rx="3.5" ry="3.5"/>
      <g class="st1">
        <path class="st3" d="M-.6,77.7V0h77.7v77.7H-.6Z"/>
      </g>
    </g>
    <g>
      <g>
        <path class="st2" d="M60.4-.4h17v56.6c-.2,0-.3-.1-.5-.2-.5-.1-.6.7-.7.4l-1.7-5.5-1.7-5.8-1.6-4.6-1.2-3.4c0-.1-.1-.2-.2-.3s-.3,0-.4,0l-4.4,1.2c0-.6,0-1.2-.1-1.8l-.5-8.1-.4-6.5v-.8s-.1-1.4-.1-1.4l-.4-5.4-.2-2.8v-.8s-.1-1-.1-1c0,0-.1-.2-.2-.3h-1.8c-.2,0-.4.1-.6.1-.3,0-.7,0-1,0h-.6c0,0-.3,0-.3,0h-.3s-.5,0-.5,0h-.5c0,0-4.5.3-4.5.3h-2.3c0,.1-4.9.4-4.9.4l1-5.9v-.5c.2,0,.3,0,.4,0l5.2,1.3,2.3.6,3.3.9c.1,0,.2,0,.3-.1l2.1-6.8Z"/>
        <path class="st2" d="M68.8,77.4H4.3l5.9-10.3h0c0,0,0,0,0,0v.3s0,.2,0,.2l.2.9h0c0,.1.2,1.1.2,1.1,0,0,.1,0,.1,0h0c0,.1.2.2.3.1l2.9-.3,12.2-1.1c.4-.2.6-.4.9-.7s.3-.3.5-.4.2-.2.4-.3c.3-.2.7-.4,1-.6s.8-.3,1.1-.6l.7-.7c.2-.2.5-.4.8-.6s.4-.4.6-.6.4-.1.6-.1c.6,0,1.1.4,1.2.9s.2.7.1,1.1-.1.5-.2.8c-.2.5-.8,1.1-.8,1.3s0,0,.1,0h2.3c0-.1,3.9-.3,3.9-.3h2c0,0,5.5-.4,5.5-.4l6.9-.5,12.8-1,.3-.2-.3-4.9,7.1-2.1c.7-.2,1.3-.4,2-.6l-6.2,13.9-1.9,4.2c0,.2-.2.6,0,.7l1.3.7Z"/>
        <path class="st2" d="M21.3-.4l1.4,2.4c0,0,.1.2.2.2s.2,0,.3,0L28.6-.4h14.1l-.9,2.7s0,.1,0,.2,0,0,.1,0l4.1,1c-.2,0-.3,0-.5,0L28,1.2c-.2,0-.3,0-.3.2l-.7,3.1-1.6,6.9h-.8c0,0-1.5.2-1.5.2l-2.3.2-2.7.2-5.8.4-6.3.4c0,0-.2,0-.2,0s0,.2,0,.2c.2,1.7.3,3.4.4,5.1v1.1c0,0-2.8.8-2.8.8-.3,0-.6.2-.9.3,0,.2,0,.5,0,.7,0,.6-.4,1.2-.7,1.7s-.8.9-1,1l-.9.5V-.4h21.7Z"/>
      </g>
      <path class="st2" d="M-.4,52.5v-10.8c.1,0,.3,0,.4,0l7.7-2.4.4,4.2.3,3.1.3,2.7.4,4.7.4,4.3L-.1,52.6c0,0-.2,0-.2-.1Z"/>
    </g>
  </g>
</svg>