<?xml version="1.0" encoding="UTF-8"?>
<svg id="Layer_1" xmlns="http://www.w3.org/2000/svg" version="1.1" xmlns:xlink="http://www.w3.org/1999/xlink" viewBox="0 0 77 77">
  <!-- Generator: Adobe Illustrator 30.2.1, SVG Export Plug-In . SVG Version: 2.1.1 Build 1)  -->
  <defs>
    <style>
      .st0, .st1 {
        fill: none;
      }

      .st2 {
        clip-path: url(#clippath-1);
      }

      .st3 {
        clip-path: url(#clippath-3);
      }

      .st1, .st4 {
        stroke: #f5f5f5;
      }

      .st5, .st4 {
        fill: #f5f5f5;
      }

      .st6 {
        clip-path: url(#clippath-2);
      }

      .st7 {
        fill: #bcbcbc;
      }

      .st8 {
        clip-path: url(#clippath);
      }
    </style>
    <clipPath id="clippath">
      <rect class="st0" x="1.2" y=".5" width="75.2" height="75.2" rx="3.5" ry="3.5"/>
    </clipPath>
    <clipPath id="clippath-1">
      <rect class="st7" x="1.2" y=".5" width="75.2" height="75.2" rx="3.5" ry="3.5"/>
    </clipPath>
    <clipPath id="clippath-2">
      <path class="st4" d="M50.2,0c0,0-.2.2-.3.2,0,.3-.3.3-.4.4l-2.1,1.9c-.1.1-.2.2-.4.3l-.6.6s-.1,0-.2,0h-.1c0-.1-3.8,3.3-3.8,3.3l3,3.1,3.7-4.1,1.1-1.4,2.9-4.4h.5c-.9,1.3-1.8,2.6-2.6,4s-1,1.4-1.5,2.1-.5.6-.8.9c-1,1.1-1.9,2.1-2.9,3.3,0,.1.2.2.3.3l1.2-.2c.9-.1,1-.2,1.9-.1h1c.2,0,.4,0,.7,0,.7,0,1.4-.2,2.1-.2s.7,0,1-.2c.5-.3,1-.6,1.5-1s1.1-.7,1.7-.9l.9-.3c.8-.2,1.4-.8,1.7-1.5l.6-1.3c.1-.3.4-.5.6-.7l1.4-.9c.4-.3.6-.8.7-1.2l.2-1.1c0-.3.2-.6.3-.8h.4c-.1.2-.3.4-.4.7l-.2,1.2c-.3,1.7-1.7,1.9-2.4,2.5s-.2.4-.3.5c-.2.5-.5,1-.7,1.5s-.6.9-1.1,1.1c-.7.3-1.4.5-2.1.8s-.4.2-.6.3l-1.7,1.2c-.7.5-1.6.4-2.5.5s-1.2.2-1.8.2c-1.5,0-2.4,0-3.9.3l8.9,8.7c0,0,.2,0,.3,0,.4-.4.8-.8,1.2-1.2l2.1-2,2.1-2.1,3.6-3.6,2.3-2.3c.8-.8,1.5-1.5,2.4-2.2l.6,9.5-3.4,1.3-5.6,2.2-6.7,2.6-.5.2,1.6,4.1,2,4.9,3.6,8.8.9,2.2c.1.3.3.5.5.7l5.3-2.1s0,0,.1,0,0,0,0,0h0c0,0-.9,1.3-.9,1.3-.1.2-.2.4-.4.6s0,.2,0,.3l1.5,1.4,10.8,8.7c.2.1,0,.2,0,.2l-1.7,5.3h-4s0,0,0,0h-7.4s-.1,0-.1,0h-3.8s-.1,0-.1,0h-4.4s0,0,0,0c0,0,0,0,0,0h0c0,0,0,.2,0,.2h0c0,0,0,.2,0,.2v.3s0,0,0,0l-7.3-8.2-.7-.7-1.8-2.1-.7-.7h0c0,0,0-.1,0-.1l12.2-2.8-2.2-8.9-1.7-7.3-1.4-5.6-12.7,2.7-8.6,1.9c-.2,0-.3,0-.5.1l.3,1.4,1.2,5.5,2,9.2,1.1,4.8-3.4,3.1-7.2,6.6c0,0-.1-.2-.1-.2s0-.2.1-.3l.9-.9v-2.4s0-1.3,0-1.3v-1.2s0-1.2,0-1.2v-1.2s-.1-2.3-.1-2.3v-1.1s0-1.2,0-1.2v-1.2s0-1.1,0-1.1v-1.2c0,0-.1-.3-.3-.2h-2.5s-8.1.4-8.1.4c0,.2,0,.4-.1.5-.3.8-.6,1.6-1,2.3s-.8,1.1-1.2,1.7c-.6.8-1.4,1.3-2.2,1.9-2.1,1.5-4.8,2.2-7.3,2s-.1,0-.1,0c0,.7,0,1.4,0,2.2v1.3s0,1.2,0,1.2v1.3s0,1.7,0,1.7v1.7s0,1.8,0,1.8v1.7c0,.4,0,.8,0,1.2v.6c0,.1,0,.3.2.3h.9s1.1,0,1.1,0l16.1-.7,4.5-.2c0,0,.2,0,.2,0s0-.2,0-.3v-1.3c0,0-.1-1.2-.1-1.2v-.9c0-.2,0-.3-.2-.4,0,0,0,0,0,0l1.7,1.9,4.9,5.5,7.2,7.7.3.3c0,.1.2,0,.3,0l15.7-14.5.2-.2s0,0,0,0c0,0,0,.1,0,.1v2.8s0,13.1,0,13.1v1.3h-29.9v-.3s-2.8-1.8-2.8-1.8l-9.5-6.1-6.3-4-.8-.4c-.2.1-.3.3-.4.5l-.6.8-4.9,7.8c0,.1-.1.1-.1.1v-31l7.1-2.3c.1,0,.2,0,.3-.2s0-.2,0-.4L3.2,22.2l-.8-2.7c0-.3-.9.2-1.1,0v-.2l3.5-.8,13.8-3.1c0-.1.1-.2,0-.4l-.5-2.3L8.4,2.7l-.4-.8L10.1.1s0,0,0-.1h40Z"/>
    </clipPath>
    <clipPath id="clippath-3">
      <rect class="st4" x="1.2" y=".5" width="75.2" height="75.2" rx="3.5" ry="3.5"/>
    </clipPath>
  </defs>
  <g class="st8">
    <g>
      <g>
        <rect class="st7" x="1.2" y=".5" width="75.2" height="75.2" rx="3.5" ry="3.5"/>
        <g class="st2">
          <path class="st7" d="M-.6,77.7V0h77.7v77.7H-.6Z"/>
        </g>
      </g>
      <g>
        <path class="st5" d="M50.2,0c0,0-.2.2-.3.2,0,.3-.3.3-.4.4l-2.1,1.9c-.1.1-.2.2-.4.3l-.6.6s-.1,0-.2,0h-.1c0-.1-3.8,3.3-3.8,3.3l3,3.1,3.7-4.1,1.1-1.4,2.9-4.4h.5c-.9,1.3-1.8,2.6-2.6,4s-1,1.4-1.5,2.1-.5.6-.8.9c-1,1.1-1.9,2.1-2.9,3.3,0,.1.2.2.3.3l1.2-.2c.9-.1,1-.2,1.9-.1h1c.2,0,.4,0,.7,0,.7,0,1.4-.2,2.1-.2s.7,0,1-.2c.5-.3,1-.6,1.5-1s1.1-.7,1.7-.9l.9-.3c.8-.2,1.4-.8,1.7-1.5l.6-1.3c.1-.3.4-.5.6-.7l1.4-.9c.4-.3.6-.8.7-1.2l.2-1.1c0-.3.2-.6.3-.8h.4c-.1.2-.3.4-.4.7l-.2,1.2c-.3,1.7-1.7,1.9-2.4,2.5s-.2.4-.3.5c-.2.5-.5,1-.7,1.5s-.6.9-1.1,1.1c-.7.3-1.4.5-2.1.8s-.4.2-.6.3l-1.7,1.2c-.7.5-1.6.4-2.5.5s-1.2.2-1.8.2c-1.5,0-2.4,0-3.9.3l8.9,8.7c0,0,.2,0,.3,0,.4-.4.8-.8,1.2-1.2l2.1-2,2.1-2.1,3.6-3.6,2.3-2.3c.8-.8,1.5-1.5,2.4-2.2l.6,9.5-3.4,1.3-5.6,2.2-6.7,2.6-.5.2,1.6,4.1,2,4.9,3.6,8.8.9,2.2c.1.3.3.5.5.7l5.3-2.1s0,0,.1,0,0,0,0,0h0c0,0-.9,1.3-.9,1.3-.1.2-.2.4-.4.6s0,.2,0,.3l1.5,1.4,10.8,8.7c.2.1,0,.2,0,.2l-1.7,5.3h-4s0,0,0,0h-7.4s-.1,0-.1,0h-3.8s-.1,0-.1,0h-4.4s0,0,0,0c0,0,0,0,0,0h0c0,0,0,.2,0,.2h0c0,0,0,.2,0,.2v.3s0,0,0,0l-7.3-8.2-.7-.7-1.8-2.1-.7-.7h0c0,0,0-.1,0-.1l12.2-2.8-2.2-8.9-1.7-7.3-1.4-5.6-12.7,2.7-8.6,1.9c-.2,0-.3,0-.5.1l.3,1.4,1.2,5.5,2,9.2,1.1,4.8-3.4,3.1-7.2,6.6c0,0-.1-.2-.1-.2s0-.2.1-.3l.9-.9v-2.4s0-1.3,0-1.3v-1.2s0-1.2,0-1.2v-1.2s-.1-2.3-.1-2.3v-1.1s0-1.2,0-1.2v-1.2s0-1.1,0-1.1v-1.2c0,0-.1-.3-.3-.2h-2.5s-8.1.4-8.1.4c0,.2,0,.4-.1.5-.3.8-.6,1.6-1,2.3s-.8,1.1-1.2,1.7c-.6.8-1.4,1.3-2.2,1.9-2.1,1.5-4.8,2.2-7.3,2s-.1,0-.1,0c0,.7,0,1.4,0,2.2v1.3s0,1.2,0,1.2v1.3s0,1.7,0,1.7v1.7s0,1.8,0,1.8v1.7c0,.4,0,.8,0,1.2v.6c0,.1,0,.3.2.3h.9s1.1,0,1.1,0l16.1-.7,4.5-.2c0,0,.2,0,.2,0s0-.2,0-.3v-1.3c0,0-.1-1.2-.1-1.2v-.9c0-.2,0-.3-.2-.4,0,0,0,0,0,0l1.7,1.9,4.9,5.5,7.2,7.7.3.3c0,.1.2,0,.3,0l15.7-14.5.2-.2s0,0,0,0c0,0,0,.1,0,.1v2.8s0,13.1,0,13.1v1.3h-29.9v-.3s-2.8-1.8-2.8-1.8l-9.5-6.1-6.3-4-.8-.4c-.2.1-.3.3-.4.5l-.6.8-4.9,7.8c0,.1-.1.1-.1.1v-31l7.1-2.3c.1,0,.2,0,.3-.2s0-.2,0-.4L3.2,22.2l-.8-2.7c0-.3-.9.2-1.1,0v-.2l3.5-.8,13.8-3.1c0-.1.1-.2,0-.4l-.5-2.3L8.4,2.7l-.4-.8L10.1.1s0,0,0-.1h40Z"/>
        <g class="st6">
          <g>
            <rect class="st5" x="1.2" y=".5" width="75.2" height="75.2" rx="3.5" ry="3.5"/>
            <g class="st3">
              <path class="st4" d="M-.6,77.7V0h77.7v77.7H-.6Z"/>
            </g>
            <rect class="st1" x="1.2" y=".5" width="75.2" height="75.2" rx="3.5" ry="3.5"/>
          </g>
        </g>
        <path class="st1" d="M50.2,0c0,0-.2.2-.3.2,0,.3-.3.3-.4.4l-2.1,1.9c-.1.1-.2.2-.4.3l-.6.6s-.1,0-.2,0h-.1c0-.1-3.8,3.3-3.8,3.3l3,3.1,3.7-4.1,1.1-1.4,2.9-4.4h.5c-.9,1.3-1.8,2.6-2.6,4s-1,1.4-1.5,2.1-.5.6-.8.9c-1,1.1-1.9,2.1-2.9,3.3,0,.1.2.2.3.3l1.2-.2c.9-.1,1-.2,1.9-.1h1c.2,0,.4,0,.7,0,.7,0,1.4-.2,2.1-.2s.7,0,1-.2c.5-.3,1-.6,1.5-1s1.1-.7,1.7-.9l.9-.3c.8-.2,1.4-.8,1.7-1.5l.6-1.3c.1-.3.4-.5.6-.7l1.4-.9c.4-.3.6-.8.7-1.2l.2-1.1c0-.3.2-.6.3-.8h.4c-.1.2-.3.4-.4.7l-.2,1.2c-.3,1.7-1.7,1.9-2.4,2.5s-.2.4-.3.5c-.2.5-.5,1-.7,1.5s-.6.9-1.1,1.1c-.7.3-1.4.5-2.1.8s-.4.2-.6.3l-1.7,1.2c-.7.5-1.6.4-2.5.5s-1.2.2-1.8.2c-1.5,0-2.4,0-3.9.3l8.9,8.7c0,0,.2,0,.3,0,.4-.4.8-.8,1.2-1.2l2.1-2,2.1-2.1,3.6-3.6,2.3-2.3c.8-.8,1.5-1.5,2.4-2.2l.6,9.5-3.4,1.3-5.6,2.2-6.7,2.6-.5.2,1.6,4.1,2,4.9,3.6,8.8.9,2.2c.1.3.3.5.5.7l5.3-2.1s0,0,.1,0,0,0,0,0h0c0,0-.9,1.3-.9,1.3-.1.2-.2.4-.4.6s0,.2,0,.3l1.5,1.4,10.8,8.7c.2.1,0,.2,0,.2l-1.7,5.3h-4s0,0,0,0h-7.4s-.1,0-.1,0h-3.8s-.1,0-.1,0h-4.4s0,0,0,0c0,0,0,0,0,0h0c0,0,0,.2,0,.2h0c0,0,0,.2,0,.2v.3s0,0,0,0l-7.3-8.2-.7-.7-1.8-2.1-.7-.7h0c0,0,0-.1,0-.1l12.2-2.8-2.2-8.9-1.7-7.3-1.4-5.6-12.7,2.7-8.6,1.9c-.2,0-.3,0-.5.1l.3,1.4,1.2,5.5,2,9.2,1.1,4.8-3.4,3.1-7.2,6.6c0,0-.1-.2-.1-.2s0-.2.1-.3l.9-.9v-2.4s0-1.3,0-1.3v-1.2s0-1.2,0-1.2v-1.2s-.1-2.3-.1-2.3v-1.1s0-1.2,0-1.2v-1.2s0-1.1,0-1.1v-1.2c0,0-.1-.3-.3-.2h-2.5s-8.1.4-8.1.4c0,.2,0,.4-.1.5-.3.8-.6,1.6-1,2.3s-.8,1.1-1.2,1.7c-.6.8-1.4,1.3-2.2,1.9-2.1,1.5-4.8,2.2-7.3,2s-.1,0-.1,0c0,.7,0,1.4,0,2.2v1.3s0,1.2,0,1.2v1.3s0,1.7,0,1.7v1.7s0,1.8,0,1.8v1.7c0,.4,0,.8,0,1.2v.6c0,.1,0,.3.2.3h.9s1.1,0,1.1,0l16.1-.7,4.5-.2c0,0,.2,0,.2,0s0-.2,0-.3v-1.3c0,0-.1-1.2-.1-1.2v-.9c0-.2,0-.3-.2-.4,0,0,0,0,0,0l1.7,1.9,4.9,5.5,7.2,7.7.3.3c0,.1.2,0,.3,0l15.7-14.5.2-.2s0,0,0,0c0,0,0,.1,0,.1v2.8s0,13.1,0,13.1v1.3h-29.9v-.3s-2.8-1.8-2.8-1.8l-9.5-6.1-6.3-4-.8-.4c-.2.1-.3.3-.4.5l-.6.8-4.9,7.8c0,.1-.1.1-.1.1v-31l7.1-2.3c.1,0,.2,0,.3-.2s0-.2,0-.4L3.2,22.2l-.8-2.7c0-.3-.9.2-1.1,0v-.2l3.5-.8,13.8-3.1c0-.1.1-.2,0-.4l-.5-2.3L8.4,2.7l-.4-.8L10.1.1s0,0,0-.1h40Z"/>
      </g>
    </g>
  </g>
</svg>