<?xml version="1.0" encoding="UTF-8"?>
<svg id="Layer_1" xmlns="http://www.w3.org/2000/svg" version="1.1" xmlns:xlink="http://www.w3.org/1999/xlink" viewBox="0 0 77 77">
  <!-- Generator: Adobe Illustrator 30.2.1, SVG Export Plug-In . SVG Version: 2.1.1 Build 1)  -->
  <defs>
    <style>
      .st0 {
        clip-path: url(#clippath-4);
      }

      .st1 {
        clip-path: url(#clippath-3);
      }

      .st1, .st2, .st3, .st4 {
        stroke: #f5f5f5;
      }

      .st1, .st5, .st3, .st4 {
        fill: #f5f5f5;
      }

      .st6, .st2 {
        fill: none;
      }

      .st7 {
        clip-path: url(#clippath-1);
      }

      .st8 {
        clip-path: url(#clippath-5);
      }

      .st9 {
        fill: #bcbcbc;
      }

      .st4 {
        clip-path: url(#clippath-2);
      }

      .st10 {
        clip-path: url(#clippath);
      }
    </style>
    <clipPath id="clippath">
      <rect class="st6" x="1.2" y=".5" width="75.2" height="75.2" rx="3.5" ry="3.5"/>
    </clipPath>
    <clipPath id="clippath-1">
      <rect class="st9" x="1.2" y=".5" width="75.2" height="75.2" rx="3.5" ry="3.5"/>
    </clipPath>
    <clipPath id="clippath-2">
      <path class="st3" d="M46.9-.4h30.4v77.7H-.4v-14.1c.1,0,.2.2.3.3l.3.3c.2.2.4.3.6.5l9.6,9.2c.1.1.2.2.3.2s.2,0,.3-.2l10.5-11.1c.2,0,.5,0,.7.1l9.7,2.3c.3,0,.6,0,.9.1s.3,0,.5.1l.7.2,1.9.4c.7-.5.5-.6.6-.9l.3-1.1,1.5-6.6c0-.2,0-.5.1-.7,0-.3.2-.6.2-1s.1-.5.2-.8c.1-.7.2-.8.3-1l.8-3.4.9-4.4s0-.1.1-.1,0,0,.1,0l6,5.1,8.6,7.3,15.4-18.4c0,0,.1-.2.1-.3l.7-2.5c0-.1,0-.1-.2-.2l-9.5-8.1c-.2-.2-.4-.5-.6-.5s-.3,0-.4.1l-1,.4c-.3.1-.6.1-.9.2l7.2-21.7c0-.2,0-.3.1-.5s0-.2,0-.3L46.9-.4Z"/>
    </clipPath>
    <clipPath id="clippath-3">
      <path class="st4" d="M41-.4l-.8,1.9v.5c-.1,0-1,2.4-1,2.4l-.3.7-1.5,4-2.2,6-.6-1.3c0-.1-.2-.3-.5-.2l-16.8,7.4-.7.3c.2.1.6,0,.7.2l.2.6c0,0-.2,0-.3.1l-1,.5c-.4,0-.7,0-1.1.1-.7.3-.3-.1-1.4.5l-1,.6c-.2,0-.3.2-.4.2-.7.4-1.4.8-2,1.4l4.5,9.8-.7,2.7-3.8-3.6c-.1,0-.3-.1-.4-.2l-5.3,5.4-2,2.2.2.3h.5c0-.1,0-.3,0-.3.1,0,.3,0,.4,0-.3.3-.3.7-.4.7s-.2-.2-.5,0-.8.2-1.2.3l-1.9,1.8s-.1,0-.2.1V-.4h41.4Z"/>
    </clipPath>
    <clipPath id="clippath-4">
      <polygon class="st1" points="46.4 26.9 42.7 31 39.7 24.6 46.4 26.9"/>
    </clipPath>
    <clipPath id="clippath-5">
      <rect class="st3" x="1.2" y=".5" width="75.2" height="75.2" rx="3.5" ry="3.5"/>
    </clipPath>
  </defs>
  <g class="st10">
    <g>
      <g>
        <rect class="st9" x="1.2" y=".5" width="75.2" height="75.2" rx="3.5" ry="3.5"/>
        <g class="st7">
          <path class="st9" d="M-.6,77.7V0h77.7v77.7H-.6Z"/>
        </g>
      </g>
      <g>
        <path class="st5" d="M46.9-.4h30.4v77.7H-.4v-14.1c.1,0,.2.2.3.3l.3.3c.2.2.4.3.6.5l9.6,9.2c.1.1.2.2.3.2s.2,0,.3-.2l10.5-11.1c.2,0,.5,0,.7.1l9.7,2.3c.3,0,.6,0,.9.1s.3,0,.5.1l.7.2,1.9.4c.7-.5.5-.6.6-.9l.3-1.1,1.5-6.6c0-.2,0-.5.1-.7,0-.3.2-.6.2-1s.1-.5.2-.8c.1-.7.2-.8.3-1l.8-3.4.9-4.4s0-.1.1-.1,0,0,.1,0l6,5.1,8.6,7.3,15.4-18.4c0,0,.1-.2.1-.3l.7-2.5c0-.1,0-.1-.2-.2l-9.5-8.1c-.2-.2-.4-.5-.6-.5s-.3,0-.4.1l-1,.4c-.3.1-.6.1-.9.2l7.2-21.7c0-.2,0-.3.1-.5s0-.2,0-.3L46.9-.4Z"/>
        <path class="st5" d="M41-.4l-.8,1.9v.5c-.1,0-1,2.4-1,2.4l-.3.7-1.5,4-2.2,6-.6-1.3c0-.1-.2-.3-.5-.2l-16.8,7.4-.7.3c.2.1.6,0,.7.2l.2.6c0,0-.2,0-.3.1l-1,.5c-.4,0-.7,0-1.1.1-.7.3-.3-.1-1.4.5l-1,.6c-.2,0-.3.2-.4.2-.7.4-1.4.8-2,1.4l4.5,9.8-.7,2.7-3.8-3.6c-.1,0-.3-.1-.4-.2l-5.3,5.4-2,2.2.2.3h.5c0-.1,0-.3,0-.3.1,0,.3,0,.4,0-.3.3-.3.7-.4.7s-.2-.2-.5,0-.8.2-1.2.3l-1.9,1.8s-.1,0-.2.1V-.4h41.4Z"/>
        <polygon class="st5" points="46.4 26.9 42.7 31 39.7 24.6 46.4 26.9"/>
        <g class="st0">
          <g>
            <rect class="st5" x="1.2" y=".5" width="75.2" height="75.2" rx="3.5" ry="3.5"/>
            <g class="st8">
              <path class="st3" d="M-.6,77.7V0h77.7v77.7H-.6Z"/>
            </g>
            <rect class="st2" x="1.2" y=".5" width="75.2" height="75.2" rx="3.5" ry="3.5"/>
          </g>
        </g>
        <path class="st2" d="M46.9-.4h30.4v77.7H-.4v-14.1c.1,0,.2.2.3.3l.3.3c.2.2.4.3.6.5l9.6,9.2c.1.1.2.2.3.2s.2,0,.3-.2l10.5-11.1c.2,0,.5,0,.7.1l9.7,2.3c.3,0,.6,0,.9.1s.3,0,.5.1l.7.2,1.9.4c.7-.5.5-.6.6-.9l.3-1.1,1.5-6.6c0-.2,0-.5.1-.7,0-.3.2-.6.2-1s.1-.5.2-.8c.1-.7.2-.8.3-1l.8-3.4.9-4.4s0-.1.1-.1,0,0,.1,0l6,5.1,8.6,7.3,15.4-18.4c0,0,.1-.2.1-.3l.7-2.5c0-.1,0-.1-.2-.2l-9.5-8.1c-.2-.2-.4-.5-.6-.5s-.3,0-.4.1l-1,.4c-.3.1-.6.1-.9.2l7.2-21.7c0-.2,0-.3.1-.5s0-.2,0-.3L46.9-.4Z"/>
        <path class="st2" d="M41-.4l-.8,1.9v.5c-.1,0-1,2.4-1,2.4l-.3.7-1.5,4-2.2,6-.6-1.3c0-.1-.2-.3-.5-.2l-16.8,7.4-.7.3c.2.1.6,0,.7.2l.2.6c0,0-.2,0-.3.1l-1,.5c-.4,0-.7,0-1.1.1-.7.3-.3-.1-1.4.5l-1,.6c-.2,0-.3.2-.4.2-.7.4-1.4.8-2,1.4l4.5,9.8-.7,2.7-3.8-3.6c-.1,0-.3-.1-.4-.2l-5.3,5.4-2,2.2.2.3h.5c0-.1,0-.3,0-.3.1,0,.3,0,.4,0-.3.3-.3.7-.4.7s-.2-.2-.5,0-.8.2-1.2.3l-1.9,1.8s-.1,0-.2.1V-.4h41.4Z"/>
        <polygon class="st2" points="46.4 26.9 42.7 31 39.7 24.6 46.4 26.9"/>
      </g>
    </g>
  </g>
</svg>