<?xml version="1.0" encoding="UTF-8"?>
<svg id="Layer_1" xmlns="http://www.w3.org/2000/svg" version="1.1" xmlns:xlink="http://www.w3.org/1999/xlink" viewBox="0 0 77 77">
  <!-- Generator: Adobe Illustrator 30.2.1, SVG Export Plug-In . SVG Version: 2.1.1 Build 1)  -->
  <defs>
    <style>
      .st0 {
        fill: none;
      }

      .st1 {
        clip-path: url(#clippath-1);
      }

      .st2 {
        fill: #f5f5f5;
        stroke: #f5f5f5;
      }

      .st3 {
        fill: #bcbcbc;
      }

      .st4 {
        clip-path: url(#clippath);
      }
    </style>
    <clipPath id="clippath">
      <rect class="st3" x="1.2" y=".5" width="75.2" height="75.2" rx="3.5" ry="3.5"/>
    </clipPath>
    <clipPath id="clippath-1">
      <rect class="st0" x="1.2" y=".5" width="75.2" height="75.2" rx="3.5" ry="3.5"/>
    </clipPath>
  </defs>
  <g>
    <rect class="st3" x="1.2" y=".5" width="75.2" height="75.2" rx="3.5" ry="3.5"/>
    <g class="st4">
      <path class="st3" d="M-.6,77.7V0h77.7v77.7H-.6Z"/>
    </g>
  </g>
  <g class="st1">
    <path class="st2" d="M-.6,77.7V0h77.7v77.7H-.6ZM27.6,42.3h.6c0,0,.6,0,.6,0,.5,0,.9,0,1.4-.1s.3,0,.5,0h.8c0,0,1-.1,1-.1h.6c0,0,1.3-.2,1.3-.2h.8s.6,0,.6,0h.7c0,0,.7-.1.7-.1h1.4c0-.1.6-.1.6-.1h.5s.9-.1.9-.1h.7c0,0,.2,0,.2,0s0-.2,0-.2v-.8c0,0-.2-1.5-.2-1.5v-.8s0-.6,0-.6v-.6s0-.7,0-.7v-.6c0,0,0-.5,0-.5v-.6s0-.7,0-.7v-.8c0,0,0-.5,0-.5v-.6c0,0-.1-.5-.1-.5v-.7s0-.5,0-.5v-.6c0,0,0-.5,0-.5,0-.2,0-.5,0-.7l-4.5-3.3c-.3,0-.6,0-.9,0s-.5,0-.8,0h-.8c-.1,0-.3,0-.4,0l-1.6-3.7-.4-1-1.1-2.6c0-.2-.1-.4-.3-.5-.2-.1-.4,0-.6.1l-.8.3-1.4.5-1.6.7-2,.8-1.3.6-1,.4-1.9.8-2.5,1-2.4,1s-.1.1-.1.2,0,.1.1.2l.6,1.5.8,2.1.5,1.4.4,1.1.7,1.9,1.1,2.6c.1.3.2.6.4,1s.1.3.1.5l-3.9-.4-5-.5c-.1,0-.2,0-.3,0l-1.9,17.3c.5.2,1,.2,1.5.2h.6c0,0,.6.1.6.1h.6s.5,0,.5,0c.5,0,1,0,1.6.2s.5,0,.7,0h.6c0,0,.7.1.7.1h1.4c0,.1,2.2.3,2.2.3h.6c0,0,.6.1.6.1h1.1c0,0,.5.1.5.1.1-1.3.4-2.6,1.1-3.7s1.7-2.2,3.5-2.3c0-.3,0-.7.1-1v-1.4c.1,0,.2-.6.2-.6v-.8c.1-.4.2-.7.2-1s0-.2.2-.2c.3,0,.5,0,.8,0ZM37.3,68.7h.4c.2,0,.5,0,.7,0s.4,0,.6,0h1c.2,0,.5,0,.7,0s.5,0,.7,0h1s1.4,0,1.4,0h1.6s1.5,0,1.5,0c.2,0,.4,0,.6,0s.4,0,.6,0h1c.4,0,.7,0,1.1,0h.4s2,0,2,0h2c.3,0,.6,0,.9,0l.5-12.7c.3,0,.6-.1,1-.2l1.4-.3,1.8-.3.8-.2c.2,0,.5,0,.7,0s.7-.2,1-.3l1.2-.2.9-.2.8-.2.9-.2h.5c0-.1,1.4-.4,1.4-.4l2.2-.4c0,0,.2-.1.2-.2v-.2s-.3-1.2-.3-1.2l-.4-1.5-.3-1.2v-.6c-.1,0-.7-2.6-.7-2.6v-.5c-.1,0-.4-1.3-.4-1.3v-.5c-.1,0-1-3.7-1-3.7v-.4c0,0-.4-1.5-.4-1.5l-.2-.8-.2-.8c0-.1-.1-.3-.3-.2l-1.7.3-3.7.7-2,.4-1.7.3-1,.2-3.8.7-2.7.5c0,0,0,.2,0,.3l.2,1.1.2,1.1.6,2.7,1.2,6.1h-2s-.7,0-.7,0c-.2,0-.3,0-.5,0h-.5c-.1,0-.3,0-.5-.1h-1s-1.6,0-1.6,0c-.1,0-.3,0-.4,0h-1.2c-.2,0-.4,0-.6,0h-.6s-2.4,0-2.4,0c-.2,0-.4,0-.5,0h-1c-.1,0-.3,0-.3.2,0,.5,0,1.1-.1,1.6v.6s0,.6,0,.6v.5s0,1.3,0,1.3v1.4s0,.3,0,.3c0-.2,0,2,0,2,0,.2,0,.5,0,.7v.7c0,.2,0,.4,0,.6v.6s0,1,0,1c0,.2,0,.5,0,.7s0,.5,0,.7v.9c0,.2,0,1-.1,1.2v1.2c0,.3,0,.7,0,1ZM22.6,52.7c-.1.2,0,.5,0,.8.5.1,2,.3,2.4.2s.2-.2.2-.4l.5-4c0-.4.2-.8.1-1.1-.4.2-.8.3-1.3.3-.1.3-.3.5-.5.8s-.3.3-.5.4v.4c-.1.4-.2.8-.5,1.1v.9c-.1,0-.4.8-.4.8Z"/>
  </g>
</svg>