<?xml version="1.0" encoding="UTF-8"?>
<svg id="Layer_1" data-name="Layer 1" xmlns="http://www.w3.org/2000/svg" width="493.75" height="370.44" viewBox="0 0 493.75 370.44">
  <defs>
    <style>
      .cls-1 {
        fill: #c4c4c4;
      }
    </style>
  </defs>
  <path class="cls-1" d="m246.73,370.24c-66.03,0-132.05-.39-198.07.19C22.92,370.66-.18,351.05,0,321.97c.31-49.07.06-98.14.05-147.22,0-27.1-.01-54.19,0-81.29.01-15.15.36-30.3.06-45.44C-.42,20.24,22.06-.06,48.14,0c125.22.29,250.45.13,375.67.13,8.11,0,16.22-.12,24.32.05,16.2.34,28.73,7.54,37.91,20.76,5.33,7.68,7.71,16.22,7.71,25.55-.03,92.49-.02,184.98-.02,277.48,0,25.58-20.72,46.23-46.36,46.23-66.88,0-133.76,0-200.64,0v.04Zm216-138.87c0-1.71,0-2.76,0-3.81,0-60.05.02-120.1.01-180.15,0-10.04-6.53-16.48-16.69-16.48-42.23,0-84.47.03-126.7.04-90.44,0-180.88,0-271.32,0-10.58,0-16.93,6.36-16.95,16.87-.03,14.71-.15,29.43-.14,44.14.03,70.82.09,141.63.14,212.45,0,1.1,0,2.2,0,4.02,1.44-1.23,2.24-1.9,3.02-2.59,26.04-23.17,52.07-46.33,78.1-69.5,6.96-6.19,13.51-6.6,21.72-1.14,14.21,9.43,28.39,18.91,42.58,28.36,12.5,8.33,25,16.66,37.64,25.08,1.02-.95,1.96-1.79,2.85-2.69,36.85-36.89,73.7-73.78,110.56-110.66,6.18-6.19,12.28-7.32,19.98-3.36,28.58,14.68,57.12,29.44,85.68,44.18,9.63,4.97,19.26,9.94,29.54,15.25Z"/>
  <polygon class="cls-1" points="255.66 108.81 203.03 108.81 203.03 56.19 153.32 56.19 153.32 108.81 100.7 108.81 100.7 158.52 153.32 158.52 153.32 211.15 203.03 211.15 203.03 158.52 255.66 158.52 255.66 108.81"/>
</svg>