<?xml version="1.0" encoding="utf-8"?>
<!-- Generator: Adobe Illustrator 26.2.1, SVG Export Plug-In . SVG Version: 6.00 Build 0)  -->
<svg version="1.1" id="a" xmlns="http://www.w3.org/2000/svg" xmlns:xlink="http://www.w3.org/1999/xlink" x="0px" y="0px"
	 width="241.9px" height="32px" viewBox="0 0 241.9 32" style="enable-background:new 0 0 241.9 32;" xml:space="preserve">
<style type="text/css">
	.st0{fill:#36B5B2;}
	.st1{fill:#EB743B;}
</style>
<g>
	<polygon class="st0" points="14,1 2,8 2,22 14,29 	"/>
	<polygon class="st1" points="15,1 27,8 27,22 15,29 	"/>
</g>
<g>
	<path class="st0" d="M54.1,17.3c-0.1,1.6-0.5,3-1.3,4.2s-1.9,2.1-3.3,2.8s-3,1-4.8,1c-3,0-5.3-1-7-2.9c-1.7-2-2.6-4.7-2.6-8.2V13
		c0-2.2,0.4-4.2,1.2-5.8c0.8-1.7,1.9-3,3.3-3.9S42.7,2,44.6,2c2.8,0,5,0.7,6.7,2.2c1.7,1.5,2.6,3.5,2.9,6h-5.5c0-1.4-0.4-2.4-1-3
		s-1.7-0.9-3-0.9s-2.4,0.5-3,1.5s-1,2.7-1,4.9v1.6c0,2.4,0.3,4.2,0.9,5.2s1.7,1.6,3.1,1.6c1.3,0,2.2-0.3,2.9-0.9s1-1.5,1.1-2.8H54.1
		L54.1,17.3z"/>
	<path class="st0" d="M66.7,12.9l-1.7-0.1c-1.7,0-2.7,0.5-3.2,1.6V25h-5.3V8.1h4.9l0.2,2.2c0.9-1.6,2.1-2.5,3.7-2.5
		c0.6,0,1.1,0.1,1.5,0.2L66.7,12.9L66.7,12.9z"/>
	<path class="st0" d="M68.5,3.7c0-0.8,0.3-1.4,0.8-1.9s1.2-0.7,2.1-0.7s1.6,0.2,2.1,0.7s0.8,1.1,0.8,1.9s-0.3,1.4-0.8,1.9
		s-1.2,0.7-2.1,0.7s-1.6-0.2-2.1-0.7S68.5,4.5,68.5,3.7z M74.1,25h-5.3V8.1h5.3V25z"/>
	<path class="st0" d="M83.5,3.9v4.2h2.8v3.7h-2.8v7.7c0,0.6,0.1,1.1,0.3,1.3c0.2,0.2,0.7,0.4,1.4,0.4c0.5,0,1,0,1.3-0.1v3.8
		c-0.9,0.3-1.9,0.5-3,0.5c-1.8,0-3.2-0.4-4-1.3s-1.3-2.1-1.3-3.9v-8.4H76V8.1h2.2V3.9H83.5L83.5,3.9z"/>
	<path class="st0" d="M88.3,3.7c0-0.8,0.3-1.4,0.8-1.9s1.2-0.7,2.1-0.7s1.6,0.2,2.1,0.7s0.8,1.1,0.8,1.9s-0.3,1.4-0.8,1.9
		s-1.2,0.7-2.1,0.7s-1.6-0.2-2.1-0.7S88.3,4.5,88.3,3.7z M93.9,25h-5.3V8.1h5.3V25z"/>
	<path class="st0" d="M96.4,16.4c0-2.7,0.6-4.8,1.8-6.3s2.8-2.3,4.8-2.3c1.7,0,3.1,0.7,4.2,2.1l0.4-1.8h4.6v23.4h-5.3v-7.9
		c-1,1.1-2.3,1.7-3.8,1.7c-2,0-3.6-0.8-4.8-2.3C97,21.5,96.4,19.2,96.4,16.4L96.4,16.4z M101.7,16.7c0,3,0.9,4.5,2.6,4.5
		c1.2,0,2-0.5,2.5-1.4v-6.7c-0.4-0.9-1.3-1.3-2.5-1.3c-1.6,0-2.5,1.3-2.6,3.9L101.7,16.7L101.7,16.7z"/>
	<path class="st0" d="M125.1,23.2c-1.1,1.4-2.6,2.1-4.5,2.1s-3.2-0.5-4.2-1.6c-0.9-1.1-1.4-2.6-1.4-4.6V8.1h5.3v11
		c0,1.5,0.7,2.2,2.1,2.2c1.2,0,2.1-0.4,2.6-1.3V8.1h5.3V25h-4.9L125.1,23.2z"/>
	<path class="st0" d="M141.3,25.3c-2.6,0-4.7-0.8-6.3-2.3c-1.6-1.5-2.4-3.6-2.4-6v-0.4c0-1.7,0.3-3.2,1-4.6s1.6-2.3,2.8-3.1
		c1.2-0.7,2.7-1.1,4.4-1.1c2.4,0,4.2,0.7,5.6,2.2s2.1,3.5,2.1,6.2v2h-10.5c0.2,1,0.6,1.7,1.2,2.2s1.5,0.8,2.5,0.8
		c1.7,0,3-0.6,3.9-1.8l2.4,2.8c-0.7,0.9-1.6,1.6-2.8,2.2C143.9,25,142.6,25.3,141.3,25.3L141.3,25.3z M140.7,11.9
		c-1.5,0-2.5,1-2.8,3.1h5.3v-0.4c0-0.8-0.2-1.5-0.6-2S141.5,11.9,140.7,11.9L140.7,11.9z"/>
	<path class="st1" d="M150.7,25V2.3h8.2c2.9,0,5.1,0.5,6.7,1.6s2.3,2.6,2.3,4.7c0,1.2-0.3,2.2-0.8,3s-1.3,1.4-2.4,1.8
		c1.2,0.3,2.1,0.9,2.7,1.8c0.6,0.9,0.9,1.9,0.9,3.1c0,2.2-0.7,3.9-2.1,5S162.7,25,160,25L150.7,25L150.7,25z M156.2,11.8h2.9
		c1.2,0,2.1-0.2,2.6-0.7s0.8-1.1,0.8-1.9c0-1-0.3-1.7-0.8-2.1s-1.4-0.6-2.7-0.6h-2.7V11.8L156.2,11.8z M156.2,15.3v5.5h3.6
		c1,0,1.8-0.2,2.3-0.7s0.8-1.1,0.8-1.9c0-1.9-0.9-2.9-2.8-2.9C160.1,15.3,156.2,15.3,156.2,15.3z"/>
	<path class="st1" d="M181.3,12.9l-1.7-0.1c-1.6,0-2.7,0.5-3.2,1.6V25h-5.3V8.1h4.9l0.2,2.2c0.9-1.6,2.1-2.5,3.7-2.5
		c0.6,0,1.1,0.1,1.5,0.2L181.3,12.9L181.3,12.9z"/>
	<path class="st1" d="M192.3,25c-0.2-0.3-0.4-0.9-0.5-1.5c-1,1.2-2.3,1.8-4.1,1.8c-1.6,0-2.9-0.5-4.1-1.4c-1.1-1-1.7-2.2-1.7-3.6
		c0-1.8,0.7-3.2,2-4.1c1.4-0.9,3.3-1.4,5.9-1.4h1.6v-0.9c0-1.6-0.7-2.3-2-2.3c-1.2,0-1.9,0.6-1.9,1.9h-5.3c0-1.6,0.7-3,2.1-4
		c1.4-1,3.2-1.5,5.3-1.5s3.9,0.5,5.1,1.6c1.2,1.1,1.9,2.5,1.9,4.3v7.5c0,1.5,0.3,2.7,0.7,3.6V25L192.3,25L192.3,25z M189,21.6
		c0.7,0,1.2-0.1,1.6-0.4c0.4-0.3,0.7-0.6,0.9-1v-2.7H190c-1.8,0-2.8,0.8-2.8,2.5c0,0.5,0.2,0.9,0.5,1.2
		C188.1,21.4,188.5,21.6,189,21.6L189,21.6z"/>
	<path class="st1" d="M199.7,3.7c0-0.8,0.3-1.4,0.8-1.9s1.2-0.7,2.1-0.7s1.6,0.2,2.1,0.7s0.8,1.1,0.8,1.9s-0.3,1.4-0.8,1.9
		s-1.2,0.7-2.1,0.7s-1.6-0.2-2.1-0.7S199.7,4.5,199.7,3.7z M205.3,25H200V8.1h5.3V25z"/>
	<path class="st1" d="M213.3,8.1l0.2,2c1.2-1.5,2.8-2.3,4.8-2.3c1.8,0,3.1,0.5,3.9,1.6s1.3,2.6,1.4,4.8V25h-5.3V14.3
		c0-0.9-0.2-1.5-0.5-1.9c-0.3-0.4-1-0.6-1.9-0.6c-1,0-1.8,0.4-2.3,1.2V25h-5.3V8.1H213.3L213.3,8.1z"/>
	<path class="st1" d="M232.7,20.9h7.7V25h-14.3v-2.9l7.5-9.9h-7.2V8.1h13.8V11L232.7,20.9L232.7,20.9z"/>
</g>
</svg>
