<?xml version="1.0" encoding="UTF-8" standalone="no"?><!DOCTYPE svg PUBLIC "-//W3C//DTD SVG 1.1//EN" "http://www.w3.org/Graphics/SVG/1.1/DTD/svg11.dtd"><!-- Generated by graphviz version 2.40.1 (20161225.0304)
 --><!-- Title: G Pages: 1 --><svg xmlns="http://www.w3.org/2000/svg" xmlns:xlink="http://www.w3.org/1999/xlink" width="974pt" height="251pt" viewBox="0.00 0.00 974.02 250.78">
<g id="graph0" class="graph" transform="scale(1 1) rotate(0) translate(4 246.783)">
<title>G</title>
<g id="a_graph0"><a xlink:title=" ">
<polygon fill="#ffffff" stroke="transparent" points="-4,4 -4,-246.783 970.023,-246.783 970.023,4 -4,4"/>
</a>
</g>
<!-- Listens -->
<g id="node1" class="node">
<title>Listens</title>
<polygon fill="none" stroke="#000000" points="0,-143.083 0,-242.283 153.613,-242.283 153.613,-143.083 0,-143.083"/>
<text text-anchor="middle" x="76.8065" y="-225.683" font-family="Times,serif" font-size="14.00" fill="#000000">ListenBrainz API</text>
<polyline fill="none" stroke="#000000" points="0,-217.483 153.613,-217.483 "/>
<text text-anchor="middle" x="76.8065" y="-200.883" font-family="Times,serif" font-size="14.00" fill="#000000">Spotify Reader</text>
<polyline fill="none" stroke="#000000" points="0,-192.683 153.613,-192.683 "/>
<text text-anchor="middle" x="76.8065" y="-176.083" font-family="Times,serif" font-size="14.00" fill="#000000">API Compat</text>
<polyline fill="none" stroke="#000000" points="0,-167.883 153.613,-167.883 "/>
<text text-anchor="middle" x="76.8065" y="-151.283" font-family="Times,serif" font-size="14.00" fill="#000000">API Compat Deprecated</text>
</g>
<!-- Playing Now -->
<g id="node2" class="node">
<title>Playing Now</title>
<polygon fill="none" stroke="#000000" points="277.9119,-238.683 190.8136,-220.683 277.9119,-202.683 365.0103,-220.683 277.9119,-238.683"/>
<text text-anchor="middle" x="277.9119" y="-216.483" font-family="Times,serif" font-size="14.00" fill="#000000">Playing Now</text>
</g>
<!-- Listens&#45;&gt;Playing Now -->
<g id="edge5" class="edge">
<title>Listens-&gt;Playing Now</title>
<path fill="none" stroke="#000000" d="M153.6967,-203.3884C174.1869,-206.2413 196.067,-209.2876 215.6646,-212.0162"/>
<polygon fill="#000000" stroke="#000000" points="215.2982,-215.4989 225.6853,-213.4114 216.2636,-208.5658 215.2982,-215.4989"/>
</g>
<!-- Incoming -->
<g id="node6" class="node">
<title>Incoming</title>
<polygon fill="none" stroke="#000000" points="277.9119,-184.683 210.0124,-166.683 277.9119,-148.683 345.8114,-166.683 277.9119,-184.683"/>
<text text-anchor="middle" x="277.9119" y="-162.483" font-family="Times,serif" font-size="14.00" fill="#000000">Incoming</text>
</g>
<!-- Listens&#45;&gt;Incoming -->
<g id="edge6" class="edge">
<title>Listens-&gt;Incoming</title>
<path fill="none" stroke="#000000" d="M153.6967,-182.7422C176.4713,-179.7978 200.9629,-176.6313 222.129,-173.8949"/>
<polygon fill="#000000" stroke="#000000" points="222.7617,-177.3423 232.2304,-172.5889 221.8641,-170.4001 222.7617,-177.3423"/>
</g>
<!-- Websockets -->
<g id="node3" class="node">
<title>Websockets</title>
<ellipse fill="none" stroke="#000000" cx="897.3326" cy="-220.683" rx="57.8849" ry="18"/>
<text text-anchor="middle" x="897.3326" y="-216.483" font-family="Times,serif" font-size="14.00" fill="#000000">Websockets</text>
</g>
<!-- Playing Now&#45;&gt;Websockets -->
<g id="edge1" class="edge">
<title>Playing Now-&gt;Websockets</title>
<path fill="none" stroke="#000000" d="M365.0188,-220.683C489.5864,-220.683 716.0271,-220.683 829.1717,-220.683"/>
<polygon fill="#000000" stroke="#000000" points="829.4306,-224.1831 839.4305,-220.683 829.4305,-217.1831 829.4306,-224.1831"/>
</g>
<!-- Unique -->
<g id="node4" class="node">
<title>Unique</title>
<polygon fill="none" stroke="#000000" points="735.8322,-184.683 680.2115,-166.683 735.8322,-148.683 791.4529,-166.683 735.8322,-184.683"/>
<text text-anchor="middle" x="735.8322" y="-162.483" font-family="Times,serif" font-size="14.00" fill="#000000">Unique</text>
</g>
<!-- Unique&#45;&gt;Websockets -->
<g id="edge3" class="edge">
<title>Unique-&gt;Websockets</title>
<path fill="none" stroke="#000000" d="M763.2285,-175.8433C786.4132,-183.5954 820.219,-194.8989 848.0874,-204.2171"/>
<polygon fill="#000000" stroke="#000000" points="847.0763,-207.5694 857.6701,-207.4212 849.2961,-200.9307 847.0763,-207.5694"/>
</g>
<!-- MBID Mapper -->
<g id="node5" class="node">
<title>MBID Mapper</title>
<ellipse fill="none" stroke="#000000" cx="897.3326" cy="-166.683" rx="68.8813" ry="18"/>
<text text-anchor="middle" x="897.3326" y="-162.483" font-family="Times,serif" font-size="14.00" fill="#000000">MBID Mapper</text>
</g>
<!-- Unique&#45;&gt;MBID Mapper -->
<g id="edge2" class="edge">
<title>Unique-&gt;MBID Mapper</title>
<path fill="none" stroke="#000000" d="M791.8639,-166.683C800.469,-166.683 809.4885,-166.683 818.4767,-166.683"/>
<polygon fill="#000000" stroke="#000000" points="818.5876,-170.1831 828.5876,-166.683 818.5875,-163.1831 818.5876,-170.1831"/>
</g>
<!-- Incoming&#45;&gt;Unique -->
<!-- MessyBrainz -->
<g id="node7" class="node">
<title>MessyBrainz</title>
<ellipse fill="none" stroke="#000000" cx="277.9119" cy="-94.683" rx="61.975" ry="18"/>
<text text-anchor="middle" x="277.9119" y="-90.483" font-family="Times,serif" font-size="14.00" fill="#000000">MessyBrainz</text>
</g>
<!-- Incoming&#45;&gt;MessyBrainz -->
<!-- Timescale Writer -->
<g id="node8" class="node">
<title>Timescale Writer</title>
<ellipse fill="none" stroke="#000000" cx="564.6912" cy="-114.683" rx="78.1622" ry="18"/>
<text text-anchor="middle" x="564.6912" y="-110.483" font-family="Times,serif" font-size="14.00" fill="#000000">Timescale Writer</text>
</g>
<!-- Incoming&#45;&gt;Timescale Writer -->
<g id="edge11" class="edge">
<title>Incoming-&gt;Timescale Writer</title>
<path fill="none" stroke="#000000" d="M318.3922,-159.3429C363.6686,-151.1332 437.8774,-137.6774 493.024,-127.6779"/>
<polygon fill="#000000" stroke="#000000" points="493.8729,-131.0812 503.088,-125.8531 492.624,-124.1935 493.8729,-131.0812"/>
</g>
<!-- MessyBrainz&#45;&gt;Timescale Writer -->
<g id="edge7" class="edge">
<title>MessyBrainz-&gt;Timescale Writer</title>
<path fill="none" stroke="#000000" d="M338.38,-98.9C379.3243,-101.7555 434.012,-105.5694 479.3711,-108.7327"/>
<polygon fill="#000000" stroke="#000000" points="479.2733,-112.2343 489.4926,-109.4386 479.7604,-105.2513 479.2733,-112.2343"/>
<text text-anchor="middle" x="425.7856" y="-110.883" font-family="Times,serif" font-size="14.00" fill="#000000">MSIDs</text>
</g>
<!-- Database -->
<g id="node9" class="node">
<title>Database</title>
<ellipse fill="none" stroke="#000000" cx="277.9119" cy="-22.683" rx="46.345" ry="18"/>
<text text-anchor="middle" x="277.9119" y="-18.483" font-family="Times,serif" font-size="14.00" fill="#000000">Database</text>
</g>
<!-- MessyBrainz&#45;&gt;Database -->
<!-- Timescale Writer&#45;&gt;Unique -->
<g id="edge14" class="edge">
<title>Timescale Writer-&gt;Unique</title>
<path fill="none" stroke="#000000" d="M612.3635,-129.1679C639.0504,-137.2765 671.9002,-147.2577 697.0054,-154.8857"/>
<polygon fill="#000000" stroke="#000000" points="696.3192,-158.3351 706.9048,-157.8936 698.3543,-151.6375 696.3192,-158.3351"/>
</g>
<!-- Timescale Writer&#45;&gt;MessyBrainz -->
<g id="edge9" class="edge">
<title>Timescale Writer-&gt;MessyBrainz</title>
<path fill="none" stroke="#000000" d="M528.4123,-98.6897C510.6807,-91.7245 488.8026,-84.3652 468.3603,-80.883 425.6441,-73.6064 376.8986,-77.3582 339.4169,-82.7734"/>
<polygon fill="#000000" stroke="#000000" points="338.5166,-79.3702 329.1583,-84.3371 339.5715,-86.2902 338.5166,-79.3702"/>
<text text-anchor="middle" x="425.7856" y="-84.883" font-family="Times,serif" font-size="14.00" fill="#000000">Metadata</text>
</g>
<!-- Timescale Writer&#45;&gt;Database -->
<g id="edge10" class="edge">
<title>Timescale Writer-&gt;Database</title>
<path fill="none" stroke="#000000" d="M554.1337,-96.4479C538.8255,-72.0577 507.9186,-29.9118 468.3603,-12.883 422.4819,6.8665 364.5346,-.0653 324.6772,-9.0896"/>
<polygon fill="#000000" stroke="#000000" points="323.6103,-5.746 314.6997,-11.4776 325.2397,-12.5538 323.6103,-5.746"/>
<text text-anchor="middle" x="425.7856" y="-17.883" font-family="Times,serif" font-size="14.00" fill="#000000">Insert Listens</text>
</g>
<!-- Database&#45;&gt;Timescale Writer -->
<g id="edge8" class="edge">
<title>Database-&gt;Timescale Writer</title>
<path fill="none" stroke="#000000" d="M323.8117,-25.8393C363.1968,-29.675 420.935,-38.0152 468.3603,-55.883 491.523,-64.6097 515.2833,-79.0422 533.411,-91.4241"/>
<polygon fill="#000000" stroke="#000000" points="531.6276,-94.4477 541.8302,-97.3038 535.6356,-88.7086 531.6276,-94.4477"/>
<text text-anchor="middle" x="425.7856" y="-59.883" font-family="Times,serif" font-size="14.00" fill="#000000">Unique Listens</text>
</g>
</g>
</svg>